<svg xmlns="http://www.w3.org/2000/svg" xml:space="preserve" id="svg55" width="313.6" height="472.037" version="1.1" viewBox="0 0 313.6 472.037"><style id="style1" type="text/css">.st0{fill:#fff}.st1{fill:#b39461}.st2{fill:#0077be}.st3{fill:#00803d}.st4{fill:#fff;stroke:#b39461;stroke-width:.8748;stroke-miterlimit:10}</style><g id="g55" transform="translate(-137.5 -260.2)"><path id="path1" fill="#fff" d="m391.48 267.74-248.92-2.121 1.978 243.83z" class="st0"/><path id="path16" d="m445.78 613.15-2.06-191.96-217.97 219.57c6.9 0 16.9 1.863 20.9 2.263 2.1.2 4.413.525 6.013.925 1.4.3 4.4 1.1 6.5 1.9 3.2 1.2 6.738-1.65 9.338.05 4.3 2.6 7.7 5.7 10.1 8.2 1.8 1.9 4.5 5.6 7.1 9.2 4.4 5.9 8.7 11.8 8.7 11.8 2.7-3.7 5.4-7.4 7.8-10.6 3.5-4.8 6.5-8.9 9.5-11.9 2.1-2.2 4.6-4.2 6.6-5.5 1.4-1 9.925-.7 17.225-2.4 5-1.2 6.487-3.192 16.587-3.105l63.888.554c15.5-.1 29.875-13.6 29.775-29z" class="st2"/><path id="path17" d="M389.3 267.8c-80.622 80.245-163.65 160.08-244.1 240.5l-3.75 105.75c-.539 15.19 12.4 27.5 27.6 27.5L228 639.7 443.7 424l.875-157.45Z" class="st3"/><path id="path18" d="M298.8 304.1c-3.5 0-6.3 2.8-6.3 6.3v.4h.1-.1l1.6 10.9h-3.6l1.6-10.9v-.4c0-3.5-2.8-6.3-6.3-6.3s-6.3 2.8-6.3 6.3c0 .7.5 1.2 1.2 1.2s1.2-.5 1.2-1.2c0-2.2 1.8-3.9 3.9-3.9 2.2 0 3.9 1.8 3.9 3.9v.1l-1.8 12.2c-.1.3.1.7.3 1s.6.4.9.4h6.2c.3 0 .7-.2.9-.4.2-.3.3-.6.3-1l-1.8-12.3v-.1c0-2.2 1.8-3.9 3.9-3.9s3.9 1.8 3.9 3.9c0 .7.5 1.2 1.2 1.2s1.2-.5 1.2-1.2c.2-3.4-2.6-6.2-6.1-6.2m-9 6.7" class="st1"/><path id="path19" d="M289 310.3c-.3-1.3-1.5-2.2-2.9-2.2s-2.6.9-2.9 2.2c.3 1.3 1.5 2.2 2.9 2.2 1.4.1 2.5-.9 2.9-2.2" class="st1"/><path id="path20" d="M298.6 308.1c-1.4 0-2.6.9-2.9 2.2.3 1.3 1.5 2.2 2.9 2.2s2.6-.9 2.9-2.2c-.3-1.2-1.4-2.2-2.9-2.2" class="st1"/><path id="path21" d="M292.3 326.8c-1.9 0-3.4.8-3.9 1.9h7.7c-.3-1.1-1.9-1.9-3.8-1.9" class="st1"/><path id="path22" d="M292.3 331.8c2.3 0 4.1-1 4.6-2.3h-9.3c.6 1.3 2.5 2.3 4.7 2.3" class="st1"/><path id="path23" d="M137.5 260.2v351c0 19.9 16.2 36.1 36.1 36.1h69.9c12.5 0 24.4 6 31.7 16.1l19.1 26.2 19.1-26.2c7.4-10.1 19.2-16.1 31.7-16.1H415c19.9 0 36.1-16.2 36.1-36.1v-351zm144 127.6-5.4 5.9-3-6.3 2.2-1.4c.7-.4 1.1-1.1 1.1-1.6l-.2-3.5c0-.9-1.3-1.2-2.4-.5l-3.1 2-4.5-9.3.3-.1c.5-.2.7-.9.5-1.4l-3.3-6.7c-.2-.5-.9-.7-1.4-.5l-7.8 3.9c-.5.2-.7.9-.5 1.4l3.3 6.7c.2.5.9.7 1.4.5l.8-.4 4.9 9.5-3.8 1.9c-1.2.6-1.6 1.8-.9 2.3l2.9 2c.5.3 1.2.3 2-.1l2.3-1.1 12.5 24.4c-2.1.5-4 1-5.1 1.1l-.5.1c-3.5.4-7.4.8-9.3-1.5-1.1-1.4-2.2-5.5-3-8.5-.4-1.5-.7-2.8-1-3.7-.1-.2-.2-.6-.3-1q-.3-1.2-.6-2.1l.6-.1c.6-.1 1-.6.9-1.2l-.5-4c-.1-.6-.6-1-1.2-.9h-.2c-.1-2.8-.8-6.3-1.5-8.4-.2-.6-.9-1-1.5-.8s-1 .9-.8 1.5c.7 2.1 1.3 5.5 1.4 7.9l-15.3 2.1c0-.2-.1-.5-.2-.7-.4-.8-.7-1.8-.7-2.7l-1-9.7c-.4-6.4.9-11.2 3.8-14.2 2.4-2.5 5.9-3.7 9.6-5 .9-.3 1.8-.6 2.6-.9 3.4-1.3 6.9-3.1 10.3-5.3l12.9 11.7c-1.3 2.3-2 4.9-2 7.6-.1 4.2 1.8 8.2 4.7 11.1m19.4 7.8c-.4-1.1-1.6-2.1-2.9-1.8-.9.2-1.6 1-1.9 1.9l-.2.8c-.1.4-.2.8-.3 1.1-3.2 12.7-6.6 14.7-6.7 14.8s-.3.2-.4.3c-.5.1-1.2.4-2.2.6-.2.1-.4.1-.7.2l-8.4-17.4 6.1-6.7c2.6 1.8 5.7 2.9 9.1 2.9 4.7 0 8.9-2.1 11.8-5.4l9.3 8.5c-.5 0-1.1.1-1.9.6-3.8 2-7.9 4.8-8 4.9-1 .6-2.1 1.2-2.9 1.5 0-1 .1-2.6.1-3.5.2-2.3.3-2.9.1-3.3m-8.4-9.9c-5.1 0-9.3-4.2-9.3-9.3s4.2-9.3 9.3-9.3 9.3 4.2 9.3 9.3c0 5.2-4.2 9.3-9.3 9.3M241.1 402l15.9-2.1c.3.3.6 1.7.8 2.3.1.4.2.8.3 1.1.3.8.6 2.1 1 3.5.9 3.6 2 7.7 3.4 9.5 1.8 2.1 4.4 2.7 7.1 2.7 1.4 0 2.9-.2 4.3-.3l.5-.1c2.6-.3 8.8-2.1 12.5-3.1 1-.3 1.8-.5 2.3-.6.2-.1.4-.2.5-.3.7-.3 4.6-2.4 8.1-16.4.1-.3.2-.6.3-1l.2-.8c0-.1.1-.2.1-.2.1 0 .1.1.2.1 0 .3 0 1.5-.1 2.4-.2 4.1-.2 5.3.5 5.9.2.2.6.4.9.4s1.1.1 5.1-2.2c0 0 4.2-2.8 7.8-4.8.6-.3.8-.3 1-.2.3.2.8.7 1.5.6s1.3.1 1.4.2l.2.2c-.1.5.1 1 .6 1.3q.6.3 1.2 0 .3.15.6.6c0 .1-.2.4-.7.7-.3.2-.5.6-.5 1s.2.8.5 1c.2.2.5.5.7.9-.8.7-1.8 1.5-2.3 1.8s-.7.8-.5 1.4c.1.4.3.7.5 1-.1.2-.4.5-.6.6-5.5 5-11.6 8.6-18 12.4-1.6.9-3.2 1.9-4.8 2.8-1.2.5-2.3 1.1-3.4 1.6-9.3 4.5-15.7 5.8-29.2 6.6-7.1.5-16.7-4.1-17.4-10.7l-2.5-14.3c-.1-1.9-.2-3.7 0-5.5m65.8 17.1-4.7 13.9c-1 .6-3.4 2-5.5 3.3l-5.2-8.4c1.1-.5 2.3-1.1 3.4-1.6h.1c1.6-1 3.2-1.9 4.8-2.9 2.4-1.5 4.8-2.9 7.1-4.3M280.6 446l-8.2 4.6c-1 .7-2.3 1.8-2.8 3.3-.3 1-.2 2.2.4 3.1 0 .1.1.1.2.2-.2.3-.5.6-.7.9-.6 1.2-.5 2.6.4 3.5.5.5 1.1.7 1.8.7.3.4.7.7 1.1.8 1.1.3 2.1-.1 2.6-.4.7-.3 1.1-.5 1.5-.7.1.2.2.4.4.6.4.4.9.8 1.9.8.5 0 1.1-.1 1.9-.4l16.7-6.7s.1 0 .1-.1l12.3 16.1c.1.1.3 0 .2-.1l-7.5-18.9.2-.2c.6-.5 1.1-.9 1.7-1.4 2.8-2.3 5.6-4.7 9-6.1l8.1-5c.1-.1.6-.4 1.3-.9l.8 4.2c0 .1 2.6 13 2.6 22.7 0 8-2.7 8.4-7.2 9l-1.3.2c-4.9.7-9.3 1.5-12.8 2.3-5.7 1.3-8.3 3.8-9.6 5.9-1.2-2.1-3.9-4.7-9.6-5.9-3.6-.8-7.9-1.6-12.8-2.3l-1.3-.2c-4.5-.6-7.2-.9-7.2-9 0-9.7 2.5-22.6 2.6-22.7l1.7-8.3c6.5-1.1 11.5-3 16.6-5.3l4.2 8.7c-3.8.9-9.2 1.8-10.5 2.6-3.4 2.3 1.2 4.4 1.2 4.4m-18.3-1.9c.9-3.2 1.6-5.8 1.9-7 .1-.2.1-.4.1-.6.8-.1 1.5-.2 2.3-.3l-1.5 7.4c-.1.5-2.6 13.3-2.6 23.2 0 10.1 4.5 10.7 9.3 11.4l1.3.2c4.9.7 9.2 1.5 12.7 2.3 8.4 1.9 8.8 6.7 8.8 6.9 0 .6.6 1.1 1.2 1.1h.1c.6 0 1.2-.5 1.2-1.1 0-.2.4-5.1 8.8-6.9 3.5-.8 7.8-1.5 12.7-2.3l1.3-.2c4.8-.6 9.3-1.2 9.3-11.4 0-9.9-2.5-22.7-2.6-23.2l-1-5.2c.4-.3.9-.6 1.4-1l1.7 6.4v.3c.1.6 3.1 15.9 3.1 27.3 0 8.9-2.5 9.2-7.9 9.9-.5.1-1.1.1-1.6.2-6 .9-11.3 1.8-15.6 2.8-5.9 1.3-9.3 4.5-11.1 7.5-1.9-3.1-5.2-6.3-11.2-7.6-4.4-1-9.6-1.9-15.6-2.8-.5-.1-1.1-.1-1.6-.2-5.4-.7-7.9-1-7.9-9.9-.1-11.2 2.9-26.5 3-27.2m58.4-5.3-7.8 4.9c-3.5 1.4-6.5 3.9-9.4 6.4-.6.5-1.1.9-1.7 1.4-1.4 1.1-3 2.1-4.7 2.8l-16.7 6.7c-.7.3-1 .3-1 .3 0-.1.1-.2.1-.3.4-.4.6-1.3.3-1.7-.4-.5-1.2-.6-1.7-.3-.1.1-.3.2-.4.3-.6.3-.9.4-1.3.6s-.8.4-1.7.8c-.2.1-.5.2-.7.3.1-.5 0-1-.4-1.3s-1.1-.3-1.5.1l-.3.3c-.1-.1-.1-.4 0-.7.2-.4.6-.7 1.2-1.1.4-.3.7-.8.6-1.3s-.5-.9-1-.9c-.1 0-.2-.1-.3-.2-.2-.3-.3-.7-.1-1.1.3-.8 1-1.4 2-2.2l7.3-4.6 4.4-2.3c-4.6-.2-6.2-3.1-2.8-2.9.7 0 3.3-.5 6-1 4.1-.9 8-2.5 11.5-4.8l3.5-2.2c.1-.1.3-.2.4-.3l17.1-14.6c5.4-4.3 5.5-10.9 5.5-11.3-.2-1.7-.3-5.5-.2-6.8l3 .2.2 3.3-1.8 1.4 2.2 2.7 2.6-2.1 2.1 2.6 2.6-2.1 2.1 2.6 2.7-2.2-1.4-1.7.8-3.6 2 .2c.2.8.2 1.4.1 2l-1 10c-.4 4-2.3 7.8-5.3 10.6l-5.4 4.9c-4 3.1-11.7 8.2-11.7 8.2m10.8-33.3.7-3.3 2.2.2.2 3.4-1.7 1.4zm4.8.6.7-3.4 2 .2.2 3.5-1.7 1.3zm-9.8-8.9v-.1l-.6-3.9 18.6 1.5c.1 1.3 0 2.6-.2 3.9zm-1.2-8.6-.2-1.2c-.1-.7-.7-1.1-1.4-1s-1.1.7-1 1.4l1.3 9.3c-.5 0-.8.4-.9.8l-.2 2.7c0 .5.3 1 .9 1h.4c-.2 2.1.2 7.1.2 7.1 0 .1-.1 5.8-4.6 9.3l-11 9.4 4-12.2v-.1c1.8-1.4 3.6-2.8 5.4-4.4.6-.5 1.1-1.1 1.4-2 .2-.6 0-1.1-.2-1.4 1-.8 2.2-1.8 2.4-1.9.4-.3.5-.9.3-1.4-.1-.2-.4-.9-.9-1.6.3-.4.6-.8.7-1.4s-.1-1.3-.5-1.8c-.8-.9-1-1.3-1.7-1.4-.1-.2 0-.8-.7-1.3-.3-.2-.7-.2-.7-.2l7.4-22.6 8.7 7.7L339 370l-13.8-3.3c-1-.3-2.1.2-2.4 1.2l-8.1 25-8.8-8c1.6-2.5 2.5-5.4 2.5-8.5 0-2.5-.6-4.8-1.6-6.9l12.3-13.5c3.5 2.4 7.2 4.3 10.7 5.6.9.3 1.8.6 2.6.9 3.8 1.3 7.3 2.5 9.9 5.1 3.1 3.2 4.4 8.1 4 14.7l-.5 4.6c-.1.8-.5 2.2-.9 3zm-22.4-24c-2.8-2.4-6.4-3.9-10.4-3.9-3.7 0-7.1 1.3-9.8 3.5l-11.8-10.7c3.3-2.6 6.3-5.5 8.8-8.6.9 1.2 2.2 2 3.8 2.4l4.4 1.1v5.1h8.8v-5.1l4.4-1.1c1.9-.5 3.4-1.6 4.3-3.2 2.4 3 5.3 5.8 8.5 8.4zm-22.8-29.4c.2.3.4.5.6.8 3 3.1 6.9 4.7 11.5 4.7h.1c4.6 0 8.5-1.6 11.5-4.7.2-.2.4-.5.7-.8l-.4 5.5c-.2 2-1.6 3.7-3.6 4.2l-8.3 2.1-8.3-2.1c-1.2-.3-2.2-1.1-2.8-2.1-.3-.4-.8-.9-.7-2.6zm25.6-16.5c.2 6.1-1.5 11.4-4.6 14.6-2.2 2.3-5.2 3.5-8.8 3.5-3.5 0-6.5-1.2-8.7-3.5-3.1-3.2-4.8-8.5-4.6-14.6 0-.5-.2-1-.5-1.4-.4-.4-.8-.6-1.4-.6h-.5c-.3-.5-1-1.9-1.2-3.9-.2-1.7 0-2.9.2-3.5.9-.2 1.5-.9 1.6-1.9l.1-2.2c8.6-4.4 21.7-4.4 30.4 0v2.2c0 .9.7 1.7 1.6 1.9.2.6.3 1.8.2 3.5-.2 2-.9 3.4-1.2 3.9h-.5c-.5 0-1 .2-1.4.6-.5.4-.7.9-.7 1.4m7.3-10q-.45-1.95-1.5-2.7v-2c0-.7-.4-1.3-1-1.6-10-5.7-26.2-5.7-36.1 0-.6.3-1 1-1 1.6v2c-2.1 1.5-1.9 5.8-1.8 7.2.2 1.9.9 4.7 2.3 6.2-16.9-1.7-30.8-5.9-38-10.9 9.9-6.8 32.1-11.8 56.6-11.8s46.7 5 56.6 11.8c-7.3 5-21.2 9.2-38.1 10.9.4-.4.7-.9 1-1.6.6-1.3 1.1-3 1.3-4.6 0-1.7 0-3.3-.3-4.5m-37.7 14.7c.3 2.7 1 5.3 2.1 7.5l.3 4.2c-26.7-2.1-47.4-10.4-47.4-19 0-1.8.9-3.5 2.4-5.2 8 6.2 23.2 10.8 42.6 12.5m32 7.5c1-2.2 1.7-4.8 2.1-7.5 19.4-1.8 34.6-6.3 42.6-12.4 1.6 1.7 2.4 3.4 2.4 5.2 0 8.6-20.7 16.8-47.4 19zm44.6-24.9c-10.5-7.9-33-13.2-59.6-13.2s-49.1 5.3-59.6 13.2c-1.6-1.7-2.5-3.4-2.5-5.2 0-10.4 29-19.5 62.1-19.5s62.1 9.1 62.1 19.5c0 1.7-.9 3.5-2.5 5.2M249 484.6V639c-1.8-.2-3.6-.3-5.5-.3h-69.9c-15.2 0-27.5-12.3-27.5-27.5V268.8H291c-1.7 0-3.2 1.4-3.2 3.2v1.9c-4.2.1-8.3.3-12.5.7-3.9.3-7.7.8-11.5 1.5-3.5.6-6.9 1.3-10.3 2.1-3 .8-6 1.7-8.9 2.8-2.5.9-5 2-7.3 3.3-1.9 1.1-3.8 2.3-5.5 3.7-1.4 1.2-2.6 2.7-3.5 4.3-1 1.8-1.5 3.7-1.8 5.7-.1.8-.1 1.6-.1 2.5.1 1.7.4 3.5 1.2 5.1.4.7.8 1.3 1.3 1.9.1.1.9 1.1.9 1.1-2.3 2.4-3.5 5-3.5 7.7 0 11.2 21.2 20.6 51.6 22.9l.1 1.6-.1.1c-5.9 7.8-15.2 14.9-23.8 18.1-.8.3-1.7.6-2.6.9-3.9 1.4-8 2.8-11.1 5.9-3.7 3.8-5.4 9.6-4.9 17.3l1 9.7c.1 1.2.4 2.5.9 3.6h-.3c-.6.1-1 .6-.9 1.2l.5 4q.15.75.9.9c-.2 1.7-.1 3.5.2 5.3l3.4 14.2c.8 7.5 9.8 14.8 17.9 14.9-2.7 9.9-5.5 20.4-5.7 21-1.1 3.4-4.7 14.7-4.4 26.7m19.7 135c0 1.2-.2 2.5-.6 3.6-.6 1.8-.5 3.7.2 5.3.2.4.2.7.1 1.1-1 3.4-3 10.9-3.3 11.9-.3.7-.4 1.5-.1 2.3-3.6-1.8-7.3-3.1-11.2-4V512.3c3.7 16.3 8.5 34.4 9.8 39.5.2.7.2 1.4.1 2.1l-2.8 14.1c-.3 1.3-.2 2.7.1 4l7.6 32.6c.1.4.1.7.1 1.1zm16.9 23.1h-1.8c-1 .1-1.2 0-1.7.1-1 .4-1.2.3-1.8.3h-1.8c-.7 0-1.1 0-1.7-.2-.6-.1-1.3-.3-2.2-.3h-.6c-.4 0-.8.1-1.3.1-1.2.1-2 .2-2.7-.2-.1 0-.1-.1-.2-.1.8-3.2 2.4-8.8 3.2-11.6.4-1.5.3-3-.3-4.4-.3-.6-.3-1.3-.1-1.9.6-1.7.8-3.4.8-5.1v-13.8c0-.7-.1-1.5-.3-2.2l-7.6-32.7c-.2-.7-.2-1.3 0-2l2.8-14.1c.3-1.4.2-2.9-.1-4.3-2.2-8.2-13.2-50.1-14.3-63.4-.4-4.6-.1-9.2.5-13.4.7 10.8 6.7 11.6 12 12.3.5.1 1 .1 1.5.2 5.8.9 11 1.8 15.2 2.7 7.7 1.7 9.4 7.3 9.8 9.9 0 .3-.1.5-.1.7l-6.8 49.8c-.2 1.2-.1 2.3.2 3.5l3.5 15c.2.8.2 1.6-.1 2.4l-6.1 21.3c-.2.9-.4 1.8-.4 2.6l-.5 25.8c0 .6-.1 4.9-.2 6.5s.1 5.6 1.2 7.7l3.2 6.5.1.1c.3.4.5.9.5 1.6-.5.4-1.3.6-1.8.6m14.1-4.7c-.7 1.1-1.1 2.4-1.3 3.8-.2 2.3-5.9 2.4-6.1-.1-.1-1.3-.5-2.5-1.2-3.5l-3.1-6.3c-.5-.9-.8-3.7-.7-5.3.1-1.7.2-6.1.2-6.7l.5-25.8c0-.4.1-.9.2-1.3l6.1-21.3c.5-1.6.5-3.2.1-4.8l-3.5-15c-.1-.6-.2-1.2-.1-1.7l4.5-33.2L300 550c.1.6.1 1.2-.1 1.7l-3.5 15c-.4 1.6-.3 3.3.1 4.8l6.1 21.3c.1.4.2.9.2 1.4l.5 25.7c0 .7.1 5.1.2 6.7s-.3 4.4-.8 5.4zm21.2 4.7c-.8.4-1.6.3-2.8.2-.4 0-.8-.1-1.3-.1-1.3-.1-2.2.1-2.8.2s-1 .2-1.7.2h-1.8c-.6 0-.8 0-1.8-.3-.4-.2-.7-.1-1.6-.1h-1.8c-.5-.1-1.3-.2-2-.4v-.2c0-.5.2-1 .6-1.6l3.1-6.4c1.1-2.2 1.3-6.1 1.3-7.7-.1-1.7-.2-5.9-.2-6.6l-.5-25.7c0-.9-.1-1.8-.4-2.7l-6.1-21.3c-.2-.8-.2-1.6-.1-2.4l3.5-15c.3-1.2.3-2.3.2-3.5l-6.8-49.7c0-.1 0-.3-.1-.7.4-2.5 2.1-8.1 9.8-9.8 4.2-.9 9.4-1.9 15.3-2.7.5-.1 1-.1 1.5-.2 5.3-.7 11.3-1.5 12-12.4.6 4.1.9 8.7.5 13.3-1.1 13.3-12.1 55.1-14.3 63.4-.4 1.4-.4 2.9-.1 4.3l2.8 14.1c.1.7.1 1.4 0 2l-7.6 32.7c-.2.7-.3 1.4-.3 2.2v13.8c0 1.8.3 3.5.8 5.1.2.6.2 1.3-.1 1.9-.6 1.4-.7 3-.3 4.4 1 3.2 2.8 10.1 3.2 11.6 0 0-.1 0-.1.1m16.2-3.2c-3.8.7-7.6 1.7-11.1 3.3 0-.5-.1-.9-.3-1.4-.6-2.1-2.3-8.7-3.3-11.9-.1-.4-.1-.7.1-1.1.7-1.7.8-3.6.2-5.3q-.6-1.8-.6-3.6v-13.8c0-.4 0-.7.1-1.1L330 572c.3-1.3.3-2.7.1-4l-2.8-14.1c-.1-.7-.1-1.4.1-2.1 1.4-5.1 6.1-23.2 9.8-39.6v127.3zm105.6-28.3c0 15.2-12.3 27.5-27.5 27.5h-69.9c-1.1 0-2.3.1-3.4.2V484.5c.3-12-3.3-23.3-4.5-26.7-.2-.6-6.4-23.2-6.4-23.2s1.9-1.4 2.7-2.1l5.5-5c3.4-3.2 5.6-7.4 6.1-12.1l1-9.9c.2-.8.1-1.5 0-2.2l.8.1c.5 0 1-.3 1-.9l.2-2.7c0-.5-.3-1-.9-1l-.7-.1c.2-1.3.3-2.6.2-3.9l.7.1c.5 0 1-.3 1-.9l.2-2.7c0-.5-.3-1-.9-1l-.7-.1c.4-1.1.7-2.3.8-3l.5-4.6c.5-7.4-1.1-12.9-4.7-16.6-2.9-3-6.9-4.4-10.8-5.7-.9-.3-1.7-.6-2.6-.9-8.6-3.2-18-10.3-24-18.2 0-.2.1-.3.1-.5l.1-1.8c30.4-2.3 51.6-11.7 51.6-22.9 0-2.7-1.2-5.3-3.5-7.7 1.4-1.5 2.6-3.2 3.1-5.2.6-2 .6-4.2.2-6.3-.1-.8-.3-1.5-.6-2.2-1.1-3.1-3.1-5.7-5.7-7.7-2-1.5-4.1-2.8-6.4-3.9q-4.05-1.95-8.4-3.3-4.95-1.65-10.2-2.7c-3.9-.8-7.8-1.5-11.7-2-4.3-.5-8.6-.9-12.9-1.1-1.9-.1-3.8-.2-5.7-.2V272c0-1.7-1.4-3.2-3.2-3.2h149.1v342.4z" class="st1"/><path id="path24" d="M294.1 731.8c-64.4 0-121.2-15.8-154.8-39.8v-20.6c0-5.1 5.5-8.2 9.8-5.6 34.3 20.4 86.5 33.4 145 33.4 58.7 0 111.1-13.1 145.3-33.6 4.6-2.7 10.4.5 10.4 5.9v19.9c-33.5 24.3-90.7 40.4-155.7 40.4z" class="st4"/><g id="g54" stroke="#000" stroke-width=".4"><path id="path25" d="M161.7 688.5c.1-.8 0-1.4-.2-2-.2-.5-.7-1-1.4-1.2-.5-.2-1-.3-1.4-.3s-.7.2-1 .4-.6.5-.8.9-.4.7-.6 1.1l-.4.9c-.3.6-.4 1.2-.5 1.6q-.15.75 0 1.2c.1.3.3.6.5.9.3.2.6.5 1 .6s.7.2.9.2.5-.1.7-.3.4-.4.5-.6c.1-.3.3-.5.4-.9l.2-.4-1.2-.5.1-.1 3.6 1.5-.1.1-.7-.3-1 2.4-.2-.1c0-.1 0-.2-.1-.2l-.2-.2c-.2-.1-.4-.1-.6-.1h-.6c-.2 0-.5 0-.8-.1s-.6-.1-.9-.3c-.6-.2-1.1-.6-1.5-1s-.8-.9-1-1.4c-.3-.5-.4-1-.4-1.6s0-1.1.3-1.7c.2-.6.6-1.1 1.1-1.4.5-.4 1-.6 1.5-.8.6-.2 1.1-.2 1.7-.2s1.1.2 1.6.4l.6.3c.2.1.4.3.5.4.2.1.3.2.4.3s.2.2.3.2.2.1.2 0 .1-.1.2-.1l.2.1-.9 2.1z"/><path id="path26" d="m171.4 689.8-.7 1.8-.2-.1v-.5c0-.2-.1-.5-.2-.7s-.3-.5-.5-.7q-.3-.3-.9-.6l-1.8-.7-1.3 3.2.7.3c.3.1.5.2.8.2s.4 0 .6-.1.4-.2.5-.4c.2-.2.3-.3.5-.6l.2.1-1.3 3.3-.2-.1v-.7c0-.2 0-.4-.1-.6s-.2-.4-.3-.5c-.1-.2-.4-.3-.6-.4l-.8-.3-1.5 3.8 1.9.7c.4.1.7.2 1 .2s.6 0 .9-.2c.3-.1.6-.3.8-.5s.5-.4.7-.7l.2.1-.9 2.3-7.4-2.9.1-.1 1.1.4 2.8-7.2-1.1-.4.1-.1z"/><path id="path27" d="m175.3 691.2 2.1 6.4 1.8-4.9-1.1-.4.1-.1 2.3.8-.1.1-1.1-.4-2.7 7.4-.3-.1-2.8-8.7-2.4 6.6 1.1.4-.1.1-2.3-.8.1-.1 1.1.4 2.6-7.2-1.1-.4.1-.1z"/><path id="path28" d="M183.4 694.2c-.3-.1-.6-.2-.8-.2s-.5 0-.7.1-.4.2-.7.4c-.2.2-.4.4-.7.8l-.2-.1.6-2 7.4 2.5-.6 2-.2-.1c0-.4 0-.7-.1-1s-.2-.5-.3-.7-.3-.4-.5-.5-.5-.2-.8-.3l-.4-.1-2.4 7.3 1.1.4v.1l-3.9-1.3v-.1l1.1.4 2.4-7.3z"/><path id="path29" d="M193.2 697.2v.1l-1.2-.3-2.3 7.3 1.1.3v.2l-3.9-1.2v-.2l1.1.3 2.3-7.3-1.1-.3v-.2z"/><path id="path30" d="M197.8 698.5v.2l-1.1-.3-1.4 4.9c-.1.3-.2.7-.2 1q-.15.45 0 .9c.1.3.2.5.4.8.2.2.5.4 1 .5.4.1.8.2 1.1.2s.6-.1.8-.1c.2-.1.4-.2.6-.4s.3-.3.4-.5.2-.3.2-.5c.1-.2.1-.3.1-.4l1.4-5.1-1.1-.3v-.2l2.4.7v.2l-1.1-.3-1.4 5.1c0 .1-.1.3-.1.4-.1.2-.1.4-.3.5-.1.2-.3.3-.4.5-.2.2-.4.3-.6.4-.3.1-.6.1-.9.1-.4 0-.8-.1-1.3-.2-.8-.2-1.4-.5-1.8-.8q-.6-.45-.9-.9c-.2-.3-.3-.7-.3-1s.1-.7.2-1l1.4-5-1.1-.3v-.2z"/><path id="path31" d="m206 700.8.7 6 3.5-4.9 3 .8v.2l-1.1-.3-1.9 7.5 1.1.3v.2l-4-1v-.2l1.1.3 1.9-7.5-4.9 6.8h-.2l-1.1-8.4-1.9 7.5 1.1.3v.2l-2.4-.6v-.2l1.1.3 1.9-7.5-1.1-.3v-.2z"/><path id="path32" d="M223.9 704.9v.2l-1.2-.2 1.3 6.5 3.8-5.5-1.1-.2v-.2l2.3.5v.2l-1.1-.2-5.1 7.3-.4-.1-1.8-8.7-1-.2v-.2z"/><path id="path33" d="m236.4 707.2-.3 1.9h-.2c0-.1-.1-.3-.1-.5l-.3-.6q-.15-.3-.6-.6c-.3-.2-.6-.3-1-.4l-2-.3-.6 3.4.7.1c.3.1.6.1.8 0 .2 0 .4-.1.6-.2s.3-.3.4-.5l.3-.6h.2l-.6 3.4h-.2c0-.2-.1-.4-.1-.7 0-.2-.1-.4-.2-.6s-.2-.3-.4-.4-.4-.2-.7-.3l-.8-.1-.7 4 2 .4c.4.1.7.1 1.1 0l.9-.3c.3-.2.5-.4.7-.6s.4-.5.5-.8h.2l-.4 2.4-7.9-1.4v-.2l1.1.2 1.3-7.6-1.1-.2v-.2z"/><path id="path34" d="M241.8 708v.2l-1.1-.2-1.1 7.6 2 .3h.8c.3 0 .6-.1.8-.3.3-.2.5-.4.8-.6.2-.3.4-.6.6-1h.2l-.4 2.5-7.8-1.2v-.2l1.1.2 1.1-7.6-1.1-.2v-.2z"/><path id="path35" d="M253 709.7v-.2l7.3.8-.2 1.9h-.2c-.1-.3-.2-.5-.3-.8-.1-.2-.3-.4-.4-.6-.2-.2-.4-.3-.6-.4s-.5-.2-.9-.2l-1.9-.2-.4 3.6.7.1h.8c.2-.1.4-.1.6-.3s.3-.3.4-.5.2-.4.3-.7h.2l-.4 3.5h-.2c0-.2-.1-.4-.1-.6-.1-.2-.1-.4-.3-.6s-.3-.3-.5-.4-.4-.2-.7-.2l-.8-.1-.4 3.9 1.2.1v.2l-4.1-.4v-.2l1.1.1.8-7.6z"/><path id="path36" d="M261.6 712.7q.45-.75 1.2-1.2c.5-.3 1-.6 1.6-.7.6-.2 1.1-.2 1.7-.2s1.1.2 1.7.4c.5.2 1 .6 1.4.9.4.4.7.9 1 1.4q.3.75.3 1.8c0 .6-.2 1.1-.5 1.6s-.7.9-1.1 1.2c-.5.3-1 .6-1.5.8-.6.2-1.2.2-1.8.2s-1.2-.2-1.7-.5-1-.6-1.4-1-.7-.9-.9-1.4-.3-1.1-.3-1.7c-.2-.6 0-1.1.3-1.6zm1.4 3.8c.1.5.2.9.4 1.3.2.3.4.6.8.7q.45.15 1.2.3c.6 0 1.1 0 1.5-.2s.6-.4.8-.8c.2-.3.3-.8.4-1.3s.1-1 .2-1.6c0-.5.1-1 .1-1.5s-.1-.9-.2-1.3-.4-.7-.7-.9-.8-.4-1.4-.4-1.1 0-1.4.2c-.4.2-.7.4-.9.8-.2.3-.4.8-.5 1.2-.1.5-.2 1-.2 1.6-.1.7-.1 1.4-.1 1.9z"/><path id="path37" d="M271.4 711.3v-.2l1.9.1h2c.3 0 .7.1 1 .1s.7.2 1 .4.5.4.7.6c.2.3.3.6.2.9 0 .3-.1.6-.3.8s-.4.4-.6.5-.5.2-.8.3-.6.1-.9.1v.1c.4.1.8.2 1.1.3s.6.2.8.3.4.3.5.6c.1.2.2.6.2 1v1.1c0 .3 0 .5.1.7 0 .2.1.3.2.3.1.1.2.1.3.1.2 0 .3 0 .4-.1s.2-.2.3-.2l.1.1c-.1.1-.2.1-.3.2s-.2.1-.3.1-.2.1-.4.1h-.6c-.5 0-.8-.1-1.1-.2s-.4-.3-.5-.5-.2-.4-.2-.6v-1.5c0-.3-.1-.5-.2-.8-.1-.2-.2-.4-.5-.6s-.5-.2-.9-.2h-.8l-.2 4.1 1.1.1v.2l-4.1-.2v-.2l1.1.1.4-7.7zm3.3 3.6c.4 0 .7 0 .9-.1s.4-.2.5-.3.2-.3.2-.5.1-.4.1-.6v-.9c0-.3-.1-.4-.2-.6s-.3-.3-.5-.4-.5-.1-.8-.2h-.6l-.2 3.5z"/><path id="path38" d="M282.7 711.8c-.3 0-.6 0-.8.1s-.5.1-.7.3c-.2.1-.4.3-.5.6-.2.2-.3.6-.4.9h-.2l.1-2.1 7.8.2-.1 2.1h-.2c-.1-.4-.2-.7-.4-1-.1-.2-.3-.4-.5-.6l-.6-.3c-.2-.1-.5-.1-.8-.1h-.4l-.2 7.7h1.1v.2l-4.1-.1v-.2h1.1l.2-7.7z"/><path id="path39" d="M292.9 711.8v.2h-1.1l-.1 7.7h1.1v.2h-4.1v-.2h1.1l.1-7.7h-1.1v-.2z"/><path id="path40" d="M294.2 717.3c0 .1 0 .2.1.4 0 .1.1.3.2.5s.2.3.3.5.3.3.4.5c.2.2.4.3.6.4s.4.2.5.2c.2 0 .3.1.5.1h.4c.4 0 .8-.1 1.1-.2s.5-.3.7-.5q.3-.3.3-.6c.1-.2.1-.4.1-.5 0-.3-.1-.5-.2-.7s-.3-.3-.6-.4c-.2-.1-.5-.2-.8-.3s-.6-.2-1-.2c-.3-.1-.6-.2-1-.3-.3-.1-.6-.3-.8-.4-.2-.2-.4-.4-.6-.7-.1-.3-.2-.6-.2-1 0-.3.1-.6.2-.9s.4-.5.6-.7c.3-.2.6-.4.9-.5.4-.1.8-.2 1.2-.2.3 0 .5 0 .7.1.2 0 .4.1.6.1s.3.1.4.1.2.1.3.1.2 0 .2-.1c0 0 .1-.1.1-.2h.2v2.1h-.2c-.1-.3-.2-.5-.3-.8s-.3-.5-.4-.7c-.2-.2-.4-.4-.7-.5s-.6-.2-1-.2c-.3 0-.6 0-.9.1q-.45.15-.6.3c-.1.1-.3.3-.4.5s-.1.3-.1.5c0 .3.1.5.2.6.2.2.4.3.6.4.3.1.5.2.9.3.3.1.7.2 1 .3s.7.2 1 .3.6.3.9.4q.45.3.6.6c.2.3.2.6.2.9 0 .4-.1.7-.2 1-.2.3-.4.6-.7.9-.3.2-.7.5-1.1.6-.4.2-.9.2-1.4.2-.3 0-.5 0-.8-.1-.3 0-.5-.1-.7-.1s-.4-.1-.6-.1-.3-.1-.4-.1-.2 0-.2.1c0 0-.1.1-.1.2h-.2v-2.5z"/><path id="path41" d="M302.2 717.2c0 .1.1.2.1.4 0 .1.1.3.2.5s.2.3.3.5.3.3.5.5.4.3.6.4.4.1.5.2c.2 0 .3.1.5.1h.4c.4 0 .8-.1 1.1-.2s.5-.3.7-.5q.3-.3.3-.6c.1-.2.1-.4.1-.5 0-.3-.1-.5-.2-.7-.2-.2-.3-.3-.6-.4-.2-.1-.5-.2-.8-.3s-.6-.1-1-.2c-.3-.1-.6-.2-1-.3-.3-.1-.6-.2-.8-.4s-.4-.4-.6-.7-.2-.6-.3-1c0-.3.1-.6.2-.9s.3-.5.6-.8c.3-.2.6-.4.9-.5.4-.1.8-.2 1.2-.2h.7c.2 0 .4.1.6.1s.3.1.4.1.2.1.3.1.2 0 .2-.1.1-.1.1-.2h.2l.1 2.1h-.2c-.1-.3-.2-.5-.3-.8s-.3-.5-.5-.7-.4-.4-.7-.5-.6-.2-1-.2c-.3 0-.6.1-.9.2q-.45.15-.6.3c-.2.1-.3.3-.4.5s-.1.3-.1.5q0 .45.3.6c.2.2.4.3.6.4.3.1.5.2.9.3.3.1.7.2 1 .2.3.1.7.2 1 .3s.6.2.9.4q.45.3.6.6c.2.3.2.6.3.9 0 .4-.1.7-.2 1.1-.2.3-.4.6-.7.9s-.7.5-1.1.6c-.4.2-.9.2-1.4.3h-.8c-.3 0-.5-.1-.7-.1s-.4-.1-.6-.1-.3-.1-.4-.1-.2 0-.2.1c0 0-.1.1-.1.2h-.2l-.1-2.5z"/><path id="path42" d="M313.6 711.2v.2l-1.1.1.4 7.7 1.1-.1v.2l-4.1.2v-.2l1.1-.1-.4-7.7-1.1.1v-.2z"/><path id="path43" d="m317.5 711 2.6 5.4 1.8-5.7 3.1-.2v.2l-1.1.1.6 7.7 1.1-.1v.2l-4.1.3v-.2l1.1-.1-.6-7.7-2.5 8h-.2l-3.6-7.6.6 7.7 1.1-.1v.2l-2.5.2v-.2l1.1-.1-.6-7.7-1.1.1v-.2z"/><path id="path44" d="m326.6 718.2 2.9-8.5h.3l4.7 7.7 1.1-.1v.2l-4.2.4v-.2l1.2-.1-1.7-2.8-3 .3-1.1 3.1 1.1-.1v.2l-2.3.2v-.2zm1.3-3.4 2.9-.3-1.8-2.9z"/><path id="path45" d="M334.7 709.6v-.2l1.9-.2c.3 0 .7-.1 1-.1s.7-.1 1-.1.7-.1 1 0c.4 0 .7.1 1 .2s.6.3.8.5.4.5.4.9c0 .3 0 .6-.1.8s-.3.4-.5.6-.5.3-.7.4c-.3.1-.6.2-.8.2v.1c.4 0 .8 0 1.1.1.3 0 .6.1.9.2.2.1.5.3.6.5.2.2.3.5.4.9.1.5.2.8.2 1.1s.1.5.2.6.1.2.2.3c.1 0 .2.1.4 0 .2 0 .3-.1.4-.2l.3-.3.1.1c-.1.1-.1.2-.2.2-.1.1-.2.1-.3.2s-.2.1-.4.2c-.1 0-.3.1-.6.1-.5.1-.8 0-1.1-.1s-.5-.2-.6-.4-.3-.4-.3-.6-.1-.4-.1-.6c-.1-.3-.1-.6-.2-.9s-.2-.5-.3-.7-.3-.4-.6-.5c-.2-.1-.5-.1-.9-.1l-.8.1.5 4 1.1-.1v.2l-4.1.5v-.2l1.1-.1-1-7.6zm3.9 3c.4 0 .7-.1.9-.2s.3-.3.4-.4.1-.3.1-.5v-.6c0-.3-.1-.6-.2-.8s-.2-.4-.3-.5-.3-.2-.5-.3c-.2 0-.5-.1-.8 0h-.3c-.1 0-.2 0-.3.1l.4 3.4z"/><path id="path46" d="M347.4 707.7v.2l-1.1.2.8 5c.1.3.1.7.2 1s.2.6.4.8.4.4.7.5.7.1 1.1.1c.4-.1.8-.2 1.1-.3s.5-.3.7-.5.3-.4.4-.6.1-.4.1-.6v-.5c0-.2 0-.3-.1-.4l-.8-5.2-1.1.2v-.2l2.5-.4v.2l-1.1.2.8 5.2c0 .1 0 .3.1.5v.6c0 .2-.1.4-.2.6s-.2.4-.4.6-.5.4-.8.5-.7.3-1.2.3c-.8.1-1.5.1-2 .1s-.9-.2-1.2-.5c-.3-.2-.5-.5-.6-.8s-.2-.6-.3-1l-.8-5.2-1.1.2v-.2z"/><path id="path47" d="m355.9 706.4 3.1 5.1 1.2-5.9 3.1-.6v.2l-1.1.2 1.4 7.6 1.1-.2v.2l-4 .7v-.2l1.1-.2-1.4-7.6-1.6 8.3h-.2l-4.4-7.2 1.4 7.6 1.1-.2v.2l-2.5.4v-.2l1.1-.2-1.4-7.6-1.1.2v-.2z"/><path id="path48" d="M374.5 702.5v.2l-1.1.3 1.7 7.5 1.1-.3v.2l-4 .9v-.2l1.1-.3-1.7-7.5-1.1.3v-.2z"/><path id="path49" d="M377.8 701.9c-.3.1-.6.2-.8.3s-.4.3-.6.4c-.2.2-.3.4-.4.7s-.1.6-.2 1h-.2l-.5-2 7.6-1.9.5 2h-.2c-.2-.3-.4-.6-.6-.8s-.4-.4-.6-.4c-.2-.1-.5-.1-.7-.1s-.5 0-.8.1l-.4.1 1.8 7.5 1.1-.3v.2l-4 1v-.2l1.1-.3-1.8-7.5z"/><path id="path50" d="m385.9 707.8 1.4-8.8.3-.1 5.9 6.8 1-.3v.2l-4 1.1v-.2l1.1-.3-2.2-2.5-2.9.8-.5 3.3 1.1-.3v.2l-2.3.6v-.2zm.8-3.5 2.8-.8-2.2-2.6z"/><path id="path51" d="M396.5 696.7v.2l-1.1.3 2.2 7.4 2-.6c.3-.1.5-.2.8-.4.2-.2.5-.4.6-.6.2-.3.3-.6.4-.9s.1-.7.1-1.2h.2l.7 2.4-7.6 2.3v-.2l1.1-.3-2.2-7.4-1.1.3v-.2z"/><path id="path52" d="M404.9 694.1v.2l-1.1.4 2.4 7.3 1.1-.4v.2l-3.9 1.3v-.1l1.1-.4-2.4-7.3-1.1.4v-.2z"/><path id="path53" d="m408.4 701.2.9-8.9.3-.1 6.4 6.4 1-.3.1.1-4 1.4-.1-.1 1.1-.4-2.4-2.4-2.8 1-.3 3.3 1.1-.4.1.1-2.2.8-.1-.1zm.5-3.6 2.7-.9-2.4-2.4z"/><path id="path54" d="m421.3 688.2.7 1.8-.2.1-.4-.4c-.2-.2-.4-.3-.6-.4s-.5-.2-.8-.2-.7 0-1 .2l-1.9.7 1.2 3.3.7-.2c.3-.1.5-.2.7-.4.2-.1.3-.3.4-.5s.1-.4.1-.6v-.7l.2-.1 1.2 3.3-.2.1c-.1-.2-.3-.4-.4-.5-.1-.2-.3-.3-.5-.4s-.4-.2-.6-.2-.5 0-.7.1l-.8.3 1.4 3.8 1.9-.7c.4-.1.7-.3.9-.5s.4-.5.6-.7l.3-.9c.1-.3.1-.6 0-1l.2-.1.9 2.3-7.5 2.8-.1-.1 1.1-.4-2.7-7.2-1.1.4-.1-.1z"/></g></g></svg>