<?xml version="1.0" encoding="UTF-8" standalone="no"?>
<!-- Created with Inkscape (http://www.inkscape.org/) -->

<svg
   xmlns:dc="http://purl.org/dc/elements/1.1/"
   xmlns:cc="http://creativecommons.org/ns#"
   xmlns:rdf="http://www.w3.org/1999/02/22-rdf-syntax-ns#"
   xmlns:svg="http://www.w3.org/2000/svg"
   xmlns="http://www.w3.org/2000/svg"
   xmlns:sodipodi="http://sodipodi.sourceforge.net/DTD/sodipodi-0.dtd"
   xmlns:inkscape="http://www.inkscape.org/namespaces/inkscape"
   width="17.437775mm"
   height="16.289738mm"
   viewBox="0 0 17.437775 16.289738"
   version="1.1"
   id="svg593"
   inkscape:version="0.92.2 2405546, 2018-03-11"
   sodipodi:docname="ABR.svg">
  <defs
     id="defs587" />
  <sodipodi:namedview
     id="base"
     pagecolor="#ffffff"
     bordercolor="#666666"
     borderopacity="1.0"
     inkscape:pageopacity="0.0"
     inkscape:pageshadow="2"
     inkscape:zoom="0.35"
     inkscape:cx="-1178.4747"
     inkscape:cy="159.35512"
     inkscape:document-units="mm"
     inkscape:current-layer="layer1"
     showgrid="false"
     inkscape:window-width="1920"
     inkscape:window-height="1016"
     inkscape:window-x="0"
     inkscape:window-y="27"
     inkscape:window-maximized="1" />
  <metadata
     id="metadata590">
    <rdf:RDF>
      <cc:Work
         rdf:about="">
        <dc:format>image/svg+xml</dc:format>
        <dc:type
           rdf:resource="http://purl.org/dc/dcmitype/StillImage" />
        <dc:title></dc:title>
      </cc:Work>
    </rdf:RDF>
  </metadata>
  <g
     inkscape:label="Livello 1"
     inkscape:groupmode="layer"
     id="layer1"
     transform="translate(-417.6381,-174.7063)">
    <path
       inkscape:connector-curvature="0"
       style="fill:#ffffff;stroke:#000000;stroke-width:0.26458332"
       d="m 426.4947,174.8667 0.21577,1.05748 0.57539,1.47263 0.39834,0.6327 0.34855,0.71536 0.36514,0.55966 0.74136,0.89687 0.79115,0.76324 0.38175,0.30952 0.99585,0.67391 0.0277,0.21531 0.30429,0.43597 0.56985,0.50743 0.0885,0.29219 1.02351,0.66116 0.7469,0.31387 0.22683,0.033 0.0609,0.61636 -0.0553,0.26951 0.19917,0.24743 0.40387,0.21988 -0.16597,0.36268 0.0387,0.3076 -0.37621,0.19219 -0.56985,0.7409 -0.0443,0.40036 -0.48687,0.35084 -0.14937,0.47121 -0.2711,0.42168 -0.19364,0.0548 -0.17151,0.32841 -0.426,0.39938 -0.24896,-0.20787 -0.17704,-0.7937 -0.66944,-0.55329 -0.33748,0.13151 -0.17151,-0.33429 -0.21577,0.0164 -0.17151,-0.18638 -0.56431,0.44395 -0.094,0.27393 -0.49793,0.14789 -0.18257,0.19714 0.1715,0.22994 0.0553,0.38855 0.30429,0.1696 -0.0775,0.24613 -0.34301,0.0109 -0.42047,0.13124 h -0.44816 l -0.48686,0.71596 -0.24343,-0.14752 -0.37068,-0.0273 -0.14938,0.0983 -0.2047,-0.38253 -0.935,-0.30616 -0.32642,-0.0273 -0.39834,-0.2297 -0.006,-0.16958 -0.31535,-0.3119 -0.22684,0.0766 -0.29875,-0.25724 -0.23237,0.0931 -0.0664,0.2791 -0.4426,0.21337 -0.13832,0.15862 -0.48686,-0.24068 -0.1715,-0.37757 -0.39282,-0.0985 -0.0774,-0.14781 -0.47026,-0.21902 -0.15492,0.22997 -0.24343,-0.17521 -0.0664,-0.47106 0.2379,-0.45489 -0.27109,-0.28511 h -0.18257 l -0.14385,-0.2523 -0.35961,-0.0713 -0.52559,-0.40606 -0.32089,-0.0659 -0.57538,-0.37883 -0.33749,-0.1373 -0.0387,0.21418 -0.45367,-0.0879 -0.2711,-0.43946 -0.0774,-0.32974 0.17704,-0.57736 0.2213,-0.0495 0.26003,-0.28059 0.006,-0.44034 0.36515,0.0165 0.4426,0.34128 0.13278,-0.11008 0.63624,0.4127 0.26003,-0.15955 0.28769,0.0165 0.17151,-0.29718 0.43707,-0.24772 -0.34855,-0.36898 -0.11619,-0.28648 -0.27109,-0.0331 -0.61411,-0.72219 -0.0221,-0.42478 -0.71369,-0.49125 0.34855,-0.3203 v -0.25412 l -0.33196,-0.18235 -0.37621,-0.39247 0.36515,-0.24331 0.17151,-0.30978 0.0609,-0.35417 -0.19917,-0.19929 0.33196,-0.78655 0.6805,0.0554 0.29322,0.16623 0.34855,-0.1219 0.51452,-0.0111 0.12725,-0.133 0.0111,-0.41021 0.13278,-0.27729 -0.37621,-0.0943 -0.19364,-0.24966 0.0719,-0.34411 -0.13278,-0.0888 0.44261,0.18875 0.37621,-0.25537 0.2379,-0.36098 h 0.35961 l 0.14938,-0.17778 -0.0166,-0.31675 0.26003,-0.32243 0.0498,-0.28363 0.35961,0.2169 0.48133,-0.20021 0.14385,0.16128 0.27109,-0.05 0.34855,-0.20579 0.22683,-0.43401 0.55879,-0.0724 0.35408,-0.22268 z"
       id="path2" />
  </g>
</svg>
