<svg xmlns="http://www.w3.org/2000/svg" xmlns:xlink="http://www.w3.org/1999/xlink" id="svg2" width="224" height="280" version="1.1"><defs id="defs4"><clipPath id="c"><path id="p" d="M188.89 73.823v223.871c0 24.063 22.709 34.326 48.262 35.829 14.06.827 31.514 1.842 44.668 3.064 13.017 1.223 18.21 10.725 18.21 10.725s5.192-9.502 18.209-10.725c13.154-1.222 30.607-2.237 44.668-3.064 25.553-1.503 48.204-11.766 48.204-35.829V73.823z"/></clipPath></defs><use xlink:href="#p" id="use10" width="600" height="400" x="0" y="0" style="fill:#fff" transform="matrix(1.00126 0 0 1.01832 -188.377 -74.425)"/><path id="line12" d="m137.2 0 318.4 400" clip-path="url(#c)" style="fill:none;stroke:#d20019;stroke-width:45.85280991;stroke-opacity:1" transform="matrix(1.00126 0 0 1.01832 -188.377 -74.425)"/><use xlink:href="#p" id="use14" width="600" height="400" x="0" y="0" style="fill:none;stroke:#000;stroke-width:1.48551261" transform="matrix(1.00126 0 0 1.01832 -188.377 -74.425)"/></svg>