<?xml version="1.0" encoding="UTF-8" standalone="no"?>
<!-- Created with Inkscape (http://www.inkscape.org/) -->

<svg
   xmlns:dc="http://purl.org/dc/elements/1.1/"
   xmlns:cc="http://creativecommons.org/ns#"
   xmlns:rdf="http://www.w3.org/1999/02/22-rdf-syntax-ns#"
   xmlns:svg="http://www.w3.org/2000/svg"
   xmlns="http://www.w3.org/2000/svg"
   xmlns:sodipodi="http://sodipodi.sourceforge.net/DTD/sodipodi-0.dtd"
   xmlns:inkscape="http://www.inkscape.org/namespaces/inkscape"
   width="20.176968mm"
   height="19.834423mm"
   viewBox="0 0 20.176968 19.834423"
   version="1.1"
   id="svg738"
   inkscape:version="0.92.2 2405546, 2018-03-11"
   sodipodi:docname="CAM.svg">
  <defs
     id="defs732" />
  <sodipodi:namedview
     id="base"
     pagecolor="#ffffff"
     bordercolor="#666666"
     borderopacity="1.0"
     inkscape:pageopacity="0.0"
     inkscape:pageshadow="2"
     inkscape:zoom="0.35"
     inkscape:cx="-1270.4424"
     inkscape:cy="66.053422"
     inkscape:document-units="mm"
     inkscape:current-layer="layer1"
     showgrid="false"
     inkscape:window-width="1920"
     inkscape:window-height="1016"
     inkscape:window-x="0"
     inkscape:window-y="27"
     inkscape:window-maximized="1" />
  <metadata
     id="metadata735">
    <rdf:RDF>
      <cc:Work
         rdf:about="">
        <dc:format>image/svg+xml</dc:format>
        <dc:type
           rdf:resource="http://purl.org/dc/dcmitype/StillImage" />
        <dc:title></dc:title>
      </cc:Work>
    </rdf:RDF>
  </metadata>
  <g
     inkscape:label="Livello 1"
     inkscape:groupmode="layer"
     id="layer1"
     transform="translate(-441.97121,-146.47554)">
    <path
       inkscape:connector-curvature="0"
       style="fill:#ffffff;stroke:#000000;stroke-width:0.26458332"
       d="m 446.50387,158.89112 0.39281,0.24164 -0.53665,0.11274 z m -3.31951,-2.54947 0.21024,0.12389 0.59198,0.12386 0.11065,0.38764 -0.42048,0.18837 -0.48132,0.0108 -0.18811,-0.51677 z m 11.05952,-9.37579 0.16044,0.12526 0.083,0.31035 0.42047,0.26126 0.22683,-0.0109 -0.1715,0.59298 -0.22131,0.20663 0.13278,0.51092 0.2711,0.0598 0.28216,0.2336 0.2047,0.35299 0.49793,-0.0489 0.14384,0.14659 0.33195,0.0597 0.24897,0.27138 -0.29323,0.19534 0.11619,0.47731 -0.29323,0.16265 -0.17704,0.22225 0.0166,0.24387 0.2379,0.11378 0.30982,0.4333 0.29876,0.17326 0.16044,-0.14077 0.51453,0.24904 0.28216,-0.28695 0.48686,0.37355 0.94053,0.28682 0.28216,0.73554 -0.0498,0.38915 -0.18811,0.19991 -0.20471,0.58325 -0.57538,0.2321 -0.0221,0.25363 -0.48133,-0.14569 -0.30982,0.0647 -0.0553,0.45855 -0.42047,0.0755 0.49239,0.55526 0.0332,0.30713 -0.0941,0.21546 0.0221,0.34462 0.20471,0.10229 0.2545,0.30139 0.73029,0.38198 -0.34855,0.30653 -0.15491,0.36017 0.22683,0.23645 0.33748,0.086 0.34302,0.69278 0.0498,0.28983 -0.11065,0.26828 0.37621,0.23601 0.24896,0.44504 1.04012,0.73406 -0.0111,0.51937 0.39281,0.48695 0.43707,0.14978 0.10511,0.44917 -0.30429,0.43825 -0.59751,0.49678 -0.10512,0.21357 0.0387,0.55506 -0.35961,0.56537 0.0332,0.2399 -0.27109,0.18122 -0.26003,-0.34648 -0.42601,-0.12263 -0.37621,0.048 -0.31535,0.13329 -0.23237,0.30381 -0.18257,0.0799 -0.38728,0.52738 -0.49793,-0.0586 -0.24896,-0.0959 -0.23237,-0.31964 -0.34855,-0.0586 -0.12171,-0.50105 -0.28769,-0.20263 -0.37621,-0.43742 -0.2213,-0.0374 -0.46473,-0.56581 -0.14938,-0.0694 -0.51453,0.15485 -0.34855,-0.16552 -0.35961,-0.5128 -0.32642,-0.16565 -0.2545,0.0321 -0.27109,-0.31535 0.39281,-0.34756 -0.005,-0.71159 0.53112,-0.28373 0.0111,-0.39095 -0.15491,-0.45008 -0.36518,-0.64338 -0.37068,-0.91229 -0.30982,-0.54783 -0.509,-0.6611 -0.26002,-0.25274 -0.37622,-0.22593 -0.38727,0.13987 -0.26003,0.41407 -0.15491,0.0215 -0.38175,-0.20969 -0.59751,0.40859 -0.50899,0.11824 -0.34302,-0.24725 -0.68603,0.23113 -0.11065,0.13435 -0.81328,0.36532 -0.0277,-0.231 0.18257,-0.46754 0.59198,-0.17741 0.0387,-0.23123 0.26003,-0.12909 0.1715,-0.27975 0.24343,-0.0538 0.0719,-0.21527 -0.26003,-0.52763 -0.38728,-0.0162 -0.76902,-0.70045 -0.1881,-0.24798 -0.33749,-0.21031 -0.48133,0.12403 -0.23236,0.39894 -0.21024,0.12396 -0.23237,-0.31262 -0.78008,-0.16175 0.0664,0.52826 -0.40941,-0.0323 v -0.87345 l -0.27662,-0.89055 -0.39834,-0.65366 -0.54219,-0.6109 -0.24897,-0.84408 -0.84094,-1.27313 -0.45367,-0.45011 0.11065,-0.26042 0.43707,-0.038 0.20471,-0.22794 -0.11619,-0.18457 0.27663,-0.17375 h 0.25449 l 0.12172,-0.25525 -0.2047,-0.32054 -0.0277,-0.38046 0.14384,-0.26642 -0.2213,-0.32091 0.12172,-0.21219 0.34301,-0.0272 0.44813,-0.37556 0.20471,-0.0653 0.27109,0.12521 0.11619,0.38098 0.24343,0.39711 0.39834,-0.0925 0.23236,-0.21216 -0.28216,-0.39726 0.21024,-0.44646 0.24343,-0.33773 0.26003,0.32139 0.14938,-0.15251 0.72476,-0.0327 0.34855,0.14162 0.48686,0.42472 0.82988,0.15785 0.14384,0.15783 0.2711,0.0163 0.32089,0.47873 0.6141,0.14683 0.14385,-0.16315 0.35961,0.36431 0.33196,-0.33711 0.33195,-0.21757 0.27662,-0.0544 0.17151,0.13055 0.4592,-0.21216 0.0885,-0.37005 0.16044,-0.0871 0.63625,0.3592 0.28216,-0.26122 0.65283,-0.16876 z"
       id="path10" />
  </g>
</svg>
