<?xml version="1.0" encoding="UTF-8" standalone="no"?>
<!-- Created with Inkscape (http://www.inkscape.org/) -->

<svg
   xmlns:dc="http://purl.org/dc/elements/1.1/"
   xmlns:cc="http://creativecommons.org/ns#"
   xmlns:rdf="http://www.w3.org/1999/02/22-rdf-syntax-ns#"
   xmlns:svg="http://www.w3.org/2000/svg"
   xmlns="http://www.w3.org/2000/svg"
   xmlns:sodipodi="http://sodipodi.sourceforge.net/DTD/sodipodi-0.dtd"
   xmlns:inkscape="http://www.inkscape.org/namespaces/inkscape"
   width="34.881039mm"
   height="19.408506mm"
   viewBox="0 0 34.881039 19.408506"
   version="1.1"
   id="svg383"
   inkscape:version="0.92.2 2405546, 2018-03-11"
   sodipodi:docname="EMI.svg">
  <defs
     id="defs377" />
  <sodipodi:namedview
     id="base"
     pagecolor="#ffffff"
     bordercolor="#666666"
     borderopacity="1.0"
     inkscape:pageopacity="0.0"
     inkscape:pageshadow="2"
     inkscape:zoom="0.35"
     inkscape:cx="-436.93847"
     inkscape:cy="-23.321991"
     inkscape:document-units="mm"
     inkscape:current-layer="layer1"
     showgrid="false"
     inkscape:window-width="1920"
     inkscape:window-height="1016"
     inkscape:window-x="0"
     inkscape:window-y="27"
     inkscape:window-maximized="1" />
  <metadata
     id="metadata380">
    <rdf:RDF>
      <cc:Work
         rdf:about="">
        <dc:format>image/svg+xml</dc:format>
        <dc:type
           rdf:resource="http://purl.org/dc/dcmitype/StillImage" />
        <dc:title></dc:title>
      </cc:Work>
    </rdf:RDF>
  </metadata>
  <g
     inkscape:label="Livello 1"
     inkscape:groupmode="layer"
     id="layer1"
     transform="translate(-221.43997,-123.25422)">
    <path
       inkscape:connector-curvature="0"
       style="fill:#ffffff;stroke:#000000;stroke-width:0.26458332"
       d="m 243.24191,126.03978 0.0719,0.28244 0.29323,-0.0864 0.65837,-0.0115 0.53112,0.34575 0.0553,0.26497 0.32089,0.0403 0.43154,-0.33985 0.73582,-0.31695 0.0221,-0.28824 0.35408,-0.0865 0.16598,-0.15572 0.36514,0.0404 0.80775,-0.0288 0.40388,-0.16728 0.95712,0.23649 0.35962,-0.0231 0.41494,0.5938 0.27662,-0.19019 0.21577,0.22477 0.32642,0.0403 0.30429,-0.27088 0.2379,0.0115 0.13831,0.22477 -0.12172,0.19015 0.0443,0.56439 0.16598,0.20723 0.31535,0.0403 0.20471,0.52931 0.39281,0.30477 -0.22684,-0.0977 -0.6473,-0.58095 -0.2213,0.0115 v 0.33941 l -0.28216,0.49449 -0.13278,0.56884 -0.0277,0.70619 0.0996,0.4475 0.18257,0.33259 0.13278,0.63039 -0.0387,0.96182 0.0885,0.70917 0.26556,0.74852 0.0719,0.62227 0.21577,0.66171 0.11619,0.56999 0.32088,0.75747 1.17843,1.43892 0.43154,0.4147 0.21577,0.0738 0.55878,0.68117 0.50346,0.47647 0.29322,0.19278 0.34855,0.0624 -0.23236,0.58368 0.0664,0.37945 -0.12172,0.47547 -0.38728,0.10751 -0.0111,0.33375 -0.56432,0.0735 -0.21576,-0.37898 -0.12172,-0.46973 -0.23237,0.0679 -0.71922,-0.45864 0.21577,-0.44757 -0.0941,-0.35143 -0.35962,-0.0567 -0.32642,0.31745 -0.28215,0.0737 -0.34302,-0.18703 -0.16044,0.16436 -0.2877,-0.13602 -0.27109,0.43633 -0.21024,-0.017 -0.59197,0.27189 -0.40941,-0.21523 -0.0221,0.37379 -0.28769,0.67352 -0.0719,0.3111 -0.27663,0.49186 -0.0609,0.31079 0.10512,0.15253 -0.29322,0.17509 -0.16045,-0.16944 -0.49239,-0.14123 -0.22683,0.0283 -0.32642,-0.1921 -0.0609,-0.1978 -0.88521,-0.33919 -0.13831,0.10742 -0.55879,-0.53728 -0.50899,-0.20935 -0.21023,-0.19243 0.0664,-0.60022 -0.33749,-0.22094 0.0996,-0.20401 -0.36514,-0.28909 -0.0941,-0.19846 0.48133,-0.61838 0.13831,-0.42576 0.24896,-0.25557 0.17151,-0.48864 -0.72476,-0.006 -0.24896,0.28981 -0.53666,-0.33528 0.13278,-0.47191 -0.56431,-0.0739 -0.35962,0.10806 -0.6639,-0.56891 0.0332,-0.296 -0.29322,-0.24484 -0.39281,0.53515 -0.37068,-0.074 -0.19364,0.31298 -0.40941,0.36405 -0.44813,-0.0398 -0.33749,0.24451 0.49793,0.33537 -0.36514,0.22729 -0.52559,-0.18183 -0.30983,0.0341 -0.37067,0.26703 -0.58645,-0.0795 -0.2711,-0.21591 -0.083,-0.3183 -0.47026,0.72735 -0.2545,0.25555 -0.14937,-0.31235 -0.26557,-0.19315 -0.70263,-0.25571 -0.58644,-0.50598 -0.68604,0.0228 -0.30428,-0.0682 -0.16598,0.2502 -0.006,0.28423 -0.29876,0.0682 -0.14938,-0.22736 -0.51452,-0.34115 -0.0166,-0.23889 -0.37068,-0.40401 -0.18257,-0.34157 -0.29876,0.0455 -0.62517,-0.58667 h -0.27663 l -0.44814,-0.22225 -0.42047,0.23365 -0.34859,-0.49016 -0.48133,-0.33645 -0.25449,-0.33089 -0.42047,0.10271 -1.06778,-0.78774 0.17151,-0.37701 -0.2545,-0.18286 -0.0996,-0.26294 -0.38728,-0.0972 -0.6639,0.006 -0.41494,0.0629 -0.0941,0.21151 -0.75795,0.97677 -0.14938,-0.0514 -0.29322,0.23403 -0.11619,0.0171 -0.19363,-0.63946 -0.47027,-0.26849 -0.46473,-0.0914 -0.63071,0.19426 -0.19364,0.15995 -0.15491,-0.41135 0.11619,-0.42301 0.26003,-0.1258 0.0719,-0.64647 -0.2711,-0.48091 -0.32088,-0.0401 -0.23237,-0.16037 -0.13831,-0.28647 -0.2379,0.32656 -0.39834,-0.0229 -0.38728,-0.40107 -0.27109,0.16618 -0.26003,-0.32667 -0.41494,0.086 -0.0277,-0.99792 0.39281,-0.0287 0.56431,0.1033 0.0941,-0.33863 0.23789,-0.40195 -0.45366,-0.3332 0.0111,-0.1839 0.28769,-0.15519 0.0387,-0.20122 0.32642,-0.17827 -0.12171,-0.79983 -0.50346,-0.16697 -0.0885,-0.19004 0.13278,-0.37447 0.19364,-0.18442 0.32088,-0.83618 0.27663,-0.31164 -0.0498,-0.38682 0.6639,-0.62395 0.60858,-0.13872 0.29875,0.34676 0.34302,-0.43347 0.19364,0.13874 0.52006,-0.24859 -0.0941,0.41041 0.27663,0.0809 0.51452,0.32352 0.39834,-0.38709 0.24897,-0.0404 0.54772,0.24268 0.083,-0.34093 0.38175,0.30627 0.17151,-0.27737 -0.20471,-0.23701 0.0166,-0.20816 0.33195,-0.16772 0.20471,0.47416 0.33748,-0.38162 0.21024,0.0347 0.35408,0.48565 -0.0775,0.2427 0.35409,0.49097 0.47579,0.26557 0.49793,-0.30022 0.35408,0.21941 0.16597,-0.0808 0.42048,0.20782 0.1881,0.27124 0.89074,0.4557 0.17704,-0.17879 0.32642,0.0173 0.18257,0.47859 0.27663,0.0807 0.54219,0.33423 0.52005,0.0519 0.53112,-0.20742 0.34855,-0.61106 0.22684,-0.24802 0.43707,-0.0692 0.16044,0.39798 -0.0443,0.1845 0.76349,0.1787 0.6639,0.32846 0.26003,-0.16133 0.2379,0.0288 0.54772,-0.44959 0.59751,0.075 0.13831,-0.19027 0.4924,0.16145 0.27662,0.24786 0.86308,-0.17292 0.29875,0.10376 0.12172,-0.25365 0.4094,-0.075 0.29876,0.1672 0.2047,-0.10954 z"
       id="path12" />
  </g>
</svg>
