<?xml version="1.0" encoding="UTF-8" standalone="no"?>
<!-- Created with Inkscape (http://www.inkscape.org/) -->

<svg
   xmlns:dc="http://purl.org/dc/elements/1.1/"
   xmlns:cc="http://creativecommons.org/ns#"
   xmlns:rdf="http://www.w3.org/1999/02/22-rdf-syntax-ns#"
   xmlns:svg="http://www.w3.org/2000/svg"
   xmlns="http://www.w3.org/2000/svg"
   xmlns:sodipodi="http://sodipodi.sourceforge.net/DTD/sodipodi-0.dtd"
   xmlns:inkscape="http://www.inkscape.org/namespaces/inkscape"
   width="25.360569mm"
   height="25.641275mm"
   viewBox="0 0 25.360569 25.641275"
   version="1.1"
   id="svg551"
   inkscape:version="0.92.2 2405546, 2018-03-11"
   sodipodi:docname="LAZ.svg">
  <defs
     id="defs545" />
  <sodipodi:namedview
     id="base"
     pagecolor="#ffffff"
     bordercolor="#666666"
     borderopacity="1.0"
     inkscape:pageopacity="0.0"
     inkscape:pageshadow="2"
     inkscape:zoom="0.35"
     inkscape:cx="-1200.6491"
     inkscape:cy="165.59775"
     inkscape:document-units="mm"
     inkscape:current-layer="layer1"
     showgrid="false"
     inkscape:window-width="1920"
     inkscape:window-height="1016"
     inkscape:window-x="0"
     inkscape:window-y="27"
     inkscape:window-maximized="1" />
  <metadata
     id="metadata548">
    <rdf:RDF>
      <cc:Work
         rdf:about="">
        <dc:format>image/svg+xml</dc:format>
        <dc:type
           rdf:resource="http://purl.org/dc/dcmitype/StillImage" />
        <dc:title></dc:title>
      </cc:Work>
    </rdf:RDF>
  </metadata>
  <g
     inkscape:label="Livello 1"
     inkscape:groupmode="layer"
     id="layer1"
     transform="translate(-423.50507,-167.00646)">
    <path
       inkscape:connector-curvature="0"
       style="fill:#ffffff;stroke:#000000;stroke-width:0.26458332"
       d="m 438.59376,192.03604 -0.23789,0.38337 -0.12172,-0.15116 z m -10.60031,-24.83998 0.094,0.089 0.26003,0.6562 0.46473,0.18342 -0.19364,0.4667 -0.32088,0.32765 0.14384,0.28311 0.35961,0.10545 0.50346,0.33291 0.70817,-0.16644 0.21024,0.17753 0.35961,-0.36065 0.42047,0.21641 0.37621,0.4271 -0.13831,0.22733 0.16598,0.14413 -0.0719,0.37128 0.35408,0.16066 -0.0774,0.35997 0.48133,0.58117 0.33748,0.19363 0.42601,-0.3375 0.17704,0.27112 -0.0166,0.43139 0.10512,0.32063 0.38174,-0.0995 0.19364,0.33159 0.29322,0.0166 0.0719,0.46401 0.47027,-0.20435 0.4592,-0.3978 -0.0221,-0.29848 0.0885,-0.43132 0.19364,0.0111 0.083,0.32627 0.16044,0.0276 0.73582,-0.38711 -0.24343,-0.26001 0.10512,-0.24903 0.44814,-0.0554 -0.005,-0.23805 0.43706,-0.0221 0.29323,-0.26028 0.43707,-0.14402 -0.12725,-0.51534 0.16044,-0.18294 0.34302,0.16631 0.21023,-0.19958 0.49793,0.0499 0.10512,-0.2218 0.42047,0.122 0.42601,-0.20519 0.27662,-0.27736 0.13278,0.17198 0.29323,-0.2663 -0.0111,-0.27748 0.16597,-0.29979 -0.005,-0.31101 0.62518,0.15552 0.10512,-0.2444 0.2047,-0.006 0.55878,0.51649 0.13278,0.0888 -0.0719,0.3441 0.19364,0.24967 0.37621,0.0943 -0.13278,0.27729 -0.0111,0.41021 -0.12724,0.13299 -0.51453,0.0111 -0.34855,0.12189 -0.29322,-0.16622 -0.6805,-0.0554 -0.33195,0.78655 0.19917,0.19928 -0.0609,0.35417 -0.17151,0.30978 -0.36515,0.24331 0.37621,0.39247 0.33196,0.18235 v 0.25412 l -0.34855,0.3203 0.71369,0.49126 0.0221,0.42478 0.61411,0.72218 0.27109,0.0331 0.11619,0.28649 0.34855,0.36897 -0.43707,0.24773 -0.17151,0.29717 -0.28769,-0.0165 -0.26003,0.15956 -0.63624,-0.4127 -0.13278,0.11007 -0.4426,-0.34127 -0.36515,-0.0165 -0.005,0.44033 -0.26003,0.2806 -0.2213,0.0495 -0.17704,0.57736 0.0774,0.32974 0.27109,0.43945 0.45367,0.0879 0.0387,-0.21418 0.33749,0.1373 0.57538,0.37884 0.32088,0.0659 0.52559,0.40606 0.35962,0.0713 0.14384,0.2523 h 0.18258 l 0.27109,0.28511 -0.2379,0.45489 0.0664,0.47106 0.24343,0.17522 0.15491,-0.22998 0.47027,0.21902 0.0774,0.14781 0.39281,0.0985 0.17151,0.37758 0.48686,0.24068 0.13831,-0.15863 0.4426,-0.21336 0.0664,-0.27911 0.23237,-0.0931 0.29876,0.25725 0.22683,-0.0766 0.31535,0.31189 0.005,0.16958 0.39835,0.2297 0.32641,0.0273 0.935,0.30616 0.20471,0.38254 0.46473,0.44789 0.0775,0.38216 0.13831,0.2183 -0.0885,0.49096 0.21577,0.11452 0.0221,0.45791 -0.52006,0.41409 0.19364,0.15251 -0.14385,0.25593 -0.2047,0.0653 -0.44813,0.37556 -0.34302,0.0272 -0.12172,0.21219 0.2213,0.32091 -0.14384,0.26642 0.0277,0.38046 0.2047,0.32054 -0.12171,0.25525 h -0.2545 l -0.27662,0.17375 0.11618,0.18457 -0.2047,0.22794 -0.43707,0.038 -0.11066,0.26042 -0.54772,-0.38523 -0.22683,0.11939 -0.35408,-0.18994 -0.24896,-0.0217 -0.4758,0.27676 -0.0111,0.29836 -0.27663,0.038 -0.30428,-0.1139 -1.16737,-0.69461 -0.53665,-0.20632 -0.43154,-0.076 -0.34302,0.19548 -0.48686,-0.0163 -0.51452,0.19002 -0.48686,0.37446 -0.083,0.18989 -0.29323,0.0434 -0.24896,-0.11392 -0.094,-0.42869 -0.34855,-0.72222 -0.24343,-0.35318 -0.44813,-0.42946 -0.4592,-0.31 -0.40388,-0.14688 -0.60857,-0.0109 -0.0775,0.0653 -0.4426,-0.36457 -0.49793,-0.23405 -0.46473,0.14697 -0.14944,-0.34841 -0.68603,-1.0516 -0.9184,-1.11843 -0.86307,-0.77559 -1.17843,-0.6888 -0.16598,-0.80432 -0.2047,-0.5476 -0.28769,-0.52055 -0.42048,-0.44958 -0.66943,-0.35106 -0.33749,-0.41708 -0.39834,-0.14822 -0.083,-0.18119 -0.48687,-0.33504 -0.21576,-0.011 -0.58092,0.13733 -0.33748,-0.74185 -0.11619,-0.033 -0.52559,-0.89113 0.0609,-0.20917 -0.1881,-0.1927 -0.13278,-0.41309 -0.40388,-0.64482 -0.28216,-0.33087 -0.83541,-0.65111 -0.97372,-0.46933 0.0719,-0.32593 0.24343,-0.23762 0.0664,-0.2598 0.2711,0.0774 0.37067,-0.0719 0.61411,0.0387 -0.0111,-0.68027 -0.53666,-0.39293 0.2213,-0.3322 -0.0553,-0.31017 0.36514,0.0831 0.6805,-0.33243 0.2545,-0.34364 0.2047,0.061 0.2545,-0.42141 0.21023,0.0444 0.27663,-0.23851 -0.23237,-0.23303 -0.0332,-0.48847 0.18257,-0.0167 0.17704,-0.45543 -0.38727,-0.20003 -0.32089,-0.36684 0.27109,-0.46713 0.28216,0.26696 0.43707,-0.50062 z"
       id="path16" />
  </g>
</svg>
