<svg xmlns="http://www.w3.org/2000/svg" xml:space="preserve" id="svg2" width="250" height="310.23" x="0" y="0" version="1.1" viewBox="0 0 250 310.23"><g fill-rule="evenodd" clip-rule="evenodd"><path fill="#FFF" d="M1.179 181.804V47.711h-.011l.004-2.397c.004-2.493.144-4.824.478-7.001.347-2.271.897-4.42 1.709-6.47a25.5 25.5 0 0 1 3.272-5.857c1.378-1.855 3.056-3.624 5.089-5.324 3.101-2.594 8.773-5.133 16.316-7.464 7.557-2.336 17.066-4.505 27.784-6.342 10.522-1.804 22.181-3.28 34.288-4.277h.009c11.349-.934 23.166-1.447 34.885-1.412 11.72-.035 23.535.478 34.884 1.412h.01c12.108.997 23.767 2.474 34.289 4.277 10.717 1.837 20.226 4.006 27.784 6.342 7.542 2.332 13.214 4.871 16.316 7.464 2.034 1.7 3.711 3.469 5.089 5.324a25.6 25.6 0 0 1 3.272 5.857c.81 2.049 1.361 4.199 1.709 6.47.333 2.176.474 4.507.477 7.001l.004 2.397h-.011v136.491H1.179z"/><path fill="red" d="M119.057 1.807h11.892V183.49h-11.892z"/><path fill="red" d="M1.383 92.689h246.564v11.892H1.383z"/><path fill="#969696" d="m4.226 189.141 60.005 3.195 2.326.124-.059 2.32-.013.469v1.189c0 9.827 1.984 19.183 5.576 27.701 3.737 8.863 9.219 16.844 16.027 23.531a74 74 0 0 0 23.955 15.739 74.7 74.7 0 0 0 26.667 5.483h1.554c9.443 0 18.495-1.748 26.823-4.941a74.1 74.1 0 0 0 23.17-14.217 72.7 72.7 0 0 0 16.179-21.21 71.2 71.2 0 0 0 7.307-25.432l.203-2.182h34.844l-.407 2.743a122.6 122.6 0 0 1-13.716 40.901 123.8 123.8 0 0 1-27.099 33.748 124.4 124.4 0 0 1-38.179 22.836 124.3 124.3 0 0 1-43.749 7.92c-16.318 0-31.936-3.15-46.259-8.88a124.3 124.3 0 0 1-39.632-25.491c-11.257-10.746-20.491-23.595-27.058-37.935-6.338-13.838-10.189-29.061-10.974-45.112L1.588 189z"/><path d="M3.56 45.314h.007v136.49h242.862V45.314h.017c-.007-4.687-.542-8.835-2.027-12.59-1.465-3.704-3.881-7.059-7.668-10.226-5.792-4.845-21.994-9.687-42.967-13.283-20.272-3.476-44.865-5.732-68.78-5.66-23.915-.072-48.509 2.185-68.781 5.66-20.973 3.595-37.174 8.438-42.967 13.283-3.787 3.167-6.203 6.523-7.668 10.226-1.486 3.755-2.021 7.903-2.028 12.59m-3.56 0h.007c.007-5.133.604-9.705 2.264-13.9 1.68-4.247 4.421-8.071 8.699-11.648C17.244 14.52 34.067 9.399 55.623 5.704 76.045 2.203 100.85-.071 125.003.002c24.153-.072 48.957 2.201 69.379 5.702 21.557 3.695 38.38 8.817 44.653 14.062 4.278 3.577 7.02 7.402 8.7 11.648 1.659 4.194 2.257 8.766 2.264 13.9h-.003v140.057h-.067v.001H0z"/><path fill="#969696" d="m190.556 122.756-5.394 11.44-12.605-1.048 7.21 10.392-7.21 10.393 12.605-1.049 5.464 11.353 5.326-11.353 12.613.997-7.219-10.341 7.219-10.36-12.613 1.016zm-130.917 0-5.395 11.44-12.604-1.048 7.209 10.392-7.209 10.393 12.604-1.049 5.465 11.353 5.325-11.353 12.613.997-7.218-10.341 7.218-10.36-12.613 1.016zm130.917-95.26-5.394 11.441-12.605-1.048 7.21 10.392-7.21 10.392 12.605-1.048 5.464 11.353 5.326-11.353 12.613.997-7.219-10.341 7.219-10.36-12.613 1.016zm-130.917 0-5.395 11.441-12.604-1.048 7.209 10.392-7.209 10.392 12.604-1.048 5.465 11.353 5.325-11.353 12.613.997-7.218-10.341 7.218-10.36-12.613 1.016z"/><path d="M122.935 183.954h4.136v84.164h-4.136z"/><path d="m64.11 194.724-60.006-3.195c1.568 32.047 15.592 60.713 37.293 81.426 21.901 20.905 51.623 33.707 84.243 33.707 30.594 0 58.811-11.305 80.355-30.157 21.015-18.389 35.681-43.951 40.018-73.196h-29.892c-1.791 19.114-10.808 36.023-24.263 48.195-13.615 12.317-31.777 19.785-51.594 19.785v.008c-21.025 0-40.066-8.378-53.853-21.921-13.792-13.547-22.323-32.265-22.323-52.937h-.007a79 79 0 0 1 .029-1.715m3.701-2.742-.051.835a74 74 0 0 0-.074 1.839c-.012.44-.019 1.03-.019 1.782h-.007c0 19.678 8.125 37.499 21.258 50.4 13.139 12.906 31.293 20.89 51.346 20.89v.007c18.889 0 36.204-7.122 49.185-18.866 12.974-11.737 21.615-28.094 23.165-46.574v-2.242h37.258v1.491l-.006.011c-4.031 31.065-19.336 58.23-41.503 77.626-22.181 19.409-51.229 31.049-82.723 31.049-33.571 0-64.17-13.183-86.723-34.711C16.503 254.123 2.043 224.478.516 191.337l-.009-.001-.172-3.202z"/></g></svg>