<?xml version="1.0" encoding="UTF-8" standalone="no"?>
<!-- Created with Inkscape (http://www.inkscape.org/) -->

<svg
   xmlns:dc="http://purl.org/dc/elements/1.1/"
   xmlns:cc="http://creativecommons.org/ns#"
   xmlns:rdf="http://www.w3.org/1999/02/22-rdf-syntax-ns#"
   xmlns:svg="http://www.w3.org/2000/svg"
   xmlns="http://www.w3.org/2000/svg"
   xmlns:sodipodi="http://sodipodi.sourceforge.net/DTD/sodipodi-0.dtd"
   xmlns:inkscape="http://www.inkscape.org/namespaces/inkscape"
   width="28.793907mm"
   height="27.605749mm"
   viewBox="0 0 28.793907 27.605749"
   version="1.1"
   id="svg164"
   inkscape:version="0.92.2 2405546, 2018-03-11"
   sodipodi:docname="LOM.svg">
  <defs
     id="defs158" />
  <sodipodi:namedview
     id="base"
     pagecolor="#ffffff"
     bordercolor="#666666"
     borderopacity="1.0"
     inkscape:pageopacity="0.0"
     inkscape:pageshadow="2"
     inkscape:zoom="0.35"
     inkscape:cx="-559.8721"
     inkscape:cy="-342.11737"
     inkscape:document-units="mm"
     inkscape:current-layer="layer1"
     showgrid="false"
     inkscape:window-width="1920"
     inkscape:window-height="1016"
     inkscape:window-x="0"
     inkscape:window-y="27"
     inkscape:window-maximized="1" />
  <metadata
     id="metadata161">
    <rdf:RDF>
      <cc:Work
         rdf:about="">
        <dc:format>image/svg+xml</dc:format>
        <dc:type
           rdf:resource="http://purl.org/dc/dcmitype/StillImage" />
        <dc:title></dc:title>
      </cc:Work>
    </rdf:RDF>
  </metadata>
  <g
     inkscape:label="Livello 1"
     inkscape:groupmode="layer"
     id="layer1"
     transform="translate(-253.96616,-30.70903)">
    <path
       inkscape:connector-curvature="0"
       style="fill:#ffffff;stroke:#000000;stroke-width:0.26458332"
       d="m 273.06863,32.36297 0.0221,0.349859 0.17705,0.213394 0.74135,0.05927 0.47027,0.319957 0.2047,0.290215 -0.0498,0.266428 0.13831,0.378762 -0.22683,0.325349 -0.39281,0.02366 -0.32642,0.307467 -0.0553,0.195059 0.37068,0.224553 0.13278,0.383953 -0.0332,0.342442 0.0941,0.377691 -0.43154,0.831449 0.23237,0.300517 -0.17151,0.29451 -0.0609,0.60634 -0.49239,0.505899 -0.0443,0.5232 -0.28216,0.293777 -0.0387,0.4522 0.30429,0.08219 0.0664,0.522289 0.16044,0.392951 -0.16597,0.322424 0.11065,0.152372 0.0609,0.661885 0.19917,-0.03513 0.0387,0.532637 0.29876,0.05851 0.35961,-0.263327 0.4924,-0.134623 0.0332,-0.281029 0.94052,-0.0527 0.86861,0.0527 -0.6639,1.141047 -0.6805,1.086827 -0.69157,0.881204 -0.0277,0.104977 0.14385,2.050066 0.21023,0.366351 0.49793,0.162766 0.0111,0.28476 -0.18811,0.214953 0.16598,0.638707 0.16044,0.261138 0.0609,0.388644 0.44261,-0.388644 0.32641,0.295852 0.29323,0.516025 0.48686,0.133297 0.36515,0.191217 0.12171,0.376502 0.42601,0.133181 0.0719,0.520922 0.50899,0.121499 -0.21024,0.364387 0.43154,0.335317 0.31535,-0.138734 0.21577,0.08093 0.11065,-0.289079 0.48686,0.196586 -0.0166,0.375687 0.13832,0.306197 0.32642,0.219464 0.21576,-0.132826 0.17704,0.508084 0.37068,0.103886 0.17704,0.23658 0.80775,0.346083 0.11619,0.236405 -0.47027,-0.109545 -0.2047,0.109545 -0.29876,-0.167206 -0.4094,0.07496 -0.12172,0.253651 -0.29876,-0.103756 -0.86307,0.172921 -0.27662,-0.247864 -0.4924,-0.161444 -0.13831,0.19027 -0.59752,-0.07495 -0.54772,0.449583 -0.23789,-0.02881 -0.26003,0.161332 -0.66391,-0.328462 -0.76348,-0.178694 0.0443,-0.184502 -0.16045,-0.397978 -0.43706,0.06923 -0.22684,0.248015 -0.34855,0.611061 -0.53112,0.20742 -0.52006,-0.05185 -0.54218,-0.334227 -0.27663,-0.0807 -0.18257,-0.478586 -0.32642,-0.0173 -0.17704,0.178787 -0.89074,-0.4557 -0.18811,-0.271237 -0.42047,-0.20782 -0.16597,0.08083 -0.35409,-0.2194 -0.49792,0.300217 -0.4758,-0.26557 -0.35408,-0.490969 0.0774,-0.242707 -0.35408,-0.485643 -0.21024,-0.0347 -0.33748,0.381619 -0.20471,-0.47416 -0.33194,0.167722 -0.0166,0.208158 0.2047,0.237004 -0.17151,0.277373 -0.38174,-0.306274 -0.083,0.34094 -0.54772,-0.242687 -0.24897,0.04045 -0.39834,0.387088 -0.51452,-0.323522 -0.27663,-0.0809 0.0941,-0.410417 -0.52006,0.248587 -0.19364,-0.138734 -0.34301,0.433469 -0.29876,-0.346757 -0.60858,0.138721 -0.6639,0.623943 0.0498,0.386826 -0.27662,0.311634 -0.32089,0.836184 -0.19364,0.18442 -0.13278,0.374465 0.0885,0.190044 0.50346,0.166974 0.12172,0.799825 -0.32642,0.178268 -0.0387,0.201223 -0.28769,0.155194 -0.0111,0.183894 0.45367,0.333199 -0.2379,0.40195 -0.0941,0.338629 -0.56432,-0.103296 -0.39281,0.02869 0.0277,-0.487944 0.10512,-0.41356 -0.4094,-0.270077 0.0166,-0.333412 -0.12725,-0.241522 -0.49793,0.115019 -0.32642,-0.224305 -0.2213,-0.310682 0.16598,-0.287777 -0.13832,-0.328194 -0.24896,0.01151 -0.29876,-0.287996 -0.0774,-0.293865 -0.21577,-0.172913 0.083,-0.328642 -0.28769,-0.294161 -0.22684,0.06922 -0.23236,-0.33464 -0.0111,-0.49068 -0.18257,-0.144375 -0.55879,0.103952 -0.53665,0.548415 -0.17151,-0.190458 -0.44813,-0.23092 -0.51453,0.190513 -0.17151,-0.24248 0.11065,-0.47363 -0.36514,-0.456571 -0.27663,-0.607248 -0.2379,-0.06364 -0.11065,-0.335661 0.18258,-0.20262 -0.35962,-0.318513 0.16598,-0.457727 -0.29876,-0.533384 -0.0443,-0.232018 0.29876,-0.162455 -0.11065,-0.336621 0.22683,-0.150945 0.27663,0.104505 0.32088,-0.0987 0.42601,0.394719 0.10511,0.464116 0.48687,-0.150807 0.0996,-0.41197 0.33195,-0.26122 -0.38727,-0.261308 0.70816,-0.116165 0.48133,-0.203327 -0.52559,-0.947632 -0.0166,-0.337468 -0.58091,-0.221182 -0.14385,-0.244535 -0.0885,-0.938095 -0.17704,-0.419886 0.0277,-0.309227 -0.24343,-0.484507 -0.2213,-0.0292 0.13278,-0.432241 -0.083,-0.198678 -0.426,-0.05844 -0.45367,-0.684124 0.0775,-0.444711 0.30982,-0.368834 -0.22683,-0.749918 0.21576,-0.486663 1.21716,-1.250303 0.0941,-0.252653 -0.22683,-0.729044 0.11065,-0.288279 0.24896,-0.311933 0.37621,0.376658 0.2877,-0.04119 0.38727,0.352969 -0.30982,0.670199 -0.27663,0.258519 0.006,0.223196 0.35962,0.05873 0.29875,0.369867 0.2711,0.09978 -0.0111,0.32858 0.29323,0.234615 0.15491,0.580367 -0.21024,0.421813 0.40941,-0.02928 0.38728,0.327931 h 0.33748 l 0.0332,-0.286937 0.21577,-0.474549 0.2213,-0.158247 -0.0221,-0.381098 -0.30983,-0.199418 -0.22683,-0.0059 -0.0498,-0.428339 -0.23237,-0.170228 0.35962,-0.293583 -0.15491,-0.587502 0.10511,-0.229246 0.55879,-0.188151 0.11065,-0.247016 -0.16044,-0.470726 0.47579,-0.241359 0.12725,-0.264992 0.28769,-0.229733 0.27663,0.01767 0.0885,-0.441976 0.17704,-0.300689 0.24896,-0.159236 0.12172,-0.584144 0.37621,-0.590495 v -0.531832 l -0.16597,-0.171446 0.0498,-0.266113 -0.0719,-0.491072 -0.2711,-0.242694 V 33.58381 l 0.27663,-0.213212 0.0664,-0.557 0.26003,-0.04742 0.59198,0.07113 0.16044,0.385191 0.2213,0.06517 0.13278,-0.319964 0.37621,-0.296381 0.006,0.539329 -0.10511,0.651431 0.16044,0.727767 0.26003,0.106445 0.2047,0.520185 0.29322,0.330844 0.87968,0.230326 0.32642,-0.194886 0.40387,0.106307 0.11618,-0.649887 0.2213,-0.106398 0.20471,0.183231 0.96266,-0.378331 0.32641,-0.248381 0.21577,0.195163 0.19917,-0.141931 0.44814,0.502557 0.0498,0.797507 0.56985,0.265652 -0.0664,0.531031 0.21023,0.141546 0.23237,-0.153343 0.28769,0.06488 0.4924,-0.418865 -0.20471,-0.548998 -0.35961,-0.307137 -0.11618,-0.265891 0.24343,-0.620768 0.33748,-0.165623 0.0221,-0.272172 -0.33195,-0.295948 -0.49239,0.124312 -0.40941,-0.284171 0.0332,-0.503478 0.14938,-0.948619 0.34301,-0.439132 0.0719,-0.49284 0.24343,0.06533 0.56985,-0.267312 0.32089,0.09505 0.19917,-0.219832 0.2047,0.320815 -0.14937,0.267244 0.51452,0.563875 0.55878,-0.0534 0.42048,0.14833 0.2047,-0.07119 z"
       id="path20" />
  </g>
</svg>
