<svg xmlns="http://www.w3.org/2000/svg" xml:space="preserve" id="Regione_Puglia_-_pittogramma" x="0" y="0" version="1.1" viewBox="0 0 298.6 500"><g id="Group_6392" transform="translate(.127 21.631)"><path id="Path_6059" fill="#007AC1" d="M297.3 367.7v66.1c-.7 5.4-3.4 10.3-7.4 13.9-3.4 3.6-8 5.9-12.9 6.5h-.4c-16.2-.2-44-.1-67.4-.1l87.3-86.3z"/><path id="Path_6060" fill="#D9000D" d="M259.8 352.5v-90.6l-62.9-64.6-.4-.4H99.8l-63 64.6-.3.4v90.6l65.3 65.3h92.4zm37.5-103v118.2h-.8L209.2 454c-22.4 0-40.7.1-40.7.1-4 0-7.8 1.4-10.8 4.1-4.2 5.4-6.5 12.2-6.4 19.1h-4.6c.1-6.9-2.1-13.6-6.4-19.1-3-2.6-6.8-4.1-10.8-4.1 0 0-19.1-.1-42.2-.1l-86-85.3H.9V249.4l83.3-84.5h128.2l83.4 84.7z"/></g><path id="Path_6061" fill="#007AC1" d="M297.4 186.5v84.7H296l-83.4-84.7z"/><path id="Path_6062" fill="#FFA900" d="M295.8 115H1.1v71.5h296.3V115z"/><g id="Group_6393" transform="translate(3.85)"><path id="Path_6063" fill="#FFA900" d="M259.5 21.9c0 1.4-1.5 2.9-3.9 4.5-1.2-12.3-56.5-19.6-110-19.6h-.4C91.4 6.8 36.3 14.1 35 26.4c-2.3-1.6-3.9-3.1-3.9-4.5 0-9.6 45.8-20.1 114-20.1h.4c27.7-.4 55.3 1.8 82.5 6.5 20 3.8 31.4 8.8 31.5 13.6"/><path id="Path_6064" fill="#161417" d="M251.1 64.4c0-8.4-43.4-17.8-105.5-17.8h-.6C82.9 46.7 39.6 56 39.6 64.4S83 82.2 145.1 82.2h.4c62.1 0 105.6-9.5 105.6-17.8m1.5-34c.8-.9 1.2-2.1 1.1-3.3 0-8.6-44.5-18.3-108.3-18.3h-.4c-63.7 0-108.3 9.7-108.3 18.3-.1 1.2.3 2.4 1.1 3.3 1.1.9 2.3 1.7 3.5 2.5L59 35.1 46.1 46l-1.9 11.6q2.25-1.05 5.1-2.1l2-.7c19.9-6.5 56.9-9.8 93.8-9.8h.4c36.8 0 73.8 3.4 93.8 9.8l1.9.7c1.9.7 3.6 1.4 5.2 2.1L244.5 46l-13-10.9 17.7-2.2c1.2-.8 2.3-1.6 3.4-2.5m3-4c2.4-1.6 3.9-3.1 3.9-4.5 0-4.8-11.4-9.8-31.4-13.6-27.3-4.7-54.9-6.8-82.6-6.5h-.4c-68.2 0-114 10.4-114 20.1 0 1.4 1.6 2.9 3.9 4.5C36.3 14.1 91.5 6.8 145.1 6.8h.4c53.6 0 108.9 7.3 110.1 19.6m5.7-4.5c0 2.6-1.9 4.9-5.3 6.9-1.2 2.3-3 4.1-5.3 5.3l4.6 8.5-8.6 3.2 2.2 13.3c2.6 1.7 4.1 3.4 4.1 5.4 0 12.4-54.5 19.8-107.4 19.8h-.6c-52.9 0-107.4-7.4-107.4-19.8 0-1.9 1.5-3.7 4.1-5.4l2.2-13.3-8.6-3.2 4.6-8.5c-2.3-1.2-4.1-3-5.3-5.3-3.4-2-5.3-4.3-5.3-6.9C29.3 8.3 87.9 0 144.9 0h.5c57 0 115.7 8.3 115.7 21.9"/></g><path id="Path_6065" fill="#E8E8E8" d="M259.9 283.5v90.6l-65.6 65.3H102l-65.3-65.3v-90.6l.3-.4 63-64.6h96.7l.4.4z"/><g id="Group_6394" transform="translate(.127 1.026)"><path id="Path_6066" fill="#FFA900" d="M257.4 26.1c.1 1.2-.3 2.4-1.1 3.3-1.1.9-2.2 1.7-3.4 2.5l-17.7 2.2 13 10.9 1.9 11.6c-1.5-.7-3.2-1.4-5.2-2.1l-1.9-.7c-20-6.4-57-9.8-93.8-9.8h-.4C112 44 74.9 47.4 55 53.8l-2 .7q-2.85 1.05-5.1 2.1L49.8 45l13.1-10.9-17.7-2.2c-1.2-.7-2.4-1.6-3.5-2.5-.8-.9-1.2-2.1-1.1-3.3 0-8.6 44.5-18.3 108.3-18.3h.4c63.6 0 108.1 9.7 108.1 18.3"/><path id="Path_6067" fill="#FFA900" d="M150.4 77.9c46.8 0 96.3-4.9 96.3-14s-49.8-14-96.3-14h-2.8c-46.5 0-96.2 4.8-96.2 14s49.4 14 96.2 14zm-1.1-32.3c62.1 0 105.5 9.4 105.5 17.8s-43.5 17.8-105.5 17.8h-.4c-62.1 0-105.5-9.5-105.5-17.8s43.4-17.8 105.4-17.8z"/><path id="Path_6068" fill="#FFF" d="M150.4 51.7c60.9 0 94.3 7.1 94.3 12.2S211 76.1 150.4 76.1h-2.8c-60.6 0-94.2-7.2-94.2-12.2s33.3-12.2 94.2-12.2z"/><path id="Path_6069" fill="#161417" d="M244.7 63.9c0-5.2-33.4-12.2-94.3-12.2h-2.8c-60.9 0-94.2 7.1-94.2 12.2S87 76.1 147.6 76.1h2.8c60.6 0 94.3-7.1 94.3-12.2m2 0c0 9.1-49.5 14-96.3 14h-2.8c-46.8 0-96.2-4.9-96.2-14s49.7-14 96.2-14h2.8c46.5.1 96.3 4.8 96.3 14"/><path id="Path_6070" fill="#007AC1" d="M87.5 474.7c-23.1 0-50.1-.1-65.8.1h-.4c-5-.5-9.6-2.8-13-6.5-4.1-3.6-6.7-8.5-7.3-13.9v-65.1h.4z"/></g><path id="Path_6071" fill="#007AC1" d="M1.1 186.5V271l83.3-84.5z"/><path id="Rectangle_2381" fill="#161417" d="M43.4 372.4h2.2v121.3h-2.2z" transform="rotate(-45.243 44.493 432.995)"/><path id="Path_6072" fill="#161417" d="m.1 270.4.8.8.9.6 83.3-84.5-1.6-1.6z"/><path id="Path_6073" fill="#161417" d="M102.5 438.3h91.4l64.9-64.7V284l-62.6-64.3h-95.8l-62.6 64.2v89.8zm92.3 2.2h-93.3l-.3-.3-65.6-65.6v-91.4l.5-.6 63.4-65.1h97.6l.7.7 63.3 65v91.5l-.3.3z"/><path id="Rectangle_2382" fill="#161417" d="M253.2 169.4h2.2v118.9h-2.2z" transform="rotate(-44.575 254.294 228.825)"/><path id="Path_6074" fill="#161417" d="m210.1 476.5-1.6-1.5.1-.1 87.3-86.3 1.6 1.6z"/><path id="Rectangle_2383" fill="#161417" d="M1.1 185.4H296v2.2H1.1z"/><g id="Group_6395" transform="translate(0 13.21)"><path id="Path_6075" fill="#161417" d="M148 484.6h2.4c-.1-6.9 2.3-13.5 6.7-18.8 3.2-2.8 7.3-4.3 11.5-4.3 0 0 18.3-.1 40.7-.1h18.5c18.1 0 36.9 0 48.9.1h.4c4.6-.5 8.9-2.7 12.1-6.1 3.9-3.4 6.4-8.1 7.1-13.3V102.9H2.2v339.3c.6 5 3.1 9.7 7 13 3.3 3.5 7.7 5.7 12.4 6.2h.2c11.7-.1 30-.1 47.6-.1h18.2c23.1 0 42.2.1 42.2.1 4.3 0 8.4 1.6 11.6 4.4 4.3 5.3 6.7 11.9 6.6 18.8m3.5 2.2h-5.7v-1.1c.1-6.6-2-13-6-18.3-2.8-2.5-6.4-3.8-10.1-3.8 0 0-19.1-.1-42.1-.1H69.4c-17.7 0-35.9 0-47.6.1h-.4c-5.3-.6-10.1-3-13.8-6.8-4.2-3.7-6.9-8.9-7.6-14.5V100.7h298.6v341.6c-.7 5.7-3.5 10.9-7.8 14.7-3.5 3.8-8.3 6.2-13.5 6.7h-.5c-12.1-.1-30.8-.1-48.9-.1h-18.5c-22.4 0-40.7.1-40.7.1-3.7 0-7.2 1.3-10 3.7-4 5.3-6.2 11.7-6 18.3v1.1z"/></g><path id="Path_6076" fill="#007AC1" d="m149.1 13.9-18.6 9.3 18.6 10.2 18.6-10.2z"/><path id="Path_6077" fill="#161615" d="m133 23.3 16.2 8.9 16.2-8.9-16.2-8.1zm16.1 11.3-.5-.3-20.4-11.2 20.9-10.5.5.2L170.1 23z"/><g id="Group_6396" transform="translate(3.459 1.586)"><path id="Path_6078" fill="#00863C" d="M202.9 21.4c-7-1.4-13.5.3-14.7 3.7-1.2 3.3 3.7 7.3 10.6 8.4 7 1.4 13.5-.3 14.6-3.4 1-3.7-3.6-7.6-10.5-8.7"/><path id="Path_6079" fill="#161417" d="M198.1 22c-4.6 0-8.1 1.5-8.8 3.4-.2.7-.1 1.4.3 2 2.4 2.8 5.8 4.6 9.5 4.9 6.6 1.3 12.5-.3 13.4-2.7q.15-1.35-.6-2.4c-2.3-2.7-5.6-4.4-9.2-4.7-1.4-.3-3-.4-4.6-.5m5.7 13.1c-1.7 0-3.4-.2-5-.5-4.3-.4-8.3-2.5-11-6-.8-1.2-.9-2.6-.5-3.9 1.4-4 8.3-5.9 15.9-4.4 4.2.4 8 2.5 10.6 5.7.9 1.2 1.2 2.8.9 4.3-1.1 3.1-5.6 4.8-10.9 4.8"/><path id="Path_6080" fill="#FFA900" d="M176.2 15.6c0-1.3 1.1-2.4 2.4-2.4s2.4 1.1 2.4 2.4-1.1 2.4-2.4 2.4-2.4-1.1-2.4-2.4"/><path id="Path_6081" fill="#161417" d="M178.6 14.3c-.7 0-1.3.6-1.3 1.3s.6 1.3 1.3 1.3 1.3-.6 1.3-1.3-.6-1.3-1.3-1.3m0 4.8c-1.9 0-3.5-1.6-3.5-3.5s1.6-3.5 3.5-3.5 3.5 1.6 3.5 3.5-1.5 3.5-3.5 3.5"/><path id="Path_6082" fill="#FFA900" d="M175.5 30.3c0-1.3 1.1-2.4 2.4-2.4s2.4 1.1 2.4 2.4-1.1 2.4-2.4 2.4-2.4-1.1-2.4-2.4"/><path id="Path_6083" fill="#161417" d="M177.9 29c-.7 0-1.3.6-1.3 1.3s.6 1.3 1.3 1.3 1.3-.6 1.3-1.3-.6-1.3-1.3-1.3m0 4.8c-1.9 0-3.5-1.6-3.5-3.5s1.6-3.5 3.5-3.5 3.5 1.6 3.5 3.5-1.6 3.5-3.5 3.5"/><path id="Path_6084" fill="#FFA900" d="M220.5 37.1c0-1.3 1.1-2.4 2.4-2.4s2.4 1.1 2.4 2.4-1.1 2.4-2.4 2.4-2.4-1.1-2.4-2.4"/><path id="Path_6085" fill="#161417" d="M222.9 35.8c-.7 0-1.3.6-1.3 1.3s.6 1.3 1.3 1.3 1.3-.6 1.3-1.3c0-.8-.6-1.3-1.3-1.3m0 4.8c-1.9 0-3.5-1.6-3.5-3.5s1.6-3.5 3.5-3.5 3.5 1.6 3.5 3.5-1.5 3.5-3.5 3.5"/><path id="Path_6086" fill="#FFA900" d="M223.4 24.2c0-1.3 1.1-2.4 2.4-2.4s2.4 1.1 2.4 2.4-1.1 2.4-2.4 2.4c-1.3.1-2.4-1-2.4-2.4 0 .1 0 0 0 0"/><path id="Path_6087" fill="#161417" d="M225.8 23c-.7 0-1.3.6-1.3 1.3s.6 1.3 1.3 1.3 1.3-.6 1.3-1.3c0-.8-.6-1.4-1.3-1.3m0 4.7c-1.9 0-3.5-1.6-3.5-3.5s1.6-3.5 3.5-3.5 3.5 1.6 3.5 3.5c0 2-1.5 3.5-3.5 3.5"/><path id="Path_6088" fill="#00863C" d="M88.4 21.4c7-1.4 13.5.3 14.7 3.7s-3.7 7.3-10.6 8.4c-7 1.4-13.5-.3-14.6-3.4-.9-3.7 3.6-7.6 10.5-8.7"/><path id="Path_6089" fill="#161417" d="M93.2 22c-1.5 0-3.1.2-4.6.5-3.5.4-6.8 2.1-9.2 4.8-.5.7-.7 1.6-.6 2.5.9 2.2 6.7 3.9 13.3 2.6 3.7-.3 7.1-2.1 9.5-4.9.4-.6.5-1.3.3-2-.5-2-4-3.5-8.7-3.5m-5.6 13c-5.3 0-9.7-1.7-10.8-4.6-.4-1.5-.1-3.1.9-4.4 2.6-3.2 6.5-5.3 10.6-5.7 7.5-1.5 14.5.4 15.9 4.4.4 1.3.2 2.7-.5 3.9-2.7 3.4-6.7 5.5-11 5.9-1.7.3-3.4.5-5.1.5"/><path id="Path_6090" fill="#FFA900" d="M115.1 15.6c0-1.3-1.1-2.4-2.4-2.4s-2.4 1.1-2.4 2.4 1.1 2.4 2.4 2.4 2.4-1.1 2.4-2.4"/><path id="Path_6091" fill="#161417" d="M112.7 14.3c-.7 0-1.3.6-1.3 1.3s.6 1.3 1.3 1.3 1.3-.6 1.3-1.3-.5-1.3-1.3-1.3m0 4.8c-1.9 0-3.5-1.6-3.5-3.5s1.6-3.5 3.5-3.5 3.5 1.6 3.5 3.5-1.5 3.5-3.5 3.5"/><path id="Path_6092" fill="#FFA900" d="M115.9 30.3c0-1.3-1.1-2.4-2.4-2.4s-2.4 1.1-2.4 2.4 1.1 2.4 2.4 2.4 2.4-1.1 2.4-2.4"/><path id="Path_6093" fill="#161417" d="M113.5 29c-.7.1-1.2.7-1.1 1.4.1.6.5 1.1 1.1 1.1.7-.1 1.2-.7 1.1-1.4 0-.6-.5-1-1.1-1.1m0 4.8c-1.9 0-3.5-1.6-3.5-3.5s1.6-3.5 3.5-3.5 3.5 1.6 3.5 3.5-1.6 3.5-3.5 3.5"/><path id="Path_6094" fill="#FFA900" d="M70.8 37.1c0-1.3-1.1-2.4-2.4-2.4S66 35.8 66 37.1s1.1 2.4 2.4 2.4 2.4-1.1 2.4-2.4"/><path id="Path_6095" fill="#161417" d="M68.4 35.8c-.7 0-1.3.5-1.3 1.2s.6 1.3 1.3 1.3 1.3-.6 1.3-1.3c0-.6-.5-1.2-1.3-1.2m0 4.8c-1.9 0-3.5-1.6-3.5-3.5s1.6-3.5 3.5-3.5 3.5 1.6 3.5 3.5-1.5 3.5-3.5 3.5"/><path id="Path_6096" fill="#FFA900" d="M67.9 24.2c0-1.3-1.1-2.4-2.4-2.4s-2.4 1.1-2.4 2.4 1.1 2.4 2.4 2.4c1.3.1 2.4-1 2.4-2.4 0 .1 0 0 0 0"/><path id="Path_6097" fill="#161417" d="M65.5 23c-.7 0-1.3.6-1.3 1.3s.6 1.3 1.3 1.3 1.3-.6 1.3-1.3c0-.8-.6-1.4-1.3-1.3m0 4.7c-1.9 0-3.5-1.6-3.5-3.5s1.6-3.5 3.5-3.5 3.5 1.6 3.5 3.5c0 2-1.5 3.5-3.5 3.5"/><path id="Path_6098" fill="#161615" d="M146.8 21.8q-.9.3-1.8.3v-4.2c0-.2 0-.3.2-.4s.4-.1.6-.1c.5-.1 1.1.2 1.3.6.3.5.4 1.1.4 1.7 0 1.1-.2 1.8-.7 2.1m2.3-4.3c-.9-.5-2-.7-3-.6h-4.9v.4c.4 0 .7.1 1 .3.2.2.3.5.3 1.1v6.8c0 .4 0 .8-.3 1.1-.3.2-.6.4-1 .3v.4h5.1v-.4c-.4 0-.8-.1-1.1-.3-.2-.3-.3-.7-.3-1.1v-2.9c.9 0 1.6 0 2.1-.1s.9-.2 1.4-.4 1-.6 1.3-1.1c.3-.4.4-.9.4-1.4.1-.7-.3-1.6-1-2.1"/><path id="Path_6099" fill="#00863C" d="M250.8 159.8c6.9 0 12.4-5.6 12.4-12.4s-5.6-12.4-12.4-12.3c-6.8 0-12.3 5.5-12.3 12.4 0 6.8 5.5 12.3 12.3 12.3"/><path id="Path_6100" fill="#161417" d="M250.8 158.7c6.2 0 11.3-5 11.3-11.3 0-6.2-5-11.2-11.3-11.3-6.2 0-11.3 5-11.3 11.3.1 6.3 5.1 11.3 11.3 11.3m.1 2.2c-7.5 0-13.5-6-13.5-13.5 0-3.6 1.4-7 4-9.5 2.5-2.5 5.9-3.9 9.5-3.9 7.4 0 13.5 6 13.5 13.5-.1 7.4-6.2 13.4-13.5 13.4"/><path id="Path_6101" fill="#00863C" d="M208.6 159.8c6.9 0 12.4-5.6 12.4-12.4s-5.6-12.4-12.4-12.3c-6.8 0-12.3 5.5-12.3 12.4 0 6.8 5.5 12.3 12.3 12.3"/><path id="Path_6102" fill="#161417" d="M208.6 158.7c6.2 0 11.3-5 11.3-11.3 0-6.2-5-11.2-11.3-11.3-6.2 0-11.3 5-11.3 11.3.1 6.3 5.1 11.3 11.3 11.3m0 2.2c-7.4 0-13.5-6-13.5-13.5 0-3.6 1.4-7 4-9.5 2.5-2.5 5.9-3.9 9.5-3.9 7.4 0 13.5 6 13.5 13.5 0 7.4-6.1 13.4-13.5 13.4"/><path id="Path_6103" fill="#00863C" d="M166.4 159.8c6.9 0 12.4-5.6 12.4-12.4s-5.6-12.4-12.4-12.3c-6.8 0-12.3 5.5-12.3 12.4 0 6.8 5.5 12.3 12.3 12.3"/><path id="Path_6104" fill="#161417" d="M166.4 158.7c6.2 0 11.3-5 11.3-11.3 0-6.2-5-11.2-11.3-11.3-6.2 0-11.3 5-11.3 11.3 0 3 1.2 5.8 3.3 7.9 2.1 2.3 5 3.5 8 3.4m0 2.2c-7.5 0-13.5-6-13.5-13.5 0-7.4 6-13.5 13.5-13.5 7.4 0 13.5 6 13.5 13.5s-6.1 13.5-13.5 13.5"/><path id="Path_6105" fill="#00863C" d="M124.2 159.8c6.9 0 12.4-5.6 12.4-12.4s-5.6-12.4-12.4-12.3c-6.8 0-12.3 5.5-12.3 12.4 0 6.8 5.5 12.3 12.3 12.3"/><path id="Path_6106" fill="#161417" d="M124.2 158.7c6.2 0 11.3-5 11.3-11.3 0-6.2-5-11.2-11.3-11.3-6.2 0-11.3 5-11.3 11.3s5.1 11.3 11.3 11.3m0 2.2c-7.5 0-13.5-6-13.5-13.5 0-3.6 1.4-7 4-9.5 2.5-2.5 5.9-3.9 9.5-3.9 7.4 0 13.5 6 13.5 13.5 0 7.4-6.1 13.4-13.5 13.4"/><path id="Path_6107" fill="#00863C" d="M39.8 159.8c6.9 0 12.4-5.6 12.4-12.4s-5.6-12.4-12.4-12.3c-6.8 0-12.3 5.5-12.3 12.4 0 6.8 5.5 12.3 12.3 12.3"/><path id="Path_6108" fill="#161417" d="M39.8 158.7c6.2 0 11.3-5 11.3-11.3 0-6.2-5-11.2-11.3-11.3-6.2 0-11.3 5-11.3 11.3s5.1 11.3 11.3 11.3m0 2.2c-7.4 0-13.5-6-13.5-13.5 0-3.6 1.4-7 4-9.5 2.5-2.5 5.9-3.9 9.5-3.9 7.4 0 13.5 6 13.5 13.5 0 7.4-6.1 13.4-13.5 13.4"/><path id="Path_6109" fill="#00863C" d="M82 159.8c6.9 0 12.4-5.6 12.4-12.4S88.8 135 82 135.1c-6.8 0-12.3 5.5-12.3 12.4-.1 6.8 5.5 12.3 12.3 12.3"/><path id="Path_6110" fill="#161417" d="M82 158.7c6.2 0 11.3-5 11.3-11.3 0-6.2-5-11.2-11.3-11.3-6.2 0-11.3 5-11.3 11.3s5.1 11.3 11.3 11.3m0 2.2c-7.5 0-13.5-6-13.5-13.5 0-7.4 6-13.5 13.5-13.5 7.4 0 13.5 6 13.5 13.5s-6.1 13.5-13.5 13.5"/><path id="Path_6111" fill="#F9A700" d="m126.7 404.5-.6.4c-.3-.3-.2-.6.2-.7z"/><path id="Path_6112" fill="#1F1F1F" d="M107.9 281.3c-1-3.4-.5-7.1 1.3-10.1 2.4 2.4 3.5 5.8 3.1 9.2-.1.7-.4 1.3.9 1.2s1.4 1.3 1.8 2.3c.2 1.8.6 3.6 1.2 5.3 0-2.2.1-3.8 0-5.4-.2-4.6-.2-8.9 5.2-10.6-1.2-2.3-2.6-2.9-4.6-1.2-.5.4-1.1.7-1.7 1-.5.3-.9.3-1.2-.3s-.1-.9.4-1.2 1-.7 1.5-.9c1.8-.7 2.4-1.6.8-3.3-.8-.8-1.1-1-2.1-.6-2.8 1.4-6.2 1.1-8.7-.7-1.1-.9-2.5-1.9-1.7-3.4.7-1.6 2.3-.9 3.6-.7s2.6.7 3.6 1.5 2.1 1.3 3.4 1.3l-3.4-5.5c-1.1 1.2-2.7 1.8-4.3 1.7-1.4-.1-2.9-.4-2.9-2.3 0-1.7 1.2-2.2 2.6-2.3h2.5c-1.1-1.9-2.1-3.6-3.1-5.4-.7-1.2-1.1-2.6-1.2-4 0-1.2-.1-2.5 1.3-2.9s2.1.8 2.6 1.7c1.6 2.8 2.7 5.8 3.2 9 1-2 1.8-3.5 2.7-5.2 3.4 5.3 2 11.6 3.8 17.7.4-1.4.6-2.3.9-3.3.1-.4.1-1 .8-.9.8.1.9.6.8 1.3 0 .2 0 .3-.1.5-2.1 4.6 1.2 6.4 4.4 8.7.4-3.8.3-7.7-.4-11.4-.2-1.2-1.2-1.7-2-2.4-4.4-4.1-4.6-11-.5-15.3l.3-.3c1.1-1.1 2.9-1.4 4.3-.8 1 .4 2 .8 3 1.3-.6-1.9-1.1-3.4-1.5-5.1s-.7-3.2-1-4.9c4.5 1.1 7.2 5.6 6.1 10 0 .1-.1.3-.1.4-.4 1.1-.3 2.3.4 3.3.1 0 .2-.1.4-.2.6-.6.1-2.5 1.5-2.1 1.7.5.4 1.8.1 2.6-1.4 4.1 1.8 6 3.7 8.6.2-2.5 1.3-4.9 3.2-6.6-1.9-1.1-4.6-1.7-4.1-4.5.3-2.1 2.3-1.2 3.8-1.3l.3.3.1-.6c0-2 .2-3.9.6-5.9.3-1.9 1.2-1.4 2.1-.6 1 .9 1.9 2.1 2.8 3.1q1.2-2.25 3-4.2c2.6 8.3 2.2 10.4-2.4 13.1q1.8 3 4.2 5.4c1-3.4 1.7-6.7 2.8-9.9.3-.8-.2-1.9-.5-2.9s.2-1.3 1-1.3c1.7.1 2.8-1 2.6-3-.1-1.2-.3-2.5-.4-3.7 0-1.8.8-3.4 2.2-4.5.8-.7 1.2-.5 1.7.2 2.1 2.7 1.8 6.6-.8 8.9-1.3 1.1-2.3 2.5-2.8 4.2l9.8-3.1c-2.3 3.8-4.6 7.1-8.9 7.8-2.4.1-4.3 2.1-4.3 4.5v.3c.5.1 1.4-.9 1.8.2s-.5 1.3-1.1 1.6c-2.1 1.2-1.6 3.2-1.6 5.3 1.9-3.2 5-5.7 8.5-6.9.1 4.7-3.1 8.8-7.7 10-.8 0-1.5.7-1.5 1.5-.2 1.7-.3 3.4-.4 5.2l.1.6.3-.3c1.9-1.7 4-3.1 6.4-4.2q-.15 2.55-.9 5.1c2.4-.3 2.8 1.1 2.4 2.9-.4 3.4-1.8 6.6-4 9.2-3.3 4.1-7.4 7.6-12 10.3-.5.2-.9.4-.9 1-1 6.1-.7 12.3 1 18.2 1.6-2.8 3.5-4.8 1.8-8.2-1.4-3.9-.4-8.3 2.4-11.4.5 1.8.9 3.4 1.3 5 .3 1.8.5 3.5.6 5.3 1.1-.7 2.1-1 1.1-2.6-1.6-2.6-1.1-5.9 1.1-7.9.6-.5 1.2-1.2 1.9-1s.7 1.2.8 1.9v4.7c1.8-.2 3.4-1.4 4.2-3.1-.7-1.3-3.3-.1-3-2.3.8-1.9 2.5-3.4 4.5-4 1.5 0 1.3 1.1 1.4 2.2 1.1-.6 1.4-1.8 2-2.8 1.2-1.7 1.1-3.1-1-4.1-.6-.3-2.1-.5-1.3-1.8s1.5.2 2.2.4c.6.3 1.1.6 1.6 1 1-1.3.8-3.2-.5-4.3l-.1-.1c-2.6-3-4.2-6.7-4.8-10.6 3.1.2 5.9 2.2 7.1 5.1.2-2.2 0-4.3-.4-6.4q-.15-1.35-1.5-.9c-2.6.9-4.2-.6-5.7-2.4-.7-.7-.9-1.9-.4-2.8.7-.9 1.8-1.3 2.9-.9.7.2 1.4.5 2.1.7.2.1.5.3.6.2.3-.3.1-.5-.2-.7-1.2-1.8-1.5-4-1-6.1.1-1.4.8-1.2 1.6-.7 1.4.8 2.2 2.3 2.1 4 0 2.5.3 5 .7 7.5.1 1.3.6 1.5 1.7.7.5-.4 1.1-1.3 1.8-.2s-.4 1.3-.9 1.6c-1.3.5-2.1 2-1.7 3.3.2 3.2 0 6.4-.6 9.5 3.4-3.3 7.3-5.8 7.3-11 .1-1.1.4-2.3.9-3.3.3-.9.9-1.9 2-2 1.4-.1 1.3 1.3 1.7 2.2 1.8-2.4 4.4-4.2 7.3-5 .7 6.6-5.4 8.1-8.5 11.8.3.4.8.7 1.3.8.6.2 1 .5.6 1.3-.3.6-.7.6-1.2.3-3.8-2.2-5 1.2-6.9 3.3 3.1-1 6.6-.4 9.2 1.6-2.7 2.6-6.7 3.3-10.2 1.8-2.4-1-3.8-.3-4.6 2.2-.2.5-.3 1.1-.6 1.8 2.8-1.1 5.7-1.9 8.6-2.4.9-.1 1.9-.3 2.3.8.3 1-.5 1.5-1.1 2-2.9 2.8-6.7 4.3-10.8 4.4-1.5-.1-2 .8-2.5 1.9.6.8 1.6.7 2.4 1.1.5.3 1.1.3.8 1.1-.3.6-.7.8-1.1.5-3.2-2.2-4.6.3-6.3 2.3-1.2 1.2-2.3 2.6-3 4.1 1.7.3 3.2-.9 5-.4-1.3 3.3-4 5.8-7.4 6.7-1.7.4-3.1 1.8-3.6 3.5-.5 1.5-1.2 2.9-1.8 4.3s0 2.2 1.5 2.3c2.5.5 4.9-1.2 5.4-3.6 0-.2.1-.4.1-.6.1-.6-.4-1.6.8-1.8 1.4-.3.5 1.3 1.3 1.5 1-1 1.9-2.1 2.9-3 .6-.5.8-1.3.5-2-.9-2.9 0-6 2.3-7.9.4 2.4.7 4.5 1.1 6.9.9-.7 1.8-1.3 2.8-1.9 1.1-.6 1-1.3.6-2.4-1.9-5-1.4-6.8 2.7-10.3.7 2.7 1 5.5.7 8.3 1.4-2.3 2.2-5.1 5.4-6.1v5c1.4 0 2.8 0 2.8-1.6.2-5.2 3.7-7.4 8.1-9.1-1.3 3.3-3 6.4-5 9.3 2.6-.8 4.7-2.6 6-5 1.7-3 4.4-5.4 7.7-6.6.7 4.2-2 8.2-6.2 9.1-2.1.4-2.9 2.3-4.8 3.2.4.3.8.5 1.2.8.6.3.7.6.4 1.2s-.6.5-1.2.4c-3.6-.8-7.3-.5-10.6 1.1 5.4 2 8.6 6.9 14.1 8.2-1.6 2.8-5.2 3.8-8 2.1-.1 0-.2-.1-.2-.1-2.1-1-4.5-.8-6.4.5 1.7.6 3.3 1.1 4.8 1.6.6.2 1.1.6 1.1 1.2-.1.4-.4.7-.8.9-2.4.7-4.9.7-7.3.1-.7-.2-1.2-.7-1.3-1.4-.4-1.8-1.3-1.1-2.3-.5.1.1.2.3.3.4 1.2 1.3 3.2 3.2 2.5 4.1-1 1.3-3.3 0-5-.5-.3-.1-.6-.2-.9-.4-3.5-2.5-8.3-1.6-10.7 1.8-.1.2-.3.4-.4.6-4.2 5.1-6.7 11.5-7.2 18.1-1.5 12.4-1.7 24.9-.5 37.4.2 2.1.5 4.1 1.1 6.1.9 4.2 4.2 7.6 8.5 8.5 4.5 1 8.3 3.9 10.4 8 1.2 2.2 3 4 5.3 5.1.7.3 1.4.7 1 1.6-.4 1-1.1.5-1.7.4-2.5-.5-4.9-1.6-6.8-3.3-.2.2-.4.3-.4.4-.2 1.1.4 2.8-1.2 3.2-1.7.4-2-1.4-2.5-2.6-2.2-5.2-7.3-8.5-12.9-8.2 3 3.5 5.9 6.9 8.9 10.3 1.6 1.8 2.9 3.8 3.8 6 .3.6.6 1.3 0 1.8s-1.4.2-2-.2c-1.2-.8-2.2-1.8-3-2.9-1.4-2-3.3-3.6-5.5-4.8-.7 1.6-1.3 3-2.2 5-.6-3.5-1.8-7-3.4-10.2-2-2.9-5.4-4.3-7.7-7.3-1.6 4.6-3.8 9-6.5 13.1l-1.7-3.6c-2.3 2.2-5.3 3.6-6 7.2-.4 1.6-.4 3.3.1 4.9.2.6.8 1.5-.3 1.9s-1.1-.7-1.4-1.3c-1.5-3.2-1.2-7 .7-10 1.8-3.4 3.2-6.9 4.8-10.3.3-.5.9-.9.7-1.7-.7-.1-.9.4-1.2.9l-3.8 3.5c-.6.5-1.2 1.1-2 .6s-.4-1.3-.4-2c.1-.9 1.2-2.1.3-2.7-1.1-.7-1.6.9-2.6 1.4-5.3 2.5-9.8 6.6-12.9 11.6-.2.3-.5.7-.8.9-.6.6-1.4 1.2-2.2.6s-.4-1.4-.1-2.1c1.7-4.2 4.5-7.9 8.1-10.7 2.8-1.8 5.7-3.3 8.5-5q3.9-2.1 7.5-4.8c4.6-4 7-10.1 6.3-16.2.5-12.7.2-25.5-.9-38.1-.7-5-3.3-9.6-7.4-12.7-.9-.7-1.5-.1-2.2.1-1.9 1-4.1 1.3-6.2.9-1-.4-1.9-1-2-2-.1-1.3 1.3-.9 2.1-1.2l3.3-.9c-.1-.2-.1-.4-.2-.5-1.4-1.1-2.9-2.9-4.4-3-1.2-.1-2.5 2-3.7 3.2-.2.2-.4.3-.6.5-1.3.8-2.8 1.8-4 .5-1.3-1.3.4-2.3 1.1-3.4.1-.2.2-.4.6-.9-2.3-.2-4.3-.7-5.9 1.3-.4.5-.9 1.6-1.9.8-1.1-.8.5-1.3.3-2.2-3.6-.6-7.2.5-9.9 2.9-1.1 1.1-2.7 1.5-4.1 1.1-.4-.1-.9-.4-.9-1 .3-1.6 1.3-2.9 2.7-3.6.5-.3 1.2-.7 1.6-.5 3.7 1.4 7-1.6 10.7-.4-.1-1.2-.4-1.7-1.4-1.7s-2-.2-2.9-.5-2.3-.3-2.3-1.3c0-.9 1.2-1.5 2-2 2.1-1.1 4.5-1.8 6.8-2 .8 0 1.5-.3 2.2-.7-2.3-1.8-5.5-1.8-7.8 0-.5.4-1.4 1.9-2.4.5-.9-1.4 1-1.2 1.5-1.9.2-.2.5-.4 1-.7-1.9-.6-3.7-1.1-5.4-1.6-1.1-.4-1 .4-1.2 1-1.1 2.6-4.1 3.8-6.7 2.7-.8-.3-1.5-.8-2-1.5-.5-.4-.7-1.1-.5-1.8.3-.7 1.1-.7 1.7-.6l4.2.3c.6 0 1.1-.4 1.3-1 .3-.7-.5-.9-1-1.2-2.2-1.2-4.2-2.6-6-4.3-.8-.7-1.4-1.6-1.9-2.6-.3-.7-.5-1.4.1-2.1.7-.6 1.2-.4 1.8-.1 2.6.5 4.7 2.2 5.7 4.6.3.7.8 1.3 1.2 1.8l.3.6c.3.4.4 1 1.1 1 .1.4.2.7.7.9.1.3.5.5.8.4 0 0 .1 0 .1-.1l-.5-.7-.8-.8c-.3-.4-.6-.7-.9-1.1l-.3-.6c-.2-1.1-.1-2.3 1.2-2.6 1.9-.4 2.5 1.2 3.2 2.4.9 4.6.9 4.6 4.6 5.2-1.6-1.7-3-3.6-4.1-5.6q-.45-1.35-.3-2.7c.3-1.5 1.7-2.1 2.7-1 3 2.4 5 5.8 5.6 9.6.1 1.1.7.9 1.2 1.2.7.4 1.3.3 1.6-.5.2-.4.4-.7.5-1.1.3-.6.4-1.6 1.5-1.2s.3 1.4 0 1.8c-1.7 2.6.6 3 2.1 4.2.2-2.4-.2-4.7-.9-6.9 2.1-.4 4.2.9 4.8 2.9.6 1.3.9 2.7.7 4.1-.5 3.2 1.6 4.7 4 6.5-.1-2.1.7-4-1.4-5.4 3.3-.6 6.8-.3 9.9.9-.3-1.6-.9-3.1-1.7-4.4-.6-1.3-1.6-.1-2.4-.2-.8-.2-1.6 1.2-2-.3s.9-1 1.6-1.3c.4-.2.8-.3 1.2-.5-.6-1.5-1.8-2.5-2.4-4s-2.1-.9-3.3-1.1c-.5-.1-1 .1-1.5 0-.8-.1-2.1.6-2.1-.9s1.4-.6 2.1-.9c.2-.1.5-.1.8-.1-1.5-2.5-1.9-2.5-4.5-1.3-3.3 1.4-7.1 1.2-10.3-.6-.6-.2-.9-.7-.9-1.3.2-.8.9-1.1 1.7-1.3 2.9-.6 5.9-.5 8.8.2-1-1.5-1.8-2.1-3.3-2-1.8 0-3.6 0-5.4-.2-.6 0-1-.1-.9-.8 0-.7.4-.8 1-.8h4.2c-2.1-2-3.6-3.4-6.8-2.2-4.4 1.9-9.5.8-12.8-2.7 4.3-1.4 8.9-1.3 13.2.1-1.5-2.7-4.5-4.2-7.5-3.6-.6.1-1.9.6-1.8-.9.1-1.2 1.1-.6 1.8-.7.8 0 1.5-.1 2.3-.2-4.1-2.1-6.3-6.8-5.4-11.3 3.7 1.2 6.3 4.4 6.7 8.2.2 1.8 1.2 3.5 2.7 4.4.3-3.4-.7-7.1 2.3-9.9 2.4 2.8 2.8 6.9.9 10.1-1 1.8-.8 2.8 1.1 3.6.4-.2.2-.7.1-1 0-.6-.2-1.2.7-1.3s.8.6.9 1.1c.4 1.2-.2 2.7 1.2 3.5.2.1.4.3.5.3.4-.2.2-.5.1-.7m1.4 34.6c.4.2.9 0 1.1-.4 1-.4 1.8-1.1 2.1-2.1-1 .1-2 .8-2.4 1.8-.2.2-.5.5-.8.7l-.1.2zm43.5-57.3c-.2-.3-.4-.6-.7-.9-1.1-1.5-2.2-3.1-3.2-4.7-1.4-2.6-3.1-3.7-6-2.2 1.3 1.8 2.2 3.8 2.4 6 .3 2.2-1.6 4.1-.6 6.4.7-1.6 1.4-3.3 2.1-4.9 1.2.7 1.4 2.1 2 3.1 1.2-1 .3-3.6 2.9-3.4l.6.8c.1.4 0 .9.6 1.3.1-.5.3-1-.1-1.5m-29.5 27.5c-.1-.2 0-.6-.4-.2.1 0 .2.1.4.2.2 1.2 1 1.9 2.8 2.6-.5-1.3-1.5-2.2-2.8-2.6m13.5 12.8c-.1-.2-.1-.7-.4-.5s0 .5.2.7q.6 2.4 2.1 4.2c-.5-2-.3-3.6-1.9-4.4m20.3-38.1c1.7-.7 3-2.1 3.4-3.9-1.7.6-3 2-3.4 3.9-.2 0-.6 0-.2.3.1-.1.1-.2.2-.3m26.7 7.9c1.8-.6 3.2-2.1 3.6-4-1.9 1.1-3.4 1.9-3.6 4l-.2.2h.1c.1 0 .1-.1.1-.2m-20.3-24.3c-2.1 0-4.1.9-5.6 2.3 2.1.3 4.2-.6 5.6-2.3.1-.1.5 0 .1-.3zm-66.5 47.6-.3-.2.2.3c.5 2.3 1.8 4.3 3.8 5.6.2.2.2.7.6.4s0-.6-.2-.7c-1-2.1-2.4-3.9-4.1-5.4m67.9-19.8-.2-.1zc.3 2.1 1.3 4 2.9 5.4.1-3.3-.6-4.5-2.9-5.4m-28.7-8.5-.2-.2zc1.2 3.4 3.2 4.4 7.4 3.6-2.2-1.8-4.7-3-7.4-3.6m32.7 50.7c-.7-.1-1.4-.3-2.1-.5-3.6-1.6-4.6-1.1-7 3.4 2.9-1.4 6-2.4 9.1-2.9l1.2-.2c-.5-.5-.8-.3-1.2.2m-23-43.9h.6c-.1-.2-.1-.4-.2-.6-.5-1.7-1.8-.8-2.7-.7-2.6.4-5.3-.3-7.5-1.9-1.9-2.3-3.2-5.1-3.9-8-.5-1.3-1.6-2.3-3-2.7.4 1.7 0 3.5-1 4.9-1.7 1.8-.9 3.6-.5 5.5.7-.8 1.2-1.6 1.7-2.5.2-.5.8-.7 1.2-.5.5.1.6.5.6.9.4 3.3-.4 6.7-2.2 9.5-1.3 1.8-1.8 4.2-1.3 6.4.9-1 2.6-.6 2.4-1.7-.4-1.6.5-1.1 1.2-1.1 3.4-.2 6.8 1.2 9.1 3.8.3.4.5 1.1 1.2 1.1 2.1-.1 2-.1 1.1 1.9-1.4 2.4-1.6 5.4-.4 8 2.2-3.7 3.6-7.7 4.2-11.9.1-1-.6-1-1.2-1.2-3-1.4-5.9-3.1-8.5-5.2 3.9-2.8 7.1-.7 10.4.6 0-2.2 0-2.2-2.1-3.1-.7-.3-2.2-.1-1.6-1.6.7-1 1.7.2 2.4.1M123.5 396c.9.3 1.1-.5 1.5-.9 1.9-2.2 4.4-3.7 7.2-4.3.1.2.2.3.4.5-2.5 4-4.6 8.2-6.2 12.7-.4.2-.4.4-.2.7.2-.1.4-.3.6-.4.6-.5 1.2-.9 1.7-1.4 1.4-1.3 2.6-2.1 3.3.9 2.1-3.2 3.8-6.7 4.9-10.3.6-1.8 1.5-1.8 2.5-.4 1 1.5 2.4 2.8 3.9 3.8 3.4 2.1 5.7 5.5 6.4 9.4 3-2.5 4.5 1.1 7.2 1.9-2-2.5-3.7-4.6-5.5-6.6-1.8-2.1-3.7-4.1-5.7-6.2 4.2-1.6 7.5.5 11 1.5 3.6 1.4 6.4 4.3 7.6 8 .2-4.6-.2-4.4 3.3-2.7-1.4-3.7-4.4-6.5-8.1-7.7-7.4-1.3-12.7-7.9-12.5-15.4-1.2-10.7-1.3-21.5-.3-32.2-.4-9.9 3-19.5 9.4-27-.9.2-1.3.4-1.6.4-1.9.4-3.9.8-5.3-.9s-.3-3.6.4-5.3c1.1-2.5 2-5 3.1-7.8-2.7 1.6-3.1 4.2-4.5 6.3-.6 1-1 2.6-2.6 2.2-1.4-.2-1.2-1.7-1.6-2.8a48.5 48.5 0 0 1-.6-17.8c-1.8 2.7-2.8 5.9-2.9 9.1 0 3.9.2 7.8.7 11.6.1.9.1 1.9-.9 2.4-.9.3-1.9 0-2.4-.9-3.7-3.8-6.8-8.1-9-12.9-.6-1.6-1.6-3.1-2.8-4.2.9 1.6 1.6 3.1 2.5 4.7.6 2.8 1.8 5.5 3.7 7.8 1.8 2.5 3.1 5.2 4 8.2.4.7.3 1.7-.3 2.3-.7.6-1.6.3-2.3 0-3.6-1.5-6.9-3.7-9.6-6.5-1.9-1.9-4.3-3.2-7-3.7 2.1 1.8 4.4 3.4 6.8 4.9 6.5 4.2 10.6 11.2 10.8 19 .9 12.6.7 25.1.4 37.7.2 6.9-3.4 13.3-9.3 16.7l-4.7 2.9c2.2.3 2.9 1.4 2.6 3.2l-.1.1v.1zm33.7-120.6c-2.3 1.4-4.3 2.3-6 3.5-1.2.9-2.8 1.8-3.1 3-.8 3.3-2.1 6.5-3.2 9.9 2.6-1.2 4.9-2.9 6.9-4.9.6-.6 1.7-1.1.2-2.1-1.1-.7-.7-2.1 0-3.1.7-1.1 1.7-1.9 2.8-1.6s.2 1.7.7 2.6l.3.4c1.5-2.5-.1-5.2 1.4-7.7m-22.7 45c-.2-1.4-.7-2.8-1.4-4.1-1.4-3.4-3.2-6.3-7.5-6.2-1-.1-1.9-.4-2.8-.7-.9 2.6.9 3.6 2.6 4.9.1-.3.3-.7.4-1 .4-.5.1-1.7 1.4-1.1 1 .4.4 1.2.2 1.6-1 1.7-.2 2.7 1.2 3.6 1.8 1.1 3.8 2.2 5.9 3m-11.1-46.5c-.1 2.4-1.6 4.6-3.9 5.5-1.4.5-.4 1.2-.2 1.7.1.3-.1 1.5.9.9 1.9-1.2 2.7-.1 3.4 1.4.4 1 1.3 1.7 2.4 1.9-1.1-3.9 1.6-8.1-2.6-11.4m11.7-19.7c-1.7-3.4-1.7-3.4-4.9-4.1-1.4-.4-2.8-1-4-1.8-.9-.5-1.5-1.4-2.7-1.6.2 1.7.5 3.1.7 4.6s.4 2.8.5 4.3c2-.8 1-4.1 3.6-3.8 1.9.3 3.7.9 5.3 1.9.4.1.8.2 1.5.5m32.2 55.2.1.4c1.1-.2 2.2-.4 3.4-.6 2.1-.2 4.3.2 6.3 1.1 1 .4 2.1.5 2.5-.6.6-1.4-.9-1.3-1.6-1.6-1.7-.7-3.4-1.5-4-3.6zm-46.6-22.3c-.6 5.5-.6 5.5 5.4 8.1.2-2.4.8-4.8-2.4-6-1.1-.5-2.1-1.3-3-2.1m11.6 4.5c.9 1.2-1.1 3.7 2.3 2.9.8-.2 1.6.7 2.2 1.4.8.9 1.6 1.9 2.4 2.9.6-1.4 1.1-2.7 1.7-4 .3-.8.4-1.5-.8-1.4q-4.05-.15-7.8-1.8m1.1-8.6c.4 1.9-.9 4 .2 4.7s3.2.3 4.8.6c2.7.4 1.2-2.2 2.4-3.3-2.6.2-5.2-.5-7.4-2m6.1 32c-.4-2.6-.6-5.3-.6-8 .1-1.8 0-1.8-1.7-2.2-1.5 3.8-2.4 7.6 2.3 10.2m-25.6-3.6q-1.95-4.05-5.7-6.6c0 1.7-1.3 2.3-2.5 3.2 2.9 1 4.7 4.1 8.2 3.4m34.7-44.6c-.1 1.3-1.3 1.6-.8 2.8 1 2.8 1.4 5.8 1.2 8.8 1.4-3.6 4.6-7.1.3-10.7-.1-.2-.2-.4-.7-.9m-15.4 16c-1-.9-1.3-2.3-3.1-1.4-2 .5-3.3 2.5-2.8 4.6.1.3.2.5.3.8.4 1.3 1 .8 1.5.1 1.1-1.7 2.5-3.1 4.1-4.1m24.3-13.2c-2.1 2-4.8 3.4-5.6 7 3.2-1.7 5.4-3.5 5.6-7m-32.8-25.1c1.4 1.9 3.4 3.2 5.7 3.8.4.1 1.1.4 1.3-.1.1-.5 0-1-.3-1.3-2-1.4-4.3-2.3-6.7-2.4m6.9 60.8q.15-2.4.9-4.8c.5-1.3 2.2-2.5.4-4.1-.2 1.7-1.1 3.2-2.5 4.2-.4.2-.6.6-.4 1.1 0 .1.1.1.1.2.5 1 1 2.2 1.5 3.4m13.4-65c-1.2 3.2-.7 4.9 1.7 6.2.2-2.3.5-4.6-1.7-6.2m-47.7 67.2c3.6 1.1 5.9-.8 8.4-2.1-2.9 0-5.8.8-8.4 2.1m71.5-18.2c2.8-.1 5.4-1.3 7.3-3.3-2.4.7-5.3.4-7.3 3.3m-53.2-27.7c-.5-2.4.7-5.2-1-7.7-2 3.1.1 5.3 1 7.7m17.3 28.2c1.6.9 3.3 1.6 5.1 1.9.5.1 1.2.4 1.4-.5.1-.5-.2-1.1-.7-1.2h-.2c-1.8-.6-3.7-.7-5.6-.2m27.6-51.7c1.3-1.3 1.7-3.2 1.2-4.9-.1-.3-.3-.6-.5-.7-.5-.2-.7.3-.9.6-.6 1.6-.5 3.4.2 5m-64.9 33.1c.3-2.3-1.1-4.5-3.3-5.2.1 2.2 1.4 4.2 3.3 5.2m14.4-17.9c-.4-2.7-1.5-5.2-3.1-7.3.1 2.7 1.2 5.3 3.1 7.3m23.2 26.6c2.3 2.8 3 3.2 5.8 3-1.4-1.8-3.6-2.9-5.8-3m9.3-19.5c1.3-2 1.2-4.5-.1-6.5-1.5 2.2-.8 4.1.1 6.5m-32.1 21.5c.7-2.4.5-4.9-.6-7.1-1 2.3-.8 5 .6 7.1m12.6-25.8c-.9-2.3.1-4.8-1.1-7.5-1.2 2.6-.8 5.5 1.1 7.5m26.8 41.7c-1.4 2-1.2 4.7.3 6.7.4-2.2.3-4.5-.3-6.7m-9-22.7c1.2 1.2 2.7 2.2 4.4 2.8.4.2.9.1 1.2-.3l.1-.1c.2-.5-.2-.7-.6-.9-1.5-.9-3.3-1.5-5.1-1.5m-9.6 15.9c-4 1-4.5 2-3 5.4-.1-2.4 1.3-3.7 3-5.4m28.1 13.2c-3.7.4-4.1.7-4.6 2.9 1.8-.4 3.4-1.4 4.6-2.9m-48.4-38.6c-1.1-1.5-2.9-2.3-4.7-2 1.3 2 2 2.3 4.7 2m-18 15c1.8 1.1 4 1.2 5.9.2-1.9-.7-3.9-.8-5.9-.2m41.5 27.7c.7-2.3.6-4.7-.3-6.9-1.1 2.2-1 4.8.3 6.9m15.1-61.2c1.9-1.6 1.1-3.6.6-5.8-.9 1.8-1.1 3.8-.6 5.8m-19.6-9.4c.3 2.1 1 4.2 2.1 6 .6-2.3-.3-4.7-2.1-6m32.7 25.2c.4 1.5 1.7 2.5 3.2 2.5.4 0 1.1-.4.6-1-.9-1.2-1.9-2.2-3.8-1.5m12.4 17.9c2.5 1 3.4.9 5.1-.1-1.6-.8-3.6-.8-5.1.1m7.1 30.9c1.6 1.1 3.6 1.3 5.4.7-1.8-1.1-3.4-1.8-5.4-.7m-60.2-5c1.6 1.6 3.9 2.3 6.1 2-1.9-1.2-4-1.9-6.1-2m32.6-6.4c.7-1.8.8-3.8.5-5.8-1.5 1.6-1.7 4-.5 5.8m-49.7-10.5c2.2.4 4.2 1.3 6.2-.1-2-.5-4.2-.5-6.2.1m40.4-41.4c-1.5-1.1-3.2-1.8-5.1-1.9.9 1.9 3.2 2.7 5.1 1.9m46.7 46.7c2.7-1.5 3-1.9 3.2-3.9-1.7.6-2.9 2.1-3.2 3.9m-62.3 3.8c1.4-1.1 1.8-3.1 1-4.6-.9 1.4-1.2 3-1 4.6m28.6-20.2c1-1.8 1.7-3.7 1.9-5.7-1.4 1.5-2.1 3.6-1.9 5.7M86.7 294c-.6-2.2-1.6-3.4-4-3.4 1 1.4 2.4 2.6 4 3.4m25.1 6.3c-.4 1.9 0 4 1.1 5.6.2-1.9-.2-3.9-1.1-5.6m17.1-31c-2 2.1-2 2.1-1.5 4.4.9-1.3 1.5-2.8 1.5-4.4m42 28.3c-1.4 1.1-1.6 3.1-.5 4.5.7-1.5.8-3 .5-4.5m-20.4-35.7c-.5 1.8-.3 3.8.6 5.5.2-1.9-.1-3.8-.6-5.5m-16.2-5.8c-1.1-1.1-2.6-1.7-4.2-1.6 1 1.3 2.6 1.9 4.2 1.6m-32.1 13.8c-.9 1.3-.4 2.7-.5 4.5 1-1.3 1.2-3.1.5-4.5m15.7 13.4c.2 2.1-.3 3.6.9 5.1.3-1.7 0-3.5-.9-5.1m8.9-23.2c.8-1.2.8-2.8.2-4.1-.7 1.4-.7 2.8-.2 4.1m11.3.5c-1.8-.9-2.9-2.1-4.9-1.6 1.3 1.2 3.1 1.8 4.9 1.6m-28.6-2.4c-1.5-.4-2.5-.8-3.3.1-.1.1 0 .6.1.6 1.1.5 2.4.2 3.2-.7m-3.2 52.3c-1.1-.6-2.1-1.4-3.6-1 .9 1.6 2.2 1.3 3.6 1m16-25.7-.1-.1v.1z"/><path id="Path_6113" fill="#F9A700" d="M132.1 390.9c-2.8.6-5.3 2.1-7.2 4.3-.4.4-.7 1.2-1.5.9h.1c.2-1.7-.4-2.9-2.6-3.2 1.7-1.1 3.2-2 4.7-2.9 5.9-3.5 9.5-9.9 9.3-16.7.3-12.6.4-25.1-.4-37.7-.3-7.7-4.3-14.8-10.8-19-2.4-1.4-4.7-3.1-6.8-4.9 2.7.5 5.1 1.8 7 3.8 2.7 2.8 6 5 9.6 6.4.8.3 1.6.7 2.3 0 .6-.6.7-1.6.3-2.3-.9-2.9-2.2-5.7-4-8.2-1.8-2.2-3.1-4.9-3.7-7.8.1-.1.2-.3.4-.4 2.2 4.8 5.3 9.2 9 12.9.5.8 1.5 1.2 2.4.9 1-.4 1-1.5.9-2.4-.5-3.9-.7-7.7-.7-11.6.1-3.2 1.1-6.4 2.8-9.1-.9 5.9-.7 12 .6 17.8.3 1.1.1 2.6 1.6 2.8 1.6.3 1.9-1.3 2.6-2.3 1.3-2 1.8-4.7 4.5-6.3-1.1 2.8-2.1 5.3-3.1 7.8-.8 1.7-1.9 3.6-.4 5.3 1.4 1.7 3.4 1.3 5.3.9l1.6-.4c-6.4 7.5-9.8 17.2-9.4 27-.9 10.7-.8 21.5.3 32.2-.2 7.5 5.1 14.1 12.5 15.4 3.7 1.2 6.7 4 8.1 7.7-3.6-1.7-3.1-1.9-3.3 2.7-1.2-3.7-4-6.6-7.6-8-3.5-1-6.8-3.1-11-1.5 2 2.2 3.9 4.2 5.7 6.2 1.8 2.1 3.4 4.2 5.5 6.6-2.6-.8-4.1-4.4-7.2-1.9-.7-3.9-3.1-7.3-6.4-9.4-1.5-1-2.8-2.3-3.8-3.8-1.1-1.4-1.9-1.4-2.5.4-1.1 3.7-2.8 7.2-4.9 10.3-.6-2.9-1.9-2.2-3.2-.9-.5.5-1.1.9-1.7 1.4l-.4-.4c1.6-4.4 3.7-8.7 6.2-12.7l.2-.5h-.6"/><path id="Path_6114" fill="#267F36" d="M168.6 314.3c-3.2.6-6.2 1.6-9.1 3 2.4-4.6 3.4-5 7-3.4.6.2 1.4.3 2.1.4"/><path id="Path_6115" fill="#267F36" d="M157.3 269.7c-.2 3.4-2.4 5.3-5.6 7 .9-3.5 3.5-5 5.6-7"/><path id="Path_6116" fill="#267F36" d="M124.6 244.6c2.4.1 4.7 1 6.7 2.4.3.4.4.9.3 1.3-.2.6-.9.3-1.3.1-2.3-.6-4.3-2-5.7-3.8"/><path id="Path_6117" fill="#267F36" d="M135.8 263.6c2.7.6 5.2 1.9 7.4 3.6-4.2.9-6.2-.2-7.4-3.6"/><path id="Path_6118" fill="#267F36" d="M144.8 240.4c2.2 1.6 2 3.9 1.7 6.2-2.4-1.3-2.9-3-1.7-6.2"/><path id="Path_6119" fill="#267F36" d="M97.2 307.7q3.9-2.1 8.4-2.1c-2.5 1.3-4.8 3.2-8.4 2.1"/><path id="Path_6120" fill="#267F36" d="M168.7 289.4c2-2.9 4.8-2.7 7.3-3.3-1.9 2.1-4.5 3.2-7.3 3.3"/><path id="Path_6121" fill="#267F36" d="M115.5 261.7c-.9-2.4-3-4.6-1-7.7 1.7 2.5.5 5.3 1 7.7"/><path id="Path_6122" fill="#267F36" d="M132.8 289.9c1.8-.4 3.7-.4 5.5.2.6 0 1 .5 1 1v.2c-.2.9-.9.6-1.4.5-1.8-.4-3.5-1-5.1-1.9"/><path id="Path_6123" fill="#267F36" d="M160.4 238.2c-.8-1.6-.9-3.4-.2-5.1.2-.3.4-.8.9-.6.3.2.5.4.5.7.5 1.8 0 3.7-1.2 5"/><path id="Path_6124" fill="#267F36" d="M95.4 271.3c-1.9-1-3.2-3-3.3-5.2 2.2.8 3.6 2.9 3.3 5.2"/><path id="Path_6125" fill="#267F36" d="M109.8 253.4c-1.9-2-3-4.6-3.1-7.3 1.7 2.1 2.7 4.6 3.1 7.3"/><path id="Path_6126" fill="#267F36" d="M133 280c2.3.1 4.4 1.2 5.8 3-2.8.2-3.6-.1-5.8-3"/><path id="Path_6127" fill="#267F36" d="M142.4 260.5c-.9-2.4-1.7-4.3-.1-6.5 1.3 2 1.3 4.5.1 6.5"/><path id="Path_6128" fill="#267F36" d="M110.3 282c-1.4-2.1-1.6-4.8-.6-7.1 1.1 2.2 1.3 4.7.6 7.1"/><path id="Path_6129" fill="#267F36" d="M122.8 256.3c-1.9-2-2.3-5-1.1-7.5 1.2 2.6.3 5.2 1.1 7.5"/><path id="Path_6130" fill="#267F36" d="M149.5 298c.6 2.2.7 4.5.3 6.7-1.5-2-1.6-4.7-.3-6.7"/><path id="Path_6131" fill="#267F36" d="M164.6 272.1c2.3.9 2.9 2.2 2.9 5.4-1.6-1.4-2.6-3.3-2.9-5.4"/><path id="Path_6132" fill="#267F36" d="M140.8 275.1c1.8 0 3.5.5 5 1.5.3.2.8.4.6.9-.2.4-.7.7-1.1.5-.1 0-.1 0-.1-.1-1.7-.6-3.1-1.6-4.4-2.8"/><path id="Path_6133" fill="#267F36" d="M159.2 304.2c-1.1 1.5-2.8 2.5-4.6 2.9.6-2.3 1-2.5 4.6-2.9"/><path id="Path_6134" fill="#267F36" d="M100.3 297.7c-2-1.3-3.3-3.3-3.8-5.6l.1-.1c1.8 1.5 3.1 3.3 4 5.4z"/><path id="Path_6135" fill="#267F36" d="M110.8 265.5c-2.7.3-3.4 0-4.7-2 1.9-.2 3.7.5 4.7 2"/><path id="Path_6136" fill="#267F36" d="M92.9 280.6c1.9-.6 4-.5 5.9.2-1.8.9-4.1.8-5.9-.2"/><path id="Path_6137" fill="#267F36" d="M134.4 308.3a7.07 7.07 0 0 1-.3-6.9c.9 2.2 1 4.7.3 6.9"/><path id="Path_6138" fill="#267F36" d="M149.5 247.1c-.6-1.9-.4-4 .6-5.8.6 2.2 1.4 4.1-.6 5.8"/><path id="Path_6139" fill="#267F36" d="M163.1 244.3c-1.3 1.7-3.5 2.6-5.6 2.4 1.5-1.5 3.5-2.4 5.6-2.4"/><path id="Path_6140" fill="#267F36" d="M129.9 237.7c1.9 1.4 2.7 3.7 2.1 6q-1.8-2.85-2.1-6"/><path id="Path_6141" fill="#267F36" d="M162.6 262.9c1.8-.7 2.9.3 3.8 1.5.4.6-.2 1-.6 1-1.5 0-2.8-1-3.2-2.5"/><path id="Path_6142" fill="#267F36" d="M175 280.8c1.6-.9 3.5-1 5.1-.1-1.7 1-2.6 1.1-5.1.1"/><path id="Path_6143" fill="#267F36" d="M182.1 311.7c2-1.2 3.5-.4 5.4.7-1.7.6-3.8.4-5.4-.7"/><path id="Path_6144" fill="#267F36" d="M121.8 306.7c2.2.2 4.3.9 6.1 2-2.2.3-4.5-.4-6.1-2"/><path id="Path_6145" fill="#267F36" d="M154.5 300.2c-1.2-1.8-1-4.2.5-5.8.4 2 .2 4-.5 5.8"/><path id="Path_6146" fill="#267F36" d="M104.8 289.8c2-.6 4.2-.6 6.2-.1-2 1.5-4 .5-6.2.1"/><path id="Path_6147" fill="#267F36" d="M183.5 268.6c.1-2.1 1.6-3 3.5-4-.3 1.9-1.7 3.4-3.5 4"/><path id="Path_6148" fill="#267F36" d="M145.2 248.4c-1.9.8-4.2 0-5.1-1.9 1.8.1 3.6.8 5.1 1.9"/><path id="Path_6149" fill="#267F36" d="M191.9 295.1c.3-1.8 1.5-3.2 3.2-3.9-.2 1.9-.6 2.4-3.2 3.9"/><path id="Path_6150" fill="#267F36" d="M129.5 298.9c-.2-1.6.2-3.3 1-4.6.9 1.6.4 3.5-1 4.6"/><path id="Path_6151" fill="#267F36" d="M158.2 278.7c-.2-2.1.5-4.2 1.9-5.7-.2 2-.9 4-1.9 5.7"/><path id="Path_6152" fill="#267F36" d="M156.7 260.7c.4-1.8 1.8-3.3 3.5-3.8-.5 1.7-1.7 3.2-3.5 3.8"/><path id="Path_6153" fill="#267F36" d="M86.6 294c-1.6-.8-3-2-4-3.4 2.4 0 3.4 1.2 4 3.4"/><path id="Path_6154" fill="#267F36" d="M111.8 300.3c1 1.7 1.4 3.7 1.1 5.6-1.1-1.6-1.5-3.7-1.1-5.6"/><path id="Path_6155" fill="#267F36" d="M128.8 269.3c0 1.6-.5 3.2-1.5 4.4-.5-2.2-.5-2.2 1.5-4.4"/><path id="Path_6156" fill="#267F36" d="M170.9 297.6c.3 1.5.2 3.1-.5 4.5-1.1-1.4-.9-3.4.5-4.5"/><path id="Path_6157" fill="#267F36" d="M150.4 261.9c.6 1.8.8 3.6.6 5.5-.9-1.7-1.1-3.7-.6-5.5"/><path id="Path_6158" fill="#267F36" d="M134.3 256.1c-1.6.3-3.2-.3-4.2-1.6 1.6 0 3.1.5 4.2 1.6"/><path id="Path_6159" fill="#267F36" d="M102.2 269.9c.7 1.5.5 3.2-.5 4.5 0-1.8-.4-3.2.5-4.5"/><path id="Path_6160" fill="#267F36" d="M117.9 283.4c.9 1.5 1.3 3.3.9 5.1-1.2-1.5-.8-3-.9-5.1"/><path id="Path_6161" fill="#267F36" d="m128.7 303.4-.4.5-2.5-4.7c1.4 1.2 2.4 2.6 2.9 4.2"/><path id="Path_6162" fill="#267F36" d="M126.7 260.2c-.5-1.3-.4-2.8.2-4.1.7 1.3.6 2.9-.2 4.1"/><path id="Path_6163" fill="#267F36" d="M138.1 260.6c-1.8.2-3.6-.4-4.9-1.6 2-.5 3.1.7 4.9 1.6"/><path id="Path_6164" fill="#267F36" d="M109.5 258.2c-.8.9-2.1 1.2-3.3.7-.1-.2-.1-.4-.1-.6.9-.9 1.9-.5 3.4-.1"/><path id="Path_6165" fill="#267F36" d="M106.2 310.5c-1.3.3-2.7.6-3.6-1 1.6-.4 2.6.4 3.6 1"/><path id="Path_6166" fill="#267F36" d="M136.5 298.8c1.5.9 1.3 2.4 1.9 4.4-1.1-1.2-1.8-2.6-2.2-4.2z"/><path id="Path_6167" fill="#267F36" d="M122.9 286c1.3.4 2.3 1.3 2.8 2.6-1.7-.7-2.5-1.4-2.8-2.6"/><path id="Path_6168" fill="#267F36" d="M109.8 315.1c.4-1 1.3-1.6 2.4-1.8q-.6 1.5-2.1 2.1z"/><path id="Path_6169" fill="#267F36" d="M168.6 314.3c.3-.4.7-.6 1.2-.1z"/><path id="Path_6170" fill="#267F36" d="M100.6 297.4c.3.2.5.6.2.7-.3.2-.4-.2-.6-.4.2-.1.3-.2.4-.3"/><path id="Path_6171" fill="#267F36" d="M136.3 299c-.3-.2-.5-.5-.2-.7s.3.3.5.5z"/><path id="Path_6172" fill="#267F36" d="M109 315.8c.3-.2.5-.5.8-.7.1.1.2.2.2.3-.1.4-.6.5-1 .4"/><path id="Path_6173" fill="#267F36" d="m135.8 263.7-.2-.2z"/></g><path id="Path_6174" fill="#267F36" d="m125.6 286.4.1-.1-.1-.1z"/><g id="Group_6397" transform="translate(11.576 28.481)"><path id="Path_6175" fill="#267F36" d="m156.5 245.2-.2-.1z"/><path id="Path_6176" fill="#267F36" d="m100.9 288.9-.1.2z"/><path id="Path_6177" fill="#267F36" d="m148.6 233.8-.2.3c-.4-.2 0-.3.2-.3"/><path id="Path_6178" fill="#267F36" d="m155 217.4.1-.3c.4.3 0 .2-.1.3"/><path id="Path_6179" fill="#267F36" d="m114.8 259.1-.3-.3c.3-.3.3.1.3.3"/><path id="Path_6180" fill="#267F36" d="m175.4 241.7-.1.2h-.1z"/><path id="Path_6181" fill="#267F36" d="m88.4 265.2-.2-.3.3.2z"/><path id="Path_6182" fill="#F9A700" d="m115.3 369.3-.1.3v-.1z"/><path id="Path_6183" fill="#1F1F1F" d="M124 364h.6l-.2.5c-.2-.1-.3-.3-.4-.5"/></g><path id="Path_6184" fill="#D60013" d="m42 41.5 7.1 2.4 9-7.6-12.4-1.5z"/><path id="Path_6185" fill="#D60013" d="m239.9 36.3 9 7.6 7.1-2.4-3.7-6.8z"/></svg>