<?xml version="1.0" encoding="UTF-8" standalone="no"?>
<!-- Created with Inkscape (http://www.inkscape.org/) -->

<svg
   xmlns:dc="http://purl.org/dc/elements/1.1/"
   xmlns:cc="http://creativecommons.org/ns#"
   xmlns:rdf="http://www.w3.org/1999/02/22-rdf-syntax-ns#"
   xmlns:svg="http://www.w3.org/2000/svg"
   xmlns="http://www.w3.org/2000/svg"
   xmlns:sodipodi="http://sodipodi.sourceforge.net/DTD/sodipodi-0.dtd"
   xmlns:inkscape="http://www.inkscape.org/namespaces/inkscape"
   width="26.699043mm"
   height="29.239361mm"
   viewBox="0 0 26.699043 29.239361"
   version="1.1"
   id="svg425"
   inkscape:version="0.92.2 2405546, 2018-03-11"
   sodipodi:docname="TOS.svg">
  <defs
     id="defs419" />
  <sodipodi:namedview
     id="base"
     pagecolor="#ffffff"
     bordercolor="#666666"
     borderopacity="1.0"
     inkscape:pageopacity="0.0"
     inkscape:pageshadow="2"
     inkscape:zoom="0.35"
     inkscape:cx="-418.11605"
     inkscape:cy="-44.744967"
     inkscape:document-units="mm"
     inkscape:current-layer="layer1"
     showgrid="false"
     inkscape:window-width="1920"
     inkscape:window-height="1016"
     inkscape:window-x="0"
     inkscape:window-y="27"
     inkscape:window-maximized="1" />
  <metadata
     id="metadata422">
    <rdf:RDF>
      <cc:Work
         rdf:about="">
        <dc:format>image/svg+xml</dc:format>
        <dc:type
           rdf:resource="http://purl.org/dc/dcmitype/StillImage" />
        <dc:title></dc:title>
      </cc:Work>
    </rdf:RDF>
  </metadata>
  <g
     inkscape:label="Livello 1"
     inkscape:groupmode="layer"
     id="layer1"
     transform="translate(-216.45987,-107.7552)">
    <path
       inkscape:connector-curvature="0"
       style="fill:#ffffff;stroke:#000000;stroke-width:0.26458332"
       d="m 222.92926,136.3119 0.14384,0.11592 -0.0996,0.34769 -0.29322,-0.21522 z m 5.57125,-0.50807 0.19917,0.116 0.24343,0.55215 -0.27662,0.17662 -0.21024,-0.34774 z m -4.60306,-6.39408 0.29876,0.3451 -0.11065,0.25594 0.0221,0.59504 -0.31536,0.33904 0.30982,0.29446 0.0111,0.23327 -0.50346,0.05 -0.39281,-0.66107 -0.50899,0.14448 -0.0443,0.24445 -0.41494,-0.21111 -0.21023,0.29442 -0.17151,-0.1 -0.65837,0.0556 -0.33749,-0.46115 0.006,-0.27237 0.17151,-0.20572 0.29323,-0.0779 0.54218,0.0111 0.13832,0.18906 0.27662,-0.0945 0.27663,-0.30033 0.36515,0.0278 0.24343,0.32256 0.16597,-0.0334 0.31536,-0.67867 z m -5.7151,-2.65988 0.20471,0.32947 -0.0498,0.30143 -0.26556,0.29574 -0.1881,-0.21203 0.0609,-0.43539 z m 23.09829,-9.35888 -0.28216,-0.4578 0.66944,0.0678 -0.0111,0.16957 z m -0.89074,0.22597 0.16045,0.0621 0.39281,-0.17511 0.30982,0.40101 0.12725,-0.33322 0.31535,0.0508 0.41494,-0.15252 0.42047,0.18641 0.39834,0.48561 -0.37068,0.10725 0.0221,0.44012 -0.37621,-0.13539 -0.71369,0.45123 -0.33749,0.11841 0.27663,0.42274 -0.10512,0.0563 -0.39281,0.60269 -0.0941,0.37716 -0.49239,0.045 -0.0719,0.41071 0.48133,0.26432 -0.0332,0.14618 -0.36515,0.11243 -0.21577,0.35405 -0.24343,-0.0562 -0.30429,0.30337 0.0719,0.20219 0.43707,0.0225 -0.0443,0.37614 0.4426,0.0842 0.17704,0.46568 -0.0498,0.47102 0.45367,0.15134 0.16598,-0.42046 0.27662,0.24109 -0.13278,0.18497 -0.34302,0.1289 -0.25449,0.24653 -0.26003,-0.0112 -0.34855,0.25206 -0.36515,-0.22405 -0.2047,0.82307 -0.37621,0.1343 -0.63071,0.4475 -0.083,0.29634 0.14385,0.41916 -0.0775,0.17319 0.13831,0.34069 0.19364,-0.17312 0.2379,0.16754 -0.26003,1.03237 -0.0277,0.40701 -0.18257,0.52379 0.25449,0.22279 v 0.27284 l -0.28769,0.0278 -0.33195,0.45637 -0.4592,-0.0501 -0.43707,0.50062 -0.28216,-0.26696 -0.27109,0.46713 0.32088,0.36684 0.38728,0.20003 -0.17704,0.45543 -0.18257,0.0167 0.0332,0.48847 0.23236,0.23303 -0.27662,0.23851 -0.21024,-0.0444 -0.2545,0.42141 -0.2047,-0.061 -0.25449,0.34364 -0.6805,0.33242 -0.36515,-0.0831 0.0553,0.31018 -0.2213,0.33219 0.53665,0.39293 0.0111,0.68027 -0.61411,-0.0387 -0.37068,0.0719 -0.27109,-0.0774 -0.0664,0.2598 -0.24343,0.23762 -0.0719,0.32593 -0.69157,-0.24305 -0.96819,-0.16576 -0.30429,-0.13816 -0.27109,0.0774 -0.31536,0.5414 -0.28769,0.13805 -0.39834,-0.37004 -0.21023,-0.0331 -0.0664,-0.44207 0.26002,-0.18242 0.41494,0.0719 0.27663,-0.49215 0.0498,-0.50351 -0.33195,-0.6866 -0.34302,0.072 -0.31535,-0.65385 -0.0443,-0.28275 -0.75242,-0.45484 -0.21024,-0.62719 -0.23237,-0.29433 -0.61411,-0.3389 -0.61411,-0.18339 -0.52559,-0.0778 -0.3928,-0.29466 0.29322,-0.41714 -0.0387,-0.51199 0.15491,-0.34522 -0.094,-0.17824 -0.7137,-0.46803 -0.52005,-0.1282 -0.85754,0.0334 -0.13832,0.38453 -0.49792,-0.12816 -0.11619,-0.68012 0.32089,-0.19522 0.16598,-0.75903 0.0664,-0.69825 -0.0221,-1.15203 -0.0719,-0.49262 -0.23236,-0.7395 -0.40388,-0.42608 -0.083,-0.36458 -0.30428,-0.73528 -0.19364,-0.0168 -0.0443,-0.31453 -0.18258,-0.29779 -0.49792,-0.36536 -0.13832,-0.5793 -0.21576,-0.41082 0.0885,-0.26461 -0.13278,-0.58583 -0.0387,-0.49603 -0.17151,-0.41172 0.15491,-0.16362 -0.0609,-0.66609 -0.13831,-0.91536 -0.2213,-0.87112 -0.37068,-0.67945 -0.31535,-0.44762 -0.42601,-0.45354 -0.58645,-0.51622 -0.45366,-0.23269 0.426,-0.49397 0.0719,-0.24426 -0.21576,-0.23297 -0.24897,-0.0568 -0.19364,0.15912 -0.24896,-0.43197 -0.0941,-0.40376 -0.72476,0.0171 0.34854,-0.37551 -0.1881,-0.18782 -0.49793,0.21628 0.17704,-0.40983 -0.16044,-0.18221 -0.0443,-0.41583 -0.47027,-0.19945 -0.74689,-0.62145 -0.22683,-0.51349 h -0.1881 l 0.29322,-0.23404 0.14938,0.0514 0.75796,-0.97677 0.0941,-0.2115 0.41494,-0.0629 0.6639,-0.006 0.38728,0.0972 0.0996,0.26294 0.2545,0.18286 -0.17151,0.37702 1.06778,0.78773 0.42047,-0.10271 0.2545,0.33089 0.48133,0.33645 0.34855,0.49016 0.42047,-0.23364 0.44813,0.22225 h 0.27663 l 0.62517,0.58667 0.29876,-0.0455 0.18257,0.34157 0.37068,0.404 0.0166,0.2389 0.51453,0.34115 0.14937,0.22735 0.29876,-0.0682 0.006,-0.28422 0.16598,-0.25021 0.30429,0.0682 0.68603,-0.0228 0.58645,0.50598 0.70263,0.25572 0.26556,0.19315 0.14938,0.31235 0.25449,-0.25555 0.47027,-0.72735 0.083,0.3183 0.27109,0.21591 0.58645,0.0795 0.37068,-0.26703 0.30982,-0.0341 0.52559,0.18183 0.36514,-0.22729 -0.49792,-0.33537 0.33748,-0.24451 0.44814,0.0398 0.4094,-0.36405 0.19364,-0.31298 0.37068,0.074 0.39281,-0.53515 0.29322,0.24484 -0.0332,0.296 0.6639,0.56891 0.35962,-0.10806 0.56431,0.0739 -0.13278,0.47191 0.53666,0.33528 0.24896,-0.28981 0.72476,0.006 -0.17151,0.48864 -0.24896,0.25557 -0.13831,0.42576 -0.48133,0.61838 0.094,0.19846 0.36514,0.28909 -0.0996,0.20401 0.33749,0.22094 -0.0664,0.60022 0.21023,0.19243 0.509,0.20935 0.55878,0.53728 0.13831,-0.10742 0.88521,0.33919 0.0609,0.1978 0.32642,0.1921 0.22683,-0.0282 0.4924,0.14123 0.16044,0.16944 z"
       id="path32" />
  </g>
</svg>
