<?xml version="1.0" encoding="UTF-8" standalone="no"?>
<!-- Created with Inkscape (http://www.inkscape.org/) -->

<svg
   xmlns:dc="http://purl.org/dc/elements/1.1/"
   xmlns:cc="http://creativecommons.org/ns#"
   xmlns:rdf="http://www.w3.org/1999/02/22-rdf-syntax-ns#"
   xmlns:svg="http://www.w3.org/2000/svg"
   xmlns="http://www.w3.org/2000/svg"
   xmlns:sodipodi="http://sodipodi.sourceforge.net/DTD/sodipodi-0.dtd"
   xmlns:inkscape="http://www.inkscape.org/namespaces/inkscape"
   width="20.838058mm"
   height="20.298203mm"
   viewBox="0 0 20.838058 20.298203"
   version="1.1"
   id="svg206"
   inkscape:version="0.92.2 2405546, 2018-03-11"
   sodipodi:docname="TRE.svg">
  <defs
     id="defs200" />
  <sodipodi:namedview
     id="base"
     pagecolor="#ffffff"
     bordercolor="#666666"
     borderopacity="1.0"
     inkscape:pageopacity="0.0"
     inkscape:pageshadow="2"
     inkscape:zoom="0.35"
     inkscape:cx="-1477.7639"
     inkscape:cy="-673.06977"
     inkscape:document-units="mm"
     inkscape:current-layer="layer1"
     showgrid="false"
     inkscape:window-width="1920"
     inkscape:window-height="1016"
     inkscape:window-x="0"
     inkscape:window-y="27"
     inkscape:window-maximized="1" />
  <metadata
     id="metadata203">
    <rdf:RDF>
      <cc:Work
         rdf:about="">
        <dc:format>image/svg+xml</dc:format>
        <dc:type
           rdf:resource="http://purl.org/dc/dcmitype/StillImage" />
        <dc:title></dc:title>
      </cc:Work>
    </rdf:RDF>
  </metadata>
  <g
     inkscape:label="Livello 1"
     inkscape:groupmode="layer"
     id="layer1"
     transform="translate(-496.82504,49.547913)">
    <path
       inkscape:connector-curvature="0"
       style="fill:#ffffff;stroke:#000000;stroke-width:0.26458332"
       d="m 517.26047,-43.560209 -0.42047,0.160551 -0.26556,0.338831 -0.28216,0.08914 -0.17151,0.261422 -0.43153,-0.148524 -0.30983,0.172285 -0.2213,-0.160402 -0.47579,0.291075 -0.39835,-0.356434 h -0.25449 l -0.74689,-0.582531 -0.0387,0.737006 -0.18811,0.213837 0.0166,0.314708 -0.47026,0.747654 -0.31535,-0.166082 -0.31536,0.23725 -0.21023,-0.07117 -0.59198,0.213482 -0.34855,0.248987 -0.0221,0.314083 0.63624,0.106641 0.0996,0.402731 -0.37068,0.10657 -0.18257,0.662771 -0.51453,0.496704 0.51453,0.378227 0.0553,0.767701 0.46473,-0.112154 0.006,0.289208 0.35408,0.147513 -0.12725,0.330329 0.29323,0.359661 0.22683,-0.01179 -0.11618,0.412526 -0.21577,-0.0766 -0.0664,0.371122 -0.27662,0.39449 -0.77456,0.264843 -0.92946,-0.01765 -0.33749,0.382399 0.2213,0.423361 -0.38174,0.111681 0.0221,0.287947 0.19917,0.405295 -0.0387,0.270078 -0.56432,0.123266 -0.39281,-0.117396 -0.0996,-0.528498 -0.6473,-0.07637 -0.41494,0.205591 -0.21024,0.229022 -0.71922,0.11155 0.0885,0.428439 -0.23237,0.240527 -0.32642,0.111438 -0.61411,0.01173 -0.21023,0.844053 -0.20471,0.169871 -0.43154,0.796146 0.0609,0.333437 -0.0553,0.415133 -0.34855,0.333116 -0.006,0.175267 -0.47026,0.01168 -0.23786,-0.175259 -0.64731,0.01169 -0.24343,0.338804 -0.35408,0.140152 -0.18257,-0.379636 -0.28769,-0.204496 -0.4426,-0.04675 0.2047,-0.590454 0.18257,-0.784065 -0.42047,-0.216636 -0.86861,-0.0527 -0.94053,0.0527 -0.0332,0.281029 -0.49239,0.134624 -0.35962,0.263326 -0.29876,-0.05851 -0.0387,-0.532637 -0.19918,0.03513 -0.0609,-0.661885 -0.11065,-0.152372 0.16597,-0.322423 -0.16044,-0.392952 -0.0664,-0.522289 -0.30429,-0.08219 0.0387,-0.4522 0.28216,-0.293777 0.0443,-0.5232 0.49239,-0.5059 0.0609,-0.606339 0.17151,-0.29451 -0.23237,-0.300515 0.43154,-0.831449 -0.0941,-0.377691 0.0332,-0.342442 -0.13278,-0.383953 -0.37068,-0.224553 0.0553,-0.195059 0.32642,-0.307467 0.3928,-0.02366 0.22684,-0.325349 -0.13831,-0.378761 0.0498,-0.266428 -0.2047,-0.290216 -0.47027,-0.319957 -0.74136,-0.05927 -0.17704,-0.213395 -0.0221,-0.349858 0.16044,-0.154226 0.17151,-0.623149 -0.0166,-0.397893 -0.38727,-0.332726 -0.35408,0.07131 -0.19364,-0.612298 0.26556,-0.535418 -0.14385,-0.184509 0.37621,-0.297688 -0.15491,-0.464625 0.21024,-0.208577 0.28769,-0.852779 0.21577,0.155122 0.46473,-0.02386 0.14385,0.125271 0.4426,-0.292332 0.55878,-0.19097 0.24897,0.328201 0.60304,0.256496 0.0498,0.2266 -0.26003,0.262294 0.2379,0.143031 0.32641,-0.07747 0.24343,0.250267 0.56985,0.166798 0.55879,-0.107223 0.75242,0.125093 0.15491,-0.07148 0.15491,-0.399215 0.33749,-0.321906 v -0.530846 l 0.22683,-0.387929 0.0996,-0.597199 0.43153,-0.107546 0.10512,-0.472185 0.43154,0.01196 1.08991,-0.376756 0.35408,0.01196 0.49792,0.334898 0.52559,-0.34088 0.14938,-0.269223 0.24343,0.01197 0.34302,0.340995 0.76902,-0.400834 0.48686,0.287186 0.4758,0.02991 0.31535,0.287066 0.26556,-0.185385 0.37622,-0.03589 0.4426,-0.173473 0.70816,-0.496712 0.65837,-0.233506 0.4758,-0.02994 0.77455,-0.359394 0.85754,-0.167776 0.28216,0.281602 -0.26003,0.197659 -0.083,0.34129 -0.58091,0.113729 -0.26003,0.257324 0.11618,0.633964 0.27663,0.376541 -0.0332,0.382327 0.28769,0.04181 0.24343,0.423897 0.26003,-0.202963 0.27109,0.04179 0.33749,0.76974 -0.17151,0.250446 -0.0332,0.423186 0.62517,0.119166 0.14938,0.256142 0.18257,0.6013 0.57539,0.422413 z"
       id="path34" />
  </g>
</svg>
