<svg xmlns="http://www.w3.org/2000/svg" xml:space="preserve" id="svg2" x="0" y="0" version="1.1" viewBox="0 0 192.5 292.9"><path fill="#FFF" d="M0 0h192.4v292.9H0z"/><path fill="#A2A4A3" d="M0 45.6h29.3v65.1H0zm0 136.6h29.3v65.1H0zm29.3-68.3 8.2 24.2-2.8 2.9v10.8l2.8 2.6-8.2 24.6H0v-65.1zM34.7 0v15.1l2.8 2.7-8.2 24.5H0V0zm48.5 15.1V0H60.4v15.1l-2.8 2.7 8.1 24.5h12.1L86 17.8zm48.9 0V0h-22.8v15.1l-2.8 2.7 8.1 24.5h12.1l8.2-24.5zM157.8 0v15.1l-2.8 2.7 8.2 24.5h29.3V0zM29.3 250.6H0v42.3h38.1v-15.6zm36-205h13v65.1h-13zm0 136.7h13v65h-13zm0-3.3-8.2-24.5 3.3-2.9v-10.8l-3.3-2.7 8.2-24.2h12.8l8.3 24.4-3.2 2.7v10.8l3.2 2.8-8.1 24.4h-6.5zm0 71.6h13l8.1 26.7v15.6H57.1v-15.6zm49-205h12.9v65h-12.9zm-.1 136.6h13.1v65.1h-13.1zm0-3.2-8.2-24.4 3.3-2.9V141l-3.3-2.8 8.3-24.3h12.9l8.2 24.3-3.2 2.8v10.7l3.2 2.9-8.2 24.4h-6.5zm.1 71.6h12.9l8.8 26.7v15.6h-30v-15.6z"/><path fill="#C4262E" d="M32.7 45.6H62v65.1H32.7zm0 136.6H62v65.1H32.7zm0-68.3 8.1 24.9-3.3 3.1v9l3.3 2.9-8.1 25.2H62l-8.3-25.3 3.4-3v-9l-3.3-3 8.2-24.8zM62 250.6l-8.2 26.7v15.6h-13v-15.6l-8.1-26.7zm19.6-205h29.3v65.1H81.6zm0 136.6h29.3v65.1H81.6zm0-68.3 8.1 24.9-3.3 3.1v9l3.3 2.9-8.1 25.2h29.3l-8.2-25.1 3.3-3v-9l-3.3-3.1 8.2-24.9zm29.3 136.7-8.2 26.7v15.6h-13v-15.6l-8.1-26.7zm19.7-205h29.3v65.1h-29.3zm0 136.6h29.3v65.1h-29.3zm0-68.3 8.1 24.9-3.3 3.1v9l3.3 2.9-8.1 25.2h29.3l-8.2-25.1 3.3-3v-9l-3.3-3.1 8.2-24.9zm29.3 136.7-8.2 26.7v15.6h-13v-15.6l-8.1-26.7zM37.5 0v13.3l3.3 3-8.2 26H62l-8.2-26 3.5-3V0zm48.9 0v13.3l3.3 3-8.2 26h29.4l-8.2-26 3.5-3.1V0zm49 0v13.3l3.3 3-8.1 26h29.3l-8.2-26 3.5-3V0z"/><path fill="#A2A4A3" d="M163.2 182.2h29.3v65.1h-29.3zm0-136.6h29.3v65h-29.3zm0 133.4-8.2-24.4 3.3-2.8V141l-3.3-2.7 8.2-24.4h29.3V179zm0 71.6h29.3v42.3H155v-15.6z"/></svg>