<?xml version="1.0" encoding="utf-8"?>
<svg version="1.1" id="Layer_1" x="0px" y="0px" width="100%" viewBox="0 0 600 500" enable-background="new 0 0 640 640" style="" xmlns="http://www.w3.org/2000/svg" xmlns:bx="https://boxy-svg.com">
  <g transform="matrix(1, 0, 0, 1, -626.589478, -39.976475)">
    <title>O</title>
    <path d="M 804.964 338.624 m -159.99 0 a 159.99 178.814 0 1 0 319.98 0 a 159.99 178.814 0 1 0 -319.98 0 Z M 804.964 338.624 m -88.963 0 a 88.963 103.701 0 0 1 177.926 0 a 88.963 103.701 0 0 1 -177.926 0 Z" style="stroke: rgb(0, 0, 0); fill: rgb(50, 101, 31); stroke-width: 4px;" bx:shape="ring 804.964 338.624 88.963 103.701 159.99 178.814 1@23975c2f"/>
    <path style="fill: rgb(216, 216, 216); stroke-width: 6px; stroke: rgb(54, 165, 36);" d="M 690.389 316.812 L 852.487 205.633"/>
    <path style="fill: rgb(216, 216, 216); stroke-width: 6px; stroke: rgb(54, 165, 36);" d="M 704.25 432.388 L 688.109 323.018"/>
    <path style="fill: rgb(216, 216, 216); stroke-width: 6px; stroke: rgb(54, 165, 36);" d="M 859.332 477.659 L 707.864 438.13"/>
    <path style="fill: rgb(216, 216, 216); stroke-width: 6px; stroke: rgb(54, 165, 36);" d="M 688.484 315.63 L 748.386 208.513"/>
    <g transform="matrix(1, 0, 0, 1, 618.603149, -21.066687)">
      <ellipse style="fill: rgb(51, 171, 35); stroke: rgb(16, 80, 8); stroke-width: 4px;" cx="239.03" cy="496.451" rx="14.862" ry="14.862"/>
      <ellipse style="stroke: rgb(0, 0, 0); fill: rgb(16, 77, 7); stroke-width: 0px;" cx="239.03" cy="496.451" rx="3.207" ry="3.207"/>
    </g>
    <g transform="matrix(1, 0, 0, 1, 613.627197, -293.924683)">
      <ellipse style="fill: rgb(51, 171, 35); stroke: rgb(16, 80, 8); stroke-width: 4px;" cx="239.03" cy="496.451" rx="14.862" ry="14.862"/>
      <ellipse style="stroke: rgb(0, 0, 0); fill: rgb(16, 77, 7); stroke-width: 0px;" cx="239.03" cy="496.451" rx="3.207" ry="3.207"/>
    </g>
    <g transform="matrix(1, 0, 0, 1, 512.732178, -289.396667)">
      <ellipse style="fill: rgb(51, 171, 35); stroke: rgb(16, 80, 8); stroke-width: 4px;" cx="239.03" cy="496.451" rx="14.862" ry="14.862"/>
      <ellipse style="stroke: rgb(0, 0, 0); fill: rgb(16, 77, 7); stroke-width: 0px;" cx="239.03" cy="496.451" rx="3.207" ry="3.207"/>
    </g>
    <g transform="matrix(1, 0, 0, 1, 449.255157, -178.792267)">
      <ellipse style="fill: rgb(51, 171, 35); stroke: rgb(16, 80, 8); stroke-width: 4px;" cx="239.03" cy="496.451" rx="14.862" ry="14.862"/>
      <ellipse style="stroke: rgb(0, 0, 0); fill: rgb(16, 77, 7); stroke-width: 0px;" cx="239.03" cy="496.451" rx="3.207" ry="3.207"/>
    </g>
    <g transform="matrix(1, 0, 0, 1, 468.738403, -62.756512)">
      <ellipse style="fill: rgb(51, 171, 35); stroke: rgb(16, 80, 8); stroke-width: 4px;" cx="239.03" cy="496.451" rx="14.862" ry="14.862"/>
      <ellipse style="stroke: rgb(0, 0, 0); fill: rgb(16, 77, 7); stroke-width: 0px;" cx="239.03" cy="496.451" rx="3.207" ry="3.207"/>
    </g>
  </g>
  <g transform="matrix(1, 0, 0, 1, -626.589478, -22.034216)">
    <title>I</title>
    <rect x="977.003" y="147.833" width="97.934" height="345.951" style="stroke: rgb(0, 0, 0); fill: rgb(223, 225, 170); stroke-width: 4px;" rx="36.693" ry="36.693"/>
    <path style="fill: rgb(216, 216, 216); stroke: rgb(63, 76, 50); stroke-width: 7px;" d="M 1026.357 448.517 L 1025.92 195.312"/>
    <ellipse style="stroke: rgb(0, 0, 0); fill: rgb(54, 70, 44); stroke-width: 0px;" cx="1025.548" cy="193.227" rx="17.756" ry="17.598"/>
    <ellipse style="stroke: rgb(123, 130, 85); stroke-width: 3px; fill: rgb(220, 225, 170);" cx="1026.393" cy="315.51" rx="17.756" ry="17.598"/>
    <g transform="matrix(1, 0, 0, 1, 594.814697, -24.526834)">
      <ellipse style="stroke: rgb(123, 130, 85); stroke-width: 3px; fill: rgb(201, 210, 164);" cx="431.156" cy="472.917" rx="17.756" ry="17.598"/>
      <ellipse style="stroke: rgb(0, 0, 0); stroke-width: 0px; fill: rgb(57, 73, 46);" cx="431.156" cy="472.917" rx="11.747" ry="11.747"/>
    </g>
    <ellipse style="stroke: rgb(0, 0, 0); stroke-width: 5px; fill: rgb(223, 225, 170);" cx="1025.97" cy="88.053" rx="40.119" ry="40.119"/>
    <g transform="matrix(1, 0, 0, 1, 594.814026, -384.86438)">
      <ellipse style="stroke: rgb(123, 130, 85); stroke-width: 3px; fill: rgb(201, 210, 164);" cx="431.156" cy="472.917" rx="17.756" ry="17.598"/>
      <ellipse style="stroke: rgb(0, 0, 0); stroke-width: 0px; fill: rgb(57, 73, 46);" cx="431.156" cy="472.917" rx="11.747" ry="11.747"/>
    </g>
  </g>
  <g transform="matrix(1, 0, 0, 1, -626.589478, -16.492472)">
    <title>I</title>
    <rect x="1101.481" y="145.062" width="97.934" height="345.951" style="stroke: rgb(0, 0, 0); stroke-width: 4px; fill: rgb(240, 6, 7);" rx="36.693" ry="36.693"/>
    <path style="fill: rgb(216, 216, 216); stroke-width: 7px; stroke: rgb(222, 213, 160);" d="M 1150.835 445.746 L 1150.398 192.541"/>
    <ellipse style="stroke: rgb(0, 0, 0); stroke-width: 5px; fill: rgb(240, 6, 7);" cx="1150.448" cy="85.282" rx="40.119" ry="40.119"/>
    <g transform="matrix(1, 0, 0, 1, 606.889954, 58.501686)">
      <ellipse style="stroke-width: 3px; stroke: rgb(234, 149, 112); fill: rgb(150, 57, 35);" cx="543.558" cy="131.533" rx="17.756" ry="17.598"/>
      <ellipse style="fill: rgb(132, 58, 34); stroke: rgb(222, 213, 160); stroke-width: 9px;" cx="543.558" cy="131.533" rx="7.383" ry="7.383"/>
    </g>
    <g transform="matrix(1, 0, 0, 1, 606.889954, 314.269104)">
      <ellipse style="stroke-width: 3px; stroke: rgb(234, 149, 112); fill: rgb(150, 57, 35);" cx="543.558" cy="131.533" rx="17.756" ry="17.598"/>
      <ellipse style="fill: rgb(132, 58, 34); stroke: rgb(222, 213, 160); stroke-width: 9px;" cx="543.558" cy="131.533" rx="7.383" ry="7.383"/>
    </g>
    <g transform="matrix(1, 0, 0, 1, 606.889954, -46.251011)">
      <ellipse style="stroke-width: 3px; stroke: rgb(234, 149, 112); fill: rgb(150, 57, 35);" cx="543.558" cy="131.533" rx="17.756" ry="17.598"/>
      <ellipse style="fill: rgb(132, 58, 34); stroke: rgb(222, 213, 160); stroke-width: 9px;" cx="543.558" cy="131.533" rx="7.383" ry="7.383"/>
    </g>
  </g>
</svg>