<?xml version="1.0" encoding="UTF-8" standalone="no"?>
<!-- Created with Inkscape (http://www.inkscape.org/) -->

<svg
   xmlns:dc="http://purl.org/dc/elements/1.1/"
   xmlns:cc="http://creativecommons.org/ns#"
   xmlns:rdf="http://www.w3.org/1999/02/22-rdf-syntax-ns#"
   xmlns:svg="http://www.w3.org/2000/svg"
   xmlns="http://www.w3.org/2000/svg"
   xmlns:sodipodi="http://sodipodi.sourceforge.net/DTD/sodipodi-0.dtd"
   xmlns:inkscape="http://www.inkscape.org/namespaces/inkscape"
   width="15.347195mm"
   height="16.279827mm"
   viewBox="0 0 15.347195 16.279827"
   version="1.1"
   id="svg780"
   inkscape:version="0.92.2 2405546, 2018-03-11"
   sodipodi:docname="BAS.svg">
  <defs
     id="defs774" />
  <sodipodi:namedview
     id="base"
     pagecolor="#ffffff"
     bordercolor="#666666"
     borderopacity="1.0"
     inkscape:pageopacity="0.0"
     inkscape:pageshadow="2"
     inkscape:zoom="0.35"
     inkscape:cx="-1876.7116"
     inkscape:cy="285.05053"
     inkscape:document-units="mm"
     inkscape:current-layer="layer1"
     showgrid="false"
     inkscape:window-width="1920"
     inkscape:window-height="1016"
     inkscape:window-x="0"
     inkscape:window-y="27"
     inkscape:window-maximized="1" />
  <metadata
     id="metadata777">
    <rdf:RDF>
      <cc:Work
         rdf:about="">
        <dc:format>image/svg+xml</dc:format>
        <dc:type
           rdf:resource="http://purl.org/dc/dcmitype/StillImage" />
        <dc:title></dc:title>
      </cc:Work>
    </rdf:RDF>
  </metadata>
  <g
     inkscape:label="Livello 1"
     inkscape:groupmode="layer"
     id="layer1"
     transform="translate(-602.37994,-207.97313)">
    <path
       inkscape:connector-curvature="0"
       style="fill:#ffffff;stroke:#000000;stroke-width:0.26458332"
       d="m 617.53981,217.64479 -0.18257,0.34817 -0.65838,0.95272 -0.30428,0.60962 -0.18258,0.59316 -0.39834,0.67817 -0.43707,0.3789 -0.16044,-0.13874 -0.41494,-0.0427 -0.53665,0.18676 -0.75796,-0.20811 -0.42047,0.1761 0.0498,0.51206 -0.20471,0.49045 0.0553,0.29307 -0.59197,1.04891 0.21023,0.21282 -0.16044,0.21809 -0.26003,-0.33513 -0.46473,-0.0905 -0.29876,0.13301 -0.2047,-0.0319 -0.0221,0.40427 -0.54218,-0.30318 -0.26556,0.15958 -0.47027,0.13829 -0.28769,-0.0213 -0.29876,-0.32447 -0.15491,-0.4204 0.22684,-0.46321 -0.49793,0.13846 -0.49793,-0.23432 -0.29322,0.24497 -0.52006,-0.28758 -0.2379,0.032 -0.24343,0.3834 -0.23236,0.20229 -0.15492,0.40975 -0.2047,-0.2554 -0.12725,-0.38326 -0.45366,-0.50061 0.0221,-0.18647 -0.31536,-0.15986 0.2711,-0.18122 -0.0332,-0.2399 0.35961,-0.56536 -0.0387,-0.55506 0.10512,-0.21358 0.59751,-0.49678 0.30429,-0.43825 -0.10512,-0.44917 -0.43707,-0.14978 -0.39281,-0.48695 0.0111,-0.51936 -1.04011,-0.73407 -0.24897,-0.44503 -0.37621,-0.23602 0.11065,-0.26828 -0.0498,-0.28983 -0.34302,-0.69278 -0.33748,-0.086 -0.22684,-0.23645 0.15492,-0.36017 0.34854,-0.30653 -0.73029,-0.38198 -0.2545,-0.30139 -0.2047,-0.10229 -0.0221,-0.34462 0.0941,-0.21546 -0.0332,-0.30713 -0.4924,-0.55526 0.42048,-0.0755 0.0553,-0.45854 0.30982,-0.0648 0.48133,0.14569 0.0221,-0.25363 0.57538,-0.2321 0.20471,-0.58325 0.18811,-0.19991 0.0498,-0.38915 -0.28216,-0.73554 0.2047,-0.43297 0.52006,-0.12993 0.62517,0.16783 0.69157,-0.14076 0.14384,0.17865 0.30429,-0.10827 0.0719,-0.24907 0.70816,-0.35206 0.40941,0.35206 0.31535,0.005 0.2213,0.21117 0.30429,0.45464 0.29875,0.25969 -0.0996,0.19472 0.0387,0.32983 -0.22683,0.3351 -0.30983,0.17831 1.1397,0.49151 0.26556,0.26994 0.16598,-0.24294 0.2379,-0.135 0.38728,0.1458 0.2047,0.39946 0.0719,0.40467 0.2545,0.42065 0.57538,0.50127 0.29876,0.40404 0.32642,0.19926 0.19363,0.37146 0.29323,0.0323 0.4758,-0.40914 0.16044,-0.27466 0.41494,0.42542 -0.0166,-0.36078 0.38174,-0.13467 0.30982,0.15082 0.24343,-0.0215 0.89627,0.51152 -0.27663,0.15071 0.28216,0.31209 -0.15491,0.57546 0.13832,0.387 -0.17704,0.67147 0.0996,0.33286 0.2047,0.2576 -0.17151,0.28972 0.16044,0.17164 0.55326,0.0751 0.16044,0.36995 0.38175,0.38585 z"
       id="path6" />
  </g>
</svg>
