<?xml version="1.0" encoding="UTF-8" standalone="no"?>
<!-- Created with Inkscape (http://www.inkscape.org/) -->

<svg
   xmlns:dc="http://purl.org/dc/elements/1.1/"
   xmlns:cc="http://creativecommons.org/ns#"
   xmlns:rdf="http://www.w3.org/1999/02/22-rdf-syntax-ns#"
   xmlns:svg="http://www.w3.org/2000/svg"
   xmlns="http://www.w3.org/2000/svg"
   xmlns:sodipodi="http://sodipodi.sourceforge.net/DTD/sodipodi-0.dtd"
   xmlns:inkscape="http://www.inkscape.org/namespaces/inkscape"
   width="15.676529mm"
   height="28.087376mm"
   viewBox="0 0 15.676529 28.087376"
   version="1.1"
   id="svg822"
   inkscape:version="0.92.2 2405546, 2018-03-11"
   sodipodi:docname="CAL.svg">
  <defs
     id="defs816" />
  <sodipodi:namedview
     id="base"
     pagecolor="#ffffff"
     bordercolor="#666666"
     borderopacity="1.0"
     inkscape:pageopacity="0.0"
     inkscape:pageshadow="2"
     inkscape:zoom="0.35"
     inkscape:cx="-1516.0874"
     inkscape:cy="250.2207"
     inkscape:document-units="mm"
     inkscape:current-layer="layer1"
     showgrid="false"
     inkscape:window-width="1920"
     inkscape:window-height="1016"
     inkscape:window-x="0"
     inkscape:window-y="27"
     inkscape:window-maximized="1" />
  <metadata
     id="metadata819">
    <rdf:RDF>
      <cc:Work
         rdf:about="">
        <dc:format>image/svg+xml</dc:format>
        <dc:type
           rdf:resource="http://purl.org/dc/dcmitype/StillImage" />
        <dc:title></dc:title>
      </cc:Work>
    </rdf:RDF>
  </metadata>
  <g
     inkscape:label="Livello 1"
     inkscape:groupmode="layer"
     id="layer1"
     transform="translate(-506.96478,-186.95018)">
    <path
       inkscape:connector-curvature="0"
       style="fill:#ffffff;stroke:#000000;stroke-width:0.26458332"
       d="m 516.96637,187.29284 -0.38174,0.51205 -0.0609,0.54372 0.1881,0.77235 0.11065,0.12245 -0.25449,0.46302 -0.35408,0.37236 -0.37068,0.51041 -0.34855,0.60041 -0.0664,0.28147 0.0443,0.50959 0.35408,0.32366 -0.0332,0.82184 0.86861,0.47156 0.7137,0.0159 0.50345,0.0688 0.16045,-0.10593 0.25449,0.12182 0.34855,0.32302 0.0774,0.2488 0.44261,0.41803 1.01798,0.56588 0.41494,0.0687 0.35408,0.60245 0.62518,0.41196 0.35408,0.0845 -0.16598,0.25867 -0.26003,0.76502 -0.0498,0.81178 0.39835,0.58465 -0.30429,0.78945 -0.0498,0.59426 0.22683,0.452 0.37621,0.33096 0.27663,0.084 -0.26556,0.23631 -0.13831,0.35697 0.0996,0.33584 -0.21024,0.11017 -0.33748,0.42481 -0.19917,0.0472 -0.48687,-0.1678 -0.21023,0.17304 -0.35962,-0.4038 -0.24896,-0.021 -1.14523,0.27796 -0.90734,0.41417 -0.68603,0.48208 -0.70816,0.40852 -0.32642,0.50253 -0.006,0.23023 -0.32089,0.39753 -0.0221,0.23007 0.22684,0.30841 -0.0277,0.31353 0.16598,1.06517 -0.006,0.44866 0.10512,0.92792 -0.15491,0.42714 -0.66944,0.78083 -0.44813,0.32254 -1.25035,0.4992 -0.50346,0.68076 -1.08438,1.34958 -0.1549,1.22845 -0.42601,0.87496 -0.36515,0.44492 -0.65837,0.10344 -0.70816,-0.17068 -0.95713,0.12931 -0.59198,0.031 -0.52005,-0.2431 -0.30982,-0.2173 -0.38728,-0.59007 -0.0387,-0.19677 0.18811,-0.16574 -0.0332,-0.45076 -0.15491,-0.10883 -0.0332,-0.33177 0.24896,-0.39933 -0.0387,-0.27496 -0.19364,-0.4152 0.0277,-0.51407 0.62518,-0.25455 0.4758,-0.0468 0.44813,-0.29102 0.33195,-0.54071 0.0664,-0.4994 0.12725,-0.0885 0.32089,-0.73929 0.19917,-0.099 0.16598,-0.87553 0.12171,-0.39113 -0.63624,-0.63662 -0.37068,-0.42292 0.23237,-0.4597 0.41494,-0.22994 0.52559,-0.13067 0.35961,-0.39736 0.54219,-0.0523 0.56985,0.20394 0.33195,-0.0732 0.49239,-0.40274 0.24897,-0.62276 0.10512,-0.43987 v -0.95903 l -0.2213,-0.26745 -0.42048,-0.24655 -0.24896,-0.60355 -0.2711,-0.31506 -0.17704,-0.84596 -0.1715,-0.53637 -0.0941,-1.70066 -0.2047,-1.01247 -0.39281,-1.15628 -0.32089,-0.38577 -0.37621,-0.67153 -0.40387,-0.19045 -0.0775,-0.13228 -0.42047,-1.47231 -0.16044,-0.10071 -0.0664,-0.7584 -0.21024,-1.00336 -0.16597,-0.25501 0.2047,-0.17536 -0.0996,-0.54757 -0.23237,-0.38297 0.15491,-0.40974 0.23237,-0.20229 0.24343,-0.38341 0.23789,-0.032 0.52006,0.28758 0.29323,-0.24497 0.49792,0.23433 0.49793,-0.13846 -0.22683,0.4632 0.15491,0.4204 0.29875,0.32448 0.28769,0.0213 0.47027,-0.13828 0.26556,-0.15958 0.54219,0.30318 0.0221,-0.40427 0.2047,0.0319 0.29876,-0.13302 0.46473,0.0905 0.26003,0.33513 0.16044,-0.21808 -0.21023,-0.21283 0.59197,-1.04891 -0.0553,-0.29306 0.2047,-0.49045 -0.0498,-0.51207 0.42047,-0.17609 0.75796,0.2081 0.53665,-0.18675 0.41494,0.0427 z"
       id="path8" />
  </g>
</svg>
