<?xml version="1.0" encoding="UTF-8" standalone="no"?>
<!-- Created with Inkscape (http://www.inkscape.org/) -->

<svg
   xmlns:dc="http://purl.org/dc/elements/1.1/"
   xmlns:cc="http://creativecommons.org/ns#"
   xmlns:rdf="http://www.w3.org/1999/02/22-rdf-syntax-ns#"
   xmlns:svg="http://www.w3.org/2000/svg"
   xmlns="http://www.w3.org/2000/svg"
   xmlns:sodipodi="http://sodipodi.sourceforge.net/DTD/sodipodi-0.dtd"
   xmlns:inkscape="http://www.inkscape.org/namespaces/inkscape"
   width="15.69658mm"
   height="15.276698mm"
   viewBox="0 0 15.69658 15.276698"
   version="1.1"
   id="svg299"
   inkscape:version="0.92.2 2405546, 2018-03-11"
   sodipodi:docname="FRI.svg">
  <defs
     id="defs293" />
  <sodipodi:namedview
     id="base"
     pagecolor="#ffffff"
     bordercolor="#666666"
     borderopacity="1.0"
     inkscape:pageopacity="0.0"
     inkscape:pageshadow="2"
     inkscape:zoom="0.35"
     inkscape:cx="-1636.0516"
     inkscape:cy="-48.273183"
     inkscape:document-units="mm"
     inkscape:current-layer="layer1"
     showgrid="false"
     inkscape:window-width="1920"
     inkscape:window-height="1016"
     inkscape:window-x="0"
     inkscape:window-y="27"
     inkscape:window-maximized="1" />
  <metadata
     id="metadata296">
    <rdf:RDF>
      <cc:Work
         rdf:about="">
        <dc:format>image/svg+xml</dc:format>
        <dc:type
           rdf:resource="http://purl.org/dc/dcmitype/StillImage" />
        <dc:title></dc:title>
      </cc:Work>
    </rdf:RDF>
  </metadata>
  <g
     inkscape:label="Livello 1"
     inkscape:groupmode="layer"
     id="layer1"
     transform="translate(-538.70532,-120.78435)">
    <path
       inkscape:connector-curvature="0"
       style="fill:#ffffff;stroke:#000000;stroke-width:0.26458332"
       d="m 548.21232,133.71578 0.33195,0.22211 -0.19363,0.31552 -0.24343,-0.29214 z m -1.97511,1.13327 -0.38174,-0.3912 -0.14938,-0.70699 -0.26556,-0.18708 0.0609,-0.23977 -0.19364,-0.14623 -0.16598,-0.73158 -0.40387,0.15808 -0.37621,-0.0878 -0.28769,-0.38065 -0.55326,0.082 -0.21577,-0.12887 -0.38174,0.38068 -0.13278,-0.13468 -0.48686,0.5854 -0.7137,-0.60882 -0.23236,0.19323 -0.2213,-0.0234 v -0.29281 l -0.21577,-0.30464 -0.30982,-0.76212 -0.40941,-0.15838 -0.39834,-0.30512 0.0608,-0.55188 -0.22683,-0.65806 0.2213,-0.47038 0.54219,-0.3824 0.14938,-0.48268 -0.0719,-0.26502 -0.33749,-0.1944 -0.2545,-0.54812 -0.27109,-0.25947 -0.29876,0.059 -0.47026,-0.43653 0.0553,-0.40136 0.21024,-0.1476 0.0387,-0.31894 0.23236,-0.21269 h 0.32089 l 0.16044,-0.28369 0.33749,-0.24831 -0.0221,-0.15375 0.33748,-0.44962 0.0996,-0.40843 0.62517,-0.48567 0.35962,0.15995 0.4592,-0.28437 -0.22684,-0.39712 0.83542,-0.46851 0.15491,-0.23732 0.0941,-0.47488 -0.11065,-0.19003 0.0443,-0.36832 0.17704,-0.17234 0.37621,0.0594 0.34302,0.1961 0.22683,0.3564 0.76902,-0.0713 0.52006,0.12472 0.35961,-0.0416 0.24896,0.11282 0.44814,-0.0653 0.72476,0.15438 0.70816,0.46888 0.32642,-0.10087 0.36515,0.12461 0.65837,-0.33234 0.4426,0.26113 h 0.47027 l 0.8852,0.10087 0.6971,0.17204 0.4094,0.24316 0.35962,0.006 -0.0221,0.66977 -0.26556,0.53302 -0.17151,-0.2487 -0.2213,0.10068 h -0.48686 l -0.17151,0.10658 -0.30982,0.56818 -0.42047,0.19522 -0.40941,0.32525 -0.29876,0.48467 -0.45366,0.51388 0.37068,0.79084 -0.0664,0.26539 0.26556,0.059 0.21577,-0.32436 0.56985,0.24181 0.32641,0.33015 0.94607,0.1886 0.0775,0.44184 -0.16598,0.21788 -0.70816,0.67681 -0.6971,0.38817 0.0221,0.38796 -0.21577,0.55223 0.65837,0.12332 0.67497,-0.15856 0.36515,0.16443 -0.2213,0.88025 -0.14385,0.20525 -0.2213,0.62128 -0.0277,0.3573 0.18811,0.26933 0.54771,0.19316 0.82435,0.42128 0.7137,0.61979 0.27109,0.47328 0.38728,0.35624 0.1715,0.38525 -0.0332,0.20422 -0.34301,0.45493 -0.38728,0.19822 -0.41494,-0.006 -0.36515,-0.1749 0.23237,-0.52493 -0.24896,-0.74718 -1.13417,-1.15721 -0.82988,-0.27494 -0.25449,0.31004 -0.0332,0.27483 0.32088,0.2046 -1.14523,0.67772 -0.4758,0.0934 0.005,-0.64257 -0.2047,-0.18119 -0.48686,-0.21046 -0.63624,-0.0234 -0.2545,-0.27486 -0.38727,0.0936 -0.89074,0.46189 -0.0719,0.55508 0.27662,0.0584 0.0277,0.24525 z"
       id="path14" />
  </g>
</svg>
