<?xml version="1.0" encoding="UTF-8" standalone="no"?>
<!-- Created with Inkscape (http://www.inkscape.org/) -->

<svg
   xmlns:dc="http://purl.org/dc/elements/1.1/"
   xmlns:cc="http://creativecommons.org/ns#"
   xmlns:rdf="http://www.w3.org/1999/02/22-rdf-syntax-ns#"
   xmlns:svg="http://www.w3.org/2000/svg"
   xmlns="http://www.w3.org/2000/svg"
   xmlns:sodipodi="http://sodipodi.sourceforge.net/DTD/sodipodi-0.dtd"
   xmlns:inkscape="http://www.inkscape.org/namespaces/inkscape"
   width="25.317665mm"
   height="12.513771mm"
   viewBox="0 0 25.317665 12.513771"
   version="1.1"
   id="svg341"
   inkscape:version="0.92.2 2405546, 2018-03-11"
   sodipodi:docname="LIG.svg">
  <defs
     id="defs335" />
  <sodipodi:namedview
     id="base"
     pagecolor="#ffffff"
     bordercolor="#666666"
     borderopacity="1.0"
     inkscape:pageopacity="0.0"
     inkscape:pageshadow="2"
     inkscape:zoom="0.35"
     inkscape:cx="807.84432"
     inkscape:cy="297.93315"
     inkscape:document-units="mm"
     inkscape:current-layer="layer1"
     showgrid="false"
     inkscape:window-width="1920"
     inkscape:window-height="1016"
     inkscape:window-x="0"
     inkscape:window-y="27"
     inkscape:window-maximized="1" />
  <metadata
     id="metadata338">
    <rdf:RDF>
      <cc:Work
         rdf:about="">
        <dc:format>image/svg+xml</dc:format>
        <dc:type
           rdf:resource="http://purl.org/dc/dcmitype/StillImage" />
        <dc:title></dc:title>
      </cc:Work>
    </rdf:RDF>
  </metadata>
  <g
     inkscape:label="Livello 1"
     inkscape:groupmode="layer"
     id="layer1"
     transform="translate(107.90881,-215.14771)">
    <path
       inkscape:connector-curvature="0"
       style="fill:#ffffff;stroke:#000000;stroke-width:0.26458332"
       d="m -91.170846,216.14034 0.414938,-0.086 0.26003,0.32667 0.271092,-0.16618 0.387279,0.40107 0.398341,0.0229 0.237897,-0.32656 0.138314,0.28647 0.232365,0.16037 0.320886,0.0401 0.271095,0.48091 -0.07192,0.64647 -0.260029,0.1258 -0.116184,0.42301 0.154911,0.41135 0.193638,-0.15994 0.630708,-0.19427 0.464733,0.0914 0.470265,0.26849 0.193638,0.63946 0.116181,-0.0171 h 0.188108 l 0.226833,0.51349 0.746889,0.62145 0.470266,0.19945 0.04426,0.41583 0.160443,0.18221 -0.17704,0.40983 0.497927,-0.21628 0.188106,0.18782 -0.348549,0.3755 0.72476,-0.0171 0.09405,0.40376 0.248962,0.43197 0.193641,-0.15912 0.248962,0.0568 0.215768,0.23297 -0.07192,0.24426 -0.426006,0.49397 -0.160443,-0.0851 -0.381743,0.18731 -0.79115,-0.59046 -0.282159,-0.32381 -0.30429,0.125 0.165976,0.35782 -0.160444,0.1533 -0.475798,-0.23848 -0.46473,-0.49423 -0.569851,-0.41494 -0.309822,0.10802 -0.282157,-0.30135 -0.0055,-0.21044 -0.376211,-0.14223 -0.171508,-0.32436 -0.188108,-0.006 -0.348549,-0.38713 -0.497927,-0.0342 -0.193638,-0.29049 -0.226833,-0.0342 -0.09959,-0.2678 -1.488246,-0.86102 -0.221303,0.14262 -0.127246,0.41629 -0.525592,-0.25659 0.07192,-0.34796 -0.121716,-0.16547 -0.370679,-0.14268 -1.654224,-0.31969 -0.204704,-0.15419 -0.708163,-0.0743 -0.105118,-0.17136 -0.520057,0.0571 -0.309821,-0.10283 -0.486862,0.24563 -0.132781,0.22271 -0.370679,0.0742 -0.160443,0.1998 -0.531122,0.21116 -0.282159,0.30238 -0.337485,0.0913 -0.160443,0.30793 -0.392809,0.23372 0.06086,0.38178 -0.376212,0.46132 -0.0166,0.33585 -0.309821,0.27882 -1.073312,0.51187 -0.26003,0.37516 -0.2047,0.49427 -0.0166,0.49963 -0.55325,0.56172 -0.0719,0.39127 0.13278,0.23807 -0.30982,0.085 -0.13279,0.28329 -0.30982,0.11329 -0.21577,0.35676 -0.43153,0.1019 -0.11619,0.15283 -0.47579,0.18675 -0.56432,0.31116 -0.38174,0.006 -0.38175,0.27145 -0.26003,-0.0961 -0.50346,0.20921 -0.15491,0.16394 -0.25449,-0.0735 -0.38175,0.3278 -0.80775,-0.2091 -0.30982,0.14129 -0.28216,-0.0396 -0.29875,-1.18766 0.14938,-0.15849 0.4592,-0.20948 0.0996,-0.61743 0.39281,-0.15301 0.39281,-0.26643 0.16044,-0.2892 -0.0332,-0.43116 0.34855,-0.18161 0.11065,-0.2725 0.27662,-0.21011 -0.2047,-0.36356 0.26003,-0.42058 0.28769,-0.0625 0.38728,0.22739 1.07884,0.17618 0.0885,0.125 0.35408,-0.16478 0.31535,0.14774 0.0277,-0.31825 -0.2711,-0.108 0.29876,-0.29566 0.32642,0.17059 0.23236,-0.0228 0.26557,-0.41517 -0.0609,-0.38124 -0.2213,-0.18785 0.14938,-0.33594 -0.17151,-0.15379 0.26003,-0.27917 -0.29323,-0.36478 0.16044,-0.18245 0.24897,0.17675 0.0498,-0.43339 0.26556,0.0114 0.13832,-0.30807 0.0111,-0.41096 0.52559,-0.27408 0.17704,-0.33703 -0.2545,-0.46864 0.2711,-0.29162 0.006,-0.38898 0.28216,-0.20029 0.18257,0.30327 0.320891,0.0515 0.154911,0.19448 0.287691,0.0515 0.08299,0.26874 0.326419,-0.16581 0.11065,-0.4347 0.448135,0.16018 0.326418,-0.18878 0.503461,-0.0286 0.243431,0.14303 0.13278,-0.28036 0.387277,-0.32054 -0.121716,-0.2863 0.188106,-0.126 0.453667,-0.0745 0.143845,0.10311 0.381745,-0.0687 0.459199,0.76149 0.01107,0.46913 0.265561,-0.143 -0.01107,-0.29752 0.282159,-0.22893 0.02213,-0.31489 0.558785,0.13169 0.365147,-0.20614 -0.376212,-0.97993 0.248963,-0.10895 0.221301,-0.40154 h 0.265562 l 0.138313,0.17785 0.392809,-0.0516 0.403873,0.62507 0.204703,-0.0344 0.265562,0.19488 0.09959,0.38963 0.381743,0.0916 0.514525,-0.35519 z"
       id="path18" />
  </g>
</svg>
