<?xml version="1.0" encoding="UTF-8" standalone="no"?>
<!-- Created with Inkscape (http://www.inkscape.org/) -->

<svg
   xmlns:dc="http://purl.org/dc/elements/1.1/"
   xmlns:cc="http://creativecommons.org/ns#"
   xmlns:rdf="http://www.w3.org/1999/02/22-rdf-syntax-ns#"
   xmlns:svg="http://www.w3.org/2000/svg"
   xmlns="http://www.w3.org/2000/svg"
   xmlns:sodipodi="http://sodipodi.sourceforge.net/DTD/sodipodi-0.dtd"
   xmlns:inkscape="http://www.inkscape.org/namespaces/inkscape"
   width="18.014303mm"
   height="17.418968mm"
   viewBox="0 0 18.014303 17.418968"
   version="1.1"
   id="svg467"
   inkscape:version="0.92.2 2405546, 2018-03-11"
   sodipodi:docname="MAR.svg">
  <defs
     id="defs461" />
  <sodipodi:namedview
     id="base"
     pagecolor="#ffffff"
     bordercolor="#666666"
     borderopacity="1.0"
     inkscape:pageopacity="0.0"
     inkscape:pageshadow="2"
     inkscape:zoom="0.35"
     inkscape:cx="402.61421"
     inkscape:cy="-401.36798"
     inkscape:document-units="mm"
     inkscape:current-layer="layer1"
     showgrid="false"
     inkscape:window-width="1920"
     inkscape:window-height="1016"
     inkscape:window-x="0"
     inkscape:window-y="27"
     inkscape:window-maximized="1" />
  <metadata
     id="metadata464">
    <rdf:RDF>
      <cc:Work
         rdf:about="">
        <dc:format>image/svg+xml</dc:format>
        <dc:type
           rdf:resource="http://purl.org/dc/dcmitype/StillImage" />
        <dc:title></dc:title>
      </cc:Work>
    </rdf:RDF>
  </metadata>
  <g
     inkscape:label="Livello 1"
     inkscape:groupmode="layer"
     id="layer1"
     transform="translate(0.6916756,-25.219086)">
    <path
       inkscape:connector-curvature="0"
       style="fill:#ffffff;stroke:#000000;stroke-width:0.26458332"
       d="m 17.141866,39.735867 -0.957127,0.228309 -0.354082,0.222679 -0.558784,0.07236 -0.226832,0.434009 -0.348549,0.205798 -0.271095,0.05005 -0.143846,-0.161287 -0.48133,0.200213 -0.359614,-0.216898 -0.04979,0.283623 -0.260027,0.322437 0.01659,0.316752 -0.149379,0.177773 h -0.359614 l -0.2379,0.360982 -0.376211,0.255368 -0.442603,-0.188744 -0.558784,-0.516487 -0.204703,0.0056 -0.105119,0.244398 -0.625173,-0.155519 0.06086,-0.311124 0.19917,-0.194514 0.28216,0.05002 0.182573,-0.539287 -0.160443,-0.545209 -0.8464768,0.233707 -0.47027,-0.762611 L 9.0256458,39.674603 8.771151,39.401643 8.0076614,40.064389 7.9357397,39.657894 8.0131938,39.323638 7.2275771,38.805272 7.3492934,38.537598 7.1501204,38.208464 7.3326934,37.868033 7.1722528,37.55538 7.2441744,37.091767 7.0284067,36.694971 6.7130525,36.706163 6.5968687,36.454576 6.901158,36.124601 V 35.520232 L 6.652193,35.436255 6.5360119,34.780948 6.1929954,34.539974 6.3147091,34.23165 5.7780547,33.126326 6.0491494,32.969103 5.9661602,32.648944 5.9772198,32.193768 5.6618656,32.131932 5.4073681,32.665798 4.9647679,32.502867 4.599619,32.716357 4.0021079,32.193768 3.3769318,31.367048 2.9619937,31.423314 2.7738882,31.141946 2.6079124,31.170087 2.3921421,31.479578 2.0767905,31.198228 1.7503713,31.338915 1.5567333,31.080031 1.8665525,30.939299 2.1431798,30.522588 1.9827364,30.08312 1.3741576,30.404293 H 0.70472468 l -0.1106514,-0.231005 -0.2766271,-0.422744 0.3374839,-0.118408 0.71369512,-0.451237 0.3762137,0.135398 -0.022119,-0.440126 0.3706787,-0.107247 -0.3983435,-0.485608 -0.4204706,-0.186415 -0.41494072,0.152525 -0.3153516,-0.05084 -0.1272487,0.333219 -0.30982182,-0.401008 -0.39280836,0.175112 -0.16044334,-0.06213 -0.10511895,-0.152527 0.0608594,-0.31079 0.27662453,-0.491861 0.0719243,-0.311102 0.2876894,-0.673521 0.0221192,-0.373793 0.40940829,0.215234 0.59197877,-0.271886 0.2102352,0.01699 0.2710948,-0.436335 0.287692,0.136028 0.1604436,-0.164367 0.3430164,0.187034 0.033195,0.617476 0.022119,0.07927 0.2655623,-0.0906 0.1659757,0.135898 0.3042867,-0.06795 0.055327,-0.209534 0.7192274,0.458637 0.232365,-0.06793 0.1217163,0.46973 0.2157677,0.378982 0.5643192,-0.07352 0.01106,-0.333751 0.3872759,-0.107508 0.1217163,-0.475472 -0.066392,-0.379447 0.2323677,-0.583681 0.4813273,0.06236 0.9073356,0.566639 0.094051,-0.02832 0.5753841,0.600223 1.0567114,0.825992 0.2932245,0.322247 1.643157,1.45134 1.44399,0.879695 0.591979,0.185968 0.271095,-0.304332 0.193638,0.107093 0.359615,0.439496 0.04979,0.230921 0.564318,0.320926 -0.04979,0.652725 0.409408,0.848875 0.248963,0.819926 0.26003,0.690115 0.165975,0.21309 0.398341,0.919004 0.110652,0.425527 0.558784,1.4429 0.05532,0.513908 0.376214,1.562074 z M 0.44471068,28.017788 l 0.3762111,-0.220387 0.0110596,-0.169569 -0.66943555,-0.06784 z"
       id="path22" />
  </g>
</svg>
