<?xml version="1.0" encoding="UTF-8" standalone="no"?>
<!-- Created with Inkscape (http://www.inkscape.org/) -->

<svg
   xmlns:dc="http://purl.org/dc/elements/1.1/"
   xmlns:cc="http://creativecommons.org/ns#"
   xmlns:rdf="http://www.w3.org/1999/02/22-rdf-syntax-ns#"
   xmlns:svg="http://www.w3.org/2000/svg"
   xmlns="http://www.w3.org/2000/svg"
   xmlns:sodipodi="http://sodipodi.sourceforge.net/DTD/sodipodi-0.dtd"
   xmlns:inkscape="http://www.inkscape.org/namespaces/inkscape"
   width="12.28861mm"
   height="9.5767651mm"
   viewBox="0 0 12.28861 9.5767651"
   version="1.1"
   id="svg635"
   inkscape:version="0.92.2 2405546, 2018-03-11"
   sodipodi:docname="MOL.svg">
  <defs
     id="defs629" />
  <sodipodi:namedview
     id="base"
     pagecolor="#ffffff"
     bordercolor="#666666"
     borderopacity="1.0"
     inkscape:pageopacity="0.0"
     inkscape:pageshadow="2"
     inkscape:zoom="0.35"
     inkscape:cx="-1285.3486"
     inkscape:cy="-324.75935"
     inkscape:document-units="mm"
     inkscape:current-layer="layer1"
     showgrid="false"
     inkscape:window-width="1920"
     inkscape:window-height="1016"
     inkscape:window-x="0"
     inkscape:window-y="27"
     inkscape:window-maximized="1" />
  <metadata
     id="metadata632">
    <rdf:RDF>
      <cc:Work
         rdf:about="">
        <dc:format>image/svg+xml</dc:format>
        <dc:type
           rdf:resource="http://purl.org/dc/dcmitype/StillImage" />
        <dc:title></dc:title>
      </cc:Work>
    </rdf:RDF>
  </metadata>
  <g
     inkscape:label="Livello 1"
     inkscape:groupmode="layer"
     id="layer1"
     transform="translate(-445.91515,-53.330656)">
    <path
       inkscape:connector-curvature="0"
       style="fill:#ffffff;stroke:#000000;stroke-width:0.26458332"
       d="m 457.76105,55.40811 0.0221,0.603006 -0.34302,0.427324 0.12725,0.416155 -0.0166,0.328398 -0.17151,0.306387 0.0553,0.322681 0.17704,0.273362 0.30983,0.185833 -0.35408,0.163938 -0.15491,0.284084 -0.509,0.212997 -0.24896,0.43675 -0.30429,-0.09279 -0.30429,-0.223832 -0.25449,0.349369 0.16044,0.349223 -0.12172,0.545373 0.0221,0.34885 0.2545,0.05994 0.39834,0.42494 -0.54219,0.370281 -0.65283,0.168752 -0.28216,0.261225 -0.63624,-0.359206 -0.16045,0.0871 -0.0885,0.370051 -0.4592,0.212162 -0.1715,-0.130556 -0.27663,0.0544 -0.33195,0.217566 -0.33195,0.337117 -0.35962,-0.36431 -0.14384,0.163144 -0.61411,-0.146828 -0.32089,-0.478726 -0.27109,-0.01633 -0.14385,-0.157824 -0.82988,-0.157855 -0.48686,-0.42472 -0.34855,-0.141621 -0.72476,0.03268 -0.14938,0.152508 -0.26003,-0.321389 -0.24343,0.337727 -0.21023,0.446464 0.28216,0.397261 -0.23237,0.212161 -0.39834,0.09246 -0.24343,-0.397119 -0.11619,-0.380973 -0.27109,-0.125217 0.14385,-0.255932 -0.19364,-0.152505 0.52005,-0.414089 -0.0221,-0.457912 -0.21577,-0.114517 0.0885,-0.490966 -0.13831,-0.218297 -0.0775,-0.382159 -0.46473,-0.447895 0.14937,-0.09835 0.37069,0.02732 0.24343,0.147516 0.48686,-0.715968 h 0.44813 l 0.42047,-0.131238 0.34302,-0.01093 0.0775,-0.246128 -0.30429,-0.169595 -0.0553,-0.38856 -0.17151,-0.229936 0.18258,-0.197141 0.49792,-0.147883 0.0941,-0.273931 0.56431,-0.443958 0.17151,0.18638 0.21577,-0.01643 0.17151,0.334293 0.33748,-0.131509 0.66944,0.553294 0.17704,0.793692 0.24896,0.207878 0.42601,-0.399388 0.1715,-0.328409 0.19364,-0.05475 0.2711,-0.421674 0.14938,-0.471213 0.48686,-0.350842 0.0443,-0.40036 0.56985,-0.740897 0.37621,-0.192193 -0.0387,-0.307599 0.16598,-0.362675 0.68603,0.445079 1.03458,0.346006 0.42047,0.186674 0.49793,0.395174 0.18811,0.241403 z"
       id="path24" />
  </g>
</svg>
