<?xml version="1.0" encoding="UTF-8" standalone="no"?>
<!-- Created with Inkscape (http://www.inkscape.org/) -->

<svg
   xmlns:dc="http://purl.org/dc/elements/1.1/"
   xmlns:cc="http://creativecommons.org/ns#"
   xmlns:rdf="http://www.w3.org/1999/02/22-rdf-syntax-ns#"
   xmlns:svg="http://www.w3.org/2000/svg"
   xmlns="http://www.w3.org/2000/svg"
   xmlns:sodipodi="http://sodipodi.sourceforge.net/DTD/sodipodi-0.dtd"
   xmlns:inkscape="http://www.inkscape.org/namespaces/inkscape"
   width="25.484556mm"
   height="33.570877mm"
   viewBox="0 0 25.484556 33.570877"
   version="1.1"
   id="svg122"
   inkscape:version="0.92.2 2405546, 2018-03-11"
   sodipodi:docname="PIE.svg">
  <defs
     id="defs116" />
  <sodipodi:namedview
     id="base"
     pagecolor="#ffffff"
     bordercolor="#666666"
     borderopacity="1.0"
     inkscape:pageopacity="0.0"
     inkscape:pageshadow="2"
     inkscape:zoom="0.35"
     inkscape:cx="711.01701"
     inkscape:cy="437.72604"
     inkscape:document-units="mm"
     inkscape:current-layer="layer1"
     showgrid="false"
     inkscape:window-width="1920"
     inkscape:window-height="1016"
     inkscape:window-x="0"
     inkscape:window-y="27"
     inkscape:window-maximized="1" />
  <metadata
     id="metadata119">
    <rdf:RDF>
      <cc:Work
         rdf:about="">
        <dc:format>image/svg+xml</dc:format>
        <dc:type
           rdf:resource="http://purl.org/dc/dcmitype/StillImage" />
        <dc:title></dc:title>
      </cc:Work>
    </rdf:RDF>
  </metadata>
  <g
     inkscape:label="Livello 1"
     inkscape:groupmode="layer"
     id="layer1"
     transform="translate(82.289916,-231.07747)">
    <path
       inkscape:connector-curvature="0"
       style="fill:#ffffff;stroke:#000000;stroke-width:0.26458332"
       d="m -61.792196,236.25508 -0.11065,0.28828 0.226833,0.72904 -0.09405,0.25265 -1.217155,1.25031 -0.215768,0.48666 0.226833,0.74992 -0.309821,0.36883 -0.07746,0.44471 0.453668,0.68412 0.426004,0.0584 0.08299,0.19868 -0.132781,0.43224 0.221301,0.0292 0.243431,0.48451 -0.02766,0.30923 0.17704,0.41988 0.08852,0.9381 0.143846,0.24453 0.580915,0.22119 0.0166,0.33746 0.52559,0.94764 -0.481329,0.20332 -0.708163,0.11617 0.387276,0.26131 -0.331951,0.26122 -0.09959,0.41197 -0.486862,0.1508 -0.105118,-0.46411 -0.426004,-0.39472 -0.320886,0.0987 -0.276627,-0.10451 -0.226833,0.15095 0.110651,0.33662 -0.298757,0.16245 0.04426,0.23202 0.298756,0.53339 -0.165976,0.45772 0.359614,0.31852 -0.182573,0.20262 0.11065,0.33566 0.237899,0.0636 0.276626,0.60725 0.365147,0.45657 -0.110651,0.47363 0.171508,0.24248 0.514525,-0.19052 0.448134,0.23092 0.171509,0.19046 0.536654,-0.54841 0.558785,-0.10396 0.182573,0.14438 0.01107,0.49068 0.232366,0.33464 0.226834,-0.0692 0.287691,0.29416 -0.08299,0.32864 0.215769,0.17292 0.07746,0.29386 0.298756,0.288 0.248963,-0.0115 0.138313,0.32819 -0.165975,0.28778 0.2213,0.31068 0.326419,0.2243 0.497927,-0.11501 0.127249,0.24152 -0.01659,0.33341 0.409405,0.27008 -0.105116,0.41355 -0.02766,0.48794 0.02766,0.99792 0.02212,0.17766 -0.514525,0.3552 -0.381743,-0.0917 -0.09959,-0.38962 -0.265562,-0.19489 -0.204703,0.0344 -0.403873,-0.62507 -0.392809,0.0516 -0.138313,-0.17785 h -0.265562 l -0.221301,0.40154 -0.248963,0.10895 0.376212,0.97993 -0.365147,0.20614 -0.558785,-0.13169 -0.02213,0.31489 -0.282159,0.22893 0.01106,0.29752 -0.265561,0.143 -0.01107,-0.46913 -0.459199,-0.76149 -0.381745,0.0687 -0.143845,-0.10311 -0.453667,0.0745 -0.188106,0.12601 0.121716,0.2863 -0.387277,0.32053 -0.13278,0.28037 -0.243431,-0.14303 -0.50346,0.0286 -0.326419,0.18878 -0.448135,-0.16018 -0.11065,0.4347 -0.326419,0.16581 -0.08299,-0.26874 -0.287691,-0.0515 -0.15491,-0.19448 -0.320887,-0.0515 -0.182573,-0.30327 -0.282159,0.20029 -0.0055,0.38898 -0.271094,0.29162 0.254496,0.46864 -0.17704,0.33703 -0.52559,0.27408 -0.01106,0.41096 -0.138313,0.30807 -0.265561,-0.0114 -0.04979,0.4334 -0.248964,-0.17675 -0.160443,0.18245 0.293224,0.36477 -0.260029,0.27917 0.171509,0.15379 -0.149379,0.33595 0.221301,0.18784 0.06086,0.38124 -0.265561,0.41517 -0.232366,0.0228 -0.326419,-0.17058 -0.298756,0.29566 0.271094,0.108 -0.02766,0.31825 -0.315354,-0.14774 -0.354081,0.16478 -0.08852,-0.125 -1.078842,-0.17618 -0.387277,-0.22739 -0.287691,0.0625 -0.260028,0.42058 0.204703,0.36357 -0.276626,0.21011 0.0166,-0.33507 -0.442645,-0.5455 0.149378,-0.67101 -0.486861,0.0171 -0.193639,0.29577 -0.437069,-0.0284 -0.608578,0.14785 -0.437069,0.24445 -0.287691,-0.0227 -0.193639,0.15346 -0.260028,-0.0796 -0.248964,0.0909 -0.149378,-0.39223 -0.785618,-0.0227 -0.215769,-0.31279 -0.2213,-0.0171 -0.226834,-0.34707 -0.52559,-0.0569 -0.63624,-0.40988 -0.376212,0.0854 -0.260028,-0.24486 -0.07746,-0.48425 -0.337484,-0.26789 -0.01106,-0.18814 -0.271094,-0.27374 -0.07192,-0.29096 -0.315354,-0.15979 0.08299,-0.18836 -0.01107,-0.5425 0.448135,-0.13139 -0.348549,-0.56583 -0.276626,-0.20014 -0.210236,-0.6236 0.215768,-0.30913 0.298756,-0.063 0.204704,-0.24053 0.199171,-0.61884 -0.08299,-0.4415 0.453666,-0.45324 0.298757,-0.0516 0.287691,0.13773 0.138313,-0.15494 -0.09405,-0.2698 -0.392809,-0.48815 0.01106,-0.362 -0.160443,-0.26442 0.127248,-0.41406 -0.177041,-0.23012 -0.536655,-0.32804 -0.359614,0.25323 -0.409406,-0.11509 -0.431537,-0.25328 -0.127248,-0.19577 -0.486863,-0.3744 0.0055,-0.78393 -0.226834,-0.72698 -0.514524,0.0346 -0.154911,-0.54854 -0.387277,-0.66454 0.403875,-0.18501 0.177041,-0.21976 0.536654,-0.006 0.265561,-0.21404 0.282159,0.0463 0.508992,0.30656 0.392809,-0.15038 0.06086,-0.34133 0.514525,-0.15626 0.215768,-0.45158 0.730293,-0.23167 0.149378,0.19114 0.43707,-0.45766 0.232366,-0.13909 v -0.37682 l -0.215769,-0.55685 0.702631,-1.13235 -0.06086,-0.12785 -0.558785,-0.33717 -0.193638,-0.38968 0.127248,-0.11635 0.07746,-0.46561 0.376211,0.27358 0.61411,0.22112 0.448135,-0.61114 0.50346,0.0116 0.370678,-0.16305 0.143846,0.12811 0.442602,-0.42518 0.276626,-0.11653 0.165976,-0.30306 0.331951,-0.0816 0.226834,0.0933 0.337484,-0.19238 0.409407,0.16324 0.09405,0.21565 0.359613,-0.0816 0.304289,0.2331 0.442602,-0.0816 0.09959,0.10488 0.508992,-0.338 0.105118,-0.16323 0.514524,-0.22157 0.464733,0.035 0.188105,-0.46083 0.226834,-0.14005 -0.331952,-0.54293 0.309822,-0.59007 -0.07746,-0.25135 -0.426005,-0.24558 -0.215769,-0.43289 0.01107,-0.67907 0.116183,-0.3046 -0.138313,-0.73857 0.116183,-0.21114 -0.04979,-0.1584 0.127247,-0.49888 0.271094,-0.28773 0.813281,-0.0176 0.226834,-0.44062 0.19917,-0.17632 -0.105117,-0.3116 0.127247,-0.41762 0.702631,-0.20007 0.08299,-0.25309 0.254496,-0.0883 0.204703,-0.67149 -0.243431,-0.57771 -0.470264,-0.54273 0.486862,-0.53721 0.354081,0.0591 0.348549,-0.16536 0.121716,-0.37219 0.343016,-0.17729 v -0.22463 l 0.48133,-0.26609 0.02766,-0.27802 -0.248963,-0.13609 0.807748,-0.61566 0.193639,0.0711 0.376211,-0.16582 0.354082,0.11845 -0.127248,0.40259 0.143845,0.84002 -0.06086,0.42557 -0.37068,0.50802 0.254497,0.51359 -0.143846,0.20652 0.248963,0.28903 0.674968,0.0885 0.08299,0.30068 0.630708,0.6658 -0.121716,0.19433 0.149378,0.32966 0.365147,-0.0942 0.08852,0.14714 z"
       id="path26" />
  </g>
</svg>
