<?xml version="1.0" encoding="UTF-8" standalone="no"?>
<!-- Created with Inkscape (http://www.inkscape.org/) -->

<svg
   xmlns:dc="http://purl.org/dc/elements/1.1/"
   xmlns:cc="http://creativecommons.org/ns#"
   xmlns:rdf="http://www.w3.org/1999/02/22-rdf-syntax-ns#"
   xmlns:svg="http://www.w3.org/2000/svg"
   xmlns="http://www.w3.org/2000/svg"
   xmlns:sodipodi="http://sodipodi.sourceforge.net/DTD/sodipodi-0.dtd"
   xmlns:inkscape="http://www.inkscape.org/namespaces/inkscape"
   width="35.184452mm"
   height="28.043165mm"
   viewBox="0 0 35.184452 28.043165"
   version="1.1"
   id="svg696"
   inkscape:version="0.92.2 2405546, 2018-03-11"
   sodipodi:docname="PUG.svg">
  <defs
     id="defs690" />
  <sodipodi:namedview
     id="base"
     pagecolor="#ffffff"
     bordercolor="#666666"
     borderopacity="1.0"
     inkscape:pageopacity="0.0"
     inkscape:pageshadow="2"
     inkscape:zoom="0.35"
     inkscape:cx="-1522.0827"
     inkscape:cy="-321.29072"
     inkscape:document-units="mm"
     inkscape:current-layer="layer1"
     showgrid="false"
     inkscape:window-width="1920"
     inkscape:window-height="1016"
     inkscape:window-x="0"
     inkscape:window-y="27"
     inkscape:window-maximized="1" />
  <metadata
     id="metadata693">
    <rdf:RDF>
      <cc:Work
         rdf:about="">
        <dc:format>image/svg+xml</dc:format>
        <dc:type
           rdf:resource="http://purl.org/dc/dcmitype/StillImage" />
        <dc:title></dc:title>
      </cc:Work>
    </rdf:RDF>
  </metadata>
  <g
     inkscape:label="Livello 1"
     inkscape:groupmode="layer"
     id="layer1"
     transform="translate(-508.55105,-35.781997)">
    <path
       inkscape:connector-curvature="0"
       style="fill:#ffffff;stroke:#000000;stroke-width:0.26458332"
       d="m 527.50859,55.98027 -0.17704,-0.06429 -0.38175,-0.385855 -0.16044,-0.369943 -0.55325,-0.07508 -0.16045,-0.171638 0.17151,-0.289713 -0.2047,-0.257606 -0.0996,-0.332854 0.17704,-0.67147 -0.13831,-0.387009 0.15491,-0.575458 -0.28216,-0.312092 0.27663,-0.150704 -0.89628,-0.511524 -0.24343,0.02154 -0.30982,-0.150821 -0.38174,0.134663 0.0166,0.360788 -0.41494,-0.425423 -0.16044,0.274664 -0.4758,0.409138 -0.29322,-0.03229 -0.19364,-0.371462 -0.32642,-0.199255 -0.29876,-0.40404 -0.57538,-0.501274 -0.25449,-0.420653 -0.0719,-0.404667 -0.20471,-0.399463 -0.38727,-0.145796 -0.2379,0.134998 -0.16598,0.242941 -0.26556,-0.269939 -1.1397,-0.491508 0.30982,-0.178311 0.22683,-0.335105 -0.0387,-0.329833 0.0996,-0.194714 -0.29875,-0.259689 -0.30429,-0.454647 -0.2213,-0.211166 -0.31535,-0.0054 -0.40941,-0.352097 -0.70817,0.352068 -0.0719,0.249065 -0.30429,0.108268 -0.14384,-0.178647 -0.69157,0.140756 -0.62517,-0.167828 -0.52006,0.129934 -0.2047,0.43297 -0.94053,-0.286819 -0.48686,-0.37355 -0.28216,0.286946 -0.51453,-0.249041 -0.16044,0.140771 -0.29876,-0.17326 -0.30982,-0.433302 -0.2379,-0.113779 -0.0166,-0.243864 0.17704,-0.22225 0.29323,-0.162655 -0.11619,-0.477308 0.29323,-0.195342 -0.24897,-0.27138 -0.33195,-0.05972 -0.14384,-0.146592 -0.49793,0.04887 -0.2047,-0.352991 -0.28216,-0.233598 -0.2711,-0.05977 -0.13278,-0.510919 0.22131,-0.206629 0.1715,-0.592981 -0.22683,0.01087 -0.42047,-0.261257 -0.083,-0.310351 -0.16044,-0.125259 -0.39835,-0.42494 -0.25449,-0.05994 -0.0221,-0.34885 0.12171,-0.545373 -0.16044,-0.349223 0.2545,-0.349369 0.30429,0.223832 0.30428,0.09279 0.24897,-0.43675 0.50899,-0.212998 0.15491,-0.284083 0.35408,-0.163938 -0.30982,-0.185833 -0.17704,-0.273362 -0.0553,-0.322681 0.17151,-0.306387 0.0166,-0.328398 -0.12724,-0.416156 0.34301,-0.427323 -0.0221,-0.603006 0.85754,0.109669 0.72476,-0.01646 0.43154,0.04935 0.21577,0.180916 0.62518,0.01095 0.74689,-0.104158 1.13416,-0.246743 0.50346,0.164505 0.79669,-0.02193 1.68188,-0.224832 0.78562,-0.219411 0.7137,0.126169 0.35408,0.34549 0.1881,0.0055 0.2545,0.350827 0.2545,0.668353 0.0443,0.454396 -0.0719,0.350208 -0.44814,0.42115 -0.2047,0.04374 -0.55879,0.595781 -0.30982,0.213069 -0.84647,0.425969 -0.4426,0.365725 -0.0775,0.381932 0.0664,0.654335 0.25449,0.566677 0.38175,0.484645 0.32089,0.244938 1.02351,0.489662 0.59198,0.364344 0.49793,0.190265 0.32088,0.288036 0.935,0.315095 0.53666,0.314976 0.18257,0.03258 0.33195,0.28771 0.81882,0.314741 0.67496,0.439356 1.11204,0.401191 0.58645,0.151749 0.12725,0.151725 0.54218,0.222118 0.76902,0.243723 0.32642,0.189511 0.81882,0.205711 1.00692,0.595191 0.26556,0.07572 0.29875,0.367696 0.29323,0.09731 0.65837,0.475549 0.28769,0.340289 0.13831,0.286168 0.39281,0.183531 0.23237,0.280614 0.426,0.280524 0.13278,0.210331 0.79115,0.425897 1.32781,0.441846 0.4592,0.258538 0.0775,0.140007 0.95159,0.570563 0.48686,0.10223 0.4592,-0.04304 0.33749,0.532503 0.2047,-0.0484 0.2379,0.376341 0.26003,0.263337 -0.10512,0.381431 0.39834,0.402733 0.0277,0.134202 0.36515,0.24688 0.11618,0.187793 0.71923,0.300387 0.48686,0.445021 0.80222,0.991087 0.16044,0.04283 0.4924,0.636876 0.2213,0.117689 0.39834,0.924915 -0.005,0.36862 0.27109,0.491249 0.24343,0.250857 0.0332,0.33614 -0.34855,0.373335 -0.0664,0.378507 -0.42047,0.325062 -0.0332,0.287658 -0.15491,0.111842 -0.12171,0.383347 -0.083,0.627898 0.0498,0.292507 -0.0996,0.552839 0.0221,0.340035 -0.2213,0.323972 -0.34302,-0.02655 -0.2545,-0.276174 -0.48686,-0.24438 -0.4592,-0.02125 -0.62517,-0.324184 -0.13278,-0.18606 -0.54772,-0.361606 -0.29323,-0.292584 -0.33195,-0.537549 -0.0332,-0.298188 0.12172,-0.261 -0.0387,-0.229106 -0.32089,-0.261149 0.21024,-0.239898 0.0498,-0.426653 -0.18258,-0.341472 -0.65284,-0.629943 -0.0166,-0.528868 -0.14937,-0.336719 -0.43154,-0.390332 -1.30568,-0.235355 -0.66943,-0.04815 -1.51038,0.117692 -0.12172,-0.203295 -0.32642,-0.06956 -0.0996,-0.149842 -0.54218,-0.06423 -0.18258,-0.198056 -0.61964,-0.214167 -0.53665,-0.385636 -0.24343,-0.075 0.19917,-0.616357 -0.0885,-0.353936 0.55878,0.112633 0.26003,-0.262832 -0.22683,-0.150225 -0.26003,0.150225 -0.20471,-0.150225 -0.37067,0.343334 -0.23237,-0.02146 -0.11065,-0.236032 -0.50899,-0.300498 -0.40941,-0.03757 -0.65284,0.187833 -0.70263,0.461354 -0.58645,0.595106 z"
       id="path4" />
  </g>
</svg>
