<?xml version="1.0" encoding="UTF-8" standalone="no"?>
<!-- Created with Inkscape (http://www.inkscape.org/) -->

<svg
   xmlns:dc="http://purl.org/dc/elements/1.1/"
   xmlns:cc="http://creativecommons.org/ns#"
   xmlns:rdf="http://www.w3.org/1999/02/22-rdf-syntax-ns#"
   xmlns:svg="http://www.w3.org/2000/svg"
   xmlns="http://www.w3.org/2000/svg"
   xmlns:sodipodi="http://sodipodi.sourceforge.net/DTD/sodipodi-0.dtd"
   xmlns:inkscape="http://www.inkscape.org/namespaces/inkscape"
   width="16.756821mm"
   height="30.857018mm"
   viewBox="0 0 16.756821 30.857018"
   version="1.1"
   id="svg925"
   inkscape:version="0.92.2 2405546, 2018-03-11"
   sodipodi:docname="SAR.svg">
  <defs
     id="defs919" />
  <sodipodi:namedview
     id="base"
     pagecolor="#ffffff"
     bordercolor="#666666"
     borderopacity="1.0"
     inkscape:pageopacity="0.0"
     inkscape:pageshadow="2"
     inkscape:zoom="0.35"
     inkscape:cx="31.666685"
     inkscape:cy="58.312687"
     inkscape:document-units="mm"
     inkscape:current-layer="layer1"
     showgrid="false"
     inkscape:window-width="1920"
     inkscape:window-height="1016"
     inkscape:window-x="0"
     inkscape:window-y="27"
     inkscape:window-maximized="1" />
  <metadata
     id="metadata922">
    <rdf:RDF>
      <cc:Work
         rdf:about="">
        <dc:format>image/svg+xml</dc:format>
        <dc:type
           rdf:resource="http://purl.org/dc/dcmitype/StillImage" />
        <dc:title></dc:title>
      </cc:Work>
    </rdf:RDF>
  </metadata>
  <g
     inkscape:label="Livello 1"
     inkscape:groupmode="layer"
     id="layer1"
     transform="translate(-97.454856,-133.40488)">
    <path
       inkscape:connector-curvature="0"
       style="fill:#ffffff;stroke:#000000;stroke-width:0.26458332"
       d="m 99.868402,161.12431 0.116183,0.17877 0.398345,-0.11041 0.33748,0.28914 0.11618,0.48345 -0.13831,0.24688 -0.083,0.70873 -0.15491,0.13119 -0.25449,-0.0263 -0.381749,-0.87671 -0.116183,-0.51488 z m -0.575383,-0.9365 0.02766,0.45785 -0.05532,0.62587 -0.331951,0.0789 -0.248964,-0.16298 0.02766,-0.2945 -0.293223,-0.17359 0.09405,-0.25256 z m 0.09405,-24.61182 0.193638,0.79578 -0.298756,0.0325 -0.221301,-0.10281 -0.392809,0.47607 0.193638,0.34066 -0.09958,0.20001 -0.320886,-0.0487 -0.110651,-0.17299 0.138313,-0.52457 0.265561,-0.11361 0.320887,-0.37881 -0.121716,-0.2003 0.287691,-0.0975 z m 11.214431,-1.61552 0.10512,0.1031 -0.0277,0.50444 -0.23236,0.18434 -0.12172,-0.23315 0.16044,-0.54787 z m -2.37899,-0.17366 0.52006,0.40154 -0.0996,0.42846 0.094,0.0922 0.46473,-0.0217 0.11618,-0.20605 0.24897,-0.0163 0.16044,0.24943 0.41494,0.21141 0.19917,0.46601 0.0443,0.36829 0.31535,-0.4333 0.33749,-0.0271 0.29322,0.13002 0.22684,0.29788 -0.0885,0.3519 -0.2545,-0.005 -0.11065,0.43292 0.083,0.28128 0.32089,0.0108 0.13831,0.25956 0.27663,-0.17303 0.13831,0.22709 -0.37621,0.23784 0.10512,0.19455 -0.2545,0.34035 -0.61964,0.16742 0.0166,0.22678 0.53665,-0.0864 0.28216,0.24293 0.27109,-0.27533 0.0498,0.32931 0.28769,0.52339 0.31536,-0.0701 0.0719,0.63093 -0.30429,0.0701 0.28216,0.54962 0.24896,0.1185 -0.0443,0.52228 0.37621,0.4036 -0.0775,0.67763 0.18811,0.52667 0.29322,0.2095 0.0609,0.36517 0.29876,0.15032 -0.0387,0.35958 -0.29876,0.76697 -0.19917,0.21441 0.0111,0.23043 -0.19364,0.34286 -0.24896,0.0857 -0.36515,0.35875 -0.58091,0.90958 -0.0664,0.44909 0.0664,0.67853 0.23236,0.54458 0.41494,0.51223 0.30982,0.15467 0.0719,0.19198 -0.29322,0.52238 -0.0664,0.43153 -0.12725,0.21834 -0.0221,0.34605 0.10512,0.23948 -0.12172,0.37241 0.0166,0.85593 -0.16044,0.81793 0.0719,0.30254 -0.0387,0.6419 -0.19364,0.47184 0.0553,1.19171 -0.17704,0.37572 -0.0664,0.54476 0.12725,0.10046 -0.0277,0.56021 -0.16044,0.19018 -0.19917,0.5439 -0.0941,0.49081 0.0941,0.66979 -0.32642,0.59027 -0.083,0.70569 0.0387,0.55257 -0.36515,0.23671 -0.44813,-0.0947 -0.21577,0.11045 -0.66944,-0.2104 -0.21023,-0.37359 -0.73583,-0.50538 -0.50346,-0.0474 -0.26555,-0.13693 -0.43707,0.22118 -0.29876,0.30536 -0.18811,-0.2685 -0.25449,-0.0842 -0.17704,-0.41085 -0.14938,0.11064 -0.2545,-0.35829 -0.22683,0.005 0.27663,0.41096 0.33748,0.0263 0.16044,0.237 -0.37621,0.32116 -0.33748,0.48415 -0.0941,0.33664 0.0719,0.4364 0.28216,0.35211 -0.19364,0.45176 0.0166,0.2993 -1.12864,1.02839 -0.0719,0.15205 -0.60858,0.35641 -0.22683,-0.23062 -0.20471,0.0472 -0.34855,-0.31981 -0.29322,-0.17306 -0.34855,0.1416 -0.27662,0.30934 -0.58645,0.021 0.14384,-0.3408 0.0111,-0.27798 -0.11618,-0.23084 -0.35962,-0.20991 -0.0885,-0.3097 0.11618,-0.22578 -0.11618,-0.32566 -0.24896,-0.16286 -0.59198,-0.021 0.0996,-0.2943 -0.24343,-0.46268 -0.28769,-0.1157 0.0387,-0.3209 -0.34302,-0.24207 -0.0553,-0.29478 -0.276632,-0.17375 -0.0166,-0.20012 0.564312,-0.50052 0.12172,-0.26354 -0.21024,-0.58006 -0.2047,-0.0422 -0.210234,-0.46435 0.293214,-0.36954 0.0996,-0.42253 -0.24343,-0.11095 -0.0387,-0.28536 0.50346,-0.67677 0.17151,-0.33859 0.17151,-0.64049 -0.19364,-0.2701 0.0277,-0.95927 -0.0996,-0.67371 0.14384,-0.22291 0.60305,0.96556 0.11065,-0.14318 -0.2711,-0.30233 0.37068,-0.5519 0.13832,-0.95603 -0.15491,-0.54754 -0.32642,-0.22336 0.1881,-0.32984 -0.28216,-0.18625 -0.0553,-0.37795 -0.30429,0.45246 0.26003,0.40435 -0.38175,0.0425 -0.21023,0.18614 -0.26556,-0.10636 0.0221,-0.75554 -0.083,-0.181 0.17704,-0.32484 -0.0332,-0.35692 0.11065,-0.15987 0.32642,-0.10659 0.35962,-0.35718 -0.0498,-0.51204 -0.24344,-0.41091 0.0166,-0.8064 0.21577,-0.9248 -0.54219,-0.62601 -0.40387,-0.12312 -0.04978,-0.22486 0.18257,-0.48741 -0.0443,-0.49304 -0.204701,-0.65962 -0.387276,-0.29512 -0.376212,-1.0149 -0.437069,0.1182 -0.08299,0.19338 -0.431537,-0.0269 0.210236,-0.40294 -0.105118,-0.1666 -0.575382,0.42988 -0.05533,-0.52126 0.409407,-0.20429 0.171508,-0.64544 -0.641773,-0.49517 0.265561,-0.52778 -0.01106,-0.28557 0.298756,-0.46358 0.232366,-0.53936 0.0332,-0.30219 -0.442602,-0.5399 0.260029,-0.497 0.337484,0.24854 -0.08852,0.24846 0.03873,0.35097 0.237898,0.30766 0.558785,0.49633 0.426005,0.0863 0.575375,-0.0108 0.32088,0.22107 0.84648,-0.0485 0.43154,-0.16716 0.39834,-0.30205 0.23236,-0.34534 0.56432,-0.29688 0.39834,-0.0972 0.22684,0.0378 0.38727,-0.21059 0.63624,-0.82668 0.0775,-0.41635 0.50899,-0.21637 0.32089,-0.37876 0.43707,-0.64972 0.30429,-0.16792 0.16044,0.14625 0.4592,-0.0921 0.2047,-0.24381 0.24343,-0.0325 0.094,-1.04106 0.32089,-0.0868 z m 1.87,-0.12484 0.23789,0.41245 -0.0332,0.27124 -0.57538,0.0759 0.083,-0.29834 z"
       id="path28" />
  </g>
</svg>
