<?xml version="1.0" encoding="UTF-8" standalone="no"?>
<!-- Created with Inkscape (http://www.inkscape.org/) -->

<svg
   xmlns:dc="http://purl.org/dc/elements/1.1/"
   xmlns:cc="http://creativecommons.org/ns#"
   xmlns:rdf="http://www.w3.org/1999/02/22-rdf-syntax-ns#"
   xmlns:svg="http://www.w3.org/2000/svg"
   xmlns="http://www.w3.org/2000/svg"
   xmlns:sodipodi="http://sodipodi.sourceforge.net/DTD/sodipodi-0.dtd"
   xmlns:inkscape="http://www.inkscape.org/namespaces/inkscape"
   width="36.867779mm"
   height="40.764614mm"
   viewBox="0 0 36.867779 40.764614"
   version="1.1"
   id="svg864"
   inkscape:version="0.92.2 2405546, 2018-03-11"
   sodipodi:docname="SIC.svg">
  <defs
     id="defs858" />
  <sodipodi:namedview
     id="base"
     pagecolor="#ffffff"
     bordercolor="#666666"
     borderopacity="1.0"
     inkscape:pageopacity="0.0"
     inkscape:pageshadow="2"
     inkscape:zoom="0.35"
     inkscape:cx="-698.90008"
     inkscape:cy="897.03543"
     inkscape:document-units="mm"
     inkscape:current-layer="layer1"
     showgrid="false"
     inkscape:window-width="1920"
     inkscape:window-height="1016"
     inkscape:window-x="0"
     inkscape:window-y="27"
     inkscape:window-maximized="1" />
  <metadata
     id="metadata861">
    <rdf:RDF>
      <cc:Work
         rdf:about="">
        <dc:format>image/svg+xml</dc:format>
        <dc:type
           rdf:resource="http://purl.org/dc/dcmitype/StillImage" />
        <dc:title></dc:title>
      </cc:Work>
    </rdf:RDF>
  </metadata>
  <g
     inkscape:label="Livello 1"
     inkscape:groupmode="layer"
     id="layer1"
     transform="translate(-290.75065,-345.40934)">
    <path
       inkscape:connector-curvature="0"
       style="fill:#ffffff;stroke:#000000;stroke-width:0.26458332"
       d="m 296.83528,385.65306 0.81881,0.0902 0.11619,0.27066 -0.42601,0.0251 z m -5.68743,-15.80288 0.44813,0.22939 0.14385,-0.0306 0.35961,0.29049 0.0443,0.46865 -0.32089,0.33098 -0.39834,-0.12729 -0.13278,-0.2699 -0.40387,-0.42792 0.0277,-0.30069 z m 3.45782,-13.66156 0.60305,0.41386 -0.13831,0.22755 -0.19364,-0.18617 -0.48686,0.0517 -0.14385,-0.26379 z m -2.37898,-0.46583 0.16044,0.43995 -0.34302,-0.005 -0.15491,-0.4296 z m 33.85904,-3.81324 0.60858,0.33787 0.44813,0.11433 -0.64177,0.20784 -0.13278,0.17662 -0.13831,0.45179 0.0443,0.1713 -0.41494,0.71603 -0.16597,0.4563 -0.24344,0.42498 -0.35961,0.37817 -0.89627,1.24736 -0.0387,0.17066 -0.36514,0.36709 -0.37622,0.59425 0.0498,0.1498 -0.29322,0.28402 -0.38175,0.6813 0.14385,0.39719 -0.16044,0.30938 -0.0332,0.3505 -0.2379,0.27309 0.0166,0.70039 -0.30429,0.37573 -0.28769,0.17494 -0.30429,0.59146 0.0664,0.93015 -0.0111,0.58022 0.13831,0.59525 0.29876,0.0103 0.28216,0.26157 0.58645,0.22049 0.30982,0.33832 -0.63071,0.0871 -0.0609,0.48671 0.16598,0.22022 0.0221,0.27648 0.32642,0.48108 0.54218,0.0972 0.0774,0.33248 -0.2047,0.56238 0.34302,-0.0358 -0.12725,0.27086 -0.37068,0.23502 -0.0553,0.27071 -0.23237,0.0153 -0.46473,0.31146 -0.28769,0.33688 -0.19917,0.63259 -0.29876,0.32124 -0.005,0.42814 -0.11618,0.0917 0.0719,0.44317 0.1881,0.23933 0.0387,0.48866 0.14385,0.20861 -0.54219,0.4171 -0.2545,-0.14749 -0.0719,-0.21364 -0.26003,-0.24423 -0.65836,0.0763 -0.42601,-0.36643 -0.57538,-0.0713 -0.24343,0.17816 -0.42047,0.13232 -0.38728,-0.20358 -0.55879,-0.0102 -0.14937,-0.24436 -0.40388,-0.28517 -0.72476,-0.20883 -0.60858,-0.0458 -0.34301,-0.36178 0.0166,-0.14271 -0.22684,-0.68327 -0.59751,-0.99011 -0.75242,-0.85316 -0.54219,-0.3783 -0.82435,-0.36311 -0.84647,-0.17905 -0.34855,0.0409 -0.56432,-0.0204 -0.43707,0.17393 -0.27663,-0.005 -0.43706,-0.19951 -0.13278,-0.26097 -0.21024,-0.1433 -0.70816,-0.0563 -0.24897,-0.25598 -0.62517,-0.2919 -0.21577,-0.44058 -0.16044,-0.0461 -0.68051,-0.65104 -0.39834,-0.0615 -0.31535,0.0564 -0.30429,-0.0718 -0.41494,-0.46169 -0.40941,-0.2104 -0.13831,-0.15399 -0.26003,-0.0308 -0.26556,-0.31319 -0.21023,0.005 -0.12172,-0.33384 -0.23237,-0.21578 -0.21576,-0.34946 -0.17704,-0.0308 -0.22684,-0.30847 -0.40387,-0.036 -0.52559,-0.15942 -0.37621,0.12857 -0.2379,-0.17486 -0.26556,-0.40642 -0.38175,-0.34997 -0.85754,-0.14929 -0.76902,0.0257 -1.05118,0.26252 -0.426,-0.50968 -0.14385,-0.42752 -0.48686,-0.31949 -0.43707,0.0206 -0.47026,-0.54647 0.0111,-0.47972 -0.21026,-0.43349 -0.2545,-0.28912 0.37068,-0.17042 0.0221,-0.3926 0.18811,-0.11885 -0.17704,-0.69272 0.28216,-0.51213 -0.0111,-0.32087 0.43153,-0.14495 -0.21023,-0.25372 0.43154,-0.63718 h 0.48132 l 0.32642,-0.15548 0.18258,-0.43549 0.47026,0.0415 0.26003,-0.38899 -0.18257,-0.3113 0.48133,-0.17646 -0.006,0.22316 0.23236,0.33723 -0.0111,0.31118 0.37622,0.55467 0.64177,0.50771 0.59198,-0.10877 0.94053,-0.48705 0.24343,-0.19696 -0.21024,-0.53929 0.4758,-0.73684 0.53665,0.0675 0.0443,0.19204 0.27663,0.0104 0.39281,-0.1557 0.0996,-0.20765 0.28769,0.0104 0.21577,-0.24923 0.2213,-0.0831 0.0774,0.25965 0.32642,0.15575 0.16597,0.49302 -0.0996,0.30607 0.17704,0.22818 0.54772,0.16591 0.48133,-0.0829 0.15492,-0.20742 0.31535,0.0726 0.0221,0.67388 0.24896,0.23833 0.54772,0.35219 1.18949,0.49699 0.87414,-0.15528 0.65837,-0.2951 0.41494,-0.25894 0.35962,-0.0207 0.50346,-0.13986 0.29322,0.26416 0.43707,0.0466 0.44813,-0.10876 0.71923,0.1709 0.42047,-0.0311 0.40388,0.0518 0.28216,-0.13464 0.30428,0.0414 0.48133,-0.29523 0.4924,0.0881 0.58091,-0.15023 0.17704,-0.15544 0.32642,-0.0155 0.44261,-0.13992 0.43154,-0.32656 0.68603,-0.83509 0.4094,0.15567 1.01246,-0.26464 0.22683,-0.23358 0.30982,0.18167 0.21577,0.30617 0.76349,0.0208 0.12725,0.28012 0.2213,0.0934 0.29875,-0.0778 0.55325,-0.29568 0.43707,-0.46707 0.12172,-0.2492 0.61964,0.0312 0.56985,-0.12462 0.95713,-0.42593 0.70263,-0.59247 z m -5.67083,-1.62879 -0.005,0.18228 0.35961,0.24992 0.0996,0.28108 -0.29322,0.0937 -0.26556,-0.18736 -0.13278,-0.26028 z m 0.005,-1.13096 0.0443,0.21901 -0.094,0.83903 -0.22681,-0.27091 -0.33195,-0.21886 0.0775,-0.44833 z m -1.39973,-0.75651 0.54772,0.0418 -0.0166,0.55307 -0.16045,0.0417 -0.58091,-0.3391 z m -2.62242,-0.0209 0.30429,0.094 -0.0387,0.26613 -0.19917,-0.0157 z m -13.30019,-1.67707 0.13279,0.23006 -0.36515,0.13592 0.0221,-0.23003 z m 19.8507,-1.13552 0.21024,0.0838 -0.14938,0.35595 -0.14385,0.068 -0.24343,-0.26169 z"
       id="path30" />
  </g>
</svg>
