<?xml version="1.0" encoding="UTF-8" standalone="no"?>
<!-- Created with Inkscape (http://www.inkscape.org/) -->

<svg
   xmlns:dc="http://purl.org/dc/elements/1.1/"
   xmlns:cc="http://creativecommons.org/ns#"
   xmlns:rdf="http://www.w3.org/1999/02/22-rdf-syntax-ns#"
   xmlns:svg="http://www.w3.org/2000/svg"
   xmlns="http://www.w3.org/2000/svg"
   xmlns:sodipodi="http://sodipodi.sourceforge.net/DTD/sodipodi-0.dtd"
   xmlns:inkscape="http://www.inkscape.org/namespaces/inkscape"
   width="13.636533mm"
   height="17.00099mm"
   viewBox="0 0 13.636533 17.00099"
   version="1.1"
   id="svg509"
   inkscape:version="0.92.2 2405546, 2018-03-11"
   sodipodi:docname="UMB.svg">
  <defs
     id="defs503" />
  <sodipodi:namedview
     id="base"
     pagecolor="#ffffff"
     bordercolor="#666666"
     borderopacity="1.0"
     inkscape:pageopacity="0.0"
     inkscape:pageshadow="2"
     inkscape:zoom="0.35"
     inkscape:cx="25.769753"
     inkscape:cy="32.127688"
     inkscape:document-units="mm"
     inkscape:current-layer="layer1"
     showgrid="false"
     inkscape:window-width="1920"
     inkscape:window-height="1016"
     inkscape:window-x="0"
     inkscape:window-y="27"
     inkscape:window-maximized="1" />
  <metadata
     id="metadata506">
    <rdf:RDF>
      <cc:Work
         rdf:about="">
        <dc:format>image/svg+xml</dc:format>
        <dc:type
           rdf:resource="http://purl.org/dc/dcmitype/StillImage" />
        <dc:title></dc:title>
      </cc:Work>
    </rdf:RDF>
  </metadata>
  <g
     inkscape:label="Livello 1"
     inkscape:groupmode="layer"
     id="layer1"
     transform="translate(-99.015086,-140.33279)">
    <path
       inkscape:connector-curvature="0"
       style="fill:#ffffff;stroke:#000000;stroke-width:0.26458332"
       d="m 111.78807,152.31467 0.005,0.31101 -0.16597,0.29979 0.0111,0.27748 -0.29323,0.2663 -0.13278,-0.17197 -0.27662,0.27736 -0.42601,0.20518 -0.42047,-0.12199 -0.10512,0.22179 -0.49793,-0.0499 -0.21023,0.19958 -0.34302,-0.16631 -0.16044,0.18294 0.12725,0.51535 -0.43707,0.14401 -0.29323,0.26028 -0.43706,0.0221 0.006,0.23805 -0.44814,0.0553 -0.10512,0.24902 0.24343,0.26002 -0.73582,0.3871 -0.16044,-0.0276 -0.083,-0.32627 -0.19364,-0.0111 -0.0885,0.43132 0.0221,0.29848 -0.4592,0.3978 -0.47027,0.20435 -0.0719,-0.46401 -0.29322,-0.0166 -0.19364,-0.33159 -0.38174,0.0995 -0.10512,-0.32063 0.0166,-0.4314 -0.17705,-0.27111 -0.426,0.3375 -0.33748,-0.19364 -0.48133,-0.58116 0.0774,-0.35998 -0.35405,-0.16065 0.0719,-0.37129 -0.16597,-0.14413 0.13831,-0.22732 -0.37621,-0.42711 -0.42047,-0.2164 -0.35962,0.36065 -0.21023,-0.17754 -0.70817,0.16644 -0.503456,-0.33291 -0.359614,-0.10544 -0.143846,-0.28312 0.320887,-0.32764 0.193639,-0.46671 -0.464731,-0.18342 -0.26003,-0.6562 -0.09405,-0.089 0.331952,-0.45636 0.287689,-0.0278 v -0.27284 l -0.254494,-0.22279 0.182573,-0.5238 0.02766,-0.40701 0.260031,-1.03237 -0.237901,-0.16753 -0.193638,0.17312 -0.138314,-0.34069 0.07746,-0.17319 -0.143846,-0.41916 0.08299,-0.29634 0.630709,-0.44751 0.37621,-0.1343 0.20471,-0.82307 0.36515,0.22405 0.34854,-0.25206 0.26003,0.0112 0.2545,-0.24652 0.34302,-0.1289 0.13277,-0.18498 -0.27662,-0.24108 -0.16598,0.42046 -0.45366,-0.15135 0.0498,-0.47101 -0.17704,-0.46568 -0.4426,-0.0842 0.0443,-0.37614 -0.43707,-0.0225 -0.0719,-0.20218 0.30429,-0.30337 0.24343,0.0562 0.21577,-0.35405 0.36515,-0.11243 0.0332,-0.14619 -0.48133,-0.26431 0.0719,-0.41071 0.49239,-0.045 0.0941,-0.37715 0.3928,-0.60269 0.10512,-0.0563 0.11065,0.231 h 0.66944 l 0.60858,-0.32117 0.16044,0.43947 -0.27663,0.41671 -0.30982,0.14073 0.19364,0.25889 0.32642,-0.14069 0.31535,0.28135 0.21577,-0.30949 0.16598,-0.0281 0.1881,0.28136 0.41494,-0.0563 0.62518,0.82672 0.59751,0.52259 0.36515,-0.21349 0.4426,0.16293 0.25449,-0.53387 0.31536,0.0618 -0.0111,0.45517 0.083,0.32016 -0.2711,0.15723 0.53666,1.10532 -0.12172,0.30832 0.34302,0.24098 0.11618,0.65531 0.24897,0.084 v 0.60437 l -0.30429,0.32998 0.11618,0.25158 0.31536,-0.0112 0.21576,0.3968 -0.0719,0.46361 0.16044,0.31265 -0.18257,0.34043 0.19917,0.32914 -0.12171,0.26767 0.78561,0.51837 -0.0774,0.33425 0.0719,0.4065 0.76349,-0.66275 0.2545,0.27296 0.30982,0.13366 0.47026,0.76257 0.84648,-0.2337 0.16044,0.54521 -0.18257,0.53928 -0.28216,-0.05 -0.19917,0.19452 z"
       id="path36" />
  </g>
</svg>
