<?xml version="1.0" encoding="UTF-8" standalone="no"?>
<!-- Created with Inkscape (http://www.inkscape.org/) -->

<svg
   xmlns:dc="http://purl.org/dc/elements/1.1/"
   xmlns:cc="http://creativecommons.org/ns#"
   xmlns:rdf="http://www.w3.org/1999/02/22-rdf-syntax-ns#"
   xmlns:svg="http://www.w3.org/2000/svg"
   xmlns="http://www.w3.org/2000/svg"
   xmlns:sodipodi="http://sodipodi.sourceforge.net/DTD/sodipodi-0.dtd"
   xmlns:inkscape="http://www.inkscape.org/namespaces/inkscape"
   width="24.315739mm"
   height="26.754641mm"
   viewBox="0 0 24.315739 26.754641"
   version="1.1"
   id="svg257"
   inkscape:version="0.92.2 2405546, 2018-03-11"
   sodipodi:docname="VEN.svg">
  <defs
     id="defs251" />
  <sodipodi:namedview
     id="base"
     pagecolor="#ffffff"
     bordercolor="#666666"
     borderopacity="1.0"
     inkscape:pageopacity="0.0"
     inkscape:pageshadow="2"
     inkscape:zoom="0.35"
     inkscape:cx="45.952042"
     inkscape:cy="50.560066"
     inkscape:document-units="mm"
     inkscape:current-layer="layer1"
     showgrid="false"
     inkscape:window-width="1920"
     inkscape:window-height="1016"
     inkscape:window-x="0"
     inkscape:window-y="27"
     inkscape:window-maximized="1" />
  <metadata
     id="metadata254">
    <rdf:RDF>
      <cc:Work
         rdf:about="">
        <dc:format>image/svg+xml</dc:format>
        <dc:type
           rdf:resource="http://purl.org/dc/dcmitype/StillImage" />
        <dc:title></dc:title>
      </cc:Work>
    </rdf:RDF>
  </metadata>
  <g
     inkscape:label="Livello 1"
     inkscape:groupmode="layer"
     id="layer1"
     transform="translate(-93.675189,-135.45604)">
    <path
       inkscape:connector-curvature="0"
       style="fill:#ffffff;stroke:#000000;stroke-width:0.26458332"
       d="m 112.37633,159.58215 -0.47579,0.34593 -0.0443,0.92172 -0.19364,-0.13243 v -0.10365 l 0.0332,-0.13248 -0.0111,-0.0519 -0.2379,-0.12097 -0.083,-0.1671 0.0387,-0.3516 0.30429,-0.13261 z m -0.24343,-0.29992 0.18257,0.29416 -0.36514,0.0404 z m -2.17428,-3.35887 0.23236,0.69492 -0.53112,-0.0174 0.0387,-0.33002 0.24343,-0.0232 z m -0.49793,-2.42545 0.21024,0.0523 -0.083,0.59832 -0.34855,-0.0523 z m 4.85203,-17.21692 -0.0443,0.36832 0.11065,0.19004 -0.094,0.47487 -0.15491,0.23733 -0.83542,0.4685 0.22684,0.39712 -0.4592,0.28437 -0.35962,-0.15995 -0.62517,0.48567 -0.0996,0.40843 -0.33748,0.44962 0.0221,0.15375 -0.33749,0.24831 -0.16044,0.28369 h -0.32089 l -0.23236,0.2127 -0.0387,0.31893 -0.21024,0.14761 -0.0553,0.40135 0.47026,0.43653 0.29876,-0.059 0.27109,0.25946 0.2545,0.54812 0.33749,0.1944 0.0719,0.26502 -0.14938,0.48268 -0.54219,0.3824 -0.2213,0.47039 0.22683,0.65806 -0.0609,0.55187 0.39834,0.30512 0.40941,0.15838 0.30982,0.76212 0.21577,0.30464 v 0.29282 l 0.2213,0.0234 0.23237,-0.19324 0.71369,0.60882 0.48686,-0.5854 0.13278,0.13469 0.38175,-0.38069 0.21577,0.12887 0.55325,-0.082 0.28769,0.38066 0.37621,0.0878 0.40388,-0.15808 0.16597,0.73158 0.19364,0.14623 -0.0609,0.23976 0.26556,0.18708 0.14938,0.707 0.38174,0.3912 0.11065,0.30931 -0.96265,0.0933 -0.87414,0.19251 -0.45367,0.39654 -0.59198,0.3264 -0.78009,0.51265 -0.65283,0.26202 -0.6805,0.39578 -1.02905,0.40721 -0.43707,0.3198 -0.11065,-0.16861 0.24896,-0.45949 0.21577,-0.0524 0.18257,-0.34336 0.20471,0.0757 0.0166,0.30843 0.6141,-0.29096 0.2379,-0.31436 0.26556,0.0291 0.0775,-0.28535 -0.31535,-0.0524 -0.61411,-0.41951 -0.2545,-0.035 -0.33748,0.15152 -0.35961,0.52427 -0.44814,0.21543 -0.33195,-0.0233 -0.18257,0.22702 -0.81329,0.42476 0.0277,0.62798 -0.42047,-0.0116 -0.14384,0.3661 -0.2545,0.0755 0.20471,0.28459 -0.0996,0.19742 0.0885,0.30182 -0.46474,0.37133 0.0719,0.45811 0.16598,0.21447 0.45367,-0.10433 0.0775,0.48675 -0.0498,0.42854 0.29322,0.16209 0.48686,0.0695 0.27663,0.12733 -0.0498,0.54957 -0.31536,-0.10988 -0.29322,0.57816 0.17151,0.21959 0.68603,-0.0405 0.11618,0.38127 0.19364,0.2252 -0.0498,0.35212 0.78009,0.17889 0.30982,0.45569 -0.33195,0.0404 -0.12172,0.10378 -0.13278,-0.0115 0.0553,0.15566 -0.0332,0.21901 0.0443,0.16134 0.2379,0.13827 0.0609,0.0806 -0.0332,0.10367 0.005,0.13821 0.0332,0.5411 -0.33195,-0.10934 0.083,-0.58724 -0.39834,0.0634 -0.12172,0.32243 0.17151,0.20145 -0.12171,0.28196 0.11618,0.24734 -0.0609,0.28176 -0.39281,-0.30477 -0.2047,-0.5293 -0.31536,-0.0403 -0.16597,-0.20723 -0.0443,-0.5644 0.12171,-0.19014 -0.13831,-0.22478 -0.2379,-0.0115 -0.30429,0.27088 -0.32642,-0.0403 -0.21577,-0.22478 -0.27662,0.1902 -0.41494,-0.5938 -0.35961,0.0231 -0.95713,-0.23648 -0.40388,0.16727 -0.80774,0.0288 -0.36515,-0.0404 -0.16598,0.15572 -0.35408,0.0865 -0.0221,0.28824 -0.73582,0.31694 -0.43154,0.33986 -0.32089,-0.0403 -0.0553,-0.26497 -0.53112,-0.34575 -0.65835,0.0116 -0.29322,0.0864 -0.0719,-0.28244 -0.11619,-0.23641 -0.80775,-0.34608 -0.17704,-0.23658 -0.37068,-0.10388 -0.177037,-0.50809 -0.215768,0.13283 -0.326419,-0.21947 -0.138314,-0.30619 0.01659,-0.37569 -0.486863,-0.19659 -0.110648,0.28908 -0.215771,-0.0809 -0.315351,0.13874 -0.431538,-0.33532 0.210235,-0.36439 -0.508992,-0.1215 -0.07192,-0.52092 -0.426006,-0.13318 -0.121713,-0.3765 -0.365146,-0.19122 -0.486863,-0.1333 -0.293224,-0.51602 -0.32642,-0.29585 -0.442602,0.38864 -0.06086,-0.38864 -0.160444,-0.26114 -0.165975,-0.63871 0.188105,-0.21495 -0.01106,-0.28476 -0.497928,-0.16277 -0.210235,-0.36635 -0.143846,-2.05006 0.02766,-0.10498 0.691565,-0.88121 0.680501,-1.08682 0.663903,-1.14105 0.420473,0.21664 -0.182573,0.78406 -0.204703,0.59045 0.442601,0.0468 0.287692,0.2045 0.182573,0.37964 0.354081,-0.14016 0.24343,-0.3388 0.647306,-0.0117 0.2379,0.17527 0.470262,-0.0117 0.0055,-0.17527 0.348549,-0.33312 0.05533,-0.41513 -0.06086,-0.33344 0.431538,-0.79614 0.204703,-0.16988 0.210235,-0.84405 0.614117,-0.0117 0.32642,-0.11144 0.23236,-0.24052 -0.0885,-0.42844 0.71923,-0.11155 0.21023,-0.22902 0.41494,-0.20559 0.64731,0.0764 0.0996,0.5285 0.39281,0.1174 0.56432,-0.12327 0.0387,-0.27008 -0.19917,-0.40529 -0.0221,-0.28795 0.38175,-0.11168 -0.2213,-0.42336 0.33748,-0.3824 0.92946,0.0177 0.77456,-0.26484 0.27662,-0.39449 0.0664,-0.37112 0.21577,0.0766 0.11618,-0.41253 -0.22683,0.0118 -0.29323,-0.35966 0.12725,-0.33033 -0.35408,-0.14751 -0.006,-0.28921 -0.46473,0.11215 -0.0553,-0.7677 -0.51452,-0.37823 0.51452,-0.4967 0.18258,-0.66277 0.37067,-0.10657 -0.0996,-0.40273 -0.63624,-0.10664 0.0221,-0.31409 0.34855,-0.24898 0.59198,-0.21349 0.21023,0.0712 0.31536,-0.23725 0.31535,0.16608 0.47027,-0.74765 -0.0166,-0.31471 0.1881,-0.21383 0.0387,-0.73701 0.74689,0.58253 h 0.2545 l 0.39834,0.35643 0.4758,-0.29107 0.2213,0.1604 0.30982,-0.17228 0.43153,0.14852 0.17151,-0.26142 0.28216,-0.0891 0.26556,-0.33883 0.42047,-0.16056 0.39281,0.0535 0.39281,0.26754 0.81881,0.0476 0.22684,-0.0773 0.45367,0.13077 z"
       id="path40" />
  </g>
</svg>
