<?xml version="1.0" standalone="no"?>
<!DOCTYPE svg PUBLIC "-//W3C//DTD SVG 20010904//EN"
 "http://www.w3.org/TR/2001/REC-SVG-20010904/DTD/svg10.dtd">
<svg version="1.0" xmlns="http://www.w3.org/2000/svg"
 width="200.000000pt" height="200.000000pt" viewBox="0 0 200.000000 200.000000"
 preserveAspectRatio="xMidYMid meet">
<metadata>
Created by potrace 1.14, written by Peter Selinger 2001-2017
</metadata>
<g transform="translate(0.000000,200.000000) scale(0.100000,-0.100000)"
fill="#000000" stroke="none">
<path d="M855 1969 c-95 -14 -247 -67 -334 -117 -234 -136 -397 -348 -468
-607 -24 -88 -27 -117 -26 -245 0 -96 6 -169 16 -218 65 -284 263 -537 523
-666 130 -64 311 -109 340 -85 11 9 14 52 14 228 0 119 -4 221 -8 227 -4 5
-36 21 -72 33 -227 81 -370 309 -339 539 36 261 252 448 514 444 209 -3 392
-137 465 -342 13 -36 29 -68 34 -72 6 -4 108 -8 227 -8 256 0 247 -4 229 96
-61 354 -338 661 -688 763 -37 11 -83 22 -102 26 -60 10 -262 13 -325 4z m365
-98 c41 -10 89 -24 105 -31 17 -6 30 -11 30 -10 0 5 125 -66 165 -94 110 -74
229 -213 292 -341 31 -62 66 -161 70 -201 l3 -29 -158 -3 c-144 -3 -158 -1
-164 15 -8 24 -50 111 -68 144 -26 46 -131 147 -186 178 -30 16 -57 29 -60 28
-3 -1 -12 3 -20 9 -62 50 -265 62 -390 25 -104 -32 -173 -74 -254 -156 -198
-200 -226 -507 -67 -737 74 -107 176 -185 305 -231 15 -6 17 -23 17 -167 0
-88 -3 -160 -6 -160 -45 0 -304 103 -324 129 -3 4 -29 24 -57 45 -79 56 -174
166 -230 265 -77 134 -112 254 -118 403 -7 171 26 313 108 472 42 80 71 119
146 198 52 54 98 98 102 98 4 0 33 18 65 39 101 67 242 117 379 134 68 9 244
-3 315 -22z"/>
<path d="M1536 910 c-24 -4 -32 -14 -50 -66 -60 -165 -182 -285 -341 -334 -22
-7 -44 -16 -49 -20 -14 -13 -11 -437 3 -454 28 -33 205 10 356 87 262 131 465
406 514 691 17 100 24 97 -211 99 -107 1 -207 0 -222 -3z m347 -102 c-54 -244
-213 -465 -423 -588 -61 -36 -180 -86 -223 -94 -15 -2 -36 -8 -47 -11 -20 -6
-20 -3 -18 155 l3 161 58 24 c131 53 238 155 300 287 l42 88 157 0 156 0 -5
-22z"/>
</g>
</svg>
