<svg xmlns="http://www.w3.org/2000/svg" id="svg2" width="280" height="356" version="1.1"><g id="layer1" transform="translate(0 -696.362)"><path id="path3788-7-4-1-7" d="M276.714 1010.814c0 5.118-4.151 9.267-9.272 9.267h-103.03c-13.657 0-24.728 11.063-24.728 24.71 0-13.647-11.07-24.71-24.727-24.71H13.987c-5.121 0-9.273-4.149-9.273-9.267V696.791h272z" style="fill:#c5c5c5;stroke:none;fill-opacity:1"/><path id="path3788-7-4-7" d="M276 1014.386c0 5.118-4.152 9.266-9.273 9.266h-103.03c-13.657 0-24.727 11.063-24.727 24.71 0-13.647-11.071-24.71-24.728-24.71H13.272c-5.12 0-9.272-4.149-9.272-9.266V700.362h272z" style="fill:none;stroke:#2c4878;stroke-width:8;stroke-linecap:butt;stroke-linejoin:miter;stroke-miterlimit:4;stroke-opacity:1;stroke-dasharray:none;stroke-dashoffset:0"/><path id="path4208-9" d="M278.055 890.072a23.9 23.9 0 0 1-15.144 5.38c-5.745 0-11.02-2.02-15.331-5.261-4.207-2.928-9.226-4.74-14.669-4.74-5.51 0-10.585 1.857-14.77 4.819-4.258 3.18-9.51 5.181-15.23 5.181-5.757 0-11.04-2.027-15.35-5.275-4.198-2.917-9.213-4.725-14.65-4.725-5.511 0-10.589 1.858-14.743 4.797-4.235 3.184-9.51 5.203-15.257 5.203-5.755 0-11.037-2.025-15.31-5.244-4.175-2.925-9.219-4.756-14.69-4.756-5.488 0-10.545 1.842-14.747 4.801-4.283 3.2-9.535 5.2-15.253 5.2-5.785 0-11.092-2.047-15.374-5.296-4.164-2.893-9.183-4.705-14.626-4.705-5.482 0-10.534 1.838-14.728 4.786-4.28 3.206-9.542 5.214-15.272 5.214a23.9 23.9 0 0 1-15.592-5.754l-.651 11.423a23.9 23.9 0 0 0 16.243 6.331c5.732 0 10.994-2.009 15.257-5.203 4.182-2.95 9.247-4.797 14.743-4.797 5.447 0 10.47 1.815 14.681 4.75 4.312 3.237 9.58 5.25 15.319 5.25 5.751 0 11.03-2.022 15.29-5.229 4.169-2.93 9.224-4.77 14.71-4.77 5.458 0 10.49 1.822 14.667 4.736 4.281 3.232 9.57 5.263 15.333 5.263 5.72 0 10.972-2 15.277-5.217 4.217-2.955 9.257-4.783 14.723-4.783 5.444 0 10.464 1.813 14.614 4.695 4.27 3.25 9.588 5.305 15.386 5.305 5.739 0 11.007-2.014 15.274-5.216 4.18-2.941 9.238-4.784 14.726-4.784 5.447 0 10.47 1.815 14.701 4.89 4.232 3.073 9.528 5.11 15.3 5.11a23.9 23.9 0 0 0 15.126-5.366z" style="fill:#2c4878;fill-opacity:1;stroke:none"/><path id="path4210-3" d="M278.055 866.072a23.9 23.9 0 0 1-15.144 5.38c-5.745 0-11.02-2.02-15.331-5.261-4.207-2.928-9.226-4.74-14.669-4.74-5.51 0-10.585 1.857-14.77 4.819-4.258 3.18-9.51 5.181-15.23 5.181-5.757 0-11.04-2.027-15.35-5.275-4.198-2.917-9.213-4.725-14.65-4.725-5.511 0-10.589 1.858-14.743 4.797-4.235 3.184-9.51 5.203-15.257 5.203-5.755 0-11.037-2.025-15.31-5.244-4.175-2.925-9.219-4.756-14.69-4.756-5.488 0-10.545 1.842-14.747 4.801-4.283 3.2-9.535 5.2-15.253 5.2-5.785 0-11.092-2.047-15.374-5.296-4.164-2.893-9.183-4.705-14.626-4.705-5.482 0-10.534 1.838-14.728 4.786-4.28 3.206-9.542 5.214-15.272 5.214-7.382 0-13.985-3.332-18.387-8.574l.335 12.39c4.399 5.017 10.856 8.184 18.052 8.184 5.732 0 10.994-2.009 15.257-5.203 4.182-2.95 9.247-4.797 14.743-4.797 5.447 0 10.47 1.815 14.681 4.75 4.312 3.237 9.58 5.25 15.319 5.25 5.751 0 11.03-2.022 15.29-5.229 4.169-2.93 9.224-4.77 14.71-4.77 5.458 0 10.49 1.822 14.667 4.736 4.281 3.232 9.57 5.263 15.333 5.263 5.72 0 10.972-2 15.277-5.217 4.217-2.955 9.257-4.783 14.723-4.783 5.444 0 10.464 1.813 14.614 4.695 4.27 3.25 9.588 5.305 15.386 5.305 5.739 0 11.007-2.014 15.274-5.216 4.18-2.941 9.238-4.784 14.726-4.784 5.447 0 10.47 1.815 14.701 4.89 4.232 3.073 9.528 5.11 15.3 5.11a23.9 23.9 0 0 0 15.126-5.366z" style="fill:#2c4878;fill-opacity:1;stroke:none"/><path id="path3786-8-1-7-3-1" d="M278.055 842.072a23.9 23.9 0 0 1-15.144 5.38c-5.745 0-11.02-2.02-15.331-5.261-4.207-2.928-9.226-4.74-14.669-4.74-5.51 0-10.585 1.857-14.77 4.819-4.258 3.18-9.51 5.181-15.23 5.181-5.757 0-11.04-2.027-15.35-5.275-4.198-2.917-9.213-4.725-14.65-4.725-5.511 0-10.589 1.858-14.743 4.797-4.235 3.184-9.51 5.203-15.257 5.203-5.755 0-11.037-2.025-15.31-5.244-4.175-2.925-9.219-4.756-14.69-4.756-5.488 0-10.545 1.842-14.747 4.801-4.283 3.2-9.535 5.2-15.253 5.2-5.785 0-11.092-2.047-15.374-5.296-4.164-2.893-9.183-4.705-14.626-4.705-5.482 0-10.534 1.838-14.728 4.786-4.28 3.206-9.542 5.214-15.272 5.214-7.028 0-13.35-3.02-17.74-7.834l-.416 11.531c4.4 5.086 10.903 8.303 18.156 8.303 5.732 0 10.994-2.009 15.257-5.203 4.182-2.95 9.247-4.797 14.743-4.797 5.447 0 10.47 1.815 14.681 4.75 4.312 3.237 9.58 5.25 15.319 5.25 5.751 0 11.03-2.022 15.29-5.229 4.169-2.93 9.224-4.77 14.71-4.77 5.458 0 10.49 1.822 14.667 4.736 4.281 3.232 9.57 5.263 15.333 5.263 5.72 0 10.972-2 15.277-5.217 4.217-2.955 9.257-4.783 14.723-4.783 5.444 0 10.464 1.813 14.614 4.695 4.27 3.25 9.588 5.305 15.386 5.305 5.739 0 11.007-2.014 15.274-5.216 4.18-2.941 9.238-4.784 14.726-4.784 5.447 0 10.47 1.815 14.701 4.89 4.232 3.073 9.528 5.11 15.3 5.11a23.9 23.9 0 0 0 15.126-5.366z" style="fill:#2c4878;fill-opacity:1;stroke:none"/><path id="path3786-8-1-7-2-3-9" d="M278.055 818.072a23.9 23.9 0 0 1-15.144 5.38c-5.745 0-11.02-2.02-15.331-5.261-4.207-2.928-9.226-4.74-14.669-4.74-5.51 0-10.585 1.857-14.77 4.819-4.258 3.18-9.51 5.181-15.23 5.181-5.757 0-11.04-2.027-15.35-5.275-4.198-2.917-9.213-4.725-14.65-4.725-5.511 0-10.589 1.858-14.743 4.797-4.235 3.184-9.51 5.203-15.257 5.203-5.755 0-11.037-2.025-15.31-5.244-4.175-2.925-9.219-4.756-14.69-4.756-5.488 0-10.545 1.842-14.747 4.801-4.283 3.2-9.535 5.2-15.253 5.2-5.785 0-11.092-2.047-15.374-5.296-4.164-2.893-9.183-4.705-14.626-4.705-5.482 0-10.534 1.838-14.728 4.786-4.28 3.206-9.542 5.214-15.272 5.214-7.195 0-13.65-3.165-18.049-8.18l.054 12.061c4.397 4.98 10.83 8.12 17.995 8.12 5.732 0 10.994-2.01 15.257-5.204 4.182-2.95 9.247-4.797 14.743-4.797 5.447 0 10.47 1.815 14.681 4.75 4.312 3.237 9.58 5.25 15.319 5.25 5.751 0 11.03-2.022 15.29-5.229 4.169-2.93 9.224-4.77 14.71-4.77 5.458 0 10.49 1.822 14.667 4.736 4.281 3.232 9.57 5.263 15.333 5.263 5.72 0 10.972-2 15.277-5.217 4.217-2.955 9.257-4.783 14.723-4.783 5.444 0 10.464 1.813 14.614 4.695 4.27 3.25 9.588 5.305 15.386 5.305 5.739 0 11.007-2.014 15.274-5.216 4.18-2.941 9.238-4.784 14.726-4.784 5.447 0 10.47 1.815 14.701 4.89 4.232 3.073 9.528 5.11 15.3 5.11a23.9 23.9 0 0 0 15.126-5.366z" style="fill:#2c4878;fill-opacity:1;stroke:none"/></g></svg>