<svg xmlns="http://www.w3.org/2000/svg" id="svg2" width="595" height="653" version="1.1" viewBox="-1 -1 300.591 329.53"><path id="ellipse4" d="M299.59 163.827c0 91.097-67.289 164.946-150.295 164.946S-1 254.923-1 163.827C-1 72.729 66.29-1.12 149.295-1.12c83.006 0 150.296 73.848 150.296 164.946" style="fill:#d5d6d8;fill-opacity:1"/><path id="path4218" d="m141.79 11.005 4.402-12.091c2.026-.13 4.126-.039 6.208 0l4.4 12.091z" style="fill:#fff;stroke:none"/><path id="ellipse4-5" d="M149.31 318.416c41.23 0 78.317-19.485 104.056-50.532L45.226 59.764C70.97 28.734 108.068 9.237 149.311 9.237c41.234 0 78.325 19.488 104.05 50.545L45.246 267.888c25.74 31.04 62.83 50.528 104.063 50.528" style="fill:#deb308;fill-opacity:1;stroke:none"/><path id="polygon8" d="M170.642 133.065v3.884h-42.817v-3.884h18.524v-55.1l-16.512-4.34 9.205-25.393-8.525 1.05 18.716-50.415 18.717 50.415-8.525-1.05 9.205 25.393-16.512 4.34v55.1z" style="fill:#32b457;fill-opacity:1"/><path id="polyline10" d="m166.614 85.097-17.38 5.952-17.381-5.952" style="fill:none;stroke:#32b457;stroke-width:1.51558447;stroke-miterlimit:4;stroke-opacity:1;stroke-dasharray:none"/><path id="polyline12" d="m166.614 80.489-17.38 5.952-17.381-5.952" style="fill:none;stroke:#32b457;stroke-width:1.51558447;stroke-miterlimit:4;stroke-opacity:1;stroke-dasharray:none"/><path id="polygon28-7" d="m77.569 126.558-8.667 41.46 8.667 42.494H56.89l8.714-42.495-8.714-41.46z"/><path id="circle30-4" d="M59.038 123.427a3.369 3.369 0 1 1-6.738 0 3.369 3.369 0 0 1 6.738 0"/><path id="circle32-0" d="M82.48 123.427a3.369 3.369 0 1 1-6.738 0 3.369 3.369 0 0 1 6.738 0"/><path id="circle34-9" d="M59.038 213.687a3.369 3.369 0 1 1-6.738 0 3.369 3.369 0 0 1 6.738 0"/><path id="circle36-4" d="M82.48 213.687a3.369 3.369 0 1 1-6.738 0 3.369 3.369 0 0 1 6.738 0"/><path id="polygon38-8" d="m25.232 158.357 41.46 8.666 42.493-8.667v20.678l-42.494-8.714-41.459 8.714z"/><path id="circle40-8" d="M25.47 180.256a3.369 3.369 0 1 1-6.738 0 3.369 3.369 0 0 1 6.738 0"/><path id="circle42-2" d="M25.47 156.814a3.369 3.369 0 1 1-6.738 0 3.369 3.369 0 0 1 6.738 0"/><path id="circle44-4" d="M115.729 180.256a3.369 3.369 0 1 1-6.738 0 3.369 3.369 0 0 1 6.738 0"/><path id="circle46-5" d="M115.729 156.814a3.369 3.369 0 1 1-6.738 0 3.369 3.369 0 0 1 6.738 0"/><path id="rect48" d="M225.905 121.254h14.114v93.461h-14.114z"/><path id="rect50" d="M186.231 160.928h93.461v14.114h-93.46z"/><path id="rect52" d="M220.85 127.358h24.224v11.063H220.85z"/><path id="rect54" d="M220.85 197.549h24.224v11.063H220.85z"/><path id="rect56" d="M192.335 155.873h11.063v24.224h-11.063z"/><path id="rect58" d="M262.526 155.873h11.063v24.224h-11.063z"/><path id="path18" d="M123.998 264.393h51.02v44.942s-.268 2.778-3.772 2.778h-10.41s-10.11-2.622-16.317-10.861-19.42-8.52-20.521-8.52z" style="fill:#00aeef;fill-opacity:1"/><path id="line20" d="M133.863 271.953v26.954" style="fill:none;stroke:#deb308;stroke-width:1.51558447;stroke-miterlimit:4;stroke-opacity:1;stroke-dasharray:none"/><path id="line22" d="M144.275 271.953v33.444" style="fill:none;stroke:#deb308;stroke-width:1.51558447;stroke-miterlimit:4;stroke-opacity:1;stroke-dasharray:none"/><path id="line24" d="M154.687 272.016v39.433" style="fill:none;stroke:#deb308;stroke-width:1.51558447;stroke-miterlimit:4;stroke-opacity:1;stroke-dasharray:none"/><path id="line26" d="M165.1 271.953v41.43" style="fill:none;stroke:#deb308;stroke-width:1.51558447;stroke-miterlimit:4;stroke-opacity:1;stroke-dasharray:none"/><path id="path16" d="M126.248 259.943s-9.05 0-14.521-5.434c-5.47-5.434-5.371-14.82-5.371-14.82h85.965s.1 9.386-5.37 14.82c-5.471 5.434-14.522 5.434-14.522 5.434z" style="fill:#00aeef;fill-opacity:1"/><path id="rect14" d="M99.8 225.52h99.543v10.53H99.799z" style="fill:#00aeef;fill-opacity:1"/></svg>