<svg xmlns="http://www.w3.org/2000/svg" xml:space="preserve" version="1.0" viewBox="0 0 204.85 251.53"><g transform="translate(-1.333 .026)scale(.83984)"><path fill="#fff" fill-rule="evenodd" d="M2.5-.031v178c0 67.068 54.432 121.5 121.5 121.5s121.5-54.432 121.5-121.5v-178z"/><path fill-rule="evenodd" d="M185.69 54.719c-6.705-.13-13.343 2.43-18.25 7.375l-58.594 59.094 35.344 35.344 16-16.125v60.25c-.128 9.016 4.619 17.392 12.406 21.938s17.4 4.545 25.188 0 12.534-12.922 12.406-21.938V79.717a24.99 24.99 0 0 0-15.469-23.125 24.9 24.9 0 0 0-9.031-1.875z"/><path fill-rule="evenodd" d="M38.938 83.963v116.54c0 14.545 11.861 26.438 26.406 26.438s26.406-11.893 26.406-26.438v-9.312a57.2 57.2 0 0 0 32.406 10.03c16.136 0 30.731-6.713 41.188-17.469L91.75 110.16V82.33l-10 9.652v13.022c-9.353 10.229-15.094 23.812-15.094 38.719 0 14.916 5.733 28.517 15.094 38.75v18.03c0 9.179-7.228 16.439-16.406 16.439s-16.406-7.26-16.406-16.438V91.983l-10-8.015zm45.781 33.318 65.906 65.906a48 48 0 0 1-5.781 3.344l-33.312-33.312-7.094 7.094 29.875 29.844a47 47 0 0 1-5.437.843l-27.563-27.562-7.093 7.094 19.562 19.562c-21.267-4.728-37.125-23.666-37.125-46.375 0-9.803 2.995-18.882 8.062-26.438m1.25 69.344c.423.377.847.76 1.281 1.125a58 58 0 0 1-1.281-1.125"/><circle cx="62.928" cy="74.471" r="24.203" fill="none" stroke="#000" stroke-linecap="round" stroke-linejoin="round" stroke-width="10.299" transform="translate(4.104 7.334)scale(.97095)"/><path fill="none" stroke="#000" stroke-width="10" d="m41.704 76.705-26.809 23.458h39.469"/></g><g transform="translate(-1.333 .026)scale(.83984)"><path fill="#036f3a" fill-rule="evenodd" d="M2.5-.031v92.78L26 72.157V26.468h196v146.5c0 55.2-42.8 100-98 100s-98-44.8-98-100v-59.062H2.5v64.062c0 67.068 54.432 121.5 121.5 121.5s121.5-54.432 121.5-121.5v-178z"/><path fill-rule="evenodd" d="M185.69 54.719c-6.705-.13-13.343 2.43-18.25 7.375l-58.594 59.094 35.344 35.344 16-16.125v60.25c-.128 9.016 4.619 17.392 12.406 21.938s17.4 4.545 25.188 0 12.534-12.922 12.406-21.938V79.717a24.99 24.99 0 0 0-15.469-23.125 24.9 24.9 0 0 0-9.031-1.875z"/><path fill-rule="evenodd" d="M38.938 83.963v116.54c0 14.545 11.861 26.438 26.406 26.438s26.406-11.893 26.406-26.438v-9.312a57.2 57.2 0 0 0 32.406 10.03c16.136 0 30.731-6.713 41.188-17.469L91.75 110.16V82.33l-10 9.652v13.022c-9.353 10.229-15.094 23.812-15.094 38.719 0 14.916 5.733 28.517 15.094 38.75v18.03c0 9.179-7.228 16.439-16.406 16.439s-16.406-7.26-16.406-16.438V91.983l-10-8.015zm45.781 33.318 65.906 65.906a48 48 0 0 1-5.781 3.344l-33.312-33.312-7.094 7.094 29.875 29.844a47 47 0 0 1-5.437.843l-27.563-27.562-7.093 7.094 19.562 19.562c-21.267-4.728-37.125-23.666-37.125-46.375 0-9.803 2.995-18.882 8.062-26.438m1.25 69.344c.423.377.847.76 1.281 1.125a58 58 0 0 1-1.281-1.125"/><circle cx="62.928" cy="74.471" r="24.203" fill="none" stroke="#000" stroke-linecap="round" stroke-linejoin="round" stroke-width="10.299" transform="translate(4.104 7.334)scale(.97095)"/><path fill="none" stroke="#000" stroke-width="10" d="m41.704 76.705-26.809 23.458h39.469"/></g></svg>