<svg xmlns="http://www.w3.org/2000/svg" id="svg2" width="237" height="254" version="1.0"><path id="path3049" d="M6 7v32.892c.04 58.574 13.202 176.58 112.5 207.608C217.8 216.471 230.961 98.463 231 39.89V7" style="fill:#d71919;fill-opacity:1;stroke:#bebebe;stroke-width:12;stroke-linecap:butt;stroke-linejoin:miter;stroke-miterlimit:4;stroke-opacity:1;stroke-dasharray:none"/><path id="path2784" d="m-94.826 21.418-17.425-5.837-8.195 16.449-8.194-16.449-17.425 5.837 5.837-17.425-16.45-8.195 16.45-8.194-5.837-17.425 17.425 5.837 8.194-16.45 8.195 16.45 17.425-5.837-5.837 17.425 16.449 8.194-16.449 8.195z" style="fill:#bebebe;fill-opacity:1;fill-rule:evenodd;stroke:none" transform="matrix(.81472 0 0 .81356 150.277 54.567)"/><path id="path2781" d="M203.454 11.23 36.93 170.183c6.877 15.96 15.59 30.365 26.636 41.183L228.75 53.688l-.669-41.827z" style="fill:#bebebe;fill-opacity:1;fill-rule:evenodd;stroke:none"/><path id="rect2986" d="M.043.5h236.933v12H.043z" style="fill:#bebebe;fill-opacity:1;fill-rule:evenodd;stroke:none"/></svg>