<svg xmlns="http://www.w3.org/2000/svg" xml:space="preserve" id="Livello_1" width="530" height="689" x="0" y="0" version="1.1" viewBox="0 0 530 689"><path fill="#FFF100" d="M7.95 583c0 24.84 20.209 45.049 45.05 45.049h159.004c22.748.003 42.701 12.885 52.997 31.799 10.295-18.914 30.247-31.796 52.994-31.799H477c13.051 0 24.786-5.612 33.022-14.509L7.95 7.95z"/><path fill="#EC1B23" d="m7.95 7.95 502.071 605.59c7.439-8.037 12.029-18.751 12.029-30.54V7.95z"/><path d="M522.05 7.95V583c0 24.84-20.209 45.049-45.05 45.049H317.995c-22.747.003-42.699 12.885-52.994 31.799-10.296-18.914-30.248-31.796-52.997-31.799H53c-24.841 0-45.05-20.209-45.05-45.049V7.95zM530 0H0v583c0 29.271 23.728 53 53 53h159.004c28.792.002 52.155 23.433 52.452 52.444h-.012c0 .013.012.019.012.031.02.29.249.525.545.525a.55.55 0 0 0 .542-.526c.001-.011.012-.017.012-.03h-.011c.297-29.012 23.659-52.442 52.452-52.444H477c29.271 0 53-23.728 53-52.999z"/><g fill-rule="evenodd" clip-rule="evenodd"><path d="M451.444 229.144c-.11.103-.273.181-.273.31-.027.595-.354 1.061-.719 1.552a14.6 14.6 0 0 1-2.54 2.564 34 34 0 0 1-3.847 2.716 369 369 0 0 0-4.307 2.563c-1.25.724-2.473 1.45-3.642 2.225-1.304.803-2.459 1.76-3.438 2.95-.883.982-1.725 1.916-2.676 2.872-3.097 3.08-6.169 6.185-9.239 9.291-2.717 2.691-5.273 5.436-7.636 8.385-.598.752-1.142 1.579-1.685 2.355-.475.699-.638 1.476-.666 2.305-.122 3.13.163 6.236.733 9.342.803 4.399 2.107 8.668 3.546 12.914 1.958 5.77 4.009 11.542 5.952 17.286 2.418 7.066 4.415 14.209 6.168 21.403 1.713 6.883 3.262 13.82 4.702 20.704 1.129 5.227 2.255 10.403 3.384 15.605.394 1.839.964 3.597 1.495 5.357.313.982.801 1.837 1.345 2.717 1.114 1.863 2.227 3.701 3.288 5.59 1.194 2.12 2.351 4.295 3.287 6.547.572 1.399 1.006 2.847 1.414 4.323.653 2.717.571 5.356-.191 8.021-.597 1.942-1.371 3.779-2.472 5.513-1.847 2.847-4.131 5.306-6.984 7.297a20.6 20.6 0 0 1-4.05 2.15 14 14 0 0 1-4.673.853c-2.241.027-4.43-.337-6.631-.801-3.233-.699-6.358-1.632-9.511-2.537-1.589-.492-3.22-1.01-4.865-1.397-1.493-.337-3.015-.57-4.523-.777-2.5-.337-5.041-.673-7.541-1.035-2.242-.285-4.429-.622-6.685-.931-2.093-.312-4.212-.597-6.306-.959a948 948 0 0 1-9.428-1.604c-9.973-1.839-19.878-3.934-29.58-6.832-6.82-2.019-13.274-4.71-19.388-8.102-7.663-4.243-14.945-8.927-22.066-13.896-3.804-2.666-7.582-5.382-11.372-8.1a12 12 0 0 1-.937-.674c-.34-.258-.708-.31-1.102-.079-1.02.649-2.011 1.269-3.016 1.917-.327.18-.42.516-.272.88.067.258.204.543.299.801.734 1.683 1.032 3.466 1.154 5.254.055.828-.122 1.63-.42 2.381-.177.491-.313 1.01-.461 1.526-.246.777-.246 1.579-.082 2.381.325 1.709 1.046 3.262 2.024 4.712a20.6 20.6 0 0 0 3.287 3.83c.884.801 1.768 1.603 2.609 2.355.191.182.313.388.462.57l-.095.232a1.6 1.6 0 0 1-.313.079 58 58 0 0 1-2.513-.259c-.436-.026-.897-.026-1.346-.051-.189 0-.339.283-.271.414.081.206.108.388.203.542.543.959 1.168 1.89 1.876 2.745 1.331 1.578 2.974 2.613 5.026 3.131 1.754.414 3.465.905 5.178 1.423 4.294 1.346 8.491 3.002 12.608 4.89.585.285 1.155.622 1.753.959.15.103.123.44-.054.491-.353.182-.667.363-1.061.44-1.399.337-2.824.57-4.293.57H304.4c-1.359 0-2.662.079-4.022.31-.964.13-1.847.363-2.689.777a2.1 2.1 0 0 0-.49.312c-.15.076-.232.361-.122.516.122.155.191.337.34.466 2.867 2.926 6.291 5.098 10.34 6.211 2.038.57 4.171.931 6.303 1.215a80 80 0 0 0 10.286.44c1.21-.025 2.487.052 3.724.233 1.426.156 2.853.364 4.293.622 4.021.725 7.853 2.07 11.454 3.934 1.4.724 2.772 1.527 4.102 2.355 2.203 1.476 4.335 3.028 6.469 4.633.122.103.257.233.365.388l.029.13-.108.207c-.408.025-.762.025-1.101.025-1.372-.076-2.691-.155-4.022-.232-.246 0-.489.052-.748.052-.081.025-.176.309-.122.388.096.103.163.258.259.337.312.232.638.465.95.672 1.035.57 2.067 1.164 3.125 1.683 2.446 1.19 4.892 2.304 7.352 3.468 1.534.673 3.056 1.423 4.525 2.302.516.312 1.005.622 1.481 1.088.122.128.067.44-.095.491-.232.103-.45.182-.667.285-.747.284-1.589.57-2.35.88-.571.181-1.032.568-1.44 1.008-.327.415-.395.855-.191 1.346.299.57.733 1.035 1.331 1.295.624.258 1.195.491 1.82.723 1.223.441 2.5.828 3.751 1.321 1.061.388 2.011.828 3.016 1.241.055.026.135.155.135.155l-.188.234c-.462.026-.925.051-1.36.051-2.024.103-4.117.182-6.114.258-.163 0-.38.052-.543.131 0 0-.082.181-.055.233.027.102.11.181.191.233.244.128.517.258.762.388 2.458 1.138 5.094 2.018 7.662 2.821 1.957.595 3.9 1.112 5.856 1.733.421.131.884.182 1.209.492.056.051.027.181.027.259l-.107.103c-.192.025-.383.128-.571.155-2.514.259-4.946.414-7.473.182-1.346-.13-2.773-.156-4.172-.415a23 23 0 0 0-1.291-.207l-.244.103c-.082.079-.108.182-.055.259.137.206.272.414.394.57 1.047 1.113 2.107 2.2 3.167 3.286.272.285.542.545.815.829.163.181.379.31.325.596-.027.128-.259.18-.653.077-.461-.052-.91-.156-1.318-.234-3.791-.931-7.404-2.276-10.883-3.984-.449-.208-.883-.414-1.359-.622 0 0-.272-.077-.408-.13-.15-.025-.38.182-.38.338.122.621.449 1.19.788 1.681.992 1.372 1.956 2.795 2.922 4.166.217.259.366.57.542.855.042.103-.122.31-.122.31h-.42s-.299-.026-.45-.052c-2.389-.57-4.659-1.346-6.957-2.226a87 87 0 0 1-5.72-2.432c-1.208-.595-2.446-1.217-3.626-1.993-.191-.128-.408-.207-.639-.309-.165-.079-.489.077-.489.233-.041.181-.096.361-.069.57.069.723.393 1.371.76 1.991a52 52 0 0 0 1.455 2.33c.148.233.271.491.394.752 0 0-.055.18-.081.258a1 1 0 0 1-.096.051l-.325-.051c-.585-.258-1.224-.466-1.794-.777a76 76 0 0 1-6.657-3.752 161 161 0 0 0-3.112-1.993c-.325-.233-.666-.44-1.005-.647-.218-.13-.49-.258-.667-.103-.148.103-.176.362-.176.543 0 .361.054.75.122 1.113.108.905.27 1.785.366 2.665.081.545.081 1.061.081 1.579 0 .155 0 .361-.217.491-.122.079-.325.025-.476-.182 0 0-.066-.051-.095-.102-1.359-1.475-2.934-2.719-4.633-3.857-1.901-1.32-3.872-2.639-5.801-3.959a332 332 0 0 0-3.302-2.252c-1.508-1.06-2.908-2.276-4.294-3.493-1.359-1.192-2.418-2.512-3.395-3.961-.924-1.447-1.632-2.924-1.984-4.606-.041-.181-.096-.337-.136-.517-.11-.568-.449-.983-.896-1.32-.218-.155-.49-.337-.681-.491-.489-.389-1.005-.803-1.44-1.217-1.632-1.423-2.732-3.159-3.316-5.177-.177-.57-.272-1.086-.502-1.63-.788-1.915-2.216-3.364-3.995-4.502 0 0-.163-.103-.285-.131-.162-.102-.53.079-.556.285l-.056.155c-.04.233-.04.364-.04.519-.122 3.443-.571 6.807-1.155 10.196-.231 1.217-.421 2.408-.664 3.624-.082.259-.177.543-.273.801a.46.46 0 0 1-.122.182c-.203-.103-.298-.155-.325-.233a11 11 0 0 1-.409-1.035c-.27-.828-.57-1.632-.855-2.433-1.768-5.124-4.267-9.912-7.433-14.363-1.617-2.302-3.356-4.502-5.135-6.651-.937-1.035-1.726-2.225-2.569-3.364-.489-.672-.951-1.32-1.548-1.888a3.2 3.2 0 0 0-1.06-.752c-.421-.207-.87-.18-1.291.052-.191.13-.408.31-.557.466a29 29 0 0 0-1.495 1.604c-.394.44-.679.932-1.099 1.32-.273.258-.572.543-.884.75a.843.843 0 0 1-1.331-.621 1.7 1.7 0 0 1 .026-.699c.176-.88.368-1.785.583-2.64.178-.777.394-1.578.571-2.355a6 6 0 0 0 .123-1.139c-.027-1.113-.666-1.785-1.862-1.785a19 19 0 0 0-2.962.156c-1.304.128-2.595.128-3.899.128-.476 0-.966-.103-1.453-.258-.462-.128-.775-.414-.925-.854-.096-.26-.189-.545-.272-.804-.435-1.733-.705-3.44-.91-5.174-.34-2.952-.272-5.901-.177-8.851.027-1.32.136-2.665.299-3.935.122-1.086-.122-1.991-.734-2.871-.394-.57-.814-1.165-1.208-1.761-.287-.44-.598-.905-.816-1.371-.76-1.423-1.087-2.924-.666-4.553.421-1.451.762-2.926 1.141-4.401.219-.905.435-1.836.368-2.82 0-.182 0-.363-.026-.545-.042-.568-.314-1.008-.844-1.268a70 70 0 0 1-1.331-.672 123 123 0 0 1-4.824-2.563 49 49 0 0 1-7.311-4.97c-.707-.57-.855-.595-1.67-.077-.449.259-.91.57-1.346.879a247 247 0 0 1-14.239 9.137c-7.147 4.27-14.551 7.894-22.27 10.999-6.549 2.613-13.153 4.917-19.864 7.117-2.651.88-5.271 1.681-7.929 2.535-.333.103-.652.233-.965.361-.156.052-.258.233-.258.233.136.182.211.234.298.259.151.026.299.026.299.026 1.786 0 3.418.156 5.062.338 4.172.465 8.221 1.448 11.984 3.312 1.781.88 3.52 1.759 5.205 2.768 6.561 3.778 13.124 7.609 19.673 11.413 4.647 2.691 9.321 5.306 14.13 7.687 3.14 1.553 6.292 3.053 9.608 4.269 2.119.803 4.319 1.501 6.549 1.916 1.385.285 2.839.414 4.348.337.855-.051 1.725-.051 2.635-.13 1.183-.026 2.284-.13 3.424-.182a93 93 0 0 1 9.28-.076c2.039.128 4.035.568 5.979 1.268 1.644.568 3.11 1.475 4.293 2.742 1.386 1.553 2.146 3.366 2.227 5.461.096 1.76-.243 3.494-.841 5.15a47 47 0 0 1-1.046 2.949c-.612 1.579-1.223 3.132-1.821 4.686-.583 1.578-1.033 3.156-1.223 4.813-.176 1.268-.081 2.484.421 3.65.557 1.371 1.128 2.744 1.698 4.115.801 1.888 1.604 3.753 2.242 5.719.856 2.355 1.427 4.737 1.67 7.221.476 4.71-.27 9.265-2.553 13.509a19.6 19.6 0 0 1-2.323 3.493c-.815.906-1.617 1.812-2.419 2.719-.394.414-.762.854-1.182 1.268-.72.724-1.114 1.553-1.305 2.51-.325 1.682-.91 3.338-1.562 4.891-.394.957-.884 1.811-1.427 2.639-.706 1.037-1.604 1.839-2.785 2.279a4 4 0 0 0-.667.361c-.081.052-.081.181-.095.259h-1.508a.81.81 0 0 0-.516-.491c-.368-.13-.762-.233-1.155-.364-1.33-.465-2.417-1.293-3.152-2.457a7.8 7.8 0 0 1-1.194-2.924c-.204-1.035-.246-2.149-.246-3.236.027-1.681.191-3.313.421-4.968.203-1.786.449-3.571.624-5.357.15-1.345-.054-2.537-.583-3.778-.679-1.45-1.278-2.95-1.971-4.452-1.495-3.338-2.908-6.753-4.403-10.118-1.359-2.899-2.798-5.771-4.47-8.515a16.2 16.2 0 0 0-3.655-4.27 17 17 0 0 0-2.731-1.993c-1.754-1.06-3.546-1.966-5.421-2.639-2.949-1.113-5.993-1.915-9.023-2.562-3.681-.777-7.445-1.372-11.182-1.968-4.117-.647-8.221-1.32-12.336-1.993-4.865-.777-9.647-1.836-14.458-3-5.488-1.371-10.903-2.95-16.318-4.607-7.84-2.355-15.62-4.891-23.391-7.375-3.117-.983-6.242-1.968-9.395-2.821-2.018-.543-4.069-.855-6.183-.983a112 112 0 0 1-11.738-1.164 49 49 0 0 1-8.1-1.942 17.9 17.9 0 0 1-6.766-4.037c-2.649-2.535-4.593-5.461-5.85-8.824a20.6 20.6 0 0 1-1.175-4.556 21.6 21.6 0 0 1-.108-4.684c.156-2.018.762-3.804 1.902-5.486.443-.621.916-1.243 1.386-1.837a37.4 37.4 0 0 1 4.213-4.426c2.567-2.328 5.163-4.607 7.737-6.934.89-.804 1.794-1.632 2.609-2.537 9.878-10.818 20.429-21.016 31.719-30.513 5.951-4.995 12.134-9.679 18.642-14 3.899-2.588 7.982-4.814 12.283-6.755 2.5-1.087 5-2.122 7.541-3.132.693-.309 1.155-.724 1.345-1.422.11-.363.244-.699.38-1.062a212 212 0 0 1 1.82-5.123c1.645-4.581 3.778-8.981 6.578-13.043.368-.519.707-1.01 1.032-1.553.108-.156.191-.337.285-.519 0 0-.108-.389-.312-.361-.285.026-.598.026-.87.077-.815.233-1.604.466-2.432.724a54 54 0 0 0-7.405 3.029c-1.93.931-3.899 1.915-5.842 2.846-1.293.595-2.581 1.217-3.9 1.812-.713.337-1.475.595-2.209.854-.121.052-.284.025-.434.025-.122.027-.285-.155-.264-.258.055-.233.095-.466.17-.673.366-.957.835-1.864 1.386-2.666.992-1.448 1.963-2.898 2.94-4.295.639-.931 1.304-1.811 1.902-2.743.624-.906 1.223-1.837 1.617-2.872.137-.31.246-.622.328-.959.135-.516-.165-.828-.707-.775h-.462c-1.263.31-2.623.517-3.899.932a59 59 0 0 0-9.723 4.01c-1.609.829-1.624.829-2.5 2.33-3.574 6.055-6.963 12.268-9.843 18.66-.13.309-.197.673-.51.853-.11.079-.182.079-.244 0-.089-.128-.212-.233-.238-.388-.081-.596-.197-1.242-.217-1.811-.049-.801-.014-1.63-.027-2.433-.014-.361-.034-.75-.075-1.138-.047-.364-.489-.57-.78-.389-.224.128-.45.233-.639.389-.713.673-1.447 1.294-2.14 1.993a1379 1379 0 0 0-4.192 4.062 45 45 0 0 1-5.482 4.632c-1.229.855-2.514 1.657-3.914 2.356a9 9 0 0 1-.815.284c-.08.026-.203 0-.203 0-.223 0-.368-.181-.345-.284.237-.854.638-1.604 1.017-2.356.502-1.061 1.018-2.069 1.502-3.106.27-.568.509-1.163.693-1.733.088-.207.027-.466.027-.698-.014-.157-.299-.312-.461-.233-.401.206-.816.361-1.19.595-4.11 2.432-8.274 4.735-12.297 7.272-.177.13-.359.207-.53.259-.17.077-.42-.079-.447-.259-.034-.128-.076-.285-.081-.414-.042-.595.034-1.164.249-1.657.206-.647.423-1.294.592-1.941.108-.388.13-.829.13-1.243.014-.492-.551-.905-1.013-.777-.393.079-.774.233-1.148.363a592 592 0 0 0-6.841 2.822c-1.645.673-3.309 1.344-4.925 2.017-.734.337-1.462.673-2.148 1.01-.162.079-.318.026-.421-.103a.5.5 0 0 1-.17-.363c.014-.207.082-.388.183-.543.394-.749.917-1.344 1.447-1.966.707-.828 1.406-1.604 2.078-2.433.238-.31.436-.647.552-1.035.093-.363-.273-.803-.667-.725-.359.13-.733.234-1.127.363-1.754.647-3.526 1.294-5.293 1.941-1.129.389-2.256.803-3.363 1.165-1.122.413-2.284.698-3.471.775-.198.026-.381-.051-.585-.102-.13-.027-.209-.26-.15-.364.11-.155.197-.337.319-.465.415-.491.829-.957 1.217-1.45.204-.258.435-.519.598-.802.27-.466 0-.985-.571-1.088-.252-.025-.497-.051-.728-.051-.754 0-1.508.026-2.247.051-2.548.079-5.069.182-7.61.26-.957.051-1.91.025-2.826-.052-.305-.052-.598-.13-.897 0v-.284c2.657-1.217 5.361-2.279 8.085-3.364 2.126-.906 4.28-1.761 6.413-2.694a34 34 0 0 0 5.972-3.233c.455-.259.911-.57 1.298-.931.313-.312.577-.673.829-1.036.258-.337.15-.724-.223-.983a7 7 0 0 0-.768-.414c-1.061-.44-2.168-.725-3.276-1.01-.863-.259-1.733-.44-2.574-.673-.53-.156-1.04-.31-1.508-.647-.218-.13-.231-.492-.014-.595a10 10 0 0 1 .93-.44c4.288-1.657 8.689-3.08 13.187-4.141.659-.155 1.081-.44 1.392-.959.32-.516.627-1.061.734-1.681.027-.13-.107-.44-.244-.491a1.7 1.7 0 0 0-.401-.182c-.909-.233-1.846-.414-2.798-.466a42 42 0 0 0-6.257-.155c-.598.026-1.188.026-1.794.026 0 0-.284-.079-.414-.13-.055-.052-.076-.182-.076-.182.158-.258.396-.362.613-.44 1.529-.595 3.038-1.217 4.612-1.733 5.354-1.917 10.802-3.572 16.449-4.556.339-.051.664-.182 1.005-.258.115-.026.163-.312.061-.389-.191-.155-.36-.337-.571-.414-1.079-.568-2.221-.932-3.377-1.165-2.003-.413-3.995-.749-6.039-.879-.305 0-.626.026-.875-.156a.5.5 0 0 1-.137-.233l.061-.128c.51-.363 1.122-.466 1.699-.543 1.296-.156 2.581-.312 3.879-.337a61 61 0 0 1 5.36.156c2.175.155 4.389.258 6.569.155 2.338-.079 4.668-.259 7.019-.389.252-.025.482-.103.719-.155l.103-.078s0-.207-.042-.232c-.211-.13-.42-.259-.672-.337-1.63-.57-3.261-1.139-4.911-1.708-.797-.233-1.604-.466-2.421-.725-.188-.077-.359-.102-.535-.207-.075-.026-.108-.156-.096-.232l.162-.182c1.529-.233 3.065-.337 4.621-.233 2.595.181 5.157.57 7.622 1.346 1.93.595 3.867 1.217 5.802 1.836 2.221.699 4.444 1.425 6.699 2.019 3.233.829 6.543 1.165 9.898 1.062.366 0 .699-.026 1.053-.052 0 0 .27-.051.339-.181.087-.103 0-.337-.197-.466-.333-.232-.666-.414-.997-.621a22.4 22.4 0 0 1-4.879-4.167c-1.23-1.423-2.236-2.924-2.983-4.581a12 12 0 0 1-.285-.829c-.076-.181.04-.361.209-.491h.137c.435.13.863.207 1.298.337 4.871 1.32 9.843 1.967 14.892 2.121 4.497.157 8.981.026 13.466-.103 2.336-.051 4.673-.128 7.01-.128 2.581 0 5.19.207 7.731.621 4.064.673 8.181 1.397 12.217 2.07 1.982.337 4.006.622 6.059.905.379.079.76.079 1.168.079.571.026.841-.13 1.033-.647.217-.57.406-1.164.611-1.734.435-1.294 1.033-2.485 1.698-3.675 2.392-4.374 6.115-7.377 11.02-9.084 2.065-.725 4.212-1.165 6.358-1.371 1.061-.103 2.12-.182 3.152-.285.421-.051.722-.361.722-.777 0-.207 0-.388-.029-.595-.244-2.719-.57-5.461-.693-8.203-.244-3.935-.408-7.842-.408-11.803 0-2.38.163-4.76.34-7.141.027-.234.067-.519.122-.804.272-1.992.707-3.933 1.128-5.873 1.589-6.886 3.357-13.665 5.122-20.471.653-2.589 1.374-5.149 2.065-7.738.041-.181.069-.363.096-.57l-.096-.103c-.054-.026-.108-.026-.108-.026-.272.051-.366.208-.49.388a308 308 0 0 0-2.472 3.858 73 73 0 0 1-6.876 8.825c-2.635 2.821-5.68 5.2-9.158 6.986-2.16 1.087-4.252 2.226-6.467 3.261a2427 2427 0 0 0-17.84 8.282c-4.947 2.277-9.811 4.684-14.54 7.375-2.5 1.397-5 2.95-7.322 4.633a46 46 0 0 0-3.248 2.509c-2.067 1.76-3.737 3.804-4.892 6.212-.977 1.888-1.983 3.726-3.002 5.589a37 37 0 0 1-2.297 3.83c-.727 1.01-1.487 2.018-2.357 2.898a15.8 15.8 0 0 1-3.648 2.95c-1.276.75-2.635 1.346-4.131 1.605-3.05.491-6.052.413-9.042-.182-3.159-.673-6.045-1.967-8.695-3.701-1.719-1.113-3.343-2.433-4.81-3.83-2.017-1.916-3.852-4.011-5.523-6.159-1.033-1.32-.658-1.062-2.358-1.553-3.172-.829-6.317-1.734-9.395-2.795-4.233-1.475-8.343-3.157-12.323-5.124-1.163-.57-2.297-1.164-3.331-1.89-4.009-2.691-6.276-6.392-7.03-10.972-.061-1.528-.381-1.528-1.502-2.252a24 24 0 0 1-4.885-4.167 14.4 14.4 0 0 1-1.915-2.717c-.728-1.345-1.169-2.821-1.033-4.374a5.1 5.1 0 0 1 1.155-2.872 7.4 7.4 0 0 1 2.302-1.812c1.264-.619 2.603-.88 4.035-.673 1.428.208 2.705.673 3.934 1.372 1.475.803 2.99 1.709 4.376 2.692 2.275 1.526 4.639 2.949 6.963 4.399 2.078 1.268 4.32 2.199 6.686 2.847 2.811.75 5.719 1.241 8.607 1.63 1.983.284 3.974.491 5.944.698 2.126.208 4.273.363 6.413.415 2.629.051 5.264.025 7.92 0 1.841 0 3.691-.207 5.483-.467 1.82-.232 3.458-.879 4.972-1.836a71 71 0 0 0 7.773-5.538 111 111 0 0 0 7.805-7.04c4.239-4.244 8.451-8.489 12.689-12.68 4.213-4.218 8.48-8.464 12.922-12.474 7.61-6.884 15.244-13.769 22.868-20.653 4.253-3.855 8.491-7.635 12.513-11.671a32.8 32.8 0 0 0 4.485-5.487c1.127-1.683 2.227-3.364 3.382-5.021 1.807-2.639 3.874-5.072 6.252-7.246 1.739-1.578 3.681-2.742 5.882-3.571 1.413-.517 2.868-.854 4.348-1.088a29 29 0 0 0 1.603-.283c.122-.052.218-.208.327-.285h4.157c.108.077.177.233.3.285.339.103.692.181 1.032.258.692.13 1.359.182 2.038.337 2.472.465 4.769 1.345 6.943 2.537 2.188 1.242 3.968 2.846 5.286 4.917.61.982 1.194 1.992 1.766 2.975a108 108 0 0 1 4.998 10.351c1.155 2.822 2.298 5.643 3.506 8.464 4.09 9.81 7.555 19.875 10.15 30.201 1.372 5.539 2.527 11.077 3.356 16.745.423 2.768.816 5.538 1.061 8.333.217 2.563.449 5.123.516 7.66.123 4.581.081 9.137-.041 13.665q0 .853-.081 1.708c-.122 1.734-.299 3.52-.394 5.254a151 151 0 0 1-.693 7.505c-.258 2.018-.517 4.037-.76 6.055-.096.777-.137 1.527-.218 2.279a.87.87 0 0 0 .42.828c.491.285.978.543 1.468.828 4.348 2.51 7.581 5.926 9.607 10.378.15.362.298.724.461 1.061.082.128.177.232.259.361.069.079.312.156.408.079.148-.13.325-.208.474-.363a13.7 13.7 0 0 0 2.366-3.415c.571-1.036 1.113-2.148 1.63-3.184 1.345-2.77 3.125-5.177 5.49-7.195.664-.57.992-1.19.924-2.018-.029-.233 0-.466 0-.699.026-.777.026-1.553.095-2.251.122-1.269.475-2.433.884-3.623.394-1.268.815-2.535 1.208-3.778.218-.801.423-1.578.462-2.381.108-1.502.054-1.709-.855-2.925a6 6 0 0 1-.462-.724c-.516-.698-1.032-1.397-1.495-2.122-.789-1.164-1.25-2.484-1.305-3.883 0-.57-.162-1.061-.461-1.501-.203-.31-.394-.647-.585-.957a42.6 42.6 0 0 1-3.37-7.298c-.95-2.614-1.519-5.305-1.643-8.075-.027-.906-.096-1.811-.162-2.691-.123-1.604-.151-3.236 0-4.865.162-2.302.408-4.607.773-6.911a47 47 0 0 1 .571-2.95s.096-.128.15-.207c.122.079.272.156.312.259.177.363.273.724.423 1.087.244.568.49 1.113.814 1.682.123.259.314.466.504.673.244.312.666.207.843-.103.217-.414.244-.828.244-1.294.095-2.716.218-5.461.285-8.203.026-.725.026-1.45.055-2.123a10 10 0 0 1 .365-2.407.35.35 0 0 1 .204-.182s.192.027.272.079c.122.079.191.207.285.337.273.361.516.777.815 1.164.368.517.829.985 1.36 1.294.664.337 1.209.208 1.48-.388.096-.207.218-.44.244-.647.151-.725.272-1.423.34-2.122.204-2.123.299-4.27.354-6.418.04-1.399.096-2.848.15-4.244 0-.233.095-.491.121-.699l.123-.025h.122c.096.233.191.465.217.698.218 1.371.408 2.717.626 4.088.272 1.735.719 3.443 1.249 5.099.151.516.394.982.598 1.475.096.155.218.309.368.439.055.052.176.052.176.052s.244-.13.273-.207a2.6 2.6 0 0 0 .067-.57c0-2.148.42-4.244.965-6.289.272-1.138.666-2.2 1.291-3.182a1 1 0 0 1 .365-.44c.042-.052.219-.052.219-.052.188.181.324.337.393.492.366.853.693 1.682 1.061 2.535.163.465.42.931.679 1.396a3.6 3.6 0 0 0 .408.415s.421.103.516-.026c.148-.181.325-.389.394-.621.231-.491.394-1.036.57-1.604a78 78 0 0 0 2.786-12.214c.055-.467.177-.932.273-1.372.272 0 .42.103.487.285.206.568.423 1.164.598 1.76.707 2.484 1.06 5.02 1.195 7.607.108 1.786.259 3.571.177 5.382 0 .596.151 1.139.516 1.605.096.13.177.259.272.363a20.9 20.9 0 0 1 2.99 6.78c.095.415.217.804.366 1.217l.15.259a.5.5 0 0 0 .272.026c.122-.052.244-.156.244-.156 1.386-1.916 2.363-3.855 2.934-6.004.096-.44.122-.854.395-1.242.122.079.299.155.325.258a28 28 0 0 1 .653 4.504c.271 3.857-.041 7.685-.408 11.516-.082.983-.177 1.993-.232 2.975-.014.622 0 1.243.055 1.863 0 .13.054.261.054.261.095.491.557.646.856.465.15-.103.327-.232.447-.363.545-.491.992-1.061 1.414-1.683a14.3 14.3 0 0 0 1.713-3.312c.177-.361.353-.75.516-1.165 0 0 .232-.103.366-.179.177.698.231 1.32.285 2.018.136 2.458.165 4.917.027 7.402-.136 2.381-.475 4.71-1.141 7.013-.327 1.062-.667 2.044-1.006 3.106a1.4 1.4 0 0 0-.108.568l.176.208c.204.051.394.051.543.025.667-.258 1.291-.543 1.944-.801.324-.13.624-.26.977-.415.082-.051.299.13.272.259a6 6 0 0 1-.189.724c-.815 2.459-1.916 4.762-3.398 6.909-2.011 2.848-4.538 5.178-7.744 6.756-.366.155-.692.388-1.06.57-.313.179-.545.413-.639.724-.176.465-.299.905-.434 1.372-.666 1.862-1.89 3.337-3.655 4.373-.476.284-.937.57-1.4.854-.558.415-1.197.801-1.739 1.268-1.223 1.036-1.209 1.218-1.183 2.461.027 2.509-.15 5.02-.462 7.505-.368 2.742-.937 5.46-1.834 8.073-.054.207-.069.466-.096.673l.027.13c.096.025.218.076.218.076.272-.18.516-.361.72-.542a341 341 0 0 0 7.364-6.341c5.679-5.072 11.06-10.326 15.774-16.278a2 2 0 0 1 .408-.415l.163-.025.191.103c.026.207.055.388.055.57-.055 1.138-.273 2.251-.517 3.389-.435 2.279-1.168 4.477-2.038 6.676-1.278 3.341-2.853 6.549-4.525 9.757a39.7 39.7 0 0 1-4.674 7.246c-1.113 1.346-2.241 2.692-3.342 4.012a42 42 0 0 1-2.555 2.613c-2.879 2.719-5.978 5.332-9.212 7.687-2.447 1.735-4.961 3.339-7.718 4.607a3.3 3.3 0 0 0-.598.361c-.148.103-.148.415 0 .519.246.128.476.284.748.388a27.8 27.8 0 0 1 6.414 4.426 42 42 0 0 1 5 5.251c3.722 4.686 6.604 9.81 8.628 15.374 2.038 5.409 3.681 10.947 5.054 16.485.585 2.459 1.101 4.916 1.643 7.402.327 1.657.244 1.528 1.794 2.201a53 53 0 0 1 7.746 4.217c3.995 2.563 7.867 5.175 11.645 7.996 3.356 2.512 6.671 5.099 10.013 7.661.272.207.49.492.897.517 0 0 .081-.025.108-.051l.081-.079c-.055-.181-.055-.31-.108-.44-.516-.931-1.087-1.836-1.63-2.768a54 54 0 0 1-3.845-8.437c-.815-2.355-1.427-4.735-1.617-7.22-.136-2.173-.299-4.374-.244-6.548.054-1.862.108-3.7.135-5.538.165-4.993.299-9.963.461-14.932 0-.26.029-.494.029-.752.177-3.312.204-6.728.177-10.093 0-2.174-.027-4.374-.15-6.522a91 91 0 0 0-.435-6.082c-.272-2.614-.625-5.203-1.304-7.764-.598-2.562-1.63-4.942-3.235-7.116-1.047-1.45-2.039-2.924-3.043-4.4-1.087-1.682-2.229-3.364-3.316-5.073a28.7 28.7 0 0 1-2.365-5.356 12.5 12.5 0 0 1-.543-4.502c.217-2.77 1.481-4.996 3.806-6.652a13.3 13.3 0 0 1 3.599-1.655c1.223-.389 2.529-.672 3.792-.88 2.282-.389 4.647-.75 6.903-1.112a25 25 0 0 0 4.076-1.113c1.508-.543 2.908-1.346 4.09-2.512 1.969-1.941 4.09-3.882 6.115-5.822 2.24-2.148 4.578-4.192 7.079-6.108 1.806-1.371 3.667-2.64 5.679-3.701 2.363-1.293 4.796-2.251 7.473-2.872 3.37-.778 6.672-.752 10.001.388.353.13.652.233.951.312 1.766.388 1.455.647 3.247-.44a20.3 20.3 0 0 1 3.926-1.942c1.685-.621 3.316-1.061 5.123-1.139 1.806-.103 3.545.157 5.122 1.192 1.114.698 1.984 1.578 2.201 2.898.027.103.163.208.163.208.118 1.241.118 2.379.118 3.518"/><path fill="#FFC8A0" d="M300.378 320.938c-.148 12.217-4.183 22.594-12.078 31.573-2.446 2.745-5.148 5.15-8.138 7.324-2.093 1.501-4.348 2.873-6.78 3.882-.939.415-1.902.752-2.935 1.062-1.684.466-3.301.466-5.028.051-1.167-.258-2.255-.647-3.382-1.113-2.175-.88-4.213-2.044-6.196-3.389a47.8 47.8 0 0 1-11.726-11.854c-3.262-4.839-5.639-10.014-6.957-15.63-.49-2.019-.815-4.09-1.087-6.16-.368-3.003-.313-5.979-.244-8.98.093-2.33.516-4.607 1.208-6.858.368-1.138.856-2.2 1.645-3.106 1.101-1.294 2.105-2.588 3.111-3.855.191-.259.394-.466.57-.699.762-.906 1.754-1.476 3.003-1.708 1.02-.208 2.067-.363 3.059-.517 1.508-.233 3.002-.414 4.442-.647 1.006-.155 2.064-.312 3.125-.466 1.44-.207 2.758-.673 4.145-1.165 2.295-.905 4.511-1.941 6.738-3.053.435-.208.911-.44 1.374-.622.188-.13.419-.077.664.052.313.207.625.44.951.698 1.033.803 2.107 1.604 3.098 2.459a14 14 0 0 0 4.892 2.665c3.316 1.139 6.699 1.786 10.244 1.786 1.523 0 1.632.026 2.717 1.113 2.529 2.484 5.03 4.969 7.61 7.453.504.543.856 1.138 1.02 1.837.354 1.45.639 2.873.719 4.374.068 1.32.163 2.614.216 3.493"/><path d="M272.703 322.776c0 .802-.015 1.604 0 2.407.026.337.203.647.598.75.529.128.964.414 1.44.698.638.415 1.278.75 1.916 1.138 1.168.673 2.323 1.243 3.601 1.709.394.105.759.233 1.154.337 1.658.545 3.288.44 4.945-.181a13.8 13.8 0 0 0 3.587-1.993c.408-.284.803-.595 1.197-.854a1.275 1.275 0 0 1 1.643.181c.435.414.545 1.062.177 1.553-.108.155-.231.337-.354.465-2.064 1.709-4.265 3.081-7.023 3.625a9.4 9.4 0 0 1-3.982 0 18 18 0 0 1-4.605-1.632c-1.007-.516-2.013-1.113-3.004-1.63-.189-.13-.406-.206-.638-.337-.15-.051-.449.103-.476.234-.122 1.19-.095 2.381.218 3.544.122.519.366.985.679 1.399.339.543.788 1.086 1.154 1.655.571.777 1.088 1.581 1.508 2.461.34.724.461 1.448.38 2.224-.122 1.01-.652 1.76-1.67 2.2-.395.208-.829.312-1.278.363-1.046.103-1.969.519-2.867 1.087-.312.181-.679.388-1.032.57-1.238.647-2.447.673-3.724.103a8 8 0 0 1-1.194-.596c-.707-.388-1.414-.673-2.201-.75-.516-.025-.992-.128-1.508-.207-.151-.025-.285-.025-.408-.052-2.8-.517-3.167-2.846-2.432-4.425a6.6 6.6 0 0 1 2.064-2.433c.285-.18.613-.258 1.006-.232 1.033.077 1.495 1.087 1.005 1.863-.175.31-.448.543-.666.777-.313.361-.666.698-.829 1.164-.081.232.069.517.285.596.123.051.299.13.299.13.462.076.815.076 1.154.128 1.332.182 2.624.519 3.807 1.217.093.077.243.13.365.233q1 .582 1.957 0c.366-.233.76-.44 1.155-.647.76-.491 1.563-.828 2.473-.957.298-.052.598-.103.883-.182.435-.128.611-.44.517-.854a8 8 0 0 0-.653-1.268c-.571-.854-1.141-1.657-1.699-2.484-.243-.364-.516-.725-.733-1.088-.408-.62-.653-1.293-.693-2.018-.082-.88-.15-1.786-.177-2.717-.095-2.821-.148-5.668-.067-8.515 0-.465.014-.957.067-1.448a5 5 0 0 1 1.236-2.847 12.8 12.8 0 0 1 4.606-3.495c2.297-.982 4.633-1.448 7.134-1.396 3.125.051 6.073.75 8.846 2.251.597.31 1.113.596 1.603 1.062.366.362.434.828.366 1.319-.15.647-1.005 1.113-1.63.854a19 19 0 0 1-1.046-.517c-1.659-1.061-3.41-1.759-5.367-2.07-2.188-.337-4.361-.414-6.549.13-1.93.519-3.696 1.399-5.122 2.77-.122.181-.273.309-.423.44-.556.621-.869 1.345-.869 2.199.014.647-.027 1.346-.055 1.993h-.051m-20.084-3.419c.856 0 1.672.155 2.487.439 1.835.647 3.506 1.527 5.177 2.563.122.051.246.13.34.233.476.44.504 1.371.027 1.811-.204.181-.394.337-.612.44-1.82.983-3.736 1.76-5.842 2.121-.748.103-1.426.103-2.174-.051-1.182-.233-2.337-.622-3.369-1.217a129 129 0 0 1-3.261-1.966 2.5 2.5 0 0 1-.585-.466c-.626-.543-.49-1.527.244-1.967.299-.157.611-.285.924-.415 1.63-.57 3.193-1.035 4.891-1.346.585-.103 1.17-.128 1.753-.179"/><path d="M283.925 327.382c-.95.026-1.834-.207-2.757-.414-1.767-.44-3.37-1.164-4.961-2.017-.122-.054-.271-.131-.271-.131-.83-.57-.83-1.63-.095-2.174.148-.103.325-.207.489-.284 1.902-1.088 3.928-1.863 6.129-2.174a10 10 0 0 1 3.395.128c1.632.337 3.154.828 4.619 1.579.313.155.612.337.911.517.557.415.666 1.268.217 1.812-.176.155-.339.362-.543.491-1.753 1.165-3.641 2.148-5.802 2.537-.434.079-.883.105-1.331.13m-32.107-15.035c2.664.051 5.245.543 7.624 1.708 1.005.44 1.902 1.036 2.65 1.812.162.155.284.388.366.621.15.491 0 .931-.395 1.242-.365.337-1.087.415-1.534.182a5.7 5.7 0 0 1-.855-.57 10.2 10.2 0 0 0-2.148-1.269c-1.088-.491-2.269-.749-3.479-.905-1.276-.181-2.623-.259-3.994-.077-2.5.337-4.784 1.268-6.645 2.95-.312.284-.611.647-.774 1.035-.136.337-.176.647-.027.958.067.232.163.439.244.671q.103.273.163.545c.108.621-.163 1.139-.762 1.372-.583.258-1.194.128-1.588-.389-1.197-1.528-1.4-3.727.148-5.356.585-.648 1.223-1.269 1.957-1.735a14.4 14.4 0 0 1 6.522-2.613c.857-.105 1.698-.208 2.527-.182m-.556 20.289c-1.033-.025-2.487-.207-3.778-.724a7 7 0 0 1-1.331-.672c-.884-.57-.707-1.761.272-2.201.217-.103.476-.156.733-.077.421.13.843.285 1.197.44.815.284 1.617.492 2.513.596 1.223.103 2.419 0 3.615-.441 1.453-.517 2.853-1.189 4.157-1.915.368-.181.707-.363 1.074-.517 1.006-.389 1.984.312 1.861 1.346-.054.258-.122.465-.353.646-.246.207-.502.44-.789.622-1.629.932-3.302 1.734-5.108 2.355a11.9 11.9 0 0 1-4.063.542m16.263 20.057c-.067-.026-.556-.051-.977-.207-1.4-.44-2.841-.57-4.267-.595-.707 0-1.467-.027-2.229-.054-2.107-.155-3.94-.983-5.517-2.355-.217-.181-.217-.516 0-.724.177-.156.354-.233.517-.31.218-.103.42-.026.57.103a3 3 0 0 1 .395.44c1.141 1.553 2.731 2.044 4.702 1.89 1.046-.079 2.05-.233 3.056-.543.325-.079.666-.157 1.018-.285.45-.155.937-.155 1.453-.026.992.285 1.999.312 2.937 0 .57-.232 1.167-.155 1.78-.051.937.206 1.861.363 2.745.542 1.032.26 2.078.26 3.165.233 1.249 0 2.284-.516 3.139-1.397.272-.258.517-.543.788-.828.122-.128.421-.156.558-.077.528.233.651.828.203 1.164-1.63 1.269-3.439 2.044-5.572 2.2-.76.051-1.522.051-2.241.103-.625.026-1.291.077-1.902.103-.815.051-1.617.155-2.392.414-.502.182-1.032.286-1.929.26m.354 6.082c-.598-.051-1.209-.079-1.794-.182a20.2 20.2 0 0 1-4.239-1.319c-.325-.131-.653-.259-.91-.44-.801-.492-.735-1.657.122-2.123.243-.103.489-.207.762-.128.585.181 1.222.337 1.794.543 1.032.361 2.104.621 3.151.879.76.182 1.508.156 2.215-.026.978-.258 2.011-.543 2.989-.905a9.4 9.4 0 0 1 1.536-.491c.543-.13 1.237.233 1.426.749.218.571.027 1.217-.434 1.502a5 5 0 0 1-.639.361c-1.372.57-2.771 1.061-4.253 1.346-.572.13-1.17.155-1.726.234"/><path fill="#FFC8A0" d="M424.989 227.773c1.223 0 2.186.155 3.194.388.598.156 1.223.389 1.847.543.733.207 1.414.388 2.146.568 1.44.312 2.772.079 3.995-.775 1.168-.828 2.5-1.501 3.885-2.044a14 14 0 0 1 3.125-.906c.856-.13 1.713-.155 2.529.051.57.156 1.005.44 1.303.88.354.466.462.959.218 1.475a5.1 5.1 0 0 1-1.005 1.399 17.5 17.5 0 0 1-2.583 2.148 90 90 0 0 1-5.163 3.21c-1.984 1.112-3.913 2.353-5.871 3.622-1.113.699-2.009 1.553-2.826 2.51-1.114 1.372-2.336 2.615-3.572 3.857-2.297 2.33-4.688 4.658-7.011 6.988a161 161 0 0 0-6.753 7.039c-1.453 1.578-2.798 3.182-4.009 4.968-.474.647-.881 1.371-1.263 2.072-.408.698-.597 1.396-.679 2.173-.162 1.657-.162 3.313-.054 4.996.271 5.563 1.576 10.972 3.328 16.278 1.427 4.399 2.949 8.773 4.497 13.12 1.957 5.771 3.926 11.541 5.653 17.391 1.684 5.952 3.314 11.93 4.647 17.961 1.128 5.15 2.16 10.3 3.288 15.476.978 4.476 1.957 9.005 2.989 13.482a48 48 0 0 0 1.331 5.126 23.2 23.2 0 0 0 2.418 5.331c1.128 1.837 2.215 3.7 3.262 5.615 1.276 2.199 2.418 4.451 3.261 6.858.312.931.585 1.89.801 2.873.394 1.837.299 3.673-.244 5.486-1.372 4.53-4.143 8.179-8.234 10.843-.666.415-1.372.803-2.105 1.088-1.522.723-3.181.982-4.92.853-2.119-.207-4.212-.673-6.276-1.164-3.412-.828-6.714-1.837-10.028-2.821a42 42 0 0 0-6.087-1.32c-3.928-.57-7.855-1.062-11.713-1.63-2.2-.31-4.456-.621-6.645-.957-2.5-.389-5.012-.75-7.513-1.19-3.479-.621-6.957-1.268-10.436-1.888-8.057-1.553-16.101-3.443-23.995-5.772a91 91 0 0 1-18.467-7.763c-6.113-3.415-12.159-7.221-17.988-11.155-4.58-3.079-9.008-6.236-13.452-9.471-.395-.312-.789-.597-1.128-.934-.203-.155-.177-.491.015-.62.542-.415 1.086-.855 1.63-1.243a52 52 0 0 0 6.317-5.228c3.26-3.157 5.937-6.651 7.961-10.635a35.3 35.3 0 0 0 3.167-9.603c.122-.621.244-1.294.339-1.941a3.6 3.6 0 0 1 .122-.57c.095-.363.327-.673.666-.879.435-.234.911-.44 1.345-.647a3.8 3.8 0 0 1 2.623-.105 69 69 0 0 1 5.231 1.709c3.791 1.552 7.596 3.054 11.414 4.581 4.32 1.76 8.627 3.519 12.975 5.072 2.325.829 4.607 1.553 7.025 2.045.748.128 1.481.18 2.215.128.693-.077 1.209-.465 1.495-1.087.095-.258.163-.543.271-.801.163-.467.409-.571.899-.364a18 18 0 0 1 1.602.778c1.658.879 3.262 1.862 4.81 2.872 4.416 2.795 8.614 5.849 12.718 8.955 7.95 5.978 15.693 12.189 23.289 18.556.462.388.937.828 1.548 1.086.815.361 1.548.258 2.229-.233.843-.621 1.087-1.708.516-2.561-.27-.415-.598-.752-.924-1.113a113 113 0 0 1-9.388-11.93c-2.189-3.236-4.171-6.6-5.775-10.12-.978-2.148-1.82-4.322-2.365-6.625a26 26 0 0 1-.502-3.079c-.313-3.208-.258-6.47-.191-9.679.069-2.926.191-5.901.272-8.825.151-4.399.299-8.825.395-13.224.135-3.287.162-6.522-.027-9.809-.055-.829-.055-1.605-.069-2.433-.026-2.613-.272-5.2-.542-7.815-.232-2.07-.516-4.141-.992-6.16a42 42 0 0 0-1.006-3.596 19.4 19.4 0 0 0-2.338-4.737 390 390 0 0 1-3.641-5.382c-.828-1.192-1.67-2.381-2.432-3.571-1.249-1.941-2.296-3.985-2.948-6.237-.299-1.087-.462-2.225-.244-3.338.244-1.138.815-2.044 1.753-2.77a7.7 7.7 0 0 1 1.916-1.062c.978-.335 2.011-.62 3.043-.777 1.795-.309 3.615-.595 5.436-.879 2.636-.414 5.299-.957 7.772-1.94 1.711-.673 3.233-1.528 4.484-2.745a408 408 0 0 0 6.007-5.615c.95-.88 1.873-1.786 2.879-2.719 1.943-1.837 4.131-3.545 6.358-5.097 2.419-1.657 4.96-3.029 7.786-3.934 1.264-.415 2.569-.724 3.926-.855.49-.052.992-.077 1.238-.077m-122.518 6.417c-.148 2.977-.122 6.134-.42 9.291-.176 1.862-.273 3.727-.421 5.563-.069.829-.191 1.683-.272 2.537-.313 2.589-.583 5.203-.911 7.789-.069.44-.217.906-.339 1.372-.026.156-.299.31-.299.31-.408-.026-.652-.026-.883-.077a35.8 35.8 0 0 0-7.419-.801 4.2 4.2 0 0 1-2.012-.519 151 151 0 0 1-2.554-1.475c-.855-.491-1.685-1.01-2.54-1.501-.666-.414-1.36-.75-2.119-1.036-2.596-.957-5.137-.879-7.718.207-1.06.466-2.052 1.113-3.016 1.735-1.549 1.06-1.154 1.035-2.731.103a26 26 0 0 0-2.175-1.192c-2.689-1.423-5.488-1.94-8.476-1.708-1.482.13-2.868.491-4.241 1.01-1.806.698-3.452 1.655-5.028 2.768-.447.31-.896.622-1.29.905-.15.079-.449-.025-.489-.179-.055-.233-.15-.466-.15-.699-.339-3.829-.612-7.661-.692-11.49-.029-2.277-.123-4.582-.029-6.858.082-1.708.136-3.417.381-5.099.163-1.371.434-2.717.733-4.062 1.291-6.004 2.839-12.034 4.416-17.987 2.757-10.533 5.625-21.066 8.422-31.573.123-.413.246-.828.354-1.268a6 6 0 0 0 .122-1.087c-.026-1.061-.815-1.811-1.928-1.915-.884-.079-1.618.258-2.065 1.087-.246.44-.476.931-.666 1.371-2.093 4.504-4.239 8.929-6.726 13.225-2.146 3.882-4.538 7.712-7.161 11.309-.855 1.242-1.794 2.406-2.731 3.571-1.018 1.243-2.064 2.433-3.233 3.545-1.657 1.63-3.479 2.977-5.502 4.141-3.289 1.863-6.741 3.468-10.178 5.099a2156 2156 0 0 1-13.547 6.262c-5.042 2.328-10.001 4.735-14.837 7.402a103 103 0 0 0-7.732 4.632c-2.296 1.553-4.523 3.261-6.535 5.175-1.644 1.553-2.989 3.288-4.036 5.254-1.33 2.459-2.629 4.917-3.946 7.351a24 24 0 0 1-2.82 4.167c-.633.777-1.305 1.424-2.052 2.069-1.379 1.113-2.922 1.811-4.694 2.072-1.134.155-2.276.207-3.41.155-3.594-.155-6.822-1.217-9.825-3.105-2.336-1.451-4.415-3.21-6.29-5.203a151 151 0 0 1-2.099-2.406 52 52 0 0 1-2.235-2.873c-.619-.855-1.406-1.399-2.493-1.657a77 77 0 0 1-5.321-1.371c-5.448-1.553-10.72-3.572-15.814-5.952-1.155-.545-2.31-1.113-3.397-1.812-.864-.568-1.706-1.165-2.419-1.888-1.91-1.865-2.983-4.116-3.349-6.677a15 15 0 0 1-.196-1.968c-.014-.982-.47-1.655-1.332-2.069-.231-.13-.428-.208-.646-.337a17.3 17.3 0 0 1-5.332-4.295c-.443-.494-.836-1.062-1.197-1.632a4.2 4.2 0 0 1-.632-1.604c-.116-.647.061-1.217.619-1.657a2.57 2.57 0 0 1 1.928-.57c.504.054.978.208 1.435.415 1.072.519 2.126 1.035 3.111 1.708 1.385.906 2.805 1.786 4.171 2.717 2.032 1.372 4.178 2.614 6.326 3.829 1.758 1.037 3.633 1.735 5.604 2.305a50 50 0 0 0 7.282 1.501c2.568.388 5.137.724 7.706 1.036 1.072.155 2.173.258 3.266.31 3.078.13 6.176.337 9.254.363 2.351 0 4.681-.157 7.031-.337 1.258-.079 2.568-.285 3.818-.543a15 15 0 0 0 4.558-1.735 73 73 0 0 0 7.833-5.486c3.152-2.459 6.114-5.124 8.967-7.945 3.548-3.495 7.094-7.039 10.626-10.585a499 499 0 0 1 22.745-21.635 1573 1573 0 0 0 17.896-16.123c3.26-2.924 6.507-5.9 9.592-8.981.49-.491.977-.982 1.44-1.475a29.7 29.7 0 0 0 3.682-4.632c.843-1.294 1.685-2.588 2.542-3.883 1.209-1.76 2.459-3.442 3.859-5.097a36 36 0 0 1 2.852-2.899c1.876-1.76 4.172-2.873 6.755-3.389 3.966-.777 7.839-.519 11.643.801 1.033.31 2.038.803 2.963 1.319 1.67.932 3.002 2.175 3.966 3.779a91 91 0 0 1 5.844 11.388c2.568 6.08 5.122 12.24 7.445 18.45a202 202 0 0 1 7.242 23.888 183 183 0 0 1 2.052 10.196c.423 2.33.734 4.684 1.032 7.039.151 1.192.327 2.356.449 3.546.15 1.476.313 2.924.368 4.4.176 3.493.339 7.013.298 10.507-.028.39-.028.754-.028 1.373m-46.182 259.494c.217-1.784.421-3.597.624-5.382.177-1.45.435-2.924.461-4.4.029-.31.029-.672.029-.983.067-1.447-.273-2.846-.829-4.141-1.577-3.57-3.071-7.116-4.58-10.687a475 475 0 0 0-3.03-6.522c-.992-2.251-2.241-4.426-3.519-6.574-1.495-2.509-3.438-4.632-5.829-6.418-2.311-1.708-4.905-3.053-7.637-4.141-3.084-1.215-6.29-2.097-9.523-2.821a219 219 0 0 0-9.865-1.76c-4.81-.777-9.634-1.526-14.443-2.355-7.582-1.268-15.069-3.054-22.488-5.175-8.955-2.563-17.833-5.384-26.692-8.257-3.92-1.268-7.819-2.535-11.782-3.675-2.057-.595-4.116-1.139-6.236-1.422a3.5 3.5 0 0 0-.739-.105c-1.549-.128-3.051-.258-4.627-.362a59 59 0 0 1-5.198-.466 159 159 0 0 1-4.734-.672 37.6 37.6 0 0 1-6.495-1.579c-2.011-.698-3.749-1.734-5.245-3.184-2.383-2.251-4.014-4.944-4.998-7.945-.632-1.992-1.013-3.985-.919-6.055.103-1.63.537-3.184 1.549-4.53 1.114-1.527 2.331-2.975 3.71-4.269a131 131 0 0 1 3.241-2.95c1.514-1.397 3.056-2.719 4.593-4.062 1.541-1.399 2.988-2.797 4.374-4.323a335 335 0 0 1 30.944-29.659c5.28-4.451 10.782-8.566 16.482-12.498a81 81 0 0 1 12.854-7.247 109 109 0 0 1 4.05-1.786c.232-.103.489-.128.733-.18.137-.052.368.155.34.309-.04.233-.069.492-.108.698a53 53 0 0 1-.653 2.2c-1.018 3.521-1.969 7.066-2.69 10.662-.287 1.32-.502 2.717-.462 4.09 0 .312 0 .673.069.983.163.673.516 1.113 1.209 1.294.557.156 1.074.156 1.644.103.992-.128 1.956-.362 2.908-.621 2.255-.621 4.43-1.423 6.618-2.252 3.409-1.293 6.766-2.742 10.135-4.141 2.948-1.268 5.911-2.56 8.872-3.777 2.826-1.141 5.598-2.226 8.425-3.364.733-.285 1.466-.494 2.227-.725.856-.233 1.725-.181 2.514.181.462.208.924.415 1.318.648.87.516 1.617 1.113 2.378 1.708.447.361.72.801.815 1.345.191 1.346.49 2.692.801 4.037 1.197 4.969 3.438 9.498 6.74 13.483.244.259.421.543.611.829.136.13.082.388-.041.517-.081.052-.148.156-.231.207-.191.155-.38.285-.585.44-6.059 4.193-12.323 8.152-18.804 11.8-5.68 3.185-11.617 5.875-17.69 8.309-7.121 2.821-14.376 5.356-21.659 7.711-10.34 3.339-20.781 6.341-31.292 9.084-.447.103-.883.207-1.298.361-1.63.622-1.719 2.64-.495 3.52.284.206.57.337.936.363a7 7 0 0 0 1.787-.157c3.525-.801 7.134-1.319 10.72-1.784 3.772-.44 7.549-.673 11.338-.752a67 67 0 0 1 6.862.208c2.473.207 4.947.568 7.338 1.268a31 31 0 0 1 4.836 1.863 135 135 0 0 1 6.358 3.443c6.373 3.724 12.733 7.478 19.132 11.154 4.836 2.82 9.769 5.537 14.824 7.996 3.287 1.553 6.616 3.08 10.121 4.218 1.591.543 3.193 1.036 4.879 1.397 1.739.389 3.478.57 5.325.543 1.998-.025 4.091-.077 6.116-.258a70 70 0 0 1 9.862-.079c1.331.079 2.636.363 3.914.752.666.232 1.304.516 1.876.905 1.603 1.062 2.389 2.484 2.295 4.348-.067 1.294-.366 2.537-.829 3.753a111 111 0 0 0-1.861 4.813c-.666 1.657-1.304 3.364-1.74 5.126a18.5 18.5 0 0 0-.542 4.813c0 1.192.244 2.356.707 3.442.748 1.839 1.508 3.65 2.188 5.461.489 1.113.95 2.279 1.412 3.417.789 1.992 1.359 4.012 1.658 6.082.462 3.39.246 6.704-.937 9.964-.841 2.225-2.079 4.192-3.682 5.977-.707.752-1.399 1.501-2.079 2.226-.394.413-.76.828-1.073 1.217-.869 1.01-1.455 2.148-1.699 3.443a19.3 19.3 0 0 1-1.984 5.64c-.162.337-.394.673-.61.985-.123.155-.3.258-.435.388a1.1 1.1 0 0 1-.748.103c-.666-.208-1.209-.648-1.495-1.294-.177-.389-.339-.803-.38-1.19a16 16 0 0 1-.242-2.848"/><path fill="#EBB432" d="M354.877 342.651v.983c-.026.284-.353.543-.61.518 0 0-.299 0-.476-.027-.965-.258-1.997-.491-3.003-.802-1.63-.517-3.287-1.113-4.932-1.655-.204-.079-.368-.156-.543-.234-.244-.13-.42-.309-.475-.542a27 27 0 0 1-.165-1.423c-.108-1.501-.312-3.003-.556-4.504-.49-3.389-1.331-6.728-2.459-9.989-1.481-4.426-3.398-8.671-5.923-12.682-.246-.363-.49-.75-.707-1.087a4 4 0 0 0-.381-.465 1.35 1.35 0 0 0-1.223-.337c-.489.155-.816.517-.883 1.035-.054.182 0 .388.066.543.204.414.423.777.627 1.113 3.966 6.264 6.522 12.992 7.934 20.134.327 1.578.543 3.184.762 4.788.095.517.081 1.062.081 1.553 0 .207-.325.388-.571.31-.203-.025-.394-.103-.57-.156-1.386-.57-2.841-1.139-4.267-1.708-.189-.077-.381-.155-.543-.259a.92.92 0 0 1-.516-.673 1.8 1.8 0 0 1-.122-.517c-.15-2.614-.639-5.175-1.264-7.712-1.821-7.195-4.851-13.82-9.185-20.005-.299-.44-.597-.854-.939-1.241-.148-.182-.353-.363-.501-.519-.38-.284-.992-.258-1.415 0-.461.31-.678.777-.516 1.217.082.182.137.389.259.543.136.258.368.57.556.828 4.715 6.574 7.894 13.794 9.648 21.584.272 1.243.476 2.535.626 3.778.027.285 0 .596 0 .854 0 .155-.272.337-.449.312-.122-.027-.204-.027-.285-.079-1.251-.491-2.5-.983-3.71-1.501-.57-.207-.843-.647-.924-1.19a51 51 0 0 0-.937-4.477c-.775-3.157-1.713-6.236-3.003-9.213-1.006-2.381-2.269-4.658-3.928-6.729-.095-.157-.189-.285-.298-.44-.096-.182-.122-.363 0-.545.203-.335.38-.647.611-.983a10.4 10.4 0 0 0 1.495-3.233c.217-.803.244-1.684.299-2.537a48 48 0 0 0-.082-5.254 27.5 27.5 0 0 1 .122-4.839c.232-1.708.87-3.208 2.024-4.504.232-.233.504-.465.775-.699.148-.181.394-.233.638-.233.299.027.611.052.884.131 1.372.388 2.649.905 3.844 1.552a26.5 26.5 0 0 1 4.879 3.52c1.576 1.371 3.015 2.898 4.348 4.53 3.792 4.632 6.59 9.755 8.683 15.319 1.658 4.374 2.975 8.825 4.212 13.329.978 3.701 1.834 7.374 2.514 11.127.231 1.219.394 2.435.474 3.392m-163.046-3.934c.217-3.235.924-6.392 1.956-9.471 1.345-4.064 3.179-7.869 5.462-11.542.246-.363.517-.777.762-1.217.081-.155.163-.337.246-.519.216-.749-.232-1.422-1.061-1.552a1.05 1.05 0 0 0-.571.103 1.7 1.7 0 0 0-.598.44c-.244.259-.462.57-.678.906-2.949 4.658-5.273 9.575-6.714 14.854-.583 2.097-1.06 4.244-1.304 6.392-.136 1.164-.136 2.277-.191 3.443-.081 1.345.055 1.397-1.412 1.966-2.038.777-4.105 1.528-6.195 2.07-.45.103-.884.156-1.319.234-.327.025-.612-.208-.612-.494.041-.516.055-1.035.136-1.552.298-1.916.72-3.804 1.197-5.72a235 235 0 0 1 6.358-20.445c.108-.31.244-.62.38-.931.136-.285.38-.44.706-.465.572-.052 1.183-.052 1.794-.052 2.392 0 4.729-.284 7.094-.828a33 33 0 0 0 7.934-2.873 15 15 0 0 1 1.346-.595l.259.077c.054.077.093.206.054.258a7 7 0 0 1-.436.906c-2.377 4.09-4.224 8.359-5.624 12.837a50 50 0 0 0-1.931 8.487c-.189 1.113-.243 2.251-.379 3.389-.027.233-.027.441-.041.701-.054.414-.298.698-.666.905a1 1 0 0 0-.246.13c-1.548.647-3.096 1.268-4.673 1.915-.191.079-.354.13-.545.208-.148.025-.419-.13-.461-.285-.055-.208-.108-.388-.108-.57.012-.358.052-.746.081-1.11m131.62 90.606c-2.365.026-4.7-.131-7.12-.519-1.058-.181-2.093-.465-3.151-.777-.396-.13-.844-.259-1.278-.363 0 0-.327.052-.395.156a7 7 0 0 0-.325.803 19 19 0 0 1-1.834 4.062c-.762 1.269-1.645 2.563-2.841 3.599-.136.13-.313.233-.489.361l-.408-.052c-.055-.076-.15-.155-.203-.206a1.7 1.7 0 0 1-.246-.363c-2.093-4.322-4.904-8.229-7.963-11.982-1.916-2.328-3.872-4.607-5.815-6.884a105 105 0 0 1-2.65-3.053 232 232 0 0 1-1.725-2.33c-.163-.233-.246-.519-.34-.803-.093-.337.272-.699.612-.621.38.103.788.207 1.142.361.802.31 1.617.673 2.418 1.087 3.695 1.89 7.486 3.804 11.21 5.72 2.079 1.087 4.212 2.097 6.318 3.184 1.997 1.01 4.143 1.294 6.358 1.086 1.357-.155 2.786-.283 4.184-.388 1.319-.103 2.677.026 3.995.284a5.6 5.6 0 0 1 2.595 1.243c.545.466 1.061.932 1.508 1.423.964 1.113 1.685 2.355 2.241 3.701.055.182.082.389.123.57 0 .077-.123.31-.123.31-.285.079-.489.13-.679.13-1.682.235-3.407.261-5.119.261m3.192-143.373c-1.969 0-3.627-.57-5.163-1.578-.312-.234-.339-.597-.04-.829.299-.259.585-.519.91-.752 3.383-2.614 6.78-5.33 10.069-8.075 7.404-6.21 14.632-12.732 21.372-19.667 1.426-1.45 2.8-2.95 4.226-4.425.285-.312.557-.673.951-.855.081-.052.177 0 .272.026l.069.077c-.163.545-.285 1.061-.462 1.553-1.807 5.15-4.416 9.86-7.894 14.13-3.656 4.581-7.622 8.851-11.93 12.914-1.548 1.425-3.111 2.821-4.783 4.088-.788.597-1.603 1.139-2.404 1.684-.707.465-1.453.853-2.255 1.138-1.009.364-1.986.571-2.938.571m-115.247-1.502c-.026.752-.081 1.423-.339 2.019a2.1 2.1 0 0 1-.34.647.88.88 0 0 1-.638.361c-.502.052-1.006 0-1.508-.103-1.414-.284-2.881-.57-4.374-.853-2.366-.466-4.757-1.01-7.121-1.45a34.3 34.3 0 0 0-7.445-.57c-5.612.207-11.251.363-16.876.182a40 40 0 0 1-5.801-.571c-2.045-.337-3.873-1.138-5.517-2.355-1.182-.828-2.024-1.941-2.296-3.364-.027-.13 0-.284 0-.414.007-.156.258-.389.258-.389.284.026.449.052.585.079 2.527.621 5.088.983 7.63 1.32 2.072.258 4.136.517 6.229.698 2.474.233 4.946.414 7.473.388 3.723 0 7.433 0 11.196.079 2.8.025 5.64.155 8.506.233 1.305.077 2.554.337 3.805.673 1.847.44 3.586 1.087 5.352 1.76 1.234.492 1.221.906 1.221 1.63m56.428-21.325c-.04.622-.191 1.113-.543 1.528-.462.595-1.047.879-1.834.698a9 9 0 0 1-1.537-.543c-.474-.155-.895-.388-1.331-.57a12.4 12.4 0 0 0-2.418-.724c-.896-.13-1.725 0-2.446.439-.53.26-1.032.571-1.455.959a12.7 12.7 0 0 0-2.485 2.51c-.843 1.138-1.739 2.277-2.595 3.442-2.107 2.796-4.485 5.331-7.296 7.531-1.523 1.217-3.058 2.562-4.619 3.804a30 30 0 0 1-2.337 1.734c-.585.441-1.264.57-1.971.466-1.617-.259-2.786-.983-3.37-2.485-.353-.879-.122-1.68.516-2.381.178-.233.449-.388.667-.57.312-.206.611-.413.951-.62 4.021-2.408 7.609-5.28 10.884-8.464a24 24 0 0 0 2.581-2.795 134 134 0 0 1 2.649-3.208c.951-1.113 2.012-2.123 3.152-3.08a12.8 12.8 0 0 1 2.786-1.863c3.328-1.709 6.534-1.32 9.619.517 1.183.698 1.997 1.735 2.337 3.055.055.208.067.466.095.62m-55.287 38.018c0 .75-.191 1.32-.461 1.811-.191.259-.381.543-.585.829-3.221 3.959-7.242 6.729-12.297 8.151-.952.261-1.93.415-2.908.57-.87.13-1.685.027-2.514-.207-.475-.155-.748-.491-.87-.931a1.85 1.85 0 0 1-.04-1.113c.108-.466.231-.931.408-1.397 1.237-3.52 3.166-6.728 5.625-9.628 1.711-1.992 3.615-3.778 5.802-5.304.61-.466 1.318-.828 2.024-1.217.49-.259.977-.415 1.493-.519.598-.102 1.101.052 1.523.44.516.467.855 1.01 1.114 1.657.678 1.501 1.086 3.028 1.385 4.632.081.519.163 1.062.191 1.578.083.26.083.545.11.648m119.882-63.199s.148 0 .299.026c3.763.31 7.527.182 11.358.027a59 59 0 0 1 2.365-.105c.299 0 .611.284.598.545 0 .31 0 .595-.11.854-.285 1.061-.883 1.992-1.711 2.793-.801.752-1.685 1.45-2.595 2.123-.612.415-1.237.829-1.821 1.268a8 8 0 0 0-.856.804 2.95 2.95 0 0 0-.652 1.682c-.081 1.113-.177 2.174-.231 3.287-.069 1.682-.123 3.39-.285 5.098-.232 1.967-.693 3.83-1.549 5.615a44 44 0 0 1-3.478 6.133c-.108.157-.259.312-.381.466-.095.103-.217.182-.365.103-.096-.025-.192-.103-.192-.103-.148-.337-.244-.595-.298-.906-.557-2.535-1.142-5.097-1.589-7.66-.096-.647-.151-1.293-.219-1.966-.122-1.243 0-2.484.45-3.625.489-1.32.965-2.613 1.452-3.933a20.7 20.7 0 0 0 1.157-4.088c.15-.855.026-1.581-.408-2.33-.572-.931-1.21-1.837-1.768-2.796-.313-.517-.583-1.035-.829-1.5a2.9 2.9 0 0 1-.231-1.425c.027-.156.244-.389.244-.389.598.002 1.06.002 1.645.002m-131.241 97.93c.258-2.072.543-4.141 1.02-6.186 1.48-6.52 4.076-12.603 7.622-18.297a.56.56 0 0 1 .176-.233c.572-.749.612-1.475.069-2.276-.136-.156-.04-.388.096-.517.203-.207.42-.389.651-.57a35.7 35.7 0 0 0 4.58-4.684c.163-.233.366-.44.543-.647a.396.396 0 0 1 .624.13c.055.128.137.258.137.414a23.2 23.2 0 0 0 3.124 6.729c.15.258.327.466.462.724.177.258.232.519 0 .777-2.284 3.028-3.586 6.418-4.7 9.938-.939 3.003-1.725 6.055-2.229 9.134-.014.208-.081.364-.108.57-.177 1.087-.244 1.165-1.345 1.605-.421.206-.829.363-1.265.517-.174.077-.379.077-.582.128-.165.027-.436-.179-.436-.309 0 0-.014-.207 0-.31.965-5.254 2.148-10.508 3.926-15.58.638-1.811 1.319-3.597 2.189-5.305.449-.855.936-1.683 1.372-2.537.148-.233.298-.491.421-.752.177-.516-.15-1.215-.693-1.422-.572-.181-1.169-.052-1.508.363-.34.44-.626.828-.884 1.293-1.141 1.89-2.024 3.961-2.785 6.004-1.195 3.132-2.107 6.418-2.949 9.679a119 119 0 0 0-1.725 8.36c-.096.465-.136.931-.231 1.422-.069.389-.273.699-.681.855-1.412.619-2.826 1.215-4.239 1.811-.285.128-.624-.079-.652-.415z"/><path fill="#EBB432" d="M240.188 287.839c.243.44.42.803.638 1.165a3.34 3.34 0 0 0 1.331 1.345c.788.44 1.522.803 2.296 1.217.177.103.354.233.476.363 0 0 .04.232 0 .258a3.3 3.3 0 0 1-.638.337c-1.278.44-2.583.725-3.9.932-1.617.258-3.233.388-4.891.309a15 15 0 0 1-2.949-.361c-2.16-.388-4.103-1.268-5.706-2.614-2.052-1.605-3.192-3.65-3.301-6.159-.015-.906-.015-1.786-.015-2.719.069-3.26 1.264-6.185 3.587-8.669a24.1 24.1 0 0 1 5.68-4.555 15 15 0 0 1 5.394-1.967c1.032-.182 2.079-.285 3.139-.44a4.2 4.2 0 0 1 1.768.13c.461.156.583.57.272.983-.082.051-.151.155-.218.182a4 4 0 0 1-.421.413c-.666.492-1.305 1.036-2.024 1.451-1.725 1.164-3.451 2.25-5.192 3.39-.706.44-1.399.879-2.104 1.344-1.006.752-1.984 1.553-2.841 2.486-.572.595-1.088 1.243-1.482 1.993-.883 1.552-1.003 3.235-.487 4.968.447 1.475 1.397 2.588 2.785 3.415.991.622 2.065 1.01 3.329 1.035 1.345.054 2.716.105 4.021-.18.421-.103.882-.182 1.453-.052m50.924 146.479c-.176-.079-.365-.105-.42-.182a9.4 9.4 0 0 1-.72-1.243c-1.278-2.381-2.554-4.813-3.858-7.22a64 64 0 0 0-6.767-10.378c-1.005-1.319-2.134-2.588-3.424-3.726a18.4 18.4 0 0 1-2.146-2.356c-2.446-3.182-4.552-6.599-6.1-10.247-.436-1.062-.83-2.097-1.157-3.236-.272-.957-.243-1.863.151-2.795.203-.491.476-1.01.76-1.527.081-.181.246-.284.423-.414.054-.026.188 0 .271.026.34.207.435.595.611.931 1.537 2.742 3.044 5.461 4.567 8.152.352.724.773 1.45 1.167 2.148 1.522 2.432 3.329 4.659 5.491 6.522a36 36 0 0 1 5.475 6.004c.924 1.243 1.781 2.484 2.717 3.753 1.223 1.681 1.971 3.571 2.366 5.615.379 1.811.664 3.65.692 5.486 0 .725.096 1.425.123 2.123 0 .622 0 1.241-.027 1.863-.003.234-.127.44-.195.701M150.511 286.856c1.617.051 3.016.413 4.383.905.4.181.768.414 1.162.621.414.259.821.543 1.237.777 1.371.801 2.826.88 4.273.258.414-.181.821-.362 1.202-.595 1.604-.906 3.349-1.294 5.245-1.397 5.625-.285 11.237-.31 16.862-.492.516 0 1.005.027 1.495.027 0 0 .162.128.217.207 0 0 .027.206-.055.258-.095.155-.244.284-.38.414a30 30 0 0 1-3.505 2.174 7.7 7.7 0 0 1-3.56.931c-1.345 0-2.69.052-4.049.052a23 23 0 0 0-4.416.492c-1.731.361-3.316 1.035-4.777 1.94a30 30 0 0 0-3.247 2.484 55 55 0 0 0-5.517 5.59 8.4 8.4 0 0 1-.91.983c-.102.13-.429.052-.475-.128-.081-.312-.197-.648-.252-.983-.917-4.633-2.684-8.981-5.204-13.043a13 13 0 0 1-.565-1.01c-.081-.155.096-.44.266-.44.251-.025.488-.025.57-.025m130.208-20.782c1.25.052 2.282.465 3.235 1.062.298.155.516.44.719.698.244.31.395.673.638.983.667 1.088 1.331 2.226 2.078 3.261.409.621.858 1.192 1.305 1.734.586.647 1.304 1.165 2.065 1.605a21.7 21.7 0 0 0 3.655 1.604c.476.128.912.31 1.4.465a3.57 3.57 0 0 1 1.725 1.139c.667.75 1.197 1.605 1.508 2.588.123.389.206.801.206 1.241 0 .389-.096.777-.327 1.062-.244.284-.476.595-.748.855-1.332 1.214-2.758 2.251-4.238 3.182-.082.051-.177.077-.177.077-.246.13-.545 0-.545-.181-.04-.363-.069-.752-.095-1.139a9.6 9.6 0 0 0-.42-2.51c-.517-1.786-1.74-2.898-3.642-3.415a16.2 16.2 0 0 0-3.384-.519c-.855-.051-1.698-.051-2.525-.051-.992 0-1.958-.182-2.923-.44a22 22 0 0 1-3.505-1.243 10.6 10.6 0 0 1-2.134-1.32c-.42-.337-.57-.75-.516-1.268a2.3 2.3 0 0 1 .163-.672c.476-1.269 1.088-2.459 1.876-3.546a.7.7 0 0 1 .244-.206c.095-.027.299-.105.394-.027.272.103.49.285.733.466.748.517 1.468 1.087 2.229 1.63.299.181.611.337.91.491.34.182.667.207 1.033.207.284-.025.53-.284.557-.595a2.46 2.46 0 0 0-.177-1.113c-.327-.777-.706-1.578-1.046-2.355-.339-.777-.733-1.553-1.074-2.33a2.2 2.2 0 0 1-.176-.698c-.067-.285.244-.673.583-.701.151-.021.3-.021.396-.021"/><path fill="#EBB432" d="M282.77 264.185c-.285-.026-.788-.052-1.264-.103a30 30 0 0 0-1.371-.131c-1.007-.102-1.849.208-2.596.777-1.359 1.062-2.433 2.279-3.165 3.779-.3.647-.571 1.294-.843 1.967-.476 1.139-.98 2.277-1.442 3.415-.516 1.268-1.276 2.381-2.159 3.39a28 28 0 0 1-2.65 2.691c-.366.364-.801.57-1.318.596-2.446.13-4.879.259-7.324-.026-.108-.026-.231-.051-.231-.051-.095-.103-.189-.182-.189-.258l.04-.261c.122-.128.203-.233.299-.337.191-.155.394-.284.598-.413a25.7 25.7 0 0 0 5.937-6.316c.598-.853 1.114-1.682 1.672-2.535 1.02-1.605 2.024-3.184 3.166-4.659 1.156-1.5 2.404-2.949 3.749-4.217a14.2 14.2 0 0 1 2.487-1.891c.952-.542 1.956-.904 3.03-.982 1.603-.103 3.085.103 4.538.698.449.208.815.491 1.222.803.519.414.816.957.939 1.579.191.931-.272 1.837-1.195 2.25-.502.183-.965.287-1.93.235m18.127 143.268c-1.128-.025-2.691 0-4.322-.076-2.27-.13-4.551-.312-6.808-.777a11.2 11.2 0 0 1-4.183-1.786c-1.428-.983-2.664-2.175-3.764-3.443-1.006-1.138-1.63-2.355-1.888-3.804-.218-1.138-.258-2.302-.191-3.415.027-.182.041-.389.095-.543.096-.492.394-.803.884-.906.244-.052.502-.103.719-.128.844 0 1.685 0 2.515.025.365 0 .664.13.883.415.243.309.475.619.693.956.719 1.061 1.589 2.07 2.499 3.029a15.7 15.7 0 0 0 4.661 3.286c4.457 2.07 8.996 4.037 13.534 5.953.461.181.924.414 1.331.646 0 0 .108.157.108.233l-.108.182c-.368.051-.653.079-.966.103-1.752-.001-3.465.025-5.692.05m17.879-102.844c0 1.526-.231 3.028-.652 4.502-.258.985-.802 1.839-1.563 2.563a16.8 16.8 0 0 1-4.619 3.106 5.2 5.2 0 0 1-3.478.258 15.4 15.4 0 0 1-5.001-2.509 4 4 0 0 1-.516-.519c-.191-.258-.258-.543-.095-.828.177-.337.394-.673.611-.983.299-.415.612-.855.937-1.268.49-.725.585-1.45.272-2.305-.354-1.035-.693-2.07-1.032-3.105a12 12 0 0 1-.447-1.501 3.4 3.4 0 0 1 0-1.397 1.15 1.15 0 0 1 1.086-.854c.299 0 .585.025.856.103.366.128.76.285 1.114.465a7.9 7.9 0 0 1 2.975 2.899c.543.982.693 2.018.232 3.028-.368.802-.722 1.553-1.087 2.33-.218.491-.462.931-.585 1.475-.054.233.189.595.408.673.15.051.299.103.449.13 1.032.128 2.064-.054 3.03-.466.353-.103.596-.337.786-.622.639-1.086 1.087-2.224 1.142-3.519a2.9 2.9 0 0 0-.203-1.372c-.313-.828-.585-1.655-.939-2.407-.556-1.371-.556-2.691-.04-4.036.217-.519.408-1.061.638-1.579.095-.182.517-.31.679-.182.231.105.423.233.598.389 1.072.777 2.024 1.655 2.963 2.614.881.959 1.397 2.072 1.48 3.364.015.492.001 1.009.001 1.553m-116.43-15.061c-.026.179-.055.337-.148.439-.191.285-.38.543-.612.803-1.046 1.217-2.256 2.277-3.574 3.208a5 5 0 0 1-1.983.959c-6.468 1.629-12.649 4.062-18.642 6.832-.583.31-1.154.543-1.753.803 0 0-.163-.026-.272-.052-.136-.026-.136-.207-.082-.363l.082-.13s.055-.076.082-.128c1.521-2.044 3.098-4.037 4.905-5.901 2.975-3.131 6.563-5.487 10.584-7.298a10.43 10.43 0 0 1 5.844-.777c1.005.128 2.064.156 3.07.414.624.156 1.25.312 1.849.519.202.051.38.181.502.309.093.102.122.259.148.363m30.722 16.407c0-.932.095-1.683.285-2.459.325-1.164.788-2.33 1.453-3.389.925-1.528 2.256-2.641 3.968-3.288 1.25-.439 2.5-.801 3.749-1.008 2.146-.337 4.349-.621 6.468-.932.788-.103 1.63-.181 2.418-.337a10.6 10.6 0 0 0 3.574-1.293 40 40 0 0 0 2.487-1.579c.624-.414 1.237-.778 1.928-1.061 1.129-.519 2.244-.492 3.302.103a12.2 12.2 0 0 1 2.5 1.76c.137.103.246.285.313.465.055.052 0 .182-.027.259-.148.259-.434.363-.693.492-1.942.956-3.913 1.862-5.964 2.613-1.495.621-3.085.985-4.755 1.217-2.569.363-5.231.724-7.798 1.112-.79.131-1.577.312-2.352.519-1.278.285-2.323.932-3.247 1.863-.992 1.087-1.943 2.174-2.812 3.339-.53.749-1.101 1.422-1.713 2.148-.394.414-.856.801-1.264 1.217-.136.077-.257.155-.408.232-.339.182-.855.052-1.046-.232-.081-.208-.231-.44-.246-.673a9 9 0 0 1-.12-1.088"/><path fill="#EBB432" d="M259.373 283.647c.828.025 1.685.025 2.54.077a5.8 5.8 0 0 1 2.923.88c.95.57 1.887 1.113 2.771 1.708 1.739 1.268 3.479 2.51 5.177 3.882 3.478 2.822 7.132 5.487 10.884 8.024.487.31 1.046.62 1.411 1.138.055.052 0 .182 0 .182s-.04.155-.093.182l-.095.025c-.246 0-.45.026-.639 0-1.753-.285-3.506-.647-5.23-1.217-1.604-.57-3.154-1.346-4.485-2.484-2.5-2.148-5.218-4.115-7.895-6.03a24 24 0 0 0-3.789-2.276c-.394-.182-.843-.364-1.209-.545-1.508-.647-3.112-.724-4.689-.414-.964.182-1.956.465-2.879.802-1.087.44-2.227.803-3.328 1.164-1.02.389-2.053.571-3.016.673-1.346.131-2.514-.258-3.466-1.112-.217-.207-.217-.596.029-.777a11 11 0 0 1 2.432-1.423c1.48-.621 3.03-1.164 4.687-1.475a53 53 0 0 1 7.959-.984m-37.297 45.572s0-.233.082-.465c.434-2.044.87-4.064 1.617-6.055.557-1.527 1.223-3.001 2.133-4.374.148-.259.299-.517.394-.75.217-.492.069-.959-.299-1.32-.366-.337-.801-.388-1.278-.258a1.15 1.15 0 0 0-.489.337 9 9 0 0 0-.855 1.138c-.598.982-1.088 2.044-1.522 3.054-.979 2.381-1.713 4.788-2.175 7.245-.08.389-.189.752-.217 1.141-.054.802-.542 1.164-1.304 1.32-.516.13-1.033.284-1.549.44-.217.025-.516-.207-.516-.44.027-.182 0-.389.054-.545.801-4.192 1.821-8.255 3.533-12.163.531-1.189 1.101-2.355 1.807-3.443.204-.309.423-.568.612-.828.108-.103.435-.155.571-.077.135.128.325.233.462.337 1.303 1.061 2.771 1.864 4.334 2.589.977.465 2.064.879 3.098 1.345.34.13.639.284.925.439.162.054.243.337.162.494-.191.388-.381.777-.624 1.138a35.5 35.5 0 0 0-4.172 8.773c-.189.698-.38 1.397-.583 2.045-.123.414-.219.854-.368 1.243-.082.232-.421.386-.611.283l-.122-.051c-.897-.465-1.74-.957-2.609-1.397-.409-.236-.531-.548-.491-1.195m69.228-61.592c-.545.025-1.102.077-1.658.077-.545 0-1.033-.052-1.577-.128-.285-.027-.583-.156-.855-.312-.368-.207-.572-.492-.585-.905-.027-.415.067-.752.285-1.113.271-.519.719-.906 1.18-1.243 1.849-1.345 3.995-1.966 6.292-1.76 1.93.131 3.696.777 5.231 1.865 1.304.853 2.31 1.966 2.975 3.312a19.2 19.2 0 0 1 1.385 4.504s.027.181.027.284c.055 1.733.123 3.441-.244 5.098a15 15 0 0 1-.447 1.527 2.5 2.5 0 0 1-.394.595c-.285.415-.897.467-1.291.131a5.5 5.5 0 0 1-.585-.648c-.91-1.163-1.426-2.484-1.522-3.933-.026-.597 0-1.141-.026-1.708-.082-1.141-.368-2.175-.911-3.157-.706-1.192-1.806-1.942-3.288-2.252-1.302-.285-2.607-.285-3.992-.234m25.421 62.965c-1.997-.181-1.902-.052-2.269-1.837-.543-2.484-1.276-4.891-2.432-7.144-.517-.957-1.046-1.837-1.739-2.69-.165-.233-.395-.44-.585-.622-.421-.361-1.06-.388-1.522-.103-.502.337-.693 1.062-.421 1.553.067.128.176.258.244.337 1.74 2.303 2.826 4.891 3.534 7.633.162.648.366 1.294.489 1.967.095.441.095.932.095 1.397.026.466-.693.855-1.114.622a3 3 0 0 1-.624-.389c-3.165-2.873-5.49-6.289-6.671-10.3-.34-1.035-.557-2.095-.708-3.208-.054-.182-.054-.363-.08-.543 0-.648.353-.777.87-.699.651.105 1.344.259 2.036.363a11.5 11.5 0 0 0 4.308-.026c.476-.077.992-.181 1.468-.285.177-.025.461.13.461.285.081.699.423 1.215.843 1.786.76.906 1.331 1.888 1.821 2.923 1.237 2.589 2.174 5.306 3.016 8.024.04.181.014.363.04.568 0 .157-.191.364-.394.389zm-32.84 45.263c-.123.621-.15 1.32-.421 1.941a3.7 3.7 0 0 1-.884 1.139c-.325.31-.76.414-1.222.258a5.7 5.7 0 0 1-1.074-.517c-.638-.44-1.278-.905-1.78-1.501-.91-1.061-1.875-2.07-2.813-3.157-1.276-1.501-2.39-3.106-3.478-4.762-.095-.207-.217-.414-.339-.622-.123-.18 0-.465.244-.543.217-.102.434-.206.693-.284a21.6 21.6 0 0 0 4.728-2.046c.136-.076.258-.155.408-.207.246-.051.516-.051.707.079.272.258.571.492.843.777 1.766 1.888 3.003 4.011 3.873 6.366.299.854.366 1.759.516 2.666.025.129-.001.285-.001.413m2.609-89.232c-.667-.027-1.386-.079-2.093-.13-.693-.026-1.455-.079-2.188-.103-.978-.027-1.862.337-2.568 1.01a73 73 0 0 0-1.523 1.552c-.202.207-.501.284-.8.284-.939 0-1.754-.232-2.487-.829a69 69 0 0 0-2.623-2.095c-.123-.128-.285-.232-.42-.362-.49-.466-.531-1.32-.096-1.839.244-.31.543-.543.855-.75.572-.388 1.197-.646 1.862-.828 1.453-.388 2.948-.647 4.416-.724a14.6 14.6 0 0 1 3.845.284c1.969.414 3.954.957 5.87 1.682.462.233.95.44 1.372.804a.91.91 0 0 1 .093 1.293c-.162.233-.419.388-.705.491-.475.079-.937.182-1.453.233-.435.027-.883 0-1.359 0v.027m-68.085-4.477c.461.051.869.233 1.142.621.217.258.394.568.475.88.218.543.366 1.165.49 1.785.313 1.632.706 3.236 1.467 4.762.095.259.026.466-.15.647-.136.182-.34.337-.531.491-1.617 1.398-2.839 3.055-3.776 4.892q-.185.387-.368.777c-.435.88-.57 1.035-.76.957-.408-.232-.38-.672-.489-1.008-.627-2.484-1.21-4.968-1.468-7.532-.191-1.941.272-3.752 1.304-5.46.299-.467.681-.906 1.197-1.242.435-.337.924-.545 1.467-.57m92.802-2.691c-.108 2.432-.313 4.683-.897 6.908-.217.777-.447 1.579-.855 2.279-.246.439-.815.517-1.264.206-.49-.335-.858-.777-1.046-1.344-.108-.26-.123-.543-.123-.855.015-.31.123-.647.163-.957.122-1.008.148-1.967-.148-2.975a4.4 4.4 0 0 0-.722-1.528c-.298-.361-.339-.777-.217-1.217.069-.388.189-.749.285-1.113.38-1.293.502-2.588.325-3.933-.067-.828-.203-1.604-.271-2.381-.069-.828-.069-1.63.244-2.407.177-.31.38-.543.748-.647a1.27 1.27 0 0 1 1.017.155c.285.207.531.467.679.752.45.75.844 1.5 1.061 2.328.586 2.251 1.021 4.528 1.021 6.729m18.247-9.577c-.027.596-.027 1.165-.081 1.735-.027.956-.394 1.836-1.182 2.509-.598.57-1.183 1.139-1.821 1.683-1.902 1.605-3.873 3.08-5.938 4.53-.15.128-.327.232-.502.337-.368.206-.666.102-.748-.312a50 50 0 0 1-.49-2.509 1.08 1.08 0 0 1 .273-.932c.325-.363.597-.699.951-1.062.924-1.01 1.861-1.967 2.798-3.001 1.78-2.122 3.479-4.323 5.001-6.702.177-.285.38-.545.585-.803.122-.13.461-.079.516.079.122.258.246.516.285.801.272 1.317.353 2.25.353 3.647m-12.731 17.806c.056.621.082 1.19.15 1.811.027.621.354 1.113.87 1.448.285.233.652.44.978.648.299.181.57.362.801.568.339.261.557.57.638.959a3.27 3.27 0 0 1-.026 2.095c-.096.364-.516.673-.844.622-.502-.026-.992-.026-1.453-.156-1.754-.491-3.233-1.346-4.537-2.432a9 9 0 0 1-.694-.752c-.666-.801-.95-1.63-.666-2.64.354-1.113.571-2.225.87-3.337.49-1.916.829-3.883 1.073-5.848.027-.337.11-.673.204-.985 0 0 .095-.181.162-.207 0 0 .204.051.272.079l.204.232c1.018 1.683 1.78 3.494 1.93 5.462.068.803.245 1.605.068 2.433m7.677 44.615c0 .337-.203.519-.203.519-.287-.027-.517 0-.666-.079a57 57 0 0 0-2.093-.801 1.23 1.23 0 0 1-.639-.75l-.366-1.397c-.788-2.822-1.684-5.615-2.921-8.334-.667-1.475-1.455-2.924-2.487-4.218-.259-.31-.516-.647-.789-.983-.122-.155-.108-.44.014-.543.748-.543 1.548-.982 2.406-1.397.15-.052.435 0 .542.13.163.182.368.362.517.543.882 1.086 1.589 2.251 2.201 3.494 1.522 3 2.65 6.159 3.533 9.341.287 1.164.557 2.305.829 3.494.096.413.122.827.122.981m16.67-138.325-.08-1.708c0-.595.08-1.113.325-1.683.462-1.113.911-2.2 1.345-3.312.082-.233.232-.44.354-.621.04-.079.285-.156.368-.13.148.051.298.13.42.182.313.206.638.44.937.672.571.439 1.006 1.036 1.305 1.734.272.673.543 1.397.815 2.123.42 1.086.828 2.225 1.278 3.313.217.542.189 1.035-.096 1.526-.597.959-1.182 1.993-1.78 2.949a.664.664 0 0 1-.775.259c-.231-.102-.447-.206-.664-.31-1.006-.492-1.984-1.035-3.017-1.552-.461-.233-.639-.57-.667-1.01 0-.595-.026-1.164-.04-1.734-.029-.233 0-.492 0-.699zm-234.611 116.51c.87.077 1.455.077 2.052.156.198 0 .401.051.598.103.285.076.531.309.531.621.012.829.012 1.604.012 2.407a.88.88 0 0 1-.409.724c-1.731 1.217-3.45 2.433-5.155 3.622-.272.182-.577.208-.863.182l-.319-.079a279 279 0 0 1-4.192-.905c-.87-.206-1.032-.414-.794-1.319.258-.88.707-1.528 1.473-2.072 1.414-.957 2.82-1.941 4.199-2.949a3.26 3.26 0 0 1 2.227-.57c.321.053.614.079.64.079m167.315 72.23c.027-.13.027-.466.122-.778.176-.646.394-1.268.638-1.887 0 0 .151-.26.217-.389.082-.13.381-.233.545-.156.122.079.27.13.27.13 2.813 1.837 5.273 3.804 7.352 6.212.489.542.87 1.138 1.182 1.811.177.413.217.905.177 1.371-.027.465-.489.88-.939.982-.583.105-1.18.105-1.779-.077-2.664-.802-4.879-2.122-6.671-4.166-.72-.802-1.169-1.759-1.114-3.053m18.56-85.816h1.331c.394 0 .747.156 1.046.414.299.312.613.621.884.957 1.4 1.63 2.677 3.338 3.723 5.15.244.363.449.724.664 1.112.735 1.268.79 2.641.394 3.986-.054.233-.42.363-.582.233a8 8 0 0 1-.992-.855c-1.142-1.112-2.27-2.276-3.424-3.364-2.078-2.095-4.145-4.217-6.372-6.237-.191-.155-.342-.388-.545-.62-.122-.13 0-.44.177-.466 1.087-.207 2.378-.31 3.696-.31m-175.86 2.925c-.232-.027-.79-.027-1.332-.103-1.081-.182-1.536-.753-1.461-1.788.034-.388.102-.75.17-1.113.211-.801.592-1.526 1.23-2.069.264-.208.51-.44.788-.648 1.278-.879 2.656-1.604 4.117-2.251.353-.155.673-.077.971.131.238.179.482.362.707.542.667.492 1.339.932 2.093 1.32.27.13.537.285.747.466.102.077.13.284.102.388-.108.233-.258.388-.434.57-.91 1.01-1.945 1.888-3.05 2.691-.633.439-1.313.854-1.916 1.294-.606.414-1.265.622-1.971.571-.144-.028-.287-.001-.761-.001m190.941 42.829c.408 0 .762-.026 1.101-.026.191 0 .368.259.34.415v.206c-.611 1.45-1.346 2.743-2.323 3.909q-.51.62-1.182 1.087c-.49.337-1.035.543-1.644.517a5.6 5.6 0 0 1-1.603-.207c-1.551-.466-2.949-1.217-4.268-2.044-.272-.182-.542-.414-.815-.622-.148-.103-.243-.388-.148-.516.394-.622.76-1.244 1.183-1.814.093-.155.339-.258.339-.258.774-.025 1.412-.052 2.078-.052 1.672.027 3.317-.181 4.934-.362.691-.051 1.37-.155 2.008-.233m22.556-123.316v2.408c0 .31-.11.57-.327.801-.829.828-1.78 1.579-2.813 2.305-.177.103-.571.051-.693-.103-.162-.285-.394-.57-.556-.855a42 42 0 0 1-1.183-2.097 47 47 0 0 1-.095-2.406c-.027-.777.012-1.501.012-2.303 0-.389.056-.75.231-1.113.436-.673.939-1.423 1.428-2.149l.04-.076c.177-.156.449-.208.624-.103.069.051.165.076.246.128q1.365 1.165 2.691 2.251c.271.233.394.545.394.906zM272.58 376.658c-.041.698-.163 1.294-.545 1.786-.339.44-.95.595-1.466.413-.49-.155-.912-.413-1.306-.724-.706-.622-1.411-1.294-2.118-1.941-.693-.647-1.386-1.372-2.093-2.07a16 16 0 0 0-2.284-1.967c-.095-.105-.217-.207-.312-.31-.151-.131-.177-.389-.029-.517a2 2 0 0 0 .123-.13c.937-.647 1.794-1.295 2.663-1.915.327-.233.639-.285.992-.079 2.134 1.346 3.995 2.977 5.448 5.021.409.57.707 1.243.829 1.915.057.208.057.388.098.518m-137.728-90.346c.258 0 .496 0 .754.051a31 31 0 0 1 2.643.415c.198 0 .368.103.563.182.096.025.157.283.082.388-.061.103-.122.258-.217.362-.543.622-1.088 1.217-1.604 1.863a1.62 1.62 0 0 1-.997.596c-.939.207-1.829.414-2.746.621a67 67 0 0 0-3.926.828c-.801.182-1.604.208-2.377 0-.613-.181-1.298-.155-1.876-.465-.082-.052-.198-.26-.13-.363l.035-.13c.047-.077.089-.181.156-.259.795-.905 1.617-1.811 2.426-2.691.244-.309.591-.466 1.012-.517a336 336 0 0 0 5.326-.829c.285-.001.584-.026.876-.052m196.154-51.216c-.246-.051-.87-.103-1.426-.207-.45-.026-.844-.284-1.114-.648-.192-.283-.394-.568-.531-.879-.285-.724-.53-1.501-.638-2.328-.041-.389-.069-.829-.137-1.243-.054-.466.042-.854.396-1.19 1.032-.985 2.064-1.993 3.15-3.003.069-.051.177-.102.246-.13.095-.051.368 0 .368 0 .148.157.244.285.244.285.244.621.449 1.113.639 1.604.733 1.915 1.44 3.804 2.186 5.72a6.4 6.4 0 0 1 .339 1.087c.027.103-.081.284-.176.361-.15.103-.368.182-.545.233-.651.184-1.969.338-3.001.338M250.27 281.55c-.762.026-1.197-.051-1.617-.233-.992-.414-1.496-1.45-1.074-2.588q.143-.311.368-.621c.611-.906 1.468-1.657 2.54-2.072.693-.335 1.414-.543 2.107-.723 1.725-.337 3.546-.467 5.352-.519.191 0 .368.051.545.103.162.026.339.284.258.415-.067.155-.11.258-.191.388a16.5 16.5 0 0 1-3.574 3.96c-1.06.879-2.188 1.475-3.505 1.733a7 7 0 0 1-1.209.157m5.76-8.229c-.611.025-1.289-.051-1.956-.363-.939-.465-1.155-1.269-.788-2.122.122-.285.325-.518.462-.752.148-.179.325-.361.542-.516 2.092-1.605 4.457-2.408 7.175-2.357.543 0 1.113.103 1.603.364.177.076.325.206.462.309.27.233.421.519.475.88.027.415-.054.829-.299 1.217-.313.543-.787.959-1.303 1.346-1.753 1.242-4.022 1.968-6.373 1.994m92.815-42.106c0-.881.014-1.786 0-2.692 0-.57.218-1.01.653-1.371l.081-.079c1.522-1.396 3.098-2.716 4.606-4.062.204-.155.395-.337.638-.337 0 0 .204.026.244.103.082.13.15.258.177.388.027.441.095.932.069 1.399a71 71 0 0 1-.191 3.389c-.095.985-.476 1.839-1.114 2.589-1.182 1.552-2.663 2.821-4.279 3.96-.055.025-.15.076-.231.103-.218.103-.586-.052-.612-.259a4 4 0 0 1-.041-.57zm-22.433-24.354c-.026-.44-.04-.905-.04-1.371-.027-.517.069-.957.366-1.371.516-.801 1.005-1.63 1.508-2.458.055-.103.122-.156.177-.208.122-.128.394-.207.557-.128.692.361 1.385.854 2.024 1.396.27.233.408.545.461.88.327 1.579.626 3.157.952 4.737.026.181.04.363.026.543-.026.234-.055.492-.203.673-.557.777-1.169 1.501-1.807 2.251-.15.207-.435.233-.667.077-.882-.568-1.794-1.138-2.689-1.733a1.02 1.02 0 0 1-.462-.725c-.082-.57-.096-1.113-.15-1.683-.026-.284 0-.568 0-.88zM147.128 308.698c-.557-.052-1.108-.103-1.644-.182-.251-.025-.421-.233-.496-.491a1.2 1.2 0 0 1-.075-.363c-.015-1.061-.034-2.123-.034-3.132 0-.595.231-1.035.666-1.371.122-.077.244-.155.366-.258 1.386-1.01 2.793-1.993 4.198-2.977.226-.181.49-.31.734-.439.163-.079.449.025.51.18.075.13.148.233.183.389.299 1.294.557 2.614.863 3.882.116.519-.021.957-.394 1.32-.978 1.01-1.93 2.044-2.914 3.028a1.1 1.1 0 0 1-.788.388h-1.175zm90.125 38.741c-1.426-.077-2.568-.103-3.696-.362-.841-.182-1.577-.543-2.133-1.164a8.5 8.5 0 0 1-1.033-1.423c-.543-.959-.882-1.993-1.127-3.055-.027-.233-.027-.466-.055-.724-.014-.337.231-.543.571-.491.095.051.204.051.298.077 2.148.672 4.308 1.372 6.537 2.018.176.079.366.13.543.207.339.13.611.363.76.648.557 1.163 1.156 2.304 1.766 3.468.027.077.027.155.054.232.029.13-.121.337-.121.337-.273.051-.395.13-.395.13-.855.025-1.521.051-1.969.102m80.613 95.496c-.027.233-.027.312-.054.415-.029.13-.246.337-.423.361l-.298.026a139 139 0 0 0-3.098-.207c-.572-.077-1.033-.284-1.427-.699-1.155-1.269-2.325-2.458-3.479-3.726-.054-.027-.054-.079-.054-.079-.246-.285-.3-.517-.069-.802.366-.57.775-1.164 1.25-1.735l.815-1.01c.203-.232.543-.258.815-.103.15.078.272.157.366.259 1.427 1.01 2.827 2.07 4.239 3.105.177.079.328.208.502.337.191.208.395.44.408.725.208 1.114.358 2.175.507 3.133m-55.925-65.371c.027.801-.095 1.551-.475 2.251-.244.491-.53.88-.937 1.241-1.183 1.061-2.76 1.036-3.86-.077-.611-.57-1.017-1.294-1.249-2.095-.366-1.477-.148-2.924.748-4.219a3.06 3.06 0 0 1 1.725-1.295c.489-.155.937-.155 1.453 0a3.04 3.04 0 0 1 1.739 1.269c.624.906.883 1.889.856 2.925m-125.926-62.267c0-.363-.015-.725 0-1.113 0-.414.162-.75.487-1.036.184-.128.394-.285.585-.388a92 92 0 0 1 2.826-2.097c.238-.181.496-.31.749-.465.257-.13.556-.182.869-.079 1.325.337 2.65.752 3.981 1.138 0 0 .054.054.115.078.136.079.246.363.136.491-.061.103-.15.233-.237.364a211 211 0 0 0-4.578 4.45c-.409.389-.87.596-1.435.596-.687.026-1.394.13-2.087.155-1.284.052-1.411-.077-1.426-1.371v-.724h.015M335.312 446.92c.476.027.884.052 1.346.052.585.026 1.058.259 1.466.648.571.567 1.116 1.086 1.659 1.629.583.621 1.195 1.243 1.807 1.863.189.156.365.363.339.596 0 .931-.054 1.811-.096 2.691 0 .31-.325.543-.597.517a34 34 0 0 1-1.753-.13c-.299-.026-.585-.077-.884-.102-.421-.027-.76-.234-1.061-.519-.066-.052-.121-.13-.188-.207-1.101-1.139-2.189-2.356-3.222-3.52-.365-.363-.556-.775-.53-1.294.014-.595.014-1.189.014-1.811.029-.182.232-.388.232-.388.612-.027 1.061 0 1.467 0zm23.235 8.644c-.408 0-.801-.051-1.223-.051-.679 0-1.264-.208-1.834-.596-1.482-1.061-3.017-2.097-4.565-3.156-.531-.364-.789-.855-.789-1.425-.014-.568-.04-1.139-.014-1.709 0-.388.313-.698.788-.698a14 14 0 0 1 1.794.027q.674.038 1.182.465c.122.077.244.181.353.258 1.522 1.243 3.03 2.459 4.633 3.624.762.568 1.21 1.241 1.331 2.097.069.285.123.57.137.854.027.13-.191.414-.34.388-.461 0-.951-.025-1.453-.051zm-8.873-242.697c.055-.13.122-.312.244-.466.055-.131.178-.207.299-.31.951-.777 1.888-1.553 2.841-2.305.176-.128.339-.206.489-.309.095-.052.339.026.366.13.095.258.217.543.272.801.395 2.33.76 4.683 1.154 7.014.082.466-.026.854-.42 1.112a324 324 0 0 1-3.03 2.072c-.122.076-.272.103-.421.128 0 0-.312-.052-.366-.182 0 0-.122-.232-.15-.361-.313-1.759-.639-3.468-.952-5.175-.081-.492-.176-.931-.27-1.423-.001-.21-.028-.442-.056-.726m-24.729 239.876c0 .182-.054.543-.082.905-.04.208-.284.466-.284.466-.693.052-1.169.131-1.672.131-.394 0-.789-.131-1.128-.337-.244-.182-.489-.337-.707-.543-1.386-1.01-2.649-2.097-3.995-3.159-.148-.13-.297-.233-.475-.363-.489-.413-.733-.905-.706-1.475.026-.44 0-.88 0-1.294 0-.284.244-.543.542-.621.98-.13 1.984-.181 2.975-.103.206 0 .449.103.667.232.325.233.625.492.883.777.992.931 1.943 1.89 2.894 2.847.204.207.395.44.598.622.339.31.516.672.489 1.138zm-61.728-63.042c-.148.647-.27 1.345-.474 2.044a2.7 2.7 0 0 1-.612 1.241c-.366.466-1.128.803-1.875.466a3.8 3.8 0 0 1-.992-.647c-1.006-.957-1.589-2.122-1.916-3.442-.218-.88-.258-1.76.026-2.64.204-.621.476-1.19.884-1.63.449-.517 1.032-.88 1.794-.905.421 0 .801.103 1.074.44.27.283.542.568.719.853a10.5 10.5 0 0 1 1.278 3.184c.068.311.068.673.094 1.036m38.468-48.654h-1.822s-.298-.079-.42-.13a1 1 0 0 1-.15-.156c0-.233.027-.361.082-.491.487-1.061.977-2.095 1.466-3.157.056-.103.122-.233.231-.31.151-.13.313-.258.49-.312.394-.103.815-.103 1.155-.128 1.591-.233 3.139-.519 4.673-.983a9 9 0 0 1 1.157-.233c.148-.051.434.128.461.259a.4.4 0 0 1 .027.102c.176 1.113.122 2.124-.246 3.159-.34.855-.992 1.501-1.982 1.786a8 8 0 0 1-1.157.258c-1.332.207-2.62.415-3.965.336m-160.141-39.284c-.504-.054-1.006-.078-1.481-.157a.66.66 0 0 1-.577-.568c-.137-.777-.198-1.579-.062-2.381.062-.26.184-.44.435-.57.189-.103.408-.207.631-.31 2.5-.931 4.981-1.89 7.494-2.796.136-.051.285-.103.421-.128.198-.026.394-.103.578-.051.624.155 1.244.337 1.84.516.232.079.279.466.097.595a8 8 0 0 0-.551.494c-2.12 1.552-4.227 3.131-6.358 4.709-.062.051-.145.079-.232.155-.476.389-1.027.57-1.624.494-.211 0-.421 0-.611-.027zm-9.077 7.348c0-.388-.014-.749 0-1.138.026-.361.171-.724.502-.982 1.074-.856 2.161-1.658 3.248-2.485.258-.207.543-.285.836-.285l3.423.078c.394 0 .658.258.693.621.026.388.074.724.061 1.113-.027.466-.177.854-.557 1.139-.232.181-.455.389-.679.568a281 281 0 0 0-3.763 2.77c-.232.181-.47.363-.728.466-.203.128-.455.232-.686.232-.605.026-1.203-.025-1.794-.052a.55.55 0 0 1-.482-.491c-.06-.491-.089-1.035-.15-1.553zm100.737 3.804c-.015.724-.069 1.294-.313 1.839-.095.259-.273.337-.571.259-2.201-.622-4.334-1.502-6.236-2.666a9.3 9.3 0 0 1-1.942-1.579c-1.224-1.293-2.229-2.768-3.073-4.322a12.6 12.6 0 0 1-1.304-4.064c-.217-1.268-.027-2.535.449-3.778a1.6 1.6 0 0 1 .203-.363c.096-.077.272-.179.381-.155.135.026.27.13.327.258.094.182.148.415.175.673.097.647.165 1.32.191 1.968.029 1.008.177 2.018.327 2.975.42 2.64 1.806 4.658 4.212 6.083 1.372.801 2.812 1.319 4.416 1.629.733.182 1.455.285 2.173.414.368.077.586.363.586.699v.13m2.892 36.88c1.672.181 3.52.386 5.422.568.394.026.733.233.978.57.692.931 1.426 1.89 2.16 2.873.15.182.041.465-.176.595-.722.44-1.508.673-2.325.88-.272.051-.516.079-.734.13-1.372.31-2.595-.026-3.655-.828a13 13 0 0 1-1.672-1.399c-.773-.828-1.385-1.76-1.997-2.666-.054-.103-.081-.18-.136-.258-.069-.207.15-.543.408-.543.492.024.981.078 1.727.078M108.16 307.74h-1.61c-.38 0-.727-.284-.739-.621v-1.837l.04-.13c.095-.233.156-.465.278-.673.108-.181.259-.31.408-.414.945-.906 1.902-1.786 2.861-2.717.481-.44 1.079-.621 1.74-.57.162.026.298.026.469.051.211.027.441.26.455.492.054.312.061.673.087.985.014.155.252.361.252.361h1.345c.469 0 .713.233.713.698 0 .182 0 .388-.034.57a2 2 0 0 1-.238.519c-.318.309-.624.621-.971.905-.815.673-1.644 1.32-2.472 2.019-.368.31-.769.414-1.238.388h-1.345zm179.419-13.536c-1.059-.076-2.104-.076-3.139-.18-.977-.079-1.916-.415-2.621-1.113-.082-.079-.11-.155-.054-.233l.243-.156c.027-.026.108-.026.108-.026h.165c2.418.208 4.864.157 7.296.13 1.06 0 2.093-.206 3.126-.388 1.534-.31 2.893-.959 4.171-1.786a18.6 18.6 0 0 0 3.314-3.053c.856-1.01 1.686-1.993 2.555-3.003.257-.285.542-.543.843-.75.054-.052.176-.052.176-.052s.299.181.299.31c0 .103 0 .207-.027.285a4 4 0 0 1-.203.568c-.191.389-.368.752-.585 1.139-1.168 2.122-2.746 3.959-4.442 5.668-.626.647-1.386 1.088-2.27 1.371a25 25 0 0 1-3.9.828c-1.67.234-3.383.365-5.055.441m-59.619 36.077c.148.052.271.025.339.079.299.179.571.388.869.595 1.4 1.035 2.841 1.89 4.429 2.509.151.078.299.131.423.182.27.155.49.361.598.647.122.284.217.596.339.931.272.906.556 1.786.829 2.719.041.233.067.466.095.724.014.155-.217.363-.38.337l-.272-.026c-1.577-.44-3.058-.983-4.444-1.657-.313-.156-.638-.284-.937-.466-.951-.595-1.644-1.397-1.916-2.458-.285-1.269-.489-2.51-.162-3.804.013-.105.122-.208.19-.312m70.3 24.146c-.626 0-1.21-.181-1.754-.414-1.249-.543-2.269-1.371-3.139-2.356-.244-.284-.285-.621-.095-.906.462-.698.965-1.344 1.414-1.992.243-.31.516-.361.936-.181 2.039.801 4.146 1.397 6.279 1.888.421.079.76.182 1.141.312 0 0 .204.076.244.155a.5.5 0 0 1 .082.258s-.054.182-.095.261c-.76 1.008-1.739 1.811-2.922 2.406-.706.362-1.492.595-2.091.569m-5.87 5.382a3.5 3.5 0 0 1-1.603-.233c-1.02-.44-1.901-.983-2.663-1.76-.34-.309-.368-.621-.029-1.01.545-.595 1.061-1.214 1.672-1.811 1.319-1.24.952-1.164 2.677-.491 1.4.543 2.853.931 4.335 1.346.516.128.977.258 1.481.414.136.051.217.337.122.466 0 0-.055.076-.108.103-1.522 1.294-3.248 2.277-5.15 2.793-.341.106-.666.158-.734.183M124.927 319.1c-.394 0-.788-.025-1.195-.051-.389-.025-.661-.337-.639-.672.128-.752.251-1.476.401-2.252.034-.232.231-.389.434-.517.191-.103.368-.181.53-.259a94 94 0 0 0 3.948-1.681c.624-.259 1.243-.389 1.868-.259.556.077 1.079.181 1.617.284.489.105.733.415.754.934.014.18 0 .388.026.542.061.75-.203 1.269-.957 1.605-1.25.491-2.424 1.06-3.633 1.655-.981.492-2.028.801-3.154.671m191.88 112.525c.678 0 1.453.026 2.186.051.681.027 1.32.233 1.849.725 1.087.931 2.174 1.811 3.261 2.717.354.31.545.673.571 1.113 0 .103.027.182.027.285.095 1.061-.122 1.268-1.223 1.189-.815-.051-1.644-.155-2.514-.207-.802-.026-1.455-.309-1.942-.854-.502-.44-1.02-.905-1.537-1.372-.883-.828-1.794-1.629-2.689-2.458-.163-.206-.34-.466-.558-.673-.054-.077-.054-.362.014-.388l.177-.13c.815-.023 1.535.002 2.378.002m11.495 13.794c-.029.492-.029.932-.082 1.397-.026.156-.246.364-.408.415-.733.128-1.495.128-2.227.103-.246-.026-.49-.13-.639-.285a142 142 0 0 1-3.192-2.562c-.313-.232-.516-.568-.516-.957.054-.906.08-1.811.122-2.666.026-.258.243-.466.502-.517.924-.181 1.847-.156 2.786-.026.216.026.461.156.61.31.939.983 1.849 1.993 2.746 2.977.217.233.27.519.27.803v1.008zm-64.934-63.147c.516-1.086 1.195-1.992 1.876-2.923.217-.285.638-.363.964-.182.163.105.34.208.516.312 1.101.801 1.862 1.786 2.432 3.002.707 1.579.476 3.029-.516 4.451-.461.698-1.154 1.113-2.038 1.268-.272.052-.666-.102-.762-.337l-.108-.102c0-.079-.04-.182-.067-.285-.489-1.553-1.169-3.028-1.957-4.45-.15-.234-.246-.493-.34-.754m75.055-175.669v3.131c0 .156-.026.285-.04.415-.027.155-.299.337-.476.284-.148-.079-.299-.103-.421-.181-.489-.337-.95-.673-1.455-.983-.542-.337-.869-.777-.936-1.372-.054-.388-.122-.75-.177-1.139-.244-1.293-.435-2.639-.679-3.906-.081-.596 0-1.138.273-1.657.434-.854.828-1.76 1.249-2.563a2 2 0 0 1 .244-.388c.095-.13.434-.13.502.026.122.206.273.414.34.621.353.724.598 1.527.911 2.251.394.777.501 1.63.516 2.484.054.983.081 1.993.122 2.977zm2.379 2.484a9 9 0 0 1-.095-1.138c0-1.528.041-3.028.041-4.528 0-.543.122-1.036.447-1.476.299-.466.585-.88.883-1.294a.434.434 0 0 1 .734.051c.694 1.217 1.427 2.485 2.052 3.727.177.284.231.647.231.957-.026 1.941-.108 3.883-.176 5.797-.026.13-.095.258-.177.388l-.135.079a.55.55 0 0 1-.368-.051c-1.182-.726-2.309-1.606-3.437-2.512M284.645 365.27a6.25 6.25 0 0 1-2.758-.647c-.38-.207-.748-.466-.991-.828-.122-.155-.151-.389-.055-.519.122-.128.204-.232.327-.309 1.087-.959 2.227-1.89 3.302-2.848.421-.388.883-.414 1.385-.232 1.658.596 3.247 1.165 4.892 1.734.163.077.339.208.516.284.122.078.148.312.069.389-.096.103-.177.233-.273.337a14.3 14.3 0 0 1-4.267 2.251c-.706.26-1.44.414-2.147.388m-165.589-49.895c-.026.361-.047.75-.061 1.113-.026.465-.223.854-.638 1.087-1.407.75-2.873 1.501-4.294 2.225-.243.13-.577.182-.87.207-.345.027-.699.027-1.032.027-.91 0-1.183-.182-1.237-1.192-.012-.337 0-.698-.012-1.01-.035-.62.203-1.06.74-1.448a69 69 0 0 0 3.165-2.33 2.2 2.2 0 0 1 1.4-.466c.789.026 1.556 0 2.323.284.285.131.502.364.516.648zm20.137-22.489c0-.232.014-.363-.014-.517-.026-.543.17-1.01.577-1.399.917-.931 1.895-1.837 2.995-2.563a4.8 4.8 0 0 1 1.455-.698c.522-.103 1.012-.025 1.406.285.368.258.701.543.965.853.537.648.951 1.374 1.284 2.097.122.233 0 .596-.251.725-.258.13-.516.259-.829.363-1.754.622-3.54 1.268-5.306 1.863-.421.13-.835.309-1.264.439-.135.027-.299.027-.42.052-.171.026-.443-.182-.45-.337-.053-.413-.114-.801-.148-1.163m84.336 1.087c-.014-.647.502-1.01 1.101-.854.679.13 1.332.363 1.971.673 1.413.749 2.758 1.655 4.091 2.588l.217.181c.177.181.27.414.244.647-.165 1.294-.558 2.484-1.345 3.546-.055.103-.151.155-.231.207-.218.155-.462.206-.707.077a7 7 0 0 1-.762-.414 14.9 14.9 0 0 1-4.131-4.944c-.271-.569-.515-1.139-.448-1.707m118.972 148.988c.285.207.556.415.829.622 1.127.982 2.227 1.992 3.41 2.949.148.13.299.284.394.44.095.13.217.337.217.517.027.57 0 1.113-.026 1.683 0 .259-.314.517-.612.543-.192.025-.394.077-.612.052a40 40 0 0 0-1.739-.103c-1.197-.079-1.197-.079-2.038-1.01a41 41 0 0 1-1.794-1.89 3.6 3.6 0 0 1-.747-1.371 6.7 6.7 0 0 1-.204-1.708c0-.545.204-.752.815-.778h1.197c.285.028.61.054.91.054m-77.204-40.01c-1.414-.026-2.596-.337-3.723-.777-1.169-.491-1.956-1.346-2.31-2.51-.244-.854-.366-1.76-.108-2.64.095-.388.285-.647.679-.673 1.005-.128 1.984-.337 2.962-.31a.88.88 0 0 1 .762.57s.055.181.108.284c.38 1.605 1.127 3.106 1.971 4.556.202.309.339.673.487 1.01.082.128-.122.44-.122.44-.394-.001-.638.024-.706.05m85.166 55.383h-.572a2.8 2.8 0 0 1-1.534-.389c-1.25-.828-2.487-1.63-3.656-2.432-.284-.233-.406-.543-.406-.906 0-.57 0-1.113.026-1.681.014-.415.287-.673.72-.724.246-.052.461-.052.707-.052 1.481-.051 1.508-.051 2.635.777.98.723 1.903 1.475 2.868 2.199.487.363.76.777.815 1.32.04.465.067.957.095 1.423.027.207-.246.414-.489.44h-1.209zM135.734 300.391v.259c.061.672-.211 1.189-.759 1.604a206 206 0 0 0-3.71 2.846c-.496.415-1.053.466-1.644.44-1.305-.103-1.468-.388-1.482-1.475v-.44c0-1.371-.074-1.294 1.088-2.123 1.101-.775 2.247-1.526 3.348-2.328.836-.57 1.746-.596 2.711-.414.204 0 .442.258.447.491.015.389.001.751.001 1.14m200.774 128.776c-.556 0-1.086-.051-1.602-.079-1.508-.051-1.264.079-2.053-1.035-.76-1.087-1.508-2.123-2.27-3.182a5 5 0 0 1-.298-.648c-.041-.077.096-.31.096-.31l.393-.079c1.346-.076 2.677-.025 4.009.337.368.079.733.208 1.073.415 1.684.957 2.896 2.302 3.655 4.037a.46.46 0 0 1-.448.596h-2.555zm.883-210.53c-.04.079-.122.259-.246.415-.828 1.138-1.71 2.225-2.54 3.364-.082.103-.203.18-.203.18-.218.157-.461.079-.461.079-.123-.207-.218-.337-.273-.466-.394-1.423-.788-2.846-1.18-4.244a6 6 0 0 1-.151-.879 2.36 2.36 0 0 1 .204-1.217c.516-1.139.978-2.303 1.521-3.417.054-.128.15-.233.246-.337.081-.103.339-.103.366-.025.122.128.232.233.272.361.815 1.968 1.617 3.96 2.446 5.952zm-200.61 75.543c-.02.233-.034.414-.062.622-.047.179-.135.361-.318.465-.224.13-.415.233-.639.363-2.208.983-4.395 1.993-6.581 3a2.6 2.6 0 0 1-.551.234c-.476.155-.972.258-1.455.13-.394-.103-.774-.182-1.168-.285-.171-.051-.224-.363-.123-.491.151-.103.273-.259.429-.389 1.725-1.346 3.499-2.665 5.238-4.036.51-.415 1.073-.596 1.78-.596.795 0 1.584-.077 2.399-.102 0 0 .379 0 .571.051 0 0 .27.128.298.232.094.258.149.568.182.802m215.556 149.506q.063-.699.163-1.399a.47.47 0 0 1 .395-.389 6 6 0 0 1 2.35-.076c.217.051.436.155.639.309 1.154 1.01 2.295 1.967 3.45 2.977.244.233.395.543.395.88v1.553c-.027.31-.313.57-.612.543a40 40 0 0 1-2.5-.44 2 2 0 0 1-.679-.285c-1.032-.595-2.119-1.217-3.139-1.811-.244-.13-.394-.337-.394-.595-.027-.415 0-.855 0-1.268zm-17.69-.258c-.366 0-.856 0-1.345-.051-.421 0-.76-.156-1.099-.415-.98-.802-1.984-1.63-2.896-2.433-.34-.258-.489-.595-.489-1.01v-.828c.014-.258.312-.543.585-.543.978 0 1.997 0 3.017.026.299 0 .585.077.815.259a89 89 0 0 1 3.18 2.328c.244.182.393.414.434.725 0 0 .027.258.054.413.055 1.295.055 1.632-1.562 1.528zm-30.45-151.006c.081-.337.081-.648.15-.907.122-.491.72-.854 1.264-.854.162 0 .38.026.557.103.449.103.855.31 1.195.596 1.603 1.295 2.5 2.898 2.879 4.839.069.491-.026.957-.231 1.397-.217.543-.828.829-1.4.698a2.67 2.67 0 0 1-1.344-.595 14 14 0 0 1-1.197-1.086c-.841-.906-1.357-1.993-1.672-3.157-.119-.336-.119-.725-.201-1.034m28.9 143.086h-3.152c-.447 0-.841-.13-1.209-.44-.924-.854-1.902-1.655-2.839-2.51-.069-.077-.15-.155-.15-.155-.162-.207-.067-.517.108-.543.192-.052.394-.103.586-.103h5.081c.244 0 .49.026.747.051.299.052.572.131.815.31 1.183.959 2.338 1.839 3.52 2.796 0 0 .081.077.108.128 0 0 0 .337-.108.363-.165.052-.353.131-.543.131h-2.963v-.028m9.864 3.029 2.201-.077c.394-.026.788.051 1.127.258 1.088.673 2.161 1.346 3.236 2.069.148.079.271.261.325.415.094.519.122 1.035 0 1.553-.055.207-.272.44-.489.44-.858.026-1.713.026-2.555.026-.189-.026-.421-.079-.557-.182a3.2 3.2 0 0 1-.788-.414c-1.713-1.113-3.438-2.175-5.217-3.286-.029-.052-.069-.052-.096-.103-.081-.105-.178-.208-.178-.208-.04-.233.097-.337.274-.361l1.371-.079c.436-.025.911-.025 1.346-.051m-1.154-6.988h1.942c.368 0 .693.128.966.337 0 0 .122.128.203.207 1.453 1.217 2.948 2.433 4.416 3.675.094.079.163.233.217.363.027.052-.026.181-.069.233l-.203.052c-1.753.051-3.424.025-5.015-.157-.42-.051-.788-.18-1.086-.44-1.25-1.164-2.528-2.328-3.696-3.493a.8.8 0 0 1-.177-.415s.082-.181.148-.233l.273-.076c.748-.027 1.412-.027 2.079-.027.002-.001.002-.001.002-.026m5.57-224.531c-.027-.828-.027-1.63-.054-2.355 0-.492.054-.932.325-1.372.49-.879.978-1.785 1.453-2.614.137-.232.299-.414.449-.595.096-.156.393-.13.447.026.408.777.653 1.553.926 2.407.108.284.108.646.108.982-.029.492-.082 1.01-.123 1.528-.082.749-.204 1.501-.272 2.251-.055.233-.081.465-.122.698-.11.519-.327.906-.72 1.192-.543.414-1.087.777-1.657 1.189-.151.103-.462-.025-.49-.206-.026-.182-.082-.364-.095-.543a70 70 0 0 1-.175-2.588m-224.919 104.76c.09-1.578-.066-1.371 1.061-2.381.497-.465 1.026-.905 1.548-1.345.226-.182.517-.285.815-.285.972.026 1.882.156 2.813.285a.73.73 0 0 1 .542.465c.233.543.335 1.113.349 1.683 0 .155-.13.362-.259.465-.183.208-.455.363-.714.519-.699.388-1.4.749-2.043 1.189-1.096.699-2.284.828-3.567.803-.217 0-.469-.233-.484-.44-.032-.363-.047-.751-.061-.958m154.495 84.653c-.055.465-.081.931-.15 1.397-.026.077-.202.181-.325.259 0 0-.191-.026-.273-.079a1.3 1.3 0 0 1-.339-.31c-.325-.44-.638-.931-.977-1.397-1.293-2.018-2.406-4.141-3.56-6.211-.191-.388-.176-.75.055-1.113.217-.363.516-.699.91-.906a.59.59 0 0 1 .583 0c.123.079.246.156.34.233 2.433 2.2 3.75 4.866 3.736 8.127m-31.223-35.377s-.556-.079-.978-.208a8 8 0 0 1-3.152-2.277s-.081-.181-.108-.259c0 0 .027-.337.108-.389.108-.076.244-.155.381-.206 1.453-.44 2.919-.854 4.401-1.269q.57-.154.979.233c.679.699 1.359 1.345 2.079 2.045.368.335.313.749-.123 1.061-.516.31-1.032.621-1.493.932-.517.259-1.13.362-2.094.337m-123.148-59.912c.612.052 1.264.077 1.903.128.393.052.664.285.704.622.029.931.069 1.786.09 2.691a.563.563 0 0 1-.551.57c-.347 0-.693-.025-1.06-.052-1.06-.077-2.146-.155-3.247-.207-.53-.051-1.074-.102-1.623-.206-.436-.054-.693-.312-.83-.725 0 0-.136-.259-.122-.388a1 1 0 0 1 .156-.492c.027-.077.103-.156.191-.233.74-.491 1.455-.982 2.18-1.475.259-.156.551-.233.843-.233.448-.026.883 0 1.366 0m-7.977 9.963c-.319 0-.617.026-.924 0-.278-.025-.577-.285-.624-.543l-.049-.258c-.087-1.475-.026-1.604 1.237-2.304.768-.388 1.549-.775 2.352-1.19.365-.182.725-.31 1.148-.259.821.103 1.657.259 2.485.389.191.052.401.389.354.568-.096.415-.231.828-.339 1.217-.116.337-.34.596-.667.752-.808.388-1.61.775-2.392 1.138a3.9 3.9 0 0 1-1.855.466h-.727v.024M342.54 231.63v-2.123c0-.361.122-.673.421-.88.762-.543 1.549-1.01 2.296-1.526.273-.207.748.025.789.337.026.155.054.284.054.44.069 1.655 0 3.286-.231 4.942-.041.388-.191.724-.313 1.088-.366.931-1.223 1.371-2.227 1.24-.342-.051-.681-.335-.681-.646-.054-.93-.108-1.81-.108-2.872m-9.809 223.727c-.366-.025-.774-.076-1.168-.076a1.54 1.54 0 0 1-1.182-.595c-.436-.571-.856-1.165-1.278-1.735-.34-.44-.679-.906-1.047-1.397-.082-.103-.148-.232-.217-.361-.096-.207.095-.492.34-.492.366-.026.706-.026 1.046-.052.38-.026.625-.207.774-.57a12 12 0 0 1 .381-.931c.081-.155.421-.155.516-.026.108.13.204.233.271.337.952 1.579 1.89 3.184 2.8 4.737.122.207.191.44.299.647.122.284-.137.595-.476.57-.366 0-.693-.026-1.06-.026v-.03m-27.146-126.344c.163.026.462.026.788.079.57.077.964.44 1.168.932a2.24 2.24 0 0 1-.081 1.681c-.272.57-.693 1.035-1.29 1.319-.937.415-1.861.701-2.882.596 0 0-.285 0-.434-.052-.829-.207-1.02-.568-.924-1.217.095-.542.217-1.111.365-1.68.082-.31.273-.596.531-.804.789-.543 1.604-.827 2.759-.854m37.01-105.432c-.026.13-.054.338-.067.517-.026.079-.135.182-.135.182-.136.025-.259 0-.259 0l-.203-.103a9.7 9.7 0 0 1-2.174-3.21c-.246-.543-.3-1.164-.246-1.811.042-.519.15-1.01.246-1.528.216-1.086.57-2.097.992-3.105a.9.9 0 0 1 .244-.337l.108-.051c.163-.051.246-.026.285.103.108.516.231 1.035.299 1.553.177 1.448.339 2.898.543 4.373q.184 1.671.367 3.417m-3.287 6.004v3.131c0 .207-.067.44-.122.673l-.122.079s-.191.051-.272 0c0 0-.191-.208-.285-.337-.815-1.32-1.536-2.719-2.092-4.193-.096-.337-.163-.648-.232-.957-.122-.647.069-1.217.53-1.709a4.3 4.3 0 0 1 1.74-1.061c.365-.13.707.051.76.415.055.361.081.749.081 1.138v2.821zM253.19 365.27c-1.412 0-2.717-.465-3.736-1.475-.108-.13-.244-.31-.34-.44-.095-.155-.027-.415.123-.519q.183-.115.365-.233c.884-.335 1.781-.672 2.638-1.008.284-.13.598-.051.855.103.163.103.339.182.49.31.638.415 1.278.88 1.916 1.32.15.077.243.181.365.284.218.182.246.543 0 .725a3.3 3.3 0 0 1-2.118.931c.001.002-.393.002-.558.002m95.438-142.854c-.027.155-.027.258-.069.337-.299.491-.747.88-1.278 1.165-.054.025-.203-.027-.243-.079a1.1 1.1 0 0 1-.259-.363 97 97 0 0 1-1.739-4.788c-.122-.285-.122-.543.027-.801.42-.725.828-1.399 1.278-2.072.04-.077.189-.156.244-.128.15.025.244.128.366.207l.054.103c.517 1.941 1.007 3.882 1.523 5.77.069.234.069.493.096.649m-90.463 147.72c-.423 0-.858-.079-1.251-.337-.38-.259-.557-.622-.557-1.087 0-.363.15-.724.354-1.061.475-.725 1.032-1.399 1.698-1.916.204-.182.475-.207.693-.051.856.465 1.713.956 2.542 1.475.27.155.298.492.122.75-.572.803-1.291 1.423-2.174 1.916-.436.233-.94.337-1.427.311m-24.717-41.253v.596c-.014.233-.244.388-.516.363-.856-.13-1.685-.389-2.461-.855-.597-.361-1.086-.828-1.357-1.5-.299-.752.244-1.708 1.06-1.916.856-.207 1.658-.103 2.499.13.259.103.49.361.516.647.123.828.219 1.683.313 2.535zm69.798-32.142c-.027.105-.054.337-.122.545a1.32 1.32 0 0 1-1.249.879c-.395 0-.789-.077-1.155-.284-.884-.519-1.305-1.32-1.427-2.226-.014-.44.122-.853.447-1.189.368-.44 1.061-.597 1.644-.364 1.087.363 1.835 1.398 1.862 2.639m-61.537-12.007c-.189-.079-.38-.103-.583-.182-.313-.128-.517-.543-.449-.801.082-.182.15-.337.258-.519.734-1.138 1.862-1.811 3.22-1.992.163-.026.299-.026.476 0 .556.026.978.595.72 1.112-.774 1.423-2.038 2.124-3.642 2.382"/><path fill="#EBB432" d="M229.753 306.11c0 .233-.366.57-.612.543-.188-.026-.42-.026-.597-.13-1.331-.777-2.337-1.836-2.853-3.338-.055-.155-.055-.414-.055-.673.026-.258.394-.517.666-.466.151.026.313.052.449.079 1.534.828 2.514 2.069 3.003 3.673.026.105-.001.208-.001.312"/></g></svg>